<svg width="1440" height="996" viewBox="0 0 1440 996" fill="none" xmlns="http://www.w3.org/2000/svg">
<path d="M1467.29 0.999814C1483.25 37.3598 1496.61 74.1634 1502.96 110.719C1505.02 122.571 1506.34 134.461 1504.77 145.755C1501.56 168.786 1486.61 187.902 1477.82 209.177C1466.66 236.198 1465.74 267.107 1474.77 297.876C1481.56 321.029 1493.57 348.661 1490.96 371.119C1488.59 391.52 1457.11 402.983 1441.65 416.209C1425.82 429.757 1416.86 448.077 1415.3 467.878C1414.48 478.252 1415.68 489.066 1419.01 499.84C1422.19 510.144 1431.01 521.315 1418.59 527.662C1414.49 529.759 1409.14 530.299 1404.43 531.673C1388.06 536.449 1381.05 552.636 1389.07 567.129M1467.66 2.48455C1484.2 38.355 1497.9 74.9577 1504.26 111.324C1506.38 123.436 1507.47 135.485 1506.09 147.057C1504.4 161.011 1498.58 173.622 1492.28 186.106C1487.98 194.628 1483.46 203.09 1479.86 211.88C1472.77 229.244 1469.43 248.041 1469.78 267.245C1469.99 278.474 1471.46 289.841 1474.22 301.163C1476.13 309.109 1478.62 317.553 1480.92 326.121C1484.14 338.165 1486.97 350.455 1487.43 362.066C1487.6 366.236 1487.46 370.318 1486.92 374.256C1484.65 390.531 1465.24 401.605 1450.02 412.375C1445.92 415.257 1442.13 418.118 1439.04 421.054C1426.3 433.096 1418.61 448.485 1416.21 465.201C1415.79 468.079 1415.53 470.998 1415.43 473.948C1415.06 484.468 1416.66 495.417 1420.18 506.346C1422.27 512.82 1426.4 519.62 1426.38 525.444C1426.36 529.03 1424.75 532.223 1420.17 534.76C1416.16 536.977 1410.94 537.705 1406.32 539.227C1390.27 544.501 1383.11 560.788 1390.88 575.52M1468.04 3.96847C1485.14 39.35 1499.2 75.7514 1505.55 111.929C1507.74 124.304 1508.6 136.51 1507.41 148.358C1505.93 162.577 1500.35 175.494 1494.19 188.263C1489.99 196.982 1485.52 205.633 1481.9 214.583C1474.75 232.261 1471.03 251.255 1470.71 270.528C1470.51 281.796 1471.49 293.158 1473.66 304.45C1475.16 312.387 1477.19 320.79 1479.03 329.304C1481.58 341.278 1483.74 353.478 1483.75 365.133C1483.76 369.314 1483.51 373.419 1482.87 377.397C1480.21 393.865 1461.35 405.49 1446.83 416.813C1442.93 419.834 1439.34 422.841 1436.43 425.902C1424.5 438.467 1417.59 454.177 1415.95 471.149C1415.66 474.068 1415.54 477.029 1415.56 480.02C1415.64 490.687 1417.64 501.772 1421.36 512.856C1423.57 519.423 1427.7 526.314 1427.73 532.267C1427.75 535.936 1426.18 539.206 1421.74 541.862C1417.83 544.2 1412.75 545.115 1408.22 546.784C1392.47 552.555 1385.18 568.944 1392.69 583.913M1468.41 5.45117C1486.08 40.3445 1500.5 76.5457 1506.84 112.531C1509.09 125.168 1509.73 137.532 1508.73 149.657C1507.47 164.142 1502.12 177.365 1496.11 190.418C1492.01 199.336 1487.59 208.174 1483.94 217.284C1476.74 235.274 1472.65 254.467 1471.63 273.807C1471.04 285.115 1471.55 296.475 1473.11 307.735C1474.21 315.664 1475.75 324.025 1477.13 332.482C1479.02 344.389 1480.5 356.496 1480.07 368.194C1479.93 372.384 1479.55 376.514 1478.82 380.532C1475.77 397.195 1457.5 409.402 1443.65 421.245C1439.94 424.411 1436.55 427.551 1433.82 430.744C1422.67 443.807 1416.56 459.864 1415.69 477.088C1415.54 480.051 1415.54 483.053 1415.69 486.084C1416.22 496.897 1418.62 508.118 1422.54 519.356C1424.86 526.018 1429 532.997 1429.08 539.081C1429.14 542.833 1427.61 546.182 1423.31 548.955C1419.49 551.416 1414.55 552.516 1410.1 554.332C1394.67 560.601 1387.24 577.089 1394.5 592.299M1468.79 6.93582C1487.03 41.3396 1501.79 77.34 1508.14 113.136C1510.45 126.036 1510.89 138.563 1510.05 150.958C1509.04 165.716 1503.9 179.236 1498.03 192.576C1494.03 201.69 1489.66 210.718 1485.99 219.988C1478.73 238.291 1474.26 257.681 1472.56 277.089C1471.57 288.437 1471.59 299.796 1472.56 311.022C1473.25 318.944 1474.33 327.261 1475.24 335.665C1476.47 347.502 1477.28 359.519 1476.4 371.261C1476.11 375.461 1475.6 379.616 1474.78 383.671C1471.34 400.528 1453.63 413.293 1440.46 425.682C1436.95 428.989 1433.76 432.266 1431.21 435.59C1420.84 449.149 1415.53 465.553 1415.43 483.032C1415.41 486.038 1415.54 489.081 1415.82 492.153C1416.81 503.112 1419.61 514.47 1423.72 525.861C1426.16 532.618 1430.29 539.685 1430.44 545.9C1430.52 549.736 1429.04 553.165 1424.88 556.053C1421.17 558.638 1416.35 559.922 1412 561.885C1396.88 568.652 1389.31 585.242 1396.31 600.688M1469.16 8.41852C1487.97 42.3334 1503.09 78.1329 1509.43 113.74C1511.81 126.901 1512.03 139.587 1511.37 152.258C1510.58 167.282 1505.67 181.107 1499.95 194.732C1496.04 204.043 1491.73 213.259 1488.02 222.689C1480.71 241.305 1475.87 260.892 1473.49 280.369C1472.1 291.757 1471.63 303.113 1472.01 314.306C1472.28 322.219 1472.92 330.498 1473.34 338.844C1473.95 350.618 1474 362.529 1472.72 374.323C1472.26 378.53 1471.64 382.711 1470.73 386.808C1466.9 403.859 1449.74 417.179 1437.28 430.116C1433.96 433.562 1430.96 436.979 1428.6 440.434C1419.01 454.486 1414.5 471.241 1415.17 488.975C1415.28 492.024 1415.55 495.108 1415.95 498.223C1417.39 509.328 1420.59 520.824 1424.89 532.368C1427.45 539.219 1431.59 546.376 1431.78 552.721C1431.91 556.64 1430.47 560.149 1426.45 563.152C1422.83 565.86 1418.15 567.329 1413.89 569.439C1399.09 576.704 1391.38 593.394 1398.11 609.08M1469.54 9.90317C1488.92 43.3285 1504.39 78.9272 1510.72 114.345C1513.17 127.767 1513.16 140.612 1512.69 153.559C1512.12 168.85 1507.44 182.978 1501.86 196.889C1498.05 206.398 1493.8 215.803 1490.07 225.392C1482.7 244.32 1477.49 264.105 1474.42 283.65C1472.62 295.077 1471.66 306.433 1471.46 317.592C1471.31 325.498 1471.49 333.734 1471.45 342.023C1471.4 353.732 1470.77 365.547 1469.04 377.386C1468.43 381.602 1467.69 385.81 1466.69 389.944C1462.46 407.189 1445.86 421.063 1434.09 434.55C1430.96 438.135 1428.16 441.688 1425.99 445.278C1417.18 459.822 1413.48 476.929 1414.91 494.918C1415.15 498.009 1415.55 501.135 1416.08 504.289C1417.97 515.541 1421.57 527.172 1426.07 538.872C1428.75 545.817 1432.88 553.063 1433.14 559.538C1433.3 563.54 1431.89 567.133 1428.02 570.25C1424.5 573.084 1419.95 574.734 1415.78 576.99C1401.29 584.753 1393.44 601.544 1399.92 617.467M1469.91 11.3871C1489.86 44.3242 1505.68 79.7209 1512.01 114.95C1514.52 128.634 1514.3 141.636 1514 154.86C1513.66 170.417 1509.21 184.851 1503.78 199.047C1500.07 208.753 1495.87 218.346 1492.11 228.095C1484.68 247.336 1479.09 267.318 1475.34 286.931C1473.15 298.398 1471.69 309.753 1470.9 320.879C1470.34 328.778 1470.06 336.973 1469.55 345.206C1468.84 356.848 1467.53 368.567 1465.36 380.451C1464.59 384.676 1463.73 388.91 1462.64 393.083C1458.02 410.523 1441.98 424.949 1430.9 438.986C1427.96 442.709 1425.36 446.4 1423.37 450.124C1415.34 465.157 1412.45 482.62 1414.65 500.863C1415.02 503.997 1415.55 507.165 1416.21 510.359C1418.55 521.756 1422.54 533.525 1427.24 545.378C1430.04 552.418 1434.17 559.754 1434.48 566.358C1434.68 570.443 1433.32 574.12 1429.59 577.348C1426.16 580.309 1421.75 582.14 1417.66 584.543C1403.49 592.802 1395.5 609.696 1401.72 625.857M1470.29 12.8697C1490.8 45.3179 1506.98 80.5139 1513.31 115.553C1515.88 129.499 1515.43 142.659 1515.32 156.16C1515.2 171.982 1510.99 186.722 1505.7 201.203C1502.09 211.106 1497.94 220.888 1494.15 230.798C1486.68 250.352 1480.71 270.531 1476.27 290.213C1473.68 301.72 1471.73 313.074 1470.35 324.166C1469.38 332.059 1468.63 340.21 1467.66 348.386C1466.29 359.963 1464.3 371.586 1461.69 383.516C1460.76 387.751 1459.78 392.008 1458.6 396.221C1453.58 413.854 1438.1 428.831 1427.72 443.421C1424.97 447.282 1422.57 451.111 1420.77 454.967C1413.5 470.488 1411.42 488.307 1414.4 506.804C1414.9 509.981 1415.56 513.19 1416.34 516.426C1419.13 527.97 1423.53 539.876 1428.43 551.883C1431.34 559.017 1435.47 566.441 1435.84 573.177C1436.07 577.345 1434.76 581.108 1431.16 584.445C1427.84 587.533 1423.56 589.545 1419.56 592.096C1405.7 600.853 1397.57 617.847 1403.53 634.246M1470.66 14.3544C1491.75 46.313 1508.28 81.3081 1514.6 116.159C1517.24 130.367 1516.56 143.684 1516.64 157.463C1516.74 173.55 1512.76 188.596 1507.61 203.362C1504.1 213.463 1500 223.433 1496.19 233.501C1488.66 253.368 1482.32 273.746 1477.2 293.494C1474.2 305.041 1471.76 316.394 1469.8 327.452C1468.41 335.338 1467.2 343.448 1465.77 351.568C1463.74 363.077 1461.06 374.605 1458.01 386.581C1456.93 390.824 1455.82 395.109 1454.55 399.361C1449.14 417.188 1434.21 432.715 1424.53 447.859C1421.98 451.857 1419.77 455.824 1418.15 459.815C1411.66 475.82 1410.39 493.998 1414.13 512.75C1414.77 515.97 1415.56 519.22 1416.47 522.497C1419.71 534.186 1424.51 546.229 1429.6 558.391C1432.63 565.618 1436.76 573.133 1437.19 579.998C1437.45 584.251 1436.19 588.099 1432.73 591.547C1429.51 594.764 1425.36 596.955 1421.45 599.652C1407.9 608.906 1399.63 626.003 1405.34 642.64M1471.04 15.8371C1492.69 47.3062 1509.57 82.1013 1515.89 116.761C1518.6 131.232 1517.69 144.706 1517.96 158.763C1518.27 175.115 1514.53 190.465 1509.53 205.519C1506.11 215.817 1502.07 225.975 1498.23 236.205C1490.65 256.385 1483.93 276.959 1478.13 296.777C1474.73 308.363 1471.79 319.714 1469.25 330.739C1467.43 338.618 1465.77 346.686 1463.88 354.75C1461.18 366.194 1457.83 377.626 1454.33 389.648C1453.1 393.899 1451.87 398.209 1450.51 402.5C1444.7 420.521 1430.33 436.596 1421.35 452.295C1418.98 456.432 1416.98 460.536 1415.54 464.661C1409.82 481.149 1409.37 499.688 1413.88 518.696C1414.65 521.959 1415.56 525.25 1416.6 528.567C1420.3 540.402 1425.49 552.582 1430.78 564.896C1433.93 572.218 1438.06 579.822 1438.54 586.818C1438.84 591.153 1437.62 595.088 1434.31 598.645C1431.18 601.991 1427.17 604.368 1423.34 607.205C1410.14 616.984 1401.7 634.154 1407.15 651.031M1471.41 17.3211C1493.63 48.3026 1510.87 82.896 1517.18 117.365C1519.95 132.097 1518.82 145.73 1519.28 160.062C1519.81 176.679 1516.3 192.336 1511.44 207.675C1508.13 218.171 1504.14 228.516 1500.27 238.906C1492.63 259.398 1485.54 280.171 1479.05 300.057C1475.26 311.683 1471.81 323.034 1468.69 334.024C1466.46 341.895 1464.34 349.922 1461.98 357.928C1458.63 369.305 1454.59 380.643 1450.65 392.71C1449.26 396.972 1447.91 401.305 1446.46 405.636C1440.26 423.852 1426.44 440.474 1418.16 456.729C1415.98 461.002 1414.17 465.243 1412.93 469.505C1407.97 486.475 1408.33 505.378 1413.62 524.638C1414.52 527.943 1415.57 531.277 1416.73 534.635C1420.88 546.616 1426.47 558.933 1431.95 571.401C1435.22 578.817 1439.35 586.51 1439.89 593.636C1440.23 598.054 1439.06 602.078 1435.87 605.741C1432.85 609.219 1428.97 611.773 1425.23 614.756C1412.34 625.032 1403.76 642.304 1408.95 659.418M1471.78 18.8057C1494.58 49.2977 1512.17 83.6911 1518.48 117.972C1521.31 132.965 1519.96 146.755 1520.6 161.366C1521.35 178.247 1518.08 194.21 1513.36 209.834C1510.14 220.527 1506.21 231.061 1502.31 241.61C1494.62 262.416 1487.16 283.387 1479.98 303.34C1475.79 315.007 1471.84 326.355 1468.15 337.313C1465.49 345.177 1462.91 353.162 1460.09 361.113C1456.07 372.424 1451.36 383.667 1446.98 395.777C1445.43 400.048 1443.96 404.407 1442.42 408.777C1435.83 427.186 1422.55 444.355 1414.98 461.166C1412.99 465.576 1411.38 469.955 1410.33 474.352C1406.13 491.803 1407.31 511.068 1413.37 530.584C1414.4 533.932 1415.58 537.307 1416.86 540.706C1421.47 552.834 1427.46 565.286 1433.14 577.91C1436.52 585.42 1440.66 593.202 1441.25 600.458C1441.62 604.96 1440.5 609.074 1437.45 612.844C1434.54 616.453 1430.78 619.183 1427.13 622.314C1414.55 633.088 1405.83 650.459 1410.76 667.813M1472.16 20.2885C1495.52 50.2909 1513.37 84.4785 1519.77 118.574C1522.63 133.827 1521.08 147.777 1521.92 162.664C1522.88 179.81 1519.85 196.079 1515.28 211.99C1512.16 222.88 1508.28 233.603 1504.35 244.312C1496.61 265.43 1488.77 286.597 1480.91 306.619C1476.31 318.325 1471.87 329.671 1467.59 340.596C1464.52 348.452 1461.47 356.396 1458.19 364.29C1453.52 375.535 1448.13 386.682 1443.3 398.838C1441.6 403.118 1440 407.503 1438.37 411.912C1431.39 430.517 1418.66 448.231 1411.79 465.599C1410 470.145 1408.58 474.662 1407.71 479.195C1404.27 497.126 1406.28 516.754 1413.1 536.524C1414.27 539.915 1415.58 543.331 1416.99 546.771C1422.04 559.045 1428.43 571.634 1434.31 584.411C1437.81 592.016 1441.95 599.888 1442.6 607.274C1443 611.858 1441.93 616.062 1439.02 619.938C1436.21 623.679 1432.58 626.585 1429.02 629.862C1416.76 641.133 1407.89 658.607 1412.57 676.197M1472.53 21.7724C1496.46 51.2859 1514.67 85.2721 1521.06 119.179C1523.99 134.694 1522.21 148.8 1523.24 163.965C1524.41 181.377 1521.62 197.952 1517.19 214.147C1514.17 225.235 1510.35 236.146 1506.39 247.015C1498.59 268.446 1490.38 289.812 1481.83 309.902C1476.84 321.648 1471.89 332.992 1467.04 343.884C1463.54 351.732 1460.04 359.634 1456.3 367.473C1450.96 378.651 1444.89 389.704 1439.62 401.905C1437.77 406.195 1436.05 410.604 1434.33 415.052C1426.95 433.85 1414.77 452.11 1408.61 470.036C1407 474.72 1405.78 479.374 1405.1 484.042C1402.41 502.453 1405.25 522.445 1412.84 542.47C1414.13 545.903 1415.58 549.36 1417.12 552.842C1422.62 565.261 1429.41 577.989 1435.49 590.919C1439.11 598.617 1443.24 606.578 1443.95 614.095C1444.39 618.764 1443.37 623.058 1440.59 627.038C1437.88 630.913 1434.38 633.992 1430.9 637.417C1418.96 649.185 1409.95 666.76 1414.37 684.59M1472.91 23.2557C1497.41 52.281 1515.97 86.0657 1522.36 119.782C1525.34 135.559 1523.34 149.823 1524.56 165.265C1525.95 182.941 1523.39 199.823 1519.11 216.303C1516.19 227.589 1512.42 238.687 1508.44 249.716C1500.58 271.459 1491.99 293.022 1482.76 313.182C1477.37 324.967 1471.92 336.309 1466.49 347.169C1462.57 355.008 1458.61 362.869 1454.4 370.652C1448.4 381.762 1441.66 392.722 1435.94 404.967C1433.94 409.267 1432.09 413.701 1430.28 418.187C1422.51 437.179 1410.87 455.983 1405.42 474.469C1404 479.288 1402.98 484.079 1402.49 488.884C1400.56 507.775 1404.22 528.133 1412.58 548.412C1414.01 551.888 1415.58 555.388 1417.25 558.909C1423.21 571.474 1430.4 584.338 1436.67 597.423C1440.4 605.216 1444.54 613.265 1445.3 620.913C1445.78 625.665 1444.81 630.051 1442.16 634.136C1439.56 638.144 1436.19 641.398 1432.8 644.97C1421.17 657.235 1412.02 674.912 1416.18 692.979M1473.28 24.7398C1498.35 53.2755 1517.35 86.8643 1523.65 120.388C1526.74 136.43 1524.47 150.847 1525.87 166.566C1527.48 184.508 1525.16 201.694 1521.03 218.46C1518.2 229.942 1514.48 241.229 1510.48 252.419C1502.57 274.476 1493.6 296.236 1483.69 316.463C1477.89 328.288 1471.94 339.626 1465.93 350.456C1461.59 358.286 1457.17 366.106 1452.51 373.834C1445.84 384.877 1438.43 395.743 1432.26 408.033C1430.1 412.341 1428.13 416.801 1426.23 421.327C1418.07 440.512 1406.97 459.861 1402.23 478.906C1401 483.862 1400.17 488.792 1399.87 493.731C1398.7 513.1 1403.2 533.823 1412.32 554.357C1413.88 557.874 1415.58 561.417 1417.38 564.98C1423.79 577.691 1431.37 590.692 1437.84 603.931C1441.69 611.817 1445.83 619.957 1446.65 627.733C1447.16 632.567 1446.25 637.046 1443.73 641.234C1441.24 645.375 1437.97 648.797 1434.69 652.523C1423.33 665.262 1414.08 683.063 1417.98 701.369M1473.66 26.2238C1499.29 54.2706 1518.65 87.6587 1524.94 120.992C1528.1 137.295 1525.6 151.87 1527.2 167.868C1529.01 186.073 1526.94 203.566 1522.95 220.618C1520.22 232.298 1516.56 243.774 1512.52 255.123C1504.56 277.492 1495.22 299.451 1484.62 319.746C1478.42 331.611 1471.96 342.945 1465.38 353.743C1460.62 361.564 1455.74 369.342 1450.61 377.016C1443.28 387.991 1435.2 398.765 1428.59 411.098C1426.27 415.416 1424.18 419.9 1422.19 424.465C1413.63 443.846 1403.08 463.738 1399.05 483.341C1398 488.434 1397.37 493.499 1397.26 498.575C1396.84 518.424 1402.17 539.511 1412.07 560.3C1413.76 563.862 1415.59 567.444 1417.51 571.048C1424.37 583.904 1432.35 597.041 1439.02 610.435C1442.99 618.417 1447.13 626.645 1448 634.552C1448.55 639.469 1447.69 644.04 1445.3 648.331C1442.92 652.607 1439.78 656.201 1436.58 660.075C1425.54 673.311 1416.14 691.214 1419.79 709.759M1474.03 27.7072C1500.24 55.2645 1519.94 88.4516 1526.23 121.595C1529.46 138.16 1526.73 152.892 1528.52 169.167C1530.55 187.637 1528.71 205.436 1524.86 222.773C1522.23 234.651 1518.63 246.315 1514.56 257.824C1506.55 280.506 1496.83 302.662 1485.54 323.024C1478.95 334.93 1471.99 346.258 1464.83 357.026C1459.64 364.838 1454.31 372.575 1448.72 380.193C1440.72 391.1 1431.97 401.782 1424.92 414.159C1422.45 418.488 1420.23 422.996 1418.15 427.601C1409.19 447.176 1399.18 467.611 1395.87 487.774C1395.01 493.002 1394.57 498.206 1394.66 503.418C1394.98 523.745 1401.14 545.197 1411.81 566.24C1413.63 569.845 1415.59 573.468 1417.64 577.112C1424.95 590.115 1433.34 603.39 1440.19 616.936C1444.29 625.011 1448.42 633.329 1449.35 641.366C1449.94 646.367 1449.13 651.029 1446.87 655.425C1444.6 659.836 1441.58 663.603 1438.47 667.624C1427.74 681.358 1418.21 699.361 1421.6 718.145M1474.41 29.1911C1501.18 56.2589 1521.24 89.2453 1527.53 122.2C1530.81 139.027 1527.85 153.917 1529.83 170.47C1532.08 189.204 1530.48 207.31 1526.78 224.933C1524.25 237.008 1520.69 248.859 1516.6 260.528C1508.53 283.523 1498.44 305.878 1486.47 326.308C1479.47 338.253 1472 349.577 1464.28 360.315C1458.66 368.116 1452.87 375.813 1446.82 383.377C1438.16 394.215 1428.74 404.806 1421.23 417.226C1418.61 421.564 1416.27 426.098 1414.1 430.74C1404.75 450.509 1395.28 471.489 1392.68 492.211C1392.01 497.577 1391.77 502.917 1392.04 508.266C1393.11 529.073 1400.11 550.89 1411.55 572.187C1413.5 575.833 1415.59 579.5 1417.77 583.184C1425.53 596.333 1434.32 609.744 1441.37 623.444C1445.58 631.614 1449.72 640.021 1450.7 648.189C1451.32 653.273 1450.58 658.029 1448.44 662.527C1446.29 667.074 1443.38 671.013 1440.36 675.181C1429.95 689.411 1420.28 707.517 1423.41 726.539M1474.78 30.6737C1502.12 57.2539 1522.54 90.0395 1528.82 122.803C1532.17 139.892 1528.98 154.938 1531.15 171.768C1533.61 190.768 1532.25 209.18 1528.69 227.087C1526.26 239.36 1522.76 251.399 1518.64 263.228C1510.52 286.536 1500.05 309.088 1487.4 329.586C1480 341.571 1472.02 352.89 1463.72 363.597C1457.69 371.388 1451.43 379.044 1444.93 386.554C1435.6 397.324 1425.51 407.824 1417.56 420.287C1414.78 424.636 1412.31 429.193 1410.05 433.876C1400.31 453.84 1391.37 475.364 1389.49 496.645C1389 502.145 1388.96 507.624 1389.43 513.108C1391.24 534.396 1399.08 556.576 1411.29 578.128C1413.37 581.817 1415.6 585.524 1417.9 589.251C1426.11 602.547 1435.3 616.093 1442.55 629.948C1446.88 638.211 1451.01 646.709 1452.06 655.006C1452.71 660.175 1452.02 665.024 1450.01 669.623C1447.97 674.305 1445.18 678.417 1442.25 682.731C1432.15 697.46 1422.34 715.666 1425.21 734.926M1475.16 32.1584C1503.07 58.249 1523.83 90.8338 1530.11 123.409C1533.53 140.76 1530.1 155.963 1532.47 173.071C1535.14 192.335 1534.03 211.054 1530.62 229.247C1528.28 241.716 1524.83 253.946 1520.68 265.934C1512.51 289.554 1501.66 312.304 1488.33 332.871C1480.53 344.895 1472.05 356.208 1463.18 366.888C1456.71 374.669 1450 382.283 1443.04 389.739C1433.04 400.438 1422.28 410.85 1413.88 423.356C1410.95 427.714 1408.36 432.296 1406.01 437.017C1395.88 457.175 1387.47 479.244 1386.31 501.083C1386.01 506.721 1386.16 512.338 1386.82 517.957C1389.37 539.724 1398.06 562.268 1411.03 584.076C1413.25 587.809 1415.6 591.556 1418.03 595.324C1426.69 608.766 1436.28 622.449 1443.72 636.458C1448.17 644.815 1452.31 653.401 1453.41 661.83C1454.1 667.079 1453.47 672.023 1451.59 676.726C1449.65 681.542 1446.99 685.827 1444.14 690.288C1434.35 705.515 1424.4 723.822 1427.02 743.32M1475.53 33.6422C1504.01 59.2433 1525.13 91.6281 1531.4 124.013C1534.89 141.625 1531.23 156.985 1533.79 174.371C1536.67 193.9 1535.8 212.924 1532.53 231.403C1530.29 244.07 1526.9 256.487 1522.72 268.636C1514.5 292.57 1503.28 315.516 1489.25 336.151C1481.05 348.215 1472.07 359.522 1462.62 370.172C1455.73 377.942 1448.57 385.517 1441.14 392.919C1430.48 403.549 1419.05 413.871 1410.2 426.419C1407.12 430.788 1404.41 435.394 1401.96 440.155C1391.44 460.507 1383.57 483.119 1383.12 505.517C1383.01 511.291 1383.36 517.046 1384.21 522.8C1387.5 545.049 1397.03 567.956 1410.77 590.017C1413.12 593.792 1415.61 597.582 1418.16 601.39C1427.28 614.978 1437.26 628.798 1444.9 642.961C1449.47 651.413 1453.6 660.089 1454.76 668.647C1455.48 673.98 1454.92 679.016 1453.16 683.822C1451.34 688.774 1448.79 693.231 1446.04 697.839C1436.56 713.563 1426.47 731.971 1428.83 751.707M1475.9 35.1251C1504.96 60.2372 1526.42 92.4205 1532.7 124.617C1536.24 142.491 1532.31 158.004 1535.11 175.671C1538.15 195.461 1537.57 214.794 1534.45 233.559C1532.31 246.424 1528.97 259.028 1524.76 271.337C1516.48 295.583 1504.88 318.726 1490.18 339.43C1481.58 351.535 1472.08 362.834 1462.07 373.457C1454.75 381.214 1447.13 388.75 1439.25 396.097C1427.92 406.656 1415.86 416.91 1406.52 429.481C1403.3 433.866 1400.45 438.49 1397.92 443.29C1386.99 463.835 1379.66 486.993 1379.93 509.95C1380 515.86 1380.55 521.753 1381.59 527.643C1385.63 550.373 1396 573.644 1410.51 595.959C1412.99 599.776 1415.61 603.608 1418.29 607.457C1427.85 621.192 1438.24 635.149 1446.08 649.466C1450.76 658.012 1454.89 666.776 1456.11 675.465C1456.87 680.882 1456.37 686.011 1454.73 690.919C1453.03 696.007 1450.59 700.637 1447.92 705.391C1438.76 721.613 1428.53 740.122 1430.64 760.097M1476.28 36.6098C1505.9 61.2337 1527.72 93.2149 1533.99 125.222C1537.6 143.358 1533.44 159.029 1536.43 176.972C1539.68 197.027 1539.34 216.667 1536.36 235.716C1534.32 248.778 1531.04 261.571 1526.81 274.04C1518.47 298.6 1506.5 321.941 1491.11 342.712C1482.11 354.857 1472.11 366.148 1461.52 376.743C1453.78 384.489 1445.68 391.969 1437.35 399.278C1425.33 409.746 1412.63 419.932 1402.85 432.545C1399.47 436.94 1396.49 441.589 1393.87 446.428C1382.56 467.168 1375.76 490.871 1376.75 514.386C1377.01 520.432 1377.75 526.463 1378.99 532.488C1383.76 555.7 1394.97 579.332 1410.26 601.903C1412.87 605.764 1415.61 609.636 1418.42 613.526C1428.44 627.407 1439.22 641.501 1447.26 655.971C1452.06 664.612 1456.19 673.465 1457.46 682.284C1458.26 687.785 1457.82 693.007 1456.3 698.017C1454.72 703.241 1452.39 708.043 1449.82 712.945C1440.97 729.664 1430.6 748.274 1432.44 768.488M1476.65 38.0924C1506.84 62.2268 1529.02 94.0077 1535.28 125.825C1538.96 144.223 1534.57 160.051 1537.75 178.271C1541.22 198.592 1541.12 218.537 1538.28 237.872C1536.34 251.131 1533.11 264.113 1528.85 276.742C1520.46 301.615 1508.11 325.153 1492.03 345.993C1482.64 358.177 1472.13 369.46 1460.97 380.03C1452.8 387.764 1444.24 395.205 1435.46 402.461C1422.77 412.86 1409.4 422.954 1399.17 435.612C1395.64 440.017 1392.54 444.69 1389.83 449.568C1378.12 470.502 1371.85 494.75 1373.57 518.823C1374.01 525.006 1374.94 531.175 1376.38 537.335C1381.89 561.029 1393.95 585.023 1410 607.848C1412.74 611.751 1415.62 615.666 1418.55 619.596C1429.02 633.623 1440.2 647.854 1448.43 662.477C1453.35 671.212 1457.49 680.155 1458.81 689.104C1459.65 694.689 1459.27 700.004 1457.87 705.116C1456.41 710.476 1454.2 715.449 1451.71 720.498C1443.17 737.715 1432.66 756.426 1434.25 776.877M1477.03 39.5763C1507.79 63.2218 1530.31 94.8013 1536.57 126.43C1540.31 145.09 1535.7 161.076 1539.07 179.573C1542.75 200.159 1542.89 220.41 1540.2 240.03C1538.36 253.487 1535.18 266.657 1530.89 279.445C1522.44 304.63 1509.72 328.366 1492.96 349.274C1483.16 361.498 1472.15 372.773 1460.41 383.315C1451.82 391.037 1442.81 398.44 1433.57 405.639C1420.22 415.97 1406.16 425.973 1395.5 438.674C1391.81 443.088 1388.59 447.787 1385.78 452.704C1373.68 473.833 1367.95 498.626 1370.38 523.255C1371.01 529.576 1372.14 535.882 1373.76 542.177C1380.02 566.354 1392.92 590.709 1409.74 613.789C1412.61 617.736 1415.62 621.691 1418.68 625.663C1429.6 639.835 1441.18 654.202 1449.61 668.981C1454.65 677.81 1458.78 686.841 1460.17 695.921C1461.03 701.587 1460.72 706.998 1459.44 712.212C1458.1 717.707 1456 722.852 1453.6 728.049C1445.38 745.765 1434.73 764.576 1436.06 785.265M1477.4 41.0609C1508.73 64.2168 1531.61 95.5963 1537.87 127.034C1541.67 145.957 1536.82 162.1 1540.39 180.874C1544.29 201.724 1544.66 222.282 1542.11 242.188C1540.37 255.842 1537.25 269.2 1532.93 282.15C1524.43 307.648 1511.34 331.582 1493.89 352.557C1483.69 364.821 1472.14 376.069 1459.86 386.604C1450.83 394.299 1441.38 401.678 1431.67 408.823C1417.66 419.086 1402.93 428.996 1391.82 441.742C1387.98 446.166 1384.63 450.888 1381.74 455.845C1369.24 477.167 1363.98 502.502 1367.2 527.694C1367.99 534.15 1369.33 540.596 1371.15 547.026C1378.14 571.687 1391.89 596.403 1409.48 619.735C1412.48 623.725 1415.62 627.722 1418.81 631.735C1430.19 646.053 1442.16 660.557 1450.79 675.489C1455.94 684.412 1460.08 693.534 1461.52 702.744C1462.42 708.493 1462.17 713.996 1461.01 719.314C1459.79 724.945 1457.8 730.263 1455.49 735.607C1447.58 753.819 1436.79 772.731 1437.87 793.66M1477.78 42.5437C1509.67 65.2114 1532.91 96.3899 1539.16 127.638C1543.03 146.822 1537.95 163.124 1541.7 182.174C1545.82 203.29 1546.43 224.153 1544.03 244.345C1542.38 258.197 1539.31 271.742 1534.97 284.852C1526.42 310.662 1512.95 334.795 1494.81 355.839C1484.21 368.142 1472.16 379.385 1459.31 389.891C1449.85 397.575 1439.95 404.913 1429.78 412.004C1415.1 422.197 1399.7 432.017 1388.14 444.807C1384.15 449.24 1380.68 453.988 1377.69 458.983C1364.8 480.499 1360.08 506.382 1364.01 532.129C1364.99 538.723 1366.51 545.306 1368.54 551.87C1376.21 577.017 1390.86 602.09 1409.22 625.678C1412.36 629.71 1415.63 633.749 1418.94 637.802C1430.77 652.266 1443.15 666.907 1451.96 681.993C1457.24 691.011 1461.37 700.221 1462.87 709.562C1463.8 715.395 1463.62 720.99 1462.58 726.41C1461.48 732.176 1459.6 737.666 1457.38 743.156C1449.78 761.867 1438.85 780.88 1439.67 802.047M1478.15 44.0278C1510.62 66.2067 1534.2 97.1837 1540.45 128.242C1544.39 147.687 1539.08 164.147 1543.02 183.476C1547.35 204.857 1548.2 226.024 1545.94 246.502C1544.4 260.55 1541.38 274.286 1537.01 287.554C1528.4 313.678 1514.56 338.007 1495.74 359.119C1484.74 371.462 1472.19 382.7 1458.76 393.175C1448.88 400.85 1438.51 408.148 1427.88 415.183C1412.54 425.309 1396.47 435.036 1384.46 447.869C1380.32 452.312 1376.72 457.085 1373.64 462.119C1360.36 483.829 1356.19 510.261 1360.82 536.563C1361.99 543.294 1363.71 550.016 1365.93 556.714C1374.35 582.346 1389.83 607.777 1408.96 631.621C1412.23 635.695 1415.63 639.775 1419.07 643.869C1431.34 658.48 1444.12 673.257 1453.14 688.498C1458.53 697.61 1462.66 706.91 1464.22 716.38C1465.19 722.297 1465.07 727.984 1464.15 733.507C1463.17 739.409 1461.4 745.072 1459.27 750.708C1451.99 769.915 1440.92 789.03 1441.48 810.435M1478.53 45.511C1511.56 67.2003 1535.5 97.9773 1541.75 128.847C1545.75 148.555 1540.21 165.171 1544.34 184.777C1548.89 206.423 1549.98 227.896 1547.86 248.66C1546.42 262.906 1543.45 276.829 1539.05 290.258C1530.39 316.694 1516.17 341.221 1496.67 362.402C1485.27 374.784 1472.21 386.019 1458.21 396.464C1447.9 404.129 1437.08 411.386 1425.99 418.367C1409.99 428.424 1393.23 438.06 1380.78 450.937C1376.48 455.389 1372.77 460.187 1369.6 465.26C1355.92 487.165 1352.29 514.144 1357.64 541.002C1359 547.87 1360.91 554.731 1363.32 561.563C1372.5 587.681 1388.8 613.47 1408.7 637.569C1412.1 641.686 1415.63 645.808 1419.2 649.942C1431.93 664.698 1445.11 679.613 1454.32 695.007C1459.82 704.214 1463.96 713.602 1465.57 723.203C1466.58 729.204 1466.54 734.986 1465.72 740.61C1464.88 746.651 1463.2 752.482 1461.16 758.267C1454.19 777.972 1442.98 797.188 1443.28 818.831M1478.9 46.995C1512.5 68.1948 1536.8 98.7709 1543.04 129.451C1547.1 149.42 1541.34 166.193 1545.66 186.077C1550.42 207.988 1551.75 229.768 1549.78 250.817C1545.77 293.692 1528.04 333.639 1497.6 365.682C1477.12 387.237 1451.37 405.197 1424.09 421.546C1407.43 431.535 1390 441.079 1377.11 453.998C1353.4 477.75 1347 511.68 1354.45 545.434C1361.9 579.188 1382.36 612.778 1408.44 643.508C1432.11 671.396 1461.69 699.462 1466.92 730.018C1472.9 764.965 1445.02 792.945 1445.09 827.215M1687.65 191.089C1641.64 174.051 1591.31 169.016 1548.11 177.133C1535.82 179.443 1523.7 182.985 1516.06 190.217C1493.97 211.117 1512.12 248.563 1520.26 275.816C1530.07 308.704 1540.92 341.632 1547.35 374.501C1550.95 392.953 1552.23 413.551 1536.35 424.38C1520.27 435.344 1493.31 431.961 1469.39 430.234C1441.52 428.22 1413.59 429.238 1390.15 437.093C1366.71 444.947 1348.13 460.32 1344.08 480.743C1340.91 496.737 1346.64 514.435 1354.03 531.379C1373.46 575.901 1404.88 619.13 1445.4 657.103M1685.96 189.538C1645.3 174.479 1601.68 170.286 1560.86 176.089C1557.07 176.628 1553.32 177.236 1549.62 177.95C1537.47 180.3 1525.5 183.827 1517.86 190.922C1495.77 211.435 1512.61 247.934 1520.18 274.95C1526.9 298.901 1534.42 322.994 1540.34 347.264C1542.42 355.69 1544.3 364.115 1545.9 372.537C1549.38 390.805 1550.63 411.154 1535.28 422.052C1519.74 433.086 1493.68 430.236 1470.55 428.986C1443.6 427.53 1416.58 429.005 1393.85 437.087C1385.93 439.901 1378.58 443.596 1372.19 448.072C1360.23 456.445 1351.61 467.55 1348.93 480.715C1345.7 496.528 1351.04 513.968 1357.91 530.634C1371.82 564.369 1392.37 597.174 1418.7 627.623C1426.56 636.71 1434.93 645.584 1443.8 654.208M1684.26 187.988C1644.96 173.431 1603.35 170.587 1562.23 176.863C1558.5 177.433 1554.78 178.045 1551.13 178.769C1539.13 181.162 1527.3 184.671 1519.67 191.629C1497.57 211.758 1513.1 247.305 1520.11 274.086C1526.28 297.611 1533.48 321.401 1539.13 345.561C1541.11 353.899 1542.92 362.239 1544.47 370.576C1547.82 388.66 1549.03 408.761 1534.22 419.727C1519.22 430.83 1494.05 428.513 1471.71 427.739C1445.68 426.841 1419.57 428.775 1397.55 437.083C1389.88 439.977 1382.76 443.722 1376.55 448.22C1364.93 456.628 1356.51 467.673 1353.78 480.687C1350.51 496.32 1355.44 513.501 1361.8 529.889C1374.65 563.069 1393.67 595.156 1418.47 625.108C1425.87 634.046 1433.77 642.791 1442.19 651.313M1682.57 186.437C1644.62 172.383 1605.03 170.879 1563.59 177.635C1559.92 178.234 1556.25 178.85 1552.65 179.585C1540.79 182.019 1529.1 185.515 1521.49 192.333C1499.38 212.076 1513.59 246.669 1520.04 273.219C1525.65 296.315 1532.47 319.801 1537.92 343.854C1539.79 352.104 1541.54 360.359 1543.03 368.612C1546.25 386.512 1547.44 406.366 1533.16 417.399C1518.7 428.57 1494.43 426.787 1472.88 426.49C1447.76 426.151 1422.55 428.541 1401.25 437.075C1393.83 440.05 1386.93 443.844 1380.91 448.362C1369.63 456.807 1361.41 467.788 1358.64 480.656C1355.31 496.11 1359.84 513.03 1365.68 529.14C1377.47 561.768 1394.98 593.135 1418.23 622.59C1425.17 631.379 1432.62 639.995 1440.59 648.415M1680.88 184.888C1644.28 171.336 1606.71 171.165 1564.96 178.41C1561.34 179.039 1557.72 179.66 1554.17 180.406C1542.44 182.883 1530.9 186.36 1523.3 193.04C1501.18 212.398 1514.09 246.036 1519.97 272.356C1525.04 295.021 1531.5 318.208 1536.7 342.152C1538.48 350.314 1540.17 358.483 1541.59 366.652C1544.68 384.369 1545.84 403.974 1532.1 415.075C1518.18 426.316 1494.81 425.066 1474.04 425.247C1449.85 425.466 1425.54 428.311 1404.95 437.073C1397.78 440.127 1391.1 443.97 1385.26 448.511C1374.34 456.992 1366.31 467.911 1363.49 480.63C1360.1 495.905 1364.24 512.567 1369.56 528.398C1380.29 560.471 1396.27 591.119 1417.99 620.079C1424.47 628.721 1431.46 637.206 1438.98 645.524M1679.19 183.338C1643.95 170.288 1608.38 171.445 1566.32 179.183C1562.76 179.839 1559.18 180.469 1555.68 181.223C1544.1 183.741 1532.7 187.204 1525.11 193.747C1502.98 212.719 1514.59 245.398 1519.9 271.492C1524.43 293.726 1530.54 316.612 1535.49 340.448C1537.17 348.523 1538.79 356.606 1540.16 364.691C1543.12 382.223 1544.25 401.581 1531.04 412.75C1517.65 424.059 1495.18 423.342 1475.21 424.001C1451.93 424.777 1428.53 428.08 1408.65 437.07C1401.73 440.204 1395.28 444.097 1389.62 448.659C1379.04 457.175 1371.21 468.034 1368.34 480.603C1364.91 495.699 1368.64 512.101 1373.45 527.654C1383.12 559.173 1397.58 589.102 1417.77 617.566C1423.79 626.059 1430.31 634.415 1437.39 642.631M1677.49 181.787C1643.61 169.238 1610.05 171.714 1567.69 179.954C1564.18 180.637 1560.65 181.274 1557.19 182.04C1545.76 184.6 1534.5 188.046 1526.91 194.451C1504.78 213.039 1515.09 244.754 1519.83 270.625C1523.82 292.425 1529.57 315.014 1534.27 338.741C1535.85 346.728 1537.41 354.727 1538.71 362.726C1541.54 380.074 1542.65 399.183 1529.97 410.421C1517.12 421.799 1495.55 421.615 1476.36 422.752C1454 424.086 1431.51 427.846 1412.34 437.063C1405.67 440.277 1399.44 444.218 1393.97 448.803C1383.73 457.356 1376.1 468.151 1373.19 480.573C1369.7 495.489 1373.04 511.633 1377.32 526.906C1385.94 557.871 1398.88 587.082 1417.52 615.048C1423.08 623.394 1429.15 631.62 1435.77 639.732M1675.8 180.238C1643.27 168.192 1611.73 171.979 1569.05 180.729C1565.6 181.437 1562.11 182.084 1558.71 182.859C1547.41 185.461 1536.3 188.892 1528.72 195.159C1506.59 213.361 1515.6 244.114 1519.76 269.762C1523.22 291.127 1528.61 313.419 1533.06 337.04C1534.55 344.939 1536.03 352.852 1537.28 360.766C1539.98 377.93 1541.06 396.791 1528.91 408.097C1516.6 419.545 1495.93 419.894 1477.53 421.507C1456.09 423.399 1434.5 427.616 1416.05 437.06C1409.62 440.353 1403.62 444.344 1398.33 448.95C1388.44 457.538 1381 468.272 1378.05 480.547C1374.5 495.282 1377.44 511.167 1381.21 526.164C1388.77 556.574 1400.18 585.067 1417.29 612.538C1422.4 620.735 1428 628.832 1434.17 636.842M1674.11 178.687C1642.93 167.142 1613.4 172.232 1570.42 181.501C1567.02 182.233 1563.58 182.89 1560.22 183.676C1549.07 186.32 1538.1 189.735 1530.54 195.864C1508.39 213.68 1516.12 243.467 1519.69 268.896C1522.63 289.824 1527.65 311.821 1531.84 335.333C1533.24 343.144 1534.65 350.972 1535.84 358.803C1538.41 375.783 1539.46 394.395 1527.84 405.771C1516.08 417.287 1496.31 418.17 1478.69 420.26C1458.17 422.711 1437.49 427.386 1419.75 437.055C1413.57 440.428 1407.79 444.468 1402.69 449.096C1393.14 457.72 1385.9 468.392 1382.9 480.52C1379.3 495.076 1381.84 510.7 1385.09 525.42C1391.59 555.276 1401.49 583.05 1417.06 610.024C1421.7 618.074 1426.84 626.04 1432.57 633.949M1672.41 177.137C1642.6 166.094 1615.06 172.479 1571.78 182.274C1568.44 183.031 1565.04 183.698 1561.74 184.493C1550.73 187.18 1539.9 190.579 1532.34 196.568C1510.19 214.001 1516.63 242.819 1519.62 268.03C1522.04 288.521 1526.69 310.224 1530.63 333.629C1531.93 341.353 1533.28 349.095 1534.4 356.841C1536.84 373.636 1537.86 392.001 1526.78 403.445C1515.56 415.03 1496.68 416.446 1479.86 419.014C1460.26 422.023 1440.48 427.154 1423.45 437.051C1417.52 440.504 1411.96 444.594 1407.04 449.243C1397.85 457.904 1390.8 468.514 1387.75 480.491C1384.1 494.867 1386.24 510.233 1388.97 524.674C1394.42 553.976 1402.79 581.031 1416.82 607.508C1421.01 615.41 1425.69 623.247 1430.97 631.053M1670.72 175.587C1642.26 165.046 1616.73 172.718 1573.14 183.047C1569.86 183.826 1566.51 184.504 1563.25 185.312C1552.38 188.039 1541.7 191.422 1534.15 197.275C1511.99 214.322 1517.16 242.17 1519.54 267.167C1521.46 287.219 1525.73 308.628 1529.41 331.926C1530.62 339.561 1531.89 347.219 1532.96 354.88C1535.27 371.491 1536.26 389.607 1525.71 401.12C1515.03 412.774 1497.05 414.724 1481.02 417.769C1462.34 421.336 1443.46 426.924 1427.15 437.048C1421.47 440.581 1416.13 444.72 1411.4 449.391C1402.54 458.087 1395.69 468.635 1392.6 480.465C1388.9 494.663 1390.64 509.768 1392.85 523.931C1397.24 552.678 1404.08 579.015 1416.58 604.996C1420.31 612.75 1424.52 620.457 1429.36 628.161M1669.03 174.037C1641.92 163.997 1618.39 172.948 1574.51 183.82C1571.27 184.622 1567.98 185.313 1564.77 186.129C1554.04 188.899 1543.5 192.266 1535.96 197.979C1513.8 214.641 1517.69 241.519 1519.47 266.301C1520.88 285.912 1524.77 307.029 1528.2 330.22C1529.32 337.768 1530.52 345.34 1531.52 352.916C1533.7 369.343 1534.67 387.212 1524.65 398.792C1514.51 410.514 1497.43 412.996 1482.18 416.521C1464.42 420.645 1446.45 426.69 1430.85 437.041C1425.42 440.653 1420.3 444.841 1415.76 449.534C1407.25 458.265 1400.59 468.752 1397.46 480.435C1393.7 494.453 1395.04 509.299 1396.74 523.183C1400.07 551.377 1405.39 576.994 1416.35 602.479C1419.62 610.085 1423.37 617.662 1427.76 625.263M1667.34 172.488C1641.58 162.951 1620.05 173.17 1575.87 184.594C1572.69 185.417 1569.44 186.116 1566.28 186.948C1555.69 189.742 1545.3 193.111 1537.77 198.686C1515.6 214.962 1518.23 240.869 1519.41 265.436C1520.32 284.609 1523.82 305.434 1526.99 328.516C1528.01 335.976 1529.14 343.462 1530.08 350.955C1532.14 367.198 1533.07 384.818 1523.59 396.467C1513.98 408.258 1497.8 411.273 1483.35 415.274C1466.5 419.958 1449.44 426.459 1434.55 437.037C1429.37 440.729 1424.48 444.967 1420.11 449.681C1411.95 458.45 1405.49 468.875 1402.31 480.407C1398.5 494.245 1399.45 508.832 1400.62 522.438C1402.9 550.077 1406.69 574.976 1416.11 599.964C1418.93 607.422 1422.22 614.87 1426.16 622.369M1665.64 170.937C1641.25 161.902 1621.7 173.381 1577.24 185.367C1574.11 186.21 1570.91 186.923 1567.8 187.766C1557.34 190.601 1547.1 193.955 1539.58 199.392C1517.4 215.283 1518.78 240.217 1519.33 264.571C1519.76 283.303 1522.86 303.837 1525.77 326.811C1526.71 334.182 1527.76 341.584 1528.65 348.992C1530.57 365.051 1531.48 382.423 1522.52 394.14C1513.46 406 1498.18 409.549 1484.51 414.027C1468.59 419.268 1452.42 426.227 1438.25 437.032C1433.31 440.805 1428.65 445.09 1424.47 449.828C1416.65 458.632 1410.38 468.995 1407.16 480.38C1403.3 494.038 1403.84 508.365 1404.5 521.694C1405.72 548.778 1407.99 572.959 1415.87 597.451C1418.22 604.761 1421.06 612.079 1424.55 619.476M1663.95 169.387C1640.91 160.854 1623.34 173.583 1578.6 186.14C1575.53 187.003 1572.37 187.731 1569.31 188.584C1559 191.46 1548.9 194.799 1541.39 200.098C1519.21 215.604 1519.33 239.565 1519.26 263.707C1519.21 282 1521.91 302.24 1524.56 325.108C1525.4 332.391 1526.38 339.708 1527.21 347.031C1529 362.906 1529.88 380.029 1521.46 391.815C1512.94 403.744 1498.55 407.827 1485.67 412.782C1470.67 418.581 1455.41 425.998 1441.95 437.03C1437.26 440.882 1432.82 445.218 1428.82 449.976C1421.35 458.815 1415.28 469.117 1412.01 480.354C1408.1 493.833 1408.24 507.902 1408.39 520.953C1408.54 547.483 1409.29 570.945 1415.64 594.941C1417.53 602.103 1419.9 609.292 1422.95 616.585M1662.26 167.836C1640.57 159.805 1624.98 173.776 1579.97 186.911C1576.94 187.794 1573.84 188.537 1570.83 189.4C1560.66 192.317 1550.7 195.642 1543.2 200.803C1521.01 215.923 1519.9 238.91 1519.19 262.841C1518.66 280.693 1520.96 300.642 1523.34 323.402C1524.09 330.599 1525 337.83 1525.77 345.068C1527.43 360.759 1528.28 377.634 1520.4 389.488C1512.41 401.486 1498.92 406.102 1486.84 411.535C1472.75 417.892 1458.4 425.766 1445.65 437.023C1441.21 440.956 1436.99 445.34 1433.18 450.121C1426.05 458.997 1420.18 469.237 1416.87 480.324C1412.9 493.623 1412.65 507.433 1412.27 520.206C1411.37 546.182 1410.6 568.925 1415.4 592.424C1416.84 599.438 1418.75 606.496 1421.34 613.688M1660.56 166.286C1640.23 158.758 1626.61 173.959 1581.33 187.686C1578.36 188.587 1575.3 189.346 1572.34 190.22C1562.31 193.18 1552.52 196.502 1545.01 201.51C1522.86 216.288 1520.47 238.261 1519.12 261.978C1518.13 279.392 1520.01 299.048 1522.13 321.699C1522.79 328.807 1523.62 335.954 1524.33 343.107C1525.86 358.614 1526.69 375.24 1519.33 387.164C1511.89 399.231 1499.3 404.379 1488 410.289C1474.83 417.204 1461.38 425.534 1449.35 437.02C1445.16 441.031 1441.16 445.466 1437.54 450.268C1430.76 459.18 1425.07 469.357 1421.72 480.297C1417.7 493.417 1417.05 506.967 1416.15 519.461C1414.19 544.883 1411.9 566.908 1415.17 589.911C1416.14 596.776 1417.59 603.706 1419.74 610.796M1658.87 164.736C1639.9 157.709 1628.24 174.133 1582.7 188.458C1579.78 189.378 1576.77 190.154 1573.86 191.037C1563.97 194.038 1554.32 197.344 1546.82 202.215C1524.67 216.606 1521.06 237.61 1519.05 261.111C1517.6 278.087 1519.07 297.449 1520.92 319.994C1521.49 327.014 1522.25 334.075 1522.9 341.145C1524.3 356.467 1525.1 372.846 1518.28 384.838C1511.37 396.975 1499.68 402.655 1489.17 409.043C1476.92 416.517 1464.38 425.303 1453.06 437.016C1449.11 441.107 1445.34 445.592 1441.9 450.415C1435.46 459.362 1429.98 469.479 1426.58 480.271C1422.5 493.211 1421.45 506.502 1420.04 518.718C1417.02 543.585 1413.21 564.893 1414.94 587.398C1415.45 594.116 1416.44 600.914 1418.14 607.902M1657.18 163.186C1639.56 156.66 1629.86 174.296 1584.06 189.232C1581.19 190.169 1578.23 190.962 1575.37 191.857C1565.63 194.901 1556.12 198.191 1548.63 202.923C1526.47 216.93 1521.65 236.964 1518.98 260.249C1517.08 276.788 1518.12 295.856 1519.7 318.29C1520.19 325.223 1520.87 332.199 1521.46 339.184C1522.73 354.322 1523.5 370.453 1517.21 382.513C1510.84 394.719 1500.05 400.933 1490.33 407.798C1479 415.828 1467.36 425.072 1456.75 437.013C1453.06 441.184 1449.51 445.717 1446.25 450.563C1440.16 459.546 1434.87 469.601 1431.42 480.244C1427.3 493.004 1425.85 506.036 1423.91 517.974C1419.84 542.287 1414.5 562.876 1414.7 584.885C1414.75 591.454 1415.28 598.123 1416.53 605.009M1655.48 161.635C1639.22 155.611 1631.47 174.449 1585.42 190.004C1582.6 190.957 1579.7 191.769 1576.89 192.672C1567.28 195.757 1557.92 199.031 1550.44 203.626C1528.27 217.247 1522.26 236.316 1518.91 259.382C1516.57 275.487 1517.18 294.258 1518.49 316.585C1518.89 323.429 1519.49 330.32 1520.02 337.219C1521.16 352.173 1521.9 368.057 1516.15 380.185C1510.32 392.46 1500.43 399.206 1491.49 406.549C1481.08 415.139 1470.35 424.839 1460.45 437.006C1457.01 441.257 1453.68 445.84 1450.61 450.707C1444.86 459.726 1439.77 469.719 1436.28 480.214C1432.1 492.794 1430.25 505.567 1427.8 517.226C1422.67 540.985 1415.8 560.855 1414.46 582.368C1414.06 588.789 1414.13 595.329 1414.93 602.112M1653.79 160.086C1638.88 154.565 1633.07 174.591 1586.79 190.777C1584.02 191.747 1581.17 192.577 1578.4 193.491C1568.94 196.619 1559.72 199.877 1552.25 204.332C1530.07 217.568 1522.88 235.674 1518.84 258.517C1516.06 274.189 1516.24 292.663 1517.27 314.881C1517.58 321.638 1518.11 328.442 1518.58 335.258C1519.59 350.028 1520.3 365.663 1515.08 377.859C1509.79 390.202 1500.8 397.482 1492.65 405.302C1483.16 414.45 1473.33 424.608 1464.15 437.001C1460.95 441.331 1457.85 445.963 1454.96 450.853C1449.56 459.907 1444.66 469.838 1441.13 480.185C1436.9 492.586 1434.65 505.099 1431.68 516.481C1425.49 539.685 1417.1 558.837 1414.23 579.853C1413.36 586.126 1412.97 592.536 1413.32 599.216M1652.1 158.536C1638.54 153.516 1634.66 174.724 1588.15 191.551C1585.43 192.536 1582.63 193.385 1579.92 194.31C1570.6 197.481 1561.51 200.707 1554.06 205.04C1531.83 217.849 1523.51 235.038 1518.77 257.655C1515.57 272.897 1515.31 291.069 1516.06 313.178C1516.28 319.848 1516.73 326.566 1517.14 333.297C1518.02 347.883 1518.71 363.27 1514.02 375.534C1509.27 387.946 1501.18 395.76 1493.82 404.056C1485.25 413.762 1476.32 424.377 1467.86 436.998C1464.91 441.408 1462.03 446.09 1459.32 451C1454.27 460.091 1449.56 469.959 1445.98 480.159C1441.7 492.381 1439.05 504.635 1435.56 515.739C1428.32 538.389 1418.41 556.822 1413.99 577.341C1412.67 583.466 1411.81 589.747 1411.72 596.325M1650.41 156.985C1638.21 152.468 1636.24 174.845 1589.52 192.324C1586.85 193.325 1584.1 194.193 1581.43 195.128C1572.26 198.342 1563.31 201.552 1555.87 205.745C1533.63 218.168 1524.16 234.404 1518.7 256.788C1515.09 271.605 1514.37 289.473 1514.84 311.472C1514.99 318.055 1515.36 324.688 1515.7 331.335C1516.46 345.737 1517.11 360.876 1512.96 373.208C1508.75 385.689 1501.55 394.037 1494.98 402.81C1487.33 413.074 1479.31 424.146 1471.56 436.993C1468.85 441.484 1466.2 446.213 1463.67 451.146C1458.97 460.273 1454.46 470.08 1450.84 480.131C1446.5 492.173 1443.45 504.167 1439.45 514.993C1431.14 537.089 1419.71 554.803 1413.76 574.827C1411.98 580.805 1410.66 586.954 1410.12 593.43M1648.71 155.436C1637.87 151.42 1637.81 174.956 1590.88 193.096C1588.26 194.112 1585.56 195.001 1582.95 195.945C1573.92 199.202 1565.1 202.394 1557.68 206.451C1535.43 218.488 1524.81 233.777 1518.63 255.923C1514.6 270.317 1513.44 287.878 1513.63 309.769C1513.68 316.264 1513.98 322.811 1514.26 329.373C1514.89 343.591 1515.52 358.481 1511.89 370.883C1508.22 383.433 1501.93 392.312 1496.15 401.564C1489.41 412.387 1482.3 423.915 1475.26 436.989C1472.8 441.56 1470.37 446.338 1468.03 451.293C1463.67 460.456 1459.36 470.201 1455.69 480.103C1451.3 491.966 1447.85 503.701 1443.33 514.249C1433.97 535.79 1421.01 552.786 1413.52 572.313C1411.28 578.142 1409.5 584.163 1408.51 590.536M1647.02 153.884C1637.53 150.37 1639.36 175.054 1592.25 193.869C1589.67 194.899 1587.03 195.813 1584.46 196.763C1575.58 200.078 1566.9 203.239 1559.49 207.157C1537.24 218.81 1525.49 233.156 1518.56 255.059C1514.13 269.034 1512.51 286.286 1512.41 308.064C1512.39 314.472 1512.6 320.933 1512.83 327.411C1513.32 341.445 1513.92 356.087 1510.83 368.557C1507.7 381.175 1502.3 390.588 1497.31 400.318C1491.49 411.697 1485.28 423.683 1478.96 436.985C1476.75 441.635 1474.54 446.464 1472.39 451.44C1468.37 460.638 1464.25 470.321 1460.54 480.076C1456.1 491.759 1452.25 503.235 1447.21 513.505C1436.79 534.491 1422.32 550.769 1413.29 569.799C1410.59 575.481 1408.35 581.371 1406.91 587.642M1645.33 152.335C1637.19 149.324 1640.91 175.143 1593.61 194.643C1591.08 195.687 1588.5 196.621 1585.97 197.581C1577.24 200.936 1568.71 204.082 1561.3 207.861C1539.04 219.129 1526.17 232.543 1518.48 254.193C1513.67 267.753 1511.58 284.691 1511.2 306.359C1511.09 312.681 1511.22 319.055 1511.39 325.447C1511.75 339.297 1512.32 353.691 1509.76 366.229C1507.17 378.917 1502.67 388.863 1498.47 399.07C1493.57 411.008 1488.27 423.45 1482.65 436.979C1480.69 441.709 1478.71 446.586 1476.74 451.584C1473.07 460.819 1469.15 470.441 1465.39 480.047C1460.89 491.55 1456.65 502.767 1451.09 512.758C1439.61 533.191 1423.61 548.75 1413.05 567.284C1409.89 572.818 1407.18 578.579 1405.3 584.747M1643.63 150.784C1636.86 148.274 1642.44 175.219 1594.98 195.415C1592.49 196.473 1589.96 197.428 1587.49 198.398C1578.9 201.796 1570.5 204.926 1563.11 208.567C1540.84 219.45 1526.88 231.94 1518.41 253.329C1513.21 266.481 1510.66 283.101 1509.98 304.654C1509.79 310.89 1509.84 317.178 1509.95 323.486C1510.18 337.152 1510.73 351.298 1508.7 363.905C1506.65 376.661 1503.05 387.141 1499.63 397.824C1495.66 410.32 1491.26 423.219 1486.35 436.976C1484.65 441.786 1482.88 446.713 1481.1 451.732C1477.77 461.003 1474.05 470.562 1470.25 480.02C1465.7 491.343 1461.05 502.301 1454.97 512.013C1442.44 531.892 1424.91 546.731 1412.81 564.77C1409.2 570.154 1406.03 575.787 1403.7 581.853M1641.94 149.235C1636.52 147.227 1643.96 175.284 1596.34 196.19C1593.91 197.26 1591.43 198.238 1589.01 199.217C1580.56 202.657 1572.31 205.77 1564.92 209.274C1542.64 219.77 1527.59 231.347 1518.34 252.464C1512.76 265.213 1509.74 281.508 1508.77 302.951C1508.5 309.099 1508.47 315.301 1508.51 321.524C1508.62 335.006 1509.13 348.904 1507.64 361.58C1506.13 374.405 1503.43 385.418 1500.8 396.579C1497.74 409.633 1494.25 422.99 1490.06 436.972C1488.6 441.862 1487.06 446.838 1485.45 451.88C1482.47 461.186 1478.94 470.684 1475.1 479.994C1470.5 491.139 1465.45 501.836 1458.86 511.271C1445.27 530.595 1426.22 544.716 1412.58 562.257C1408.5 567.495 1404.88 572.997 1402.1 578.96M1640.25 147.684C1636.18 146.177 1645.47 175.337 1597.71 196.961C1595.31 198.045 1592.9 199.043 1590.52 200.034C1582.21 203.516 1574.1 206.614 1566.73 209.978C1544.45 220.09 1528.32 230.763 1518.27 251.598C1512.31 263.948 1508.81 279.916 1507.56 301.245C1507.2 307.308 1507.08 313.421 1507.07 319.561C1507.05 332.858 1507.53 346.508 1506.58 359.251C1505.61 372.145 1503.8 383.691 1501.96 395.33C1499.82 408.942 1497.23 422.756 1493.76 436.964C1492.54 441.934 1491.23 446.96 1489.81 452.024C1487.18 461.366 1483.84 470.803 1479.95 479.964C1475.3 490.928 1469.85 501.367 1462.74 510.525C1448.09 529.295 1427.52 542.697 1412.34 559.743C1407.81 564.832 1403.72 570.205 1400.49 576.065M1638.55 146.134C1635.84 145.131 1646.96 175.378 1599.07 197.734C1596.72 198.829 1594.36 199.851 1592.03 200.851C1583.87 204.375 1575.91 207.457 1568.54 210.684C1546.25 220.41 1529.07 230.191 1518.2 250.733C1511.87 262.692 1507.9 278.328 1506.34 299.54C1505.9 305.517 1505.71 311.543 1505.63 317.598C1505.48 330.711 1505.94 344.113 1505.51 356.925C1505.08 369.887 1504.17 381.968 1503.13 394.083C1501.91 408.253 1500.22 422.524 1497.46 436.96C1496.49 442.009 1495.4 447.084 1494.16 452.17C1491.88 461.549 1488.74 470.923 1484.8 479.935C1480.1 490.72 1474.26 500.9 1466.62 509.779C1450.92 527.995 1428.82 540.678 1412.11 557.227C1407.11 562.169 1402.56 567.411 1398.89 573.17M1636.86 144.585C1635.51 144.083 1648.43 175.408 1600.44 198.509C1598.13 199.618 1595.83 200.661 1593.55 201.672C1585.53 205.237 1577.71 208.304 1570.35 211.392C1548.05 220.733 1529.83 229.635 1518.13 249.87C1511.44 261.445 1507.02 276.75 1505.13 297.838C1504.62 303.732 1504.33 309.669 1504.2 315.639C1503.91 328.568 1504.34 341.721 1504.45 354.601C1504.56 367.633 1504.55 380.245 1504.29 392.84C1503.99 407.568 1503.21 422.295 1501.16 436.959C1500.44 442.088 1499.57 447.212 1498.52 452.32C1496.58 461.733 1493.63 471.046 1489.66 479.911C1484.9 490.516 1478.66 500.437 1470.5 509.038C1453.74 526.699 1430.12 538.664 1411.87 554.716C1406.42 559.51 1401.41 564.623 1397.29 570.279M1635.17 143.034C1635.17 143.034 1649.89 175.424 1601.8 199.281C1553.71 223.137 1511.54 222.065 1503.91 296.133C1498.64 347.316 1511.39 402.024 1502.88 452.463C1499.37 473.216 1490.31 493.009 1474.39 508.29C1456.57 525.398 1431.43 536.644 1411.64 552.2C1405.73 556.846 1400.25 561.828 1395.68 567.383" stroke="#FFB84A" stroke-width="0.197078" stroke-miterlimit="10"/>
<path d="M44.8332 1292.08C23.5806 1246.41 5.626 1200.1 -3.44603 1153.91C-6.38784 1138.94 -8.39174 1123.89 -6.70637 1109.52C-3.26993 1080.22 15.1647 1055.57 25.7232 1028.34C39.1346 993.761 39.4418 954.534 27.1414 915.758C17.8848 886.581 1.8871 851.867 4.58003 823.311C7.02659 797.37 46.6333 781.962 65.8696 764.76C85.5711 747.139 96.4367 723.656 97.8696 698.499C98.6195 685.319 96.7977 671.637 92.2812 658.064C87.9605 645.083 76.4601 631.159 92.0346 622.766C97.1827 619.992 103.952 619.16 109.889 617.287C130.519 610.777 138.965 590.053 128.386 571.894M44.3157 1290.21C22.3557 1245.17 3.95923 1199.13 -5.10346 1153.18C-8.1337 1137.88 -9.85221 1122.62 -8.41767 1107.91C-6.65573 1090.16 0.375256 1074.01 8.01955 1058C13.2368 1047.07 18.7415 1036.22 23.0564 1024.97C31.5777 1002.75 35.2939 978.816 34.3124 954.47C33.7378 940.234 31.5522 925.858 27.747 911.574C25.1011 901.549 21.7075 890.908 18.5528 880.105C14.1407 864.918 10.211 849.409 9.31061 834.696C8.98006 829.411 9.03933 824.23 9.62114 819.221C12.0438 798.517 36.3513 783.934 55.3666 769.854C60.4805 766.085 65.2141 762.352 69.046 758.543C84.8814 742.917 94.1985 723.187 96.7911 701.919C97.2385 698.258 97.4868 694.549 97.5348 690.804C97.7082 677.452 95.3761 663.609 90.6079 649.844C87.7825 641.692 82.3527 633.181 82.2249 625.794C82.1456 621.246 84.0969 617.152 89.8448 613.807C94.8668 610.884 101.462 609.816 107.28 607.759C127.499 600.626 136.118 579.771 125.86 561.301M43.8007 1288.34C21.1309 1243.94 2.29507 1198.16 -6.75772 1152.45C-9.87815 1136.81 -11.312 1121.36 -10.1236 1106.3C-8.64132 1088.22 -1.92174 1071.68 5.53244 1055.32C10.6209 1044.14 16.0532 1033.05 20.3956 1021.6C28.979 998.978 33.1642 974.784 33.0478 950.331C32.9807 936.035 31.4301 921.651 28.3586 907.389C26.2464 897.365 23.4354 886.763 20.8704 876.016C17.3003 860.899 14.2296 845.485 13.8911 830.704C13.7557 825.402 13.9711 820.188 14.6671 815.124C17.5831 794.164 41.1858 778.9 59.2841 764.137C64.1547 760.198 68.6176 756.285 72.222 752.321C87.0116 736.056 95.3428 715.939 96.9544 694.369C97.2345 690.658 97.3131 686.9 97.2013 683.107C96.7988 669.58 93.9565 655.576 88.9338 641.621C85.956 633.352 80.5232 624.727 80.3209 617.178C80.1965 612.525 82.0952 608.333 87.654 604.843C92.5511 601.769 98.9682 600.468 104.67 598.226C124.477 590.472 133.271 569.484 123.334 550.706M43.2849 1286.47C19.9081 1242.7 0.628237 1197.18 -8.41345 1151.72C-11.6217 1135.75 -12.7708 1120.09 -11.8333 1104.68C-10.633 1086.28 -4.22255 1069.36 3.04152 1052.64C7.99893 1041.21 13.3581 1029.88 17.7333 1018.23C26.3758 995.211 31.033 970.756 31.7835 946.199C32.2222 931.84 31.2578 917.446 28.971 903.208C27.3593 893.182 25.1671 882.621 23.1884 871.933C20.4608 856.883 18.248 841.569 18.4737 826.72C18.5328 821.402 18.9054 816.153 19.7122 811.037C23.1222 789.819 45.9563 773.831 63.2035 758.428C67.8162 754.309 72.0337 750.234 75.4024 746.108C89.1859 729.232 96.4921 708.698 97.1193 686.829C97.2303 683.066 97.1438 679.26 96.8693 675.419C95.8904 661.72 92.5377 647.554 87.2605 633.409C84.1304 625.024 78.6942 616.286 78.4178 608.573C78.246 603.815 80.0899 599.525 85.467 595.89C90.2369 592.663 96.4808 591.132 102.066 588.706C121.462 580.328 130.432 559.21 120.813 540.12M42.7673 1284.59C18.6831 1241.46 -1.03852 1196.21 -10.0732 1150.99C-13.3717 1134.69 -14.2755 1118.82 -13.5447 1103.07C-12.6727 1084.32 -6.52556 1067.04 0.546648 1049.95C5.37473 1038.28 10.6592 1026.71 15.0642 1014.85C23.7665 991.44 28.8927 966.724 30.5107 942.062C31.4568 927.642 31.1134 913.235 29.5743 899.024C28.487 888.995 26.8889 878.477 25.4955 867.844C23.6098 852.864 22.256 837.645 23.046 822.729C23.3001 817.393 23.8294 812.11 24.7492 806.944C28.6526 785.469 50.7621 768.789 67.115 752.712C71.4803 748.421 75.4412 744.177 78.5743 739.891C91.3505 722.406 97.6323 701.454 97.2784 679.283C97.2226 675.47 96.9689 671.614 96.5317 667.725C94.9763 653.854 91.1138 639.525 85.5845 625.191C82.3019 616.69 76.8647 607.84 76.5118 599.961C76.2927 595.099 78.0823 590.709 83.2743 586.931C87.9175 583.55 93.9853 581.788 99.4537 579.178C118.439 570.177 127.583 548.927 118.285 529.531M42.2518 1282.72C17.4578 1240.23 -2.70564 1195.24 -11.7281 1150.26C-15.1144 1133.63 -15.7433 1117.55 -15.2512 1101.46C-14.6688 1082.38 -8.82316 1064.71 -1.94106 1047.27C2.75593 1035.35 7.96739 1023.55 12.4051 1011.48C21.1666 987.673 26.7642 962.696 29.2473 937.927C30.6992 923.445 30.9808 909.029 30.1871 894.843C29.6258 884.814 28.5855 874.332 27.8143 863.759C26.7236 848.842 26.3234 833.737 27.6295 818.744C28.0955 813.394 28.7641 808.074 29.798 802.854C34.1954 781.122 55.5813 763.753 71.0358 747C75.1533 742.538 78.8586 738.122 81.756 733.674C93.5315 715.587 98.7824 694.211 97.4453 671.738C97.2198 667.874 96.801 663.97 96.2022 660.031C94.068 645.986 89.6959 631.494 83.9144 616.971C80.4794 608.353 75.0393 599.389 74.6119 591.348C74.3453 586.38 76.0806 581.891 81.0876 577.97C85.6041 574.436 91.4958 572.443 96.8477 569.649C115.421 560.027 124.74 538.644 115.762 518.937M41.7343 1280.85C16.2328 1238.99 -4.37243 1194.27 -13.3855 1149.53C-16.8627 1132.57 -17.2114 1116.28 -16.9626 1099.84C-16.6697 1080.44 -11.1233 1062.39 -4.4336 1044.59C0.13463 1032.42 5.27126 1020.38 9.73827 1008.11C18.5596 983.902 24.6261 958.666 27.979 933.792C29.9384 919.249 30.844 904.819 30.795 890.661C30.7604 880.63 30.3074 870.188 30.1277 859.674C29.8726 844.823 30.3448 829.82 32.2081 814.757C32.8709 809.392 33.6921 804.035 34.8414 798.764C39.7322 776.776 60.3946 758.719 74.9537 741.289C78.8232 736.655 82.2742 732.072 84.9324 727.458C95.7066 708.768 99.9272 686.969 97.609 664.193C97.2168 660.279 96.6306 656.326 95.8715 652.34C93.1608 638.122 88.2784 623.469 82.2429 608.754C78.6556 600.02 73.212 590.944 72.7105 582.739C72.396 577.667 74.0764 573.072 78.9 569.011C83.2882 565.32 89.0078 563.101 94.2426 560.124C112.405 549.878 121.9 528.365 113.239 508.349M41.2193 1278.98C15.0109 1237.76 -6.03659 1193.3 -15.0398 1148.79C-18.6048 1131.51 -18.6741 1115.01 -18.6685 1098.23C-18.6628 1078.49 -13.4203 1060.06 -6.92073 1041.91C-2.48359 1029.49 2.57998 1017.21 7.07973 1004.74C15.9602 980.133 22.4987 954.635 26.7162 929.656C29.1808 915.052 30.7125 900.609 31.4089 886.476C31.9014 876.442 32.0358 866.041 32.4454 855.585C33.0281 840.8 34.3698 825.9 36.7904 810.767C37.6501 805.387 38.6262 799.993 39.8891 794.67C45.2739 772.424 65.214 753.684 78.8752 735.575C82.4991 730.771 85.6941 726.018 88.1149 721.24C97.8917 701.952 101.079 679.723 97.7765 656.646C97.2174 652.682 96.4616 648.678 95.542 644.645C92.2549 630.255 86.8627 615.439 80.5751 600.535C76.8354 591.684 71.389 582.494 70.8129 574.126C70.4533 568.951 72.0736 564.249 76.718 560.053C80.9782 556.203 86.523 553.758 91.6412 550.597C109.394 539.73 119.061 518.083 110.723 497.757M40.7038 1277.11C13.7856 1236.52 -7.70367 1192.33 -16.6975 1148.07C-20.3527 1130.45 -20.1401 1113.75 -20.3801 1096.62C-20.6592 1076.55 -15.723 1057.74 -9.41592 1039.22C-5.10811 1026.56 -0.119297 1014.04 4.41086 1001.37C13.3511 976.362 20.361 950.604 25.4436 925.518C28.4163 910.852 30.5765 896.398 32.0125 882.292C33.0345 872.255 33.7533 861.896 34.7544 851.499C36.1727 836.779 38.3839 821.982 41.3646 806.779C42.4217 801.382 43.5516 795.955 44.9282 790.579C50.8063 768.077 70.0264 748.653 82.7886 729.862C86.1668 724.888 89.1053 719.966 91.2886 715.025C100.073 695.139 102.221 672.482 97.9347 649.104C97.206 645.089 96.2851 641.037 95.2041 636.953C91.3405 622.391 85.4385 607.411 78.8964 592.318C75.0044 583.351 69.5568 574.049 68.9043 565.516C68.4973 560.235 70.058 555.426 74.5226 551.095C78.6527 547.086 84.0272 544.416 89.0265 541.07C106.368 529.581 116.21 507.802 108.19 487.167M40.1863 1275.24C12.5606 1235.29 -9.37048 1191.36 -18.3544 1147.33C-22.0975 1129.39 -21.6053 1112.48 -22.0881 1095C-22.6521 1074.6 -18.0221 1055.41 -11.9051 1036.54C-7.72841 1023.63 -2.80965 1010.87 1.74979 997.997C10.7493 972.592 18.2287 946.571 24.1805 921.383C27.6584 906.655 30.4471 892.189 32.6232 878.109C34.1748 868.069 35.4786 857.75 37.0712 847.412C39.3274 832.758 42.4058 818.063 45.9466 802.789C47.2006 797.378 48.4854 791.913 49.9755 786.485C56.3477 763.725 74.8501 743.619 86.708 724.145C89.8401 719.003 92.5255 713.911 94.469 708.805C102.262 688.326 103.369 665.235 98.1024 641.555C97.2069 637.49 96.1187 633.389 94.8749 629.257C90.4349 614.522 84.0203 599.38 77.2266 584.096C73.1816 575.014 67.7318 565.596 67.0047 556.901C66.5503 551.515 68.0514 546.599 72.3368 542.131C76.3372 537.961 81.5385 535.068 86.4237 531.539C103.354 519.427 113.372 497.515 105.672 476.572M39.6705 1273.37C11.3372 1234.05 -11.0378 1190.39 -20.0101 1146.6C-23.8433 1128.33 -23.0694 1111.21 -23.7978 1093.39C-24.646 1072.66 -20.3234 1053.09 -14.3954 1033.86C-10.3474 1020.7 -5.50404 1007.71 -0.914186 994.625C8.14508 968.821 16.0958 942.54 22.9127 917.245C26.8987 902.456 30.3182 887.978 33.2316 873.925C35.315 863.882 37.2015 853.603 39.3834 843.323C42.4803 828.734 46.423 814.142 50.5211 798.799C51.9719 793.372 53.4116 787.871 55.0148 782.392C61.8804 759.376 79.6669 738.59 90.6217 718.431C93.5082 713.118 95.9392 707.858 97.6436 702.586C104.45 681.516 104.512 657.99 98.2621 634.007C97.1974 629.89 95.9442 625.741 94.5377 621.562C89.5212 606.654 82.5969 591.35 75.5505 575.878C71.3531 566.679 65.8998 557.149 65.0987 548.29C64.5969 542.799 66.0361 537.775 70.144 533.172C74.0124 528.841 79.0331 525.716 83.8115 522.012C100.287 509.244 110.522 487.234 103.143 465.98M39.1555 1271.5C10.1131 1232.82 -12.7015 1189.42 -21.665 1145.87C-25.5861 1127.27 -24.5297 1109.94 -25.5043 1091.78C-26.6351 1070.72 -22.621 1050.76 -16.8831 1031.17C-12.9662 1017.77 -8.19595 1004.54 -3.57336 991.255C5.54512 965.053 13.9679 938.511 21.6493 913.111C26.1405 898.261 30.1944 883.769 33.8444 869.744C36.4597 859.699 38.9311 849.46 41.7017 839.24C45.6387 824.718 50.444 810.226 55.1046 794.813C56.7505 789.369 58.3462 783.836 60.0637 778.303C67.4232 755.028 84.4961 733.563 94.5449 712.719C97.1876 707.239 99.3649 701.81 100.825 696.37C106.649 674.71 105.663 650.746 98.4312 626.463C97.1993 622.297 95.7763 618.097 94.21 613.87C88.6171 598.789 81.1831 583.322 73.8821 567.66C69.5324 558.345 64.0785 548.702 63.2004 539.679C62.6507 534.085 64.0268 528.948 67.9613 524.215C71.696 519.72 76.5476 516.374 81.2119 512.487C97.2757 499.097 107.686 476.954 100.625 455.391M38.638 1269.62C8.88804 1231.58 -14.3706 1188.44 -23.3242 1145.14C-27.336 1126.2 -25.9949 1108.68 -27.2174 1090.16C-28.6308 1068.77 -24.9229 1048.44 -19.3774 1028.49C-15.5898 1014.84 -10.8944 1001.37 -6.24192 987.882C2.93633 961.281 11.8281 934.477 20.377 908.972C25.3763 894.059 30.0609 879.557 34.4487 865.556C37.5959 855.51 40.6523 845.31 44.0122 835.148C48.79 820.692 54.4572 806.302 59.6797 790.821C61.5224 785.362 63.2731 779.792 65.1013 774.207C72.9542 750.676 89.3158 728.534 98.454 707.003C100.853 701.355 102.776 695.756 103.995 690.151C108.839 667.902 106.801 643.501 98.5857 618.915C97.1847 614.698 95.5967 610.45 93.8682 606.173C87.6965 590.919 79.7545 575.291 72.1996 559.438C67.6975 550.007 62.2402 540.25 61.2881 531.063C60.6933 525.365 62.0039 520.115 65.7628 515.25C69.3609 510.592 74.0463 507.025 78.594 502.954C94.2438 488.942 104.833 466.668 98.0926 444.794M38.1225 1267.75C7.66509 1230.35 -15.9252 1187.48 -24.9796 1144.41C-29.0306 1125.15 -27.4534 1107.41 -28.9244 1088.55C-30.6174 1066.83 -27.221 1046.11 -21.8679 1025.81C-18.2115 1011.91 -13.5885 998.202 -8.90384 984.512C0.333616 957.514 9.69673 930.45 19.1131 904.839C24.6175 889.866 29.9405 875.352 35.0609 861.377C38.7423 851.329 42.3837 841.17 46.3276 831.066C51.9461 816.675 58.4748 802.389 64.2604 786.837C66.2976 781.362 68.2055 775.756 70.1473 770.119C78.4942 746.33 94.1463 723.511 102.374 701.292C104.529 695.477 106.199 689.709 107.176 683.936C111.043 661.099 107.95 636.26 98.7538 611.374C97.1859 607.106 95.4306 602.809 93.5395 598.485C86.7913 583.058 78.3395 567.267 70.5325 551.225C65.878 541.677 60.4179 531.806 59.3911 522.457C58.7489 516.653 59.9935 511.292 63.579 506.296C67.041 501.473 71.5598 497.687 75.9904 493.433C91.2261 478.799 101.992 456.392 95.5711 434.21M37.6072 1265.88C6.43996 1229.11 -17.5898 1186.51 -26.6342 1143.68C-30.7731 1124.08 -28.9117 1106.14 -30.6307 1086.94C-32.6033 1064.89 -29.5183 1043.79 -24.3554 1023.13C-20.8277 1008.98 -16.28 995.035 -11.565 981.139C-2.26541 953.743 7.56438 926.418 17.8482 900.701C23.8607 885.665 29.8198 871.14 35.6722 857.192C39.8907 847.142 44.1119 837.023 48.6449 826.977C55.1066 812.652 62.4926 798.466 68.8429 782.846C71.0752 777.353 73.1369 771.714 75.1946 766.025C84.0349 741.98 98.9781 718.483 106.296 695.577C108.208 689.592 109.623 683.656 110.359 677.717C113.253 654.291 109.101 629.014 98.9215 603.826C97.1863 599.508 95.2636 595.162 93.2103 590.789C85.8857 575.189 76.9219 559.235 68.8627 543.003C64.0581 533.339 58.5945 523.357 57.4914 513.842C56.8018 507.933 57.9787 502.459 61.3926 497.334C64.7168 492.344 69.0723 488.343 73.3869 483.903C88.2109 468.647 99.1513 446.108 93.0526 423.616M37.0894 1264.01C5.2153 1227.87 -19.2591 1185.54 -28.2919 1142.95C-32.5187 1123.02 -30.3725 1104.88 -32.3424 1085.33C-34.5946 1062.95 -31.8211 1041.46 -26.8482 1020.44C-23.4516 1006.05 -18.977 991.869 -14.2298 977.771C-4.87102 949.977 5.43073 922.39 16.5796 896.567C23.0974 881.47 29.6948 866.935 36.2798 853.011C41.0324 842.96 45.8386 832.881 50.9586 822.892C58.2651 808.636 66.5067 794.548 73.4212 778.86C75.848 773.352 78.0669 767.677 80.2377 761.937C89.572 737.634 103.81 713.463 110.214 689.867C111.884 683.715 113.046 677.61 113.535 671.502C115.459 647.491 110.247 621.772 99.0826 596.282C97.1783 591.913 95.0883 587.518 92.8747 583.098C84.9735 567.326 75.4994 551.21 67.1863 534.786C62.2294 525.006 56.7623 514.911 55.5851 505.232C54.8482 499.219 55.955 493.629 59.2001 488.375C62.386 483.22 66.5771 479 70.7751 474.376C85.1873 458.498 96.3049 435.826 90.523 413.026M36.5742 1262.14C3.99255 1226.64 -21.0337 1184.56 -29.9465 1142.22C-34.3145 1121.96 -31.8302 1103.61 -34.0486 1083.71C-36.5805 1061 -34.1189 1039.14 -29.3356 1017.76C-26.0683 1003.12 -21.6661 988.702 -16.8909 974.398C-7.47232 946.205 3.30072 918.358 15.3165 892.431C22.3423 877.272 29.5776 862.728 36.8935 848.827C42.1849 838.776 47.5714 828.735 53.2754 818.805C61.425 804.614 70.5239 790.628 78.0032 774.871C80.6246 769.346 83.0007 763.635 85.2851 757.843C95.1128 733.284 108.647 708.437 114.133 684.151C115.559 677.831 116.471 671.556 116.715 665.284C117.671 640.685 111.395 614.526 99.2498 588.735C97.1781 584.317 94.9213 579.871 92.5455 575.401C84.0679 559.457 74.0841 543.178 65.5188 526.566C60.4095 516.669 54.9397 506.46 53.6873 496.62C52.9047 490.504 53.9396 484.797 57.0178 479.416C60.0629 474.094 64.1071 469.665 68.1735 464.848C82.2241 448.377 93.4658 425.545 88.0063 402.434M36.0589 1260.27C2.76746 1225.4 -22.7006 1183.59 -31.604 1141.49C-36.0604 1120.9 -33.2914 1102.34 -35.76 1082.1C-38.5693 1059.06 -36.4191 1036.81 -31.8306 1015.08C-28.6944 1000.19 -24.3647 985.531 -19.5573 971.025C-10.0795 942.435 1.16318 914.326 14.0464 888.293C21.5774 873.073 29.4534 858.519 37.4995 844.642C43.3274 834.59 49.2984 824.591 55.5876 814.716C64.582 800.594 74.5364 786.705 82.58 770.881C85.3958 765.341 87.9287 759.596 90.3267 753.751C100.648 728.934 113.483 703.413 118.048 678.438C119.234 671.95 119.893 665.508 119.891 659.067C119.883 633.881 112.539 607.284 99.4111 581.19C97.1703 576.72 94.748 572.227 92.2124 567.709C83.1583 551.592 72.6642 535.152 63.8449 518.348C58.5832 508.335 53.1122 498.014 51.7835 488.009C50.9535 481.788 51.9161 475.966 54.8273 470.458C57.7294 464.969 61.6161 460.324 65.566 455.322C79.2048 438.23 90.6214 415.263 85.4816 391.844M35.5408 1258.4C1.5419 1224.17 -24.3679 1182.62 -33.262 1140.76C-37.8086 1119.84 -34.7502 1101.08 -37.4697 1080.49C-40.5562 1057.12 -38.7198 1034.49 -34.3214 1012.4C-31.314 997.259 -27.0596 982.366 -22.2223 967.657C-12.6848 938.667 -0.970742 910.298 12.7771 884.16C20.8162 868.878 29.3317 854.318 38.1063 840.462C44.473 830.411 51.0244 820.451 57.8999 810.635C67.742 796.58 78.5468 782.79 87.1552 766.897C90.1661 761.339 92.8556 755.559 95.3672 749.662C106.183 724.587 118.318 698.392 121.963 672.728C122.91 666.073 123.316 659.46 123.067 652.853C122.099 627.08 113.684 600.043 99.5738 573.649C97.1662 569.128 94.5765 564.586 91.8782 560.021C82.2477 543.731 71.2415 527.127 62.1718 510.136C56.7578 500.007 51.2839 489.572 49.8805 479.405C49.0031 473.078 49.8904 467.142 52.6381 461.504C55.3948 455.848 59.1242 450.985 62.9575 445.8C76.1875 428.085 87.7777 404.988 82.9552 381.258M35.0259 1256.52C0.319472 1222.93 -26.0321 1181.65 -34.9163 1140.03C-39.5508 1118.78 -36.2047 1099.81 -39.1773 1078.87C-42.5412 1055.17 -41.0186 1032.16 -36.8103 1009.71C-33.934 994.325 -29.7526 979.196 -24.8826 964.283C-15.2859 934.895 -3.10222 906.264 11.5154 880.021C20.0597 864.678 29.2182 850.108 38.7207 836.277C45.6258 826.228 52.7604 816.304 60.2181 806.544C70.9051 792.558 82.5631 778.865 91.738 762.906C94.9435 757.332 97.7902 751.516 100.415 745.568C111.724 720.237 123.16 693.366 125.883 667.012C126.588 660.188 126.742 653.409 126.248 646.632C124.32 620.272 114.833 592.795 99.7394 566.1C97.1622 561.529 94.4057 556.936 91.547 552.324C81.3377 535.861 69.8241 519.094 60.4999 501.914C54.9335 491.668 49.4562 481.12 47.9765 470.788C47.0517 464.357 47.8642 458.304 50.4473 452.541C53.0592 446.714 56.6329 441.638 60.3473 436.268C73.1656 417.931 84.9306 394.7 80.4301 370.662M34.5103 1254.65C-0.90532 1221.7 -27.6986 1180.68 -36.5717 1139.3C-41.2964 1117.72 -37.661 1098.55 -40.8844 1077.26C-44.525 1053.23 -43.3168 1029.84 -39.2986 1007.03C-36.551 991.398 -32.445 976.032 -27.5451 960.915C-17.8886 931.129 -5.23363 902.237 10.2485 875.889C19.3009 860.484 29.099 845.908 39.3301 832.098C46.7739 822.049 54.4906 812.167 62.5335 802.462C74.0676 788.545 86.5766 774.948 96.3186 758.921C99.7168 753.329 102.722 747.482 105.461 741.479C117.264 715.89 128.003 688.344 129.804 661.301C130.27 654.311 130.17 647.361 129.426 640.419C126.539 613.469 115.98 585.555 99.9052 558.558C97.1612 553.936 94.2367 549.296 91.2165 544.633C80.4313 527.996 68.4068 511.069 58.8287 493.697C53.1093 483.337 47.6321 472.674 46.0754 462.179C45.1032 455.642 45.8386 449.472 48.2617 443.584C50.726 437.589 54.1446 432.297 57.7449 426.744C70.1519 407.784 82.0906 384.422 77.9098 360.074M33.9928 1252.78C-2.13032 1220.46 -29.3654 1179.71 -38.2309 1138.57C-43.0435 1116.65 -39.1186 1097.28 -42.5976 1075.64C-46.5131 1051.29 -45.621 1027.51 -41.7952 1004.34C-39.1793 988.465 -35.1452 972.859 -30.2131 957.54C-20.4975 927.356 -7.37051 898.203 8.97675 871.749C18.5343 856.282 28.9772 841.7 39.935 827.909C47.9171 817.862 56.2164 808.019 64.8439 798.371C77.2247 784.525 90.5857 771.021 100.894 754.928C104.487 749.32 107.649 743.436 110.501 737.383C122.798 711.538 132.843 683.315 133.718 655.583C133.943 648.425 133.593 641.304 132.602 634.197C128.761 606.659 117.124 578.307 100.066 551.007C97.1528 546.333 94.0634 541.645 90.8804 536.934C79.5188 520.125 66.9846 503.035 57.1543 485.474C51.2826 474.997 45.8018 464.222 44.1711 453.562C43.1533 446.923 43.8094 440.636 46.0713 434.619C48.3873 428.457 51.6537 422.948 55.1345 417.211C67.1304 397.628 79.2433 374.135 75.3845 349.478M33.4778 1250.91C-3.3528 1219.23 -31.0319 1178.74 -39.8858 1137.84C-44.7891 1115.59 -40.5743 1096.01 -44.304 1074.03C-48.4941 1049.34 -47.9191 1025.19 -44.2829 1001.66C-41.7957 985.536 -37.8347 969.694 -32.8745 954.169C-23.099 923.586 -9.50365 894.174 7.71337 867.614C17.779 852.086 28.8638 837.498 40.5478 823.728C49.0705 813.684 57.9508 803.878 67.1605 794.285C80.3884 780.508 94.598 767.101 105.475 750.941C109.261 745.315 112.58 739.398 115.546 733.292C128.336 707.188 137.689 678.292 137.636 649.872C137.623 642.546 137.022 635.257 135.781 627.981C130.986 599.854 118.271 571.065 100.229 543.464C97.1489 538.741 93.8927 534.002 90.547 529.244C78.6089 512.262 65.5649 495.009 55.4802 477.258C49.4561 466.665 43.9725 455.775 42.2672 444.953C41.202 438.209 41.778 431.806 43.8805 425.662C46.0466 419.331 49.1602 413.607 52.5268 407.687C64.1109 387.483 76.401 363.856 72.8589 338.891M32.962 1249.04C-4.57839 1217.99 -32.697 1177.77 -41.5409 1137.11C-46.5321 1114.53 -41.9717 1094.75 -46.0108 1072.42C-50.4144 1047.4 -50.2147 1022.87 -46.7709 998.981C-44.4148 982.606 -40.5267 966.527 -35.5344 950.8C-25.6997 919.82 -11.6325 890.146 6.44968 863.48C17.0205 847.891 28.7496 833.298 41.1603 819.547C50.2236 809.506 59.6842 799.738 69.4785 790.202C83.553 776.496 98.5657 763.158 110.059 746.956C114.024 741.305 117.514 735.362 120.594 729.204C133.877 702.844 142.537 673.27 141.556 644.161C141.304 636.667 140.449 629.209 138.962 621.767C133.213 593.05 119.421 563.822 100.398 535.921C97.1505 531.148 93.724 526.36 90.2191 521.552C77.7045 504.397 64.148 486.983 53.8116 469.041C47.6351 458.331 42.1504 447.33 40.3687 436.343C39.2561 429.493 39.7523 422.974 41.6953 416.704C43.7114 410.203 46.6722 404.265 49.9222 398.161C61.0952 377.333 73.5589 353.576 70.337 328.299M32.4445 1247.17C-5.80281 1216.75 -34.3637 1176.8 -43.1984 1136.37C-48.2797 1113.47 -43.4346 1093.48 -47.7222 1070.81C-52.4054 1045.46 -52.5171 1020.54 -49.2634 996.298C-47.0361 979.675 -43.2235 963.36 -38.2007 947.428C-28.3063 916.048 -13.77 886.113 5.17908 859.344C16.258 843.692 28.6285 829.095 41.7659 815.364C51.3698 805.325 61.4381 795.614 71.7901 786.115C86.7492 772.506 102.581 759.236 114.635 742.968C118.794 737.301 122.442 731.322 125.635 725.112C139.413 698.494 147.381 668.245 145.473 638.447C144.982 630.785 143.876 623.157 142.136 615.55C135.436 586.242 120.564 556.579 100.557 528.375C97.1404 523.55 93.549 518.714 89.8814 513.859C76.7903 496.531 62.724 478.953 52.1354 460.822C45.8066 449.996 40.3185 438.882 38.4627 427.731C37.3027 420.776 37.7189 414.141 39.5054 407.744C41.3686 401.075 44.1819 394.922 47.313 388.633C58.0743 367.183 70.7151 343.293 67.8129 317.707M31.929 1245.3C-7.02584 1215.52 -36.0309 1175.83 -44.8561 1135.65C-50.0253 1112.41 -44.8955 1092.22 -49.4316 1069.19C-54.3968 1043.52 -54.8176 1018.22 -51.7563 993.617C-49.6607 976.747 -45.9199 960.192 -40.8649 944.057C-30.9107 912.279 -15.9031 882.084 3.91109 855.208C15.4952 839.495 28.5122 824.894 42.3746 811.18C52.5185 801.146 63.1654 791.471 74.1026 782.026C89.9065 768.485 106.594 755.314 119.213 738.977C123.567 733.293 127.372 727.279 130.678 721.018C144.949 694.144 152.229 663.217 149.389 632.732C148.66 624.902 147.303 617.103 145.314 609.33C137.664 579.431 121.71 549.333 100.722 520.827C97.1382 515.953 93.3799 511.067 89.5496 506.163C75.8821 488.663 61.3061 470.923 50.4625 452.603C43.9813 441.66 38.4902 430.433 36.5599 419.119C35.3525 412.059 35.6864 405.307 37.3158 398.785C39.0238 391.946 41.6895 385.578 44.7064 379.105C55.0565 357.033 67.8711 333.012 65.2884 307.117M31.414 1243.42C-8.25061 1214.28 -37.6951 1174.86 -46.5104 1134.91C-51.7698 1111.35 -46.3528 1090.95 -51.1398 1067.58C-56.3846 1041.57 -57.1169 1015.89 -54.2457 990.933C-52.2812 973.815 -48.6135 957.024 -43.5287 940.685C-33.5153 908.509 -18.0357 878.053 2.64537 851.073C14.7376 835.298 28.3959 820.693 42.985 806.998C53.6695 796.967 64.8921 787.329 76.4185 777.942C93.0644 764.471 110.61 751.395 123.791 734.992C128.34 729.291 132.302 723.242 135.721 716.928C150.487 689.797 157.076 658.192 153.307 627.022C152.339 619.023 150.731 611.056 148.492 603.117C139.894 572.626 122.856 542.093 100.885 513.285C97.1325 508.359 93.2087 503.426 89.2162 498.473C74.9699 480.8 59.8859 462.898 48.7884 444.387C42.1548 433.328 36.6627 421.989 34.6559 410.51C33.4029 403.348 33.6499 396.477 35.1251 389.829C36.6802 382.821 39.1983 376.238 42.0963 369.581C52.0352 346.885 65.0241 322.731 62.7634 296.528M30.8965 1241.55C-9.47564 1213.05 -39.3641 1173.88 -48.1678 1134.18C-53.5151 1110.29 -47.8134 1089.68 -52.8489 1065.97C-58.3734 1039.63 -59.4171 1013.57 -56.7355 988.249C-54.8996 970.883 -51.3072 953.855 -46.192 937.312C-36.1165 904.737 -20.1702 874.02 1.37825 846.934C13.9757 831.098 28.3138 816.513 43.5917 802.811C54.8414 792.802 66.6175 783.182 78.7313 773.851C96.2197 760.448 114.626 747.472 128.369 730.999C133.113 725.281 137.231 719.199 140.764 712.833C156.023 685.445 161.997 653.167 157.222 621.304C156.036 613.138 154.157 605 151.668 596.894C142.12 565.81 124.001 534.843 101.048 505.736C97.1283 500.76 93.0348 495.777 88.8825 490.775C74.0598 472.929 58.466 454.865 47.1163 436.165C40.3327 424.99 34.8354 413.536 32.754 401.894C31.4536 394.627 31.6177 387.641 32.937 380.864C34.3339 373.688 36.7073 366.889 39.4889 360.047C49.016 336.73 62.1815 312.445 60.2382 285.931M30.3807 1239.68C-10.6984 1211.81 -41.0287 1172.91 -49.8231 1133.45C-55.2611 1109.23 -49.274 1088.41 -54.5581 1064.35C-60.3622 1037.69 -61.715 1011.24 -59.2258 985.567C-57.5211 967.952 -54.0017 950.688 -48.8538 933.941C-38.7191 900.969 -22.3009 869.989 0.11273 842.797C13.2177 826.901 28.1907 812.308 44.2024 798.628C55.988 788.62 68.3468 779.039 81.0452 769.765C99.3755 756.431 118.641 743.55 132.948 727.01C137.889 721.277 142.162 715.159 145.808 708.742C161.561 681.096 166.832 648.139 161.14 615.591C159.711 607.256 157.604 598.948 154.846 590.679C144.431 558.997 125.148 527.602 101.212 498.192C97.1222 493.165 92.8642 488.132 88.5516 483.084C73.1524 465.065 57.046 446.839 45.4447 427.948C38.5087 416.657 33.008 405.09 30.8525 393.285C29.5047 385.912 29.5837 378.81 30.751 371.907C31.9922 364.564 34.2211 357.549 36.8855 350.525C46.0015 326.584 59.3411 302.167 57.7174 275.344M29.8654 1237.81C-11.9234 1210.58 -42.6932 1171.94 -51.4782 1132.72C-57.0041 1108.17 -50.7322 1087.15 -56.2642 1062.74C-62.3503 1035.74 -64.0128 1008.92 -61.7132 982.883C-60.1378 965.023 -56.6904 947.519 -51.5155 930.57C-41.321 897.199 -24.4314 865.959 -1.15087 838.663C12.4598 822.704 28.0701 808.103 44.8149 794.447C57.1341 784.439 70.0761 774.896 83.3638 765.68C102.537 752.414 122.66 739.632 137.531 723.025C142.667 717.274 147.097 711.122 150.857 704.652C167.103 676.75 171.669 643.111 165.063 609.879C163.393 601.375 161.033 592.896 158.028 584.463C146.64 552.186 126.3 520.36 101.381 490.647C97.1244 485.57 92.6984 480.489 88.2237 475.392C72.248 457.201 55.6319 438.811 43.7761 419.731C36.6877 408.323 31.1864 396.643 28.9541 384.674C27.5589 377.196 27.5522 369.98 28.5658 362.949C29.6489 355.437 31.733 348.206 34.2809 340.998C42.9875 316.437 56.499 291.887 55.1973 264.755M29.3476 1235.94C-13.1487 1209.34 -44.3625 1170.97 -53.1376 1131.99C-58.7537 1107.11 -52.1949 1085.88 -57.9753 1061.13C-64.3411 1033.8 -66.315 1006.59 -64.2078 980.2C-62.7635 962.091 -59.389 944.351 -54.1814 927.197C-43.9277 893.429 -26.5691 861.928 -2.4206 834.525C11.6976 818.505 27.9434 803.895 45.4219 790.26C58.277 780.254 71.8017 770.75 85.6769 761.59C105.692 748.393 126.676 735.707 142.109 719.032C147.44 713.266 152.024 707.078 155.9 700.556C172.64 672.396 176.501 638.078 168.978 604.162C167.065 595.488 164.451 586.84 161.204 578.241C148.843 545.369 127.445 513.111 101.542 483.096C97.1187 477.968 92.5254 472.839 87.888 467.694C71.3359 449.33 54.21 430.777 42.102 411.507C34.8613 399.983 29.3565 388.19 27.0501 376.057C25.6075 368.475 25.496 361.14 26.3757 353.984C27.2815 346.299 29.2424 338.857 31.6714 331.464C39.9668 306.279 53.6526 281.597 52.6706 254.156M28.8324 1234.07C-14.3715 1208.11 -46.0271 1170 -54.7928 1131.26C-60.4968 1106.05 -53.6537 1084.61 -59.6845 1059.51C-66.3298 1031.86 -68.6152 1004.27 -66.6981 977.517C-62.7944 923.028 -41.4089 871.872 -3.68666 830.39C21.6881 802.486 53.8547 778.995 87.9925 757.506C108.85 744.376 130.692 731.79 146.69 715.047C176.099 684.268 183.285 641.057 172.898 598.452C162.511 555.848 135.634 513.811 101.706 475.556C70.92 440.84 32.6276 406.062 25.1476 367.451C16.5939 323.293 51.1872 287.035 50.1487 243.572M-239.908 1057.08C-181.087 1077.42 -117.103 1082.41 -62.5366 1070.92C-47.0126 1067.66 -31.7468 1062.83 -22.25 1053.44C5.18819 1026.33 -18.8706 979.334 -29.9421 944.994C-43.3008 903.554 -57.9651 862.09 -67.0278 820.581C-72.116 797.277 -74.3014 771.188 -54.462 757.015C-34.3706 742.664 -0.0822572 746.209 30.3036 747.739C65.7107 749.523 101.097 747.459 130.614 736.849C160.132 726.239 183.266 706.228 187.839 680.213C191.419 659.841 183.661 637.553 173.815 616.266C147.942 560.336 106.902 506.377 54.4543 459.335M-237.717 1059C-185.731 1076.98 -130.294 1081.09 -78.6878 1072.6C-73.8949 1071.81 -69.148 1070.94 -64.4777 1069.93C-49.1344 1066.61 -34.0503 1061.81 -24.5633 1052.6C2.89365 1025.97 -19.4711 980.146 -29.8254 946.091C-39.0058 915.899 -49.2161 885.55 -57.395 854.932C-60.256 844.302 -62.8778 833.669 -65.1456 823.031C-70.063 799.958 -72.207 774.183 -53.045 759.937C-33.6415 745.513 -0.506165 748.407 28.867 749.354C63.0928 750.455 97.3188 747.837 125.927 736.959C135.887 733.171 145.106 728.281 153.088 722.428C168.029 711.477 178.649 697.154 181.69 680.384C185.344 660.239 178.098 638.267 168.915 617.319C150.344 574.917 123.374 533.878 89.1341 495.987C78.918 484.68 68.057 473.655 56.5736 462.963M-235.528 1060.92C-185.275 1078.3 -132.428 1080.75 -80.4418 1071.66C-75.724 1070.83 -71.0327 1069.95 -66.4234 1068.93C-51.2625 1065.57 -36.3583 1060.79 -26.8783 1051.75C0.600302 1025.61 -20.0744 980.957 -29.7132 947.185C-38.1798 917.518 -47.9757 887.544 -55.8079 857.058C-58.5531 846.538 -61.0782 836.01 -63.2679 825.479C-68.0167 802.635 -70.1165 777.174 -51.6325 762.857C-32.9145 748.36 -0.932285 750.603 27.4252 750.967C60.4693 751.386 93.5362 748.212 121.232 737.066C130.874 733.184 139.809 728.237 147.555 722.361C162.058 711.375 172.432 697.135 175.534 680.553C179.258 660.635 172.527 638.981 164.009 618.372C146.796 576.644 121.776 536.474 89.5011 499.171C79.8708 488.039 69.5988 477.166 58.6872 466.59M-233.338 1062.84C-184.817 1079.62 -134.562 1080.43 -82.1941 1070.72C-77.5473 1069.85 -72.914 1068.97 -68.368 1067.94C-53.3877 1064.52 -38.6671 1059.77 -29.1951 1050.91C-1.69779 1025.26 -20.6834 981.777 -29.5999 948.283C-37.3568 919.145 -46.6443 889.546 -54.2226 859.19C-56.8231 848.778 -59.2805 838.356 -61.3915 827.93C-65.9694 805.316 -68.0272 780.168 -50.2218 765.781C-32.1894 751.212 -1.36259 752.803 25.9821 752.583C57.845 752.319 89.7518 748.591 116.538 737.179C125.863 733.2 134.513 728.198 142.025 722.301C156.089 711.278 166.217 697.123 169.378 680.727C173.174 661.034 166.956 639.699 159.104 619.428C143.248 578.372 120.18 539.073 89.8669 502.358C80.8223 491.402 71.1388 480.681 60.7967 470.222M-231.149 1064.76C-184.361 1080.94 -136.696 1080.11 -83.9471 1069.77C-79.3737 1068.87 -74.7955 1067.98 -70.3127 1066.94C-55.5149 1063.48 -40.9742 1058.75 -31.5098 1050.06C-3.99366 1024.9 -21.2961 982.594 -29.4868 949.375C-36.5397 920.768 -45.3745 891.539 -52.6345 861.315C-55.1111 851.011 -57.4805 840.698 -59.5129 830.376C-63.9222 807.991 -65.9387 783.158 -48.8084 768.698C-31.4639 754.057 -1.79012 754.996 24.5418 754.193C55.2236 753.246 85.9724 748.965 111.846 737.283C120.856 733.211 129.22 728.153 136.499 722.232C150.122 711.174 160.003 697.103 163.228 680.893C167.098 661.426 161.392 640.409 154.205 620.477C139.707 580.095 118.589 541.665 90.2411 505.536C81.7829 494.754 72.6877 484.186 62.9175 473.844M-228.958 1066.68C-183.904 1082.26 -138.828 1079.8 -85.6991 1068.83C-81.1973 1067.9 -76.6783 1067 -72.2571 1065.95C-57.6399 1062.43 -43.2802 1057.73 -33.8257 1049.22C-6.29085 1024.54 -21.9141 983.417 -29.3751 950.468C-35.732 922.394 -44.1095 893.536 -51.0507 863.442C-53.4034 853.247 -55.6843 843.04 -57.6385 832.824C-61.8769 810.67 -63.8515 786.149 -47.3992 771.618C-30.7402 756.905 -2.2224 757.193 23.0974 755.805C52.5996 754.177 82.1865 749.34 107.149 737.389C115.841 733.223 123.92 728.107 130.966 722.166C144.15 711.072 153.786 697.083 157.069 681.062C161.01 661.821 155.816 641.122 149.295 621.528C136.151 581.82 116.986 544.259 90.6007 508.717C82.7283 498.111 74.2221 487.694 65.0238 477.469M-226.767 1068.6C-183.446 1083.58 -140.956 1079.51 -87.4486 1067.89C-83.0189 1066.93 -78.5569 1066.02 -74.1983 1064.95C-59.7641 1061.39 -45.5839 1056.71 -36.1369 1048.37C-8.58269 1024.19 -22.5314 984.248 -29.2562 951.566C-34.9235 924.027 -42.8367 895.536 -49.4568 865.573C-51.6856 855.487 -53.878 845.385 -55.7518 835.276C-59.8216 813.352 -61.7525 789.146 -45.9777 774.542C-30.0042 759.757 -2.64181 759.393 21.6652 757.421C49.9863 755.11 78.413 749.72 102.466 737.5C110.84 733.239 118.635 728.069 125.445 722.103C138.19 710.972 147.58 697.069 150.925 681.233C154.937 662.219 150.258 641.837 144.402 622.583C132.616 583.549 115.401 546.857 90.9803 511.903C83.6941 501.471 75.7764 491.206 67.1493 481.101M-224.578 1070.52C-182.99 1084.9 -143.087 1079.22 -89.2021 1066.94C-84.8422 1065.95 -80.4388 1065.03 -76.144 1063.96C-61.89 1060.34 -47.8914 1055.68 -38.4542 1047.53C-10.879 1023.83 -23.1629 985.073 -29.1463 952.659C-34.1299 925.657 -41.5765 897.534 -47.8744 867.698C-49.9816 857.72 -52.0808 847.725 -53.8788 837.722C-57.7778 816.028 -59.6667 792.135 -44.5699 777.46C-29.2843 762.601 -3.07265 761.587 20.2187 759.032C47.3581 756.04 74.6251 750.095 97.7657 737.607C105.824 733.253 113.333 728.024 119.909 722.037C132.216 710.871 141.357 697.051 144.763 681.401C148.849 662.614 144.682 642.549 139.492 623.632C129.062 585.271 113.799 549.45 91.3414 515.081C84.641 504.825 77.3122 494.711 69.257 484.722M-222.388 1072.44C-182.532 1086.22 -145.212 1078.95 -90.954 1066C-86.6645 1064.98 -82.322 1064.05 -78.0877 1062.96C-64.0166 1059.3 -50.1997 1054.66 -40.7701 1046.68C-13.1761 1023.47 -23.7975 985.909 -29.0321 953.755C-33.3405 927.293 -40.3114 899.533 -46.2858 869.829C-48.2696 859.961 -50.2797 850.071 -51.9991 840.172C-55.7295 818.707 -57.5747 795.13 -43.1577 780.381C-28.5577 765.45 -3.50137 763.783 18.7772 760.646C44.7354 756.97 70.8428 750.469 93.0735 737.715C100.814 733.266 108.039 727.982 114.382 721.972C126.247 710.77 135.144 697.034 138.61 681.57C142.767 663.009 139.114 643.263 134.587 624.683C125.515 586.997 112.202 552.044 91.7092 518.263C85.5952 508.181 78.8572 498.22 71.3692 488.347M-220.196 1074.36C-182.074 1087.54 -147.331 1078.68 -92.7055 1065.06C-88.4865 1064.01 -84.202 1063.07 -80.0316 1061.97C-66.1406 1058.25 -52.5053 1053.64 -43.0838 1045.84C-15.4705 1023.12 -24.4376 986.744 -28.9181 954.851C-32.5595 928.93 -39.0516 901.532 -44.6992 871.957C-46.5637 862.196 -48.4806 852.414 -50.1219 842.621C-53.6814 821.387 -55.4847 798.123 -41.7457 783.302C-27.8312 768.299 -3.93036 765.98 17.3355 762.258C42.1124 757.9 67.0597 750.846 88.3786 737.822C95.8012 733.279 102.742 727.938 108.851 721.906C120.278 710.667 128.927 697.015 132.455 681.741C136.686 663.407 133.545 643.976 129.684 625.737C121.967 588.723 110.606 554.64 92.0763 521.447C86.548 511.541 80.399 501.731 73.4823 491.977M-218.009 1076.28C-181.619 1088.86 -149.453 1078.42 -94.4574 1064.12C-90.307 1063.04 -86.0829 1062.08 -81.9728 1060.97C-68.2649 1057.21 -54.809 1052.62 -45.3968 1044.99C-17.7647 1022.76 -25.0837 987.582 -28.8009 955.945C-31.7834 930.566 -37.7893 903.53 -43.1071 874.083C-44.8507 864.432 -46.6761 854.755 -48.2393 845.068C-51.6303 824.064 -53.3899 801.115 -40.3283 786.221C-27.0994 771.145 -4.35385 768.175 15.8992 763.87C39.4944 758.83 63.282 751.22 83.6915 737.928C90.7986 733.291 97.4555 727.893 103.329 721.839C114.317 710.565 122.72 696.996 126.307 681.907C130.61 663.798 127.983 644.688 124.786 626.787C118.427 590.447 109.019 557.234 92.4522 524.626C87.5097 514.896 81.9497 505.236 75.6049 495.6M-215.817 1078.19C-181.161 1090.18 -151.564 1078.18 -96.2088 1063.17C-92.127 1062.07 -87.965 1061.1 -83.9164 1059.98C-70.3885 1056.17 -57.1144 1051.6 -47.7102 1044.15C-20.0594 1022.4 -25.7408 988.423 -28.6867 957.041C-31.0189 932.206 -36.5299 905.531 -41.5208 876.213C-43.1457 866.671 -44.8774 857.1 -46.3624 847.519C-49.5825 826.745 -51.3025 804.108 -38.9172 789.145C-26.3762 773.997 -4.78193 770.377 14.4543 765.485C36.8706 759.763 59.4957 751.599 78.9953 738.04C85.7844 733.309 92.1569 727.856 97.7948 721.777C108.344 710.468 116.501 696.983 120.15 682.08C124.523 664.197 122.411 645.404 119.877 627.842C114.874 592.176 107.419 559.832 92.8161 527.812C88.4599 518.256 83.4883 508.749 77.7147 499.231M-213.629 1080.11C-180.705 1091.5 -153.671 1077.94 -97.9629 1062.23C-93.9503 1061.1 -89.8423 1060.12 -85.8623 1058.98C-72.5016 1055.14 -59.425 1050.58 -50.0283 1043.3C-22.3564 1022.05 -26.4084 989.262 -28.5776 958.135C-30.2695 933.844 -35.2803 907.529 -39.9368 878.341C-41.4429 868.907 -43.0792 859.444 -44.485 849.967C-47.5365 829.422 -49.2128 807.1 -37.5049 792.064C-25.6494 776.844 -5.21062 772.572 13.0123 767.098C34.2474 760.693 55.7122 751.975 74.3001 738.147C80.7715 733.321 86.86 727.811 92.2642 721.711C102.373 710.365 110.284 696.964 113.993 682.25C118.44 664.594 116.839 646.119 114.972 628.894C111.326 593.903 105.821 562.427 93.1805 530.995C89.4101 521.614 85.0275 512.259 79.8235 502.857M-211.438 1082.03C-180.247 1092.82 -155.77 1077.72 -99.7143 1061.29C-95.7686 1060.13 -91.7251 1059.14 -87.806 1057.98C-74.6259 1054.1 -61.7304 1049.56 -52.3413 1042.46C-24.6501 1021.69 -27.0841 990.104 -28.4606 959.231C-29.5207 935.485 -34.0228 909.527 -38.3477 880.47C-39.7357 871.147 -41.2777 861.788 -42.6054 852.417C-45.486 832.102 -47.1203 810.093 -36.0905 794.986C-24.9205 779.693 -5.63712 774.769 11.573 768.712C31.6264 761.625 51.9316 752.352 69.6101 738.256C75.7665 733.335 81.5676 727.77 86.7393 721.646C96.4086 710.264 104.074 696.946 107.845 682.418C112.363 664.989 111.277 646.832 110.074 629.946C107.784 595.628 104.231 565.022 93.5564 534.176C90.3723 524.97 86.5781 515.766 81.946 506.482M-209.247 1083.95C-179.789 1094.14 -157.862 1077.51 -101.466 1060.34C-97.5869 1059.16 -93.6049 1058.15 -89.7491 1056.99C-76.7497 1053.05 -64.0359 1048.54 -54.6566 1041.61C-26.9466 1021.33 -27.7702 990.947 -28.3481 960.324C-28.7863 937.123 -32.7733 911.527 -36.7604 882.596C-38.0297 873.382 -39.4778 864.129 -40.7274 854.864C-43.4395 834.779 -45.0302 813.086 -34.6778 797.905C-24.1957 782.54 -6.06535 776.964 10.132 770.323C29.0043 762.553 48.1498 752.725 64.916 738.361C70.7545 733.345 76.2718 727.724 81.2097 721.578C90.4402 710.161 97.8594 696.927 101.689 682.585C106.279 665.382 105.707 647.541 105.168 630.993C104.236 597.349 102.633 567.612 93.9207 537.353C91.3223 528.322 88.1172 519.27 84.0563 510.105M-207.058 1085.87C-179.333 1095.46 -159.948 1077.31 -103.218 1059.4C-99.4064 1058.2 -95.4861 1057.17 -91.6935 1055.99C-78.8748 1052.01 -66.3421 1047.52 -56.9704 1040.77C-29.2416 1020.98 -28.468 991.792 -28.2317 961.421C-28.0562 938.765 -31.5217 913.527 -35.1714 884.725C-36.3244 875.619 -37.6765 866.473 -38.8479 857.314C-41.3891 837.459 -42.9379 816.079 -33.2635 800.827C-23.4669 785.389 -6.48961 779.162 8.6927 771.937C26.3832 763.486 44.369 753.102 60.2253 738.472C65.7459 733.361 70.9788 727.684 75.6813 721.515C84.4733 710.061 91.6442 696.91 95.5345 682.757C100.198 665.781 100.138 648.258 100.264 632.048C100.687 599.077 101.037 570.21 94.2895 540.54C92.2799 531.683 89.6631 522.784 86.1718 513.735M-204.867 1087.79C-178.875 1096.78 -162.022 1077.12 -104.969 1058.46C-101.223 1057.23 -97.3656 1056.19 -93.6363 1055C-81 1050.96 -68.6694 1046.48 -59.2854 1039.92C-31.6004 1020.57 -29.1794 992.632 -28.119 962.513C-27.3419 940.4 -30.2765 915.523 -33.5843 886.852C-34.6214 877.855 -35.8769 868.814 -36.9702 859.761C-39.3429 840.136 -40.848 819.071 -31.851 803.746C-22.7395 788.234 -6.91807 781.357 7.25092 773.55C23.7602 764.415 40.5859 753.478 55.5304 738.579C60.7355 733.375 65.6821 727.64 70.1509 721.449C78.5016 709.959 85.4289 696.893 89.3807 682.925C94.1155 666.174 94.57 648.97 95.3615 633.099C97.1424 600.803 99.4423 572.805 94.6577 543.72C93.2337 535.039 91.2059 526.29 88.2841 517.358M-202.679 1089.71C-178.42 1098.1 -164.09 1076.95 -106.724 1057.52C-103.042 1056.27 -99.251 1055.2 -95.5832 1054C-83.1276 1049.92 -70.9787 1045.46 -61.6045 1039.08C-33.8984 1020.21 -29.9048 993.474 -28.011 963.611C-26.6428 942.041 -29.0385 917.524 -32.0037 888.982C-32.9273 880.094 -34.0838 871.159 -35.0984 862.211C-37.3002 842.816 -38.7634 822.064 -30.4468 806.666C-22.0231 791.082 -7.35536 783.555 5.80144 775.162C21.1295 765.344 36.795 753.854 50.8301 738.686C55.7174 733.387 60.3801 727.596 64.6152 721.383C72.527 709.858 79.2059 696.875 83.2193 683.093C88.0276 666.569 88.9916 649.682 90.4487 634.149C93.5851 602.526 97.838 575.396 95.0175 546.901C94.1799 538.395 92.74 529.8 90.3901 520.985M-200.488 1091.63C-177.96 1099.42 -166.147 1076.78 -108.475 1056.57C-104.859 1055.31 -101.131 1054.22 -97.5261 1053C-85.2529 1048.87 -73.2834 1044.44 -63.9167 1038.23C-36.1913 1019.85 -30.6405 994.309 -27.8931 964.703C-25.9436 943.674 -27.7928 919.519 -30.4114 891.108C-31.2216 882.329 -32.2768 873.501 -33.2156 864.658C-35.2488 845.492 -36.6707 825.055 -29.0292 809.585C-21.291 793.928 -7.77865 785.749 4.36538 776.774C18.514 766.275 33.0199 754.229 46.1433 738.792C50.7126 733.399 55.0909 727.552 59.0929 721.316C66.5663 709.754 72.9992 696.855 77.0736 683.261C81.953 666.963 83.4312 650.395 85.5539 635.2C90.0482 604.251 96.2535 577.991 95.3931 550.082C95.1413 541.751 94.2904 533.307 92.5122 524.609M-198.297 1093.55C-177.502 1100.74 -168.19 1076.63 -110.224 1055.63C-106.672 1054.35 -103.012 1053.24 -99.468 1052.01C-87.3754 1047.83 -75.5876 1043.42 -66.2308 1037.39C-38.4843 1019.5 -31.3904 995.148 -27.7795 965.801C-25.2579 945.31 -26.5566 921.519 -28.8251 893.238C-29.5219 884.568 -30.4781 875.845 -31.3365 867.109C-33.1988 848.174 -34.5787 828.05 -27.6152 812.508C-20.5626 796.78 -8.20335 787.949 2.9256 778.389C15.8931 767.207 29.2387 754.608 41.4498 738.903C45.7037 733.416 49.7958 727.511 53.5617 721.253C60.5962 709.656 66.7831 696.841 70.9161 683.434C75.8667 667.362 77.8596 651.111 80.6474 636.256C86.4971 605.981 94.6549 580.59 95.7598 553.267C96.0937 545.113 95.8318 536.819 94.6255 528.239M-196.108 1095.47C-177.046 1102.06 -170.224 1076.5 -111.978 1054.69C-108.489 1053.38 -104.894 1052.25 -101.414 1051.01C-89.5035 1046.79 -77.895 1042.4 -68.5463 1036.54C-40.7782 1019.14 -32.1585 995.98 -27.6649 966.895C-24.5813 946.942 -25.3195 923.516 -27.2356 895.366C-27.8189 886.804 -28.6767 878.189 -29.4565 869.558C-31.1502 850.852 -32.4859 831.041 -26.2009 815.43C-19.8362 799.628 -8.62998 790.146 1.48621 780.003C13.2725 768.138 25.4585 754.983 36.7596 739.011C40.6956 733.431 44.5033 727.47 48.036 721.189C54.6292 709.556 60.5702 696.825 64.767 683.604C69.7912 667.759 72.296 651.826 75.747 637.308C82.9545 607.707 93.0624 583.185 96.1321 556.451C97.0523 548.47 97.3788 540.33 96.7439 531.868M-193.917 1097.39C-176.587 1103.38 -172.245 1076.37 -113.729 1053.74C-110.302 1052.42 -106.774 1051.27 -103.357 1050.02C-91.6291 1045.74 -80.183 1041.4 -70.8611 1035.69C-43.0163 1018.83 -32.9422 996.804 -27.552 967.987C-23.9179 948.567 -24.0869 925.512 -25.6506 897.492C-26.1227 889.038 -26.8792 880.53 -27.5809 872.004C-29.1037 853.529 -30.3981 834.033 -24.7906 818.348C-19.1114 802.475 -9.06057 792.341 0.042303 781.615C10.6468 769.069 21.6732 755.359 32.0626 739.118C35.6807 733.442 39.2045 727.425 42.5036 721.122C48.6584 709.452 54.3528 696.807 58.6088 683.771C63.7048 668.151 66.7237 652.536 70.8403 638.357C79.4033 609.429 91.4637 585.777 96.4957 559.63C98.0017 551.825 98.9196 543.836 98.8518 535.489M-191.729 1099.31C-176.132 1104.7 -174.255 1076.26 -115.484 1052.8C-112.12 1051.46 -108.659 1050.28 -105.303 1049.02C-93.7578 1044.69 -82.4911 1040.37 -73.1772 1034.85C-45.3114 1018.48 -33.7436 997.626 -27.441 969.084C-23.268 950.193 -22.861 927.511 -24.0648 899.622C-24.4257 891.276 -25.0809 882.874 -25.7039 874.454C-27.0582 856.208 -28.3082 837.025 -23.3787 821.269C-18.3851 805.323 -9.48965 794.537 -1.39954 783.228C8.02379 769.999 17.8899 755.735 27.37 739.226C30.6731 733.455 33.9119 727.384 36.9754 721.057C42.6914 709.352 48.1403 696.789 52.4544 683.942C57.6215 668.548 61.1547 653.251 65.9369 639.41C75.8577 611.157 89.8682 588.373 96.8656 562.813C98.9579 555.182 100.464 547.345 100.968 539.118M-189.538 1101.22C-175.674 1106.02 -176.245 1076.17 -117.233 1051.86C-113.931 1050.5 -110.537 1049.3 -107.245 1048.03C-95.8818 1043.65 -84.795 1039.36 -75.4905 1034.01C-47.606 1018.12 -34.5601 998.439 -27.3241 970.18C-22.621 951.812 -21.6291 929.508 -22.4753 901.749C-22.725 893.512 -23.2766 885.217 -23.8238 876.902C-25.0072 858.886 -26.216 840.018 -21.9639 824.189C-17.6582 808.17 -9.914 796.735 -2.83842 784.84C5.40373 770.927 14.1097 756.11 22.6774 739.333C25.6627 733.468 28.6176 727.34 31.4451 720.991C36.7226 709.249 41.9228 696.77 46.3007 684.11C51.5413 668.944 55.5863 653.965 61.0341 640.462C72.3104 612.882 88.2734 590.968 97.2331 565.994C99.9112 558.539 102.006 550.854 103.082 542.743M-187.347 1103.15C-175.217 1107.34 -178.224 1076.08 -118.984 1050.92C-115.741 1049.54 -112.423 1048.31 -109.188 1047.03C-98.0222 1042.58 -87.1002 1038.33 -77.8061 1033.16C-49.9022 1017.76 -35.3975 999.245 -27.212 971.273C-21.988 953.427 -20.4089 931.501 -20.8887 903.877C-21.0302 895.749 -21.4776 887.56 -21.9467 879.351C-22.9616 861.565 -24.126 843.011 -20.552 827.11C-16.9318 811.019 -10.343 798.932 -4.28022 786.453C2.7825 771.86 10.3265 756.486 17.9848 739.441C20.6522 733.482 23.3233 727.297 25.9171 720.926C30.7534 709.148 35.7098 696.754 40.1469 684.279C45.4588 669.339 50.0184 654.676 56.1289 641.513C68.7631 614.607 86.6762 593.562 97.6007 569.176C100.865 561.895 103.549 554.362 105.196 546.369M-185.158 1105.06C-174.76 1108.66 -180.187 1076.01 -120.738 1049.97C-117.557 1048.58 -114.308 1047.32 -111.132 1046.04C-100.149 1041.54 -89.4085 1037.31 -80.1196 1032.32C-52.1969 1017.41 -36.2521 1000.04 -27.0954 972.37C-21.3612 955.038 -19.1844 933.498 -19.2996 906.006C-19.3323 897.985 -19.6761 889.904 -20.0647 881.802C-20.9087 864.246 -22.0341 846.006 -19.1352 830.032C-16.2005 813.869 -10.7671 801.13 -5.71708 788.068C0.164449 772.791 6.54822 756.864 13.2971 739.551C15.649 733.497 18.0333 727.256 20.394 720.863C24.7913 709.049 29.5 696.737 34.0004 684.45C39.3834 669.736 44.4573 655.392 51.2334 642.567C65.223 616.334 85.0886 596.159 97.976 572.359C101.826 565.254 105.099 557.871 107.315 549.997M-182.968 1106.98C-174.303 1109.98 -182.132 1075.96 -122.49 1049.03C-119.368 1047.62 -116.188 1046.34 -113.075 1045.04C-102.273 1040.5 -91.714 1036.29 -82.4349 1031.47C-54.4935 1017.05 -37.1259 1000.83 -26.983 973.464C-20.7466 956.639 -17.9686 935.49 -17.7128 908.134C-17.639 900.22 -17.8768 892.247 -18.1868 884.249C-18.8622 866.923 -19.9434 848.996 -17.7248 832.951C-15.4757 816.716 -11.1978 803.324 -7.16102 789.68C-2.46124 773.722 2.76292 757.24 8.60012 739.657C10.6342 733.509 12.7345 727.211 14.8615 720.796C18.8204 708.946 23.2826 696.719 27.8416 684.619C33.2982 670.132 38.8845 656.104 46.3256 643.619C61.673 618.06 83.4911 598.754 98.3409 575.542C102.777 568.612 106.639 561.381 109.427 553.623M-180.779 1108.9C-173.847 1111.3 -184.062 1075.92 -124.244 1048.09C-121.181 1046.66 -118.07 1045.35 -115.021 1044.05C-104.402 1039.45 -94.0222 1035.27 -84.7507 1030.63C-56.7882 1016.7 -38.0194 1001.6 -26.8716 974.559C-20.1412 958.235 -16.7567 937.484 -16.1288 910.262C-15.949 902.456 -16.0804 894.589 -16.3122 886.697C-16.8168 869.602 -17.8565 851.989 -16.3154 835.871C-14.7542 819.563 -11.6269 805.52 -8.60526 791.292C-5.08667 774.651 -1.02219 757.614 3.90505 739.764C5.62123 733.522 7.43714 727.168 9.33155 720.728C12.8516 708.843 17.0677 696.7 21.6883 684.786C27.2166 670.523 33.3165 656.816 41.4209 644.668C58.1238 619.783 81.8943 601.347 98.7089 578.722C103.731 571.967 108.181 564.888 111.541 557.247M-178.588 1110.82C-173.39 1112.62 -185.971 1075.89 -125.993 1047.15C-122.988 1045.71 -119.951 1044.37 -116.963 1043.05C-106.523 1038.41 -96.3255 1034.25 -87.0644 1029.78C-59.0826 1016.34 -38.9296 1002.36 -26.7552 975.656C-19.539 959.827 -15.5445 939.478 -14.5375 912.392C-14.2512 904.692 -14.2748 896.936 -14.4303 889.148C-14.7663 872.282 -15.7619 854.983 -14.8993 838.795C-14.0236 822.415 -12.0518 807.72 -10.0429 792.908C-7.70549 775.584 -4.80122 757.993 -0.786265 739.876C0.614385 733.54 2.14411 727.129 3.80249 720.667C6.88123 708.745 10.852 696.684 15.5335 684.958C21.1353 670.923 27.747 657.533 36.5176 645.721C54.576 621.51 80.2989 603.943 99.0765 581.904C104.685 575.324 109.726 568.397 113.655 560.875M-176.397 1112.74C-172.931 1113.94 -187.861 1075.88 -127.745 1046.21C-124.797 1044.75 -121.831 1043.39 -118.906 1042.06C-108.65 1037.36 -98.6339 1033.23 -89.3775 1028.94C-61.3769 1015.98 -39.8578 1003.1 -26.6406 976.751C-18.9462 961.408 -14.3381 941.467 -12.9508 914.52C-12.5609 906.928 -12.4757 899.279 -12.5531 891.597C-12.7182 874.961 -13.6723 857.977 -13.4872 841.716C-13.2971 825.263 -12.4807 809.917 -11.4845 794.521C-10.3289 776.516 -8.58422 758.369 -5.47866 739.984C-4.39587 733.553 -3.15062 727.087 -1.72538 720.602C0.914982 708.643 4.63917 696.668 9.37931 685.128C15.0523 671.319 22.1788 658.247 31.6144 646.775C51.0306 623.237 78.7037 606.54 99.446 585.089C105.64 578.683 111.27 571.908 115.769 564.502M-174.208 1114.66C-172.475 1115.26 -189.733 1075.89 -129.498 1045.26C-126.607 1043.79 -123.716 1042.4 -120.851 1041.06C-110.776 1036.32 -100.941 1032.21 -91.6946 1028.09C-63.6753 1015.62 -40.8077 1003.83 -26.5277 977.843C-18.3599 962.977 -13.1799 943.444 -11.3629 916.645C-10.8811 909.156 -10.6754 901.618 -10.6747 894.043C-10.6712 877.637 -11.5811 860.966 -12.0741 844.633C-12.5718 828.108 -12.909 812.112 -12.925 796.131C-12.9506 777.442 -12.3661 758.742 -10.1723 740.087C-9.40737 733.563 -8.44603 727.039 -7.25449 720.532C-5.05307 708.539 -1.57484 696.647 3.22683 685.293C8.97105 671.711 16.6094 658.956 26.7105 647.822C47.4822 624.958 77.1078 609.13 99.8125 588.267C106.593 582.037 112.811 575.413 117.881 568.126M-172.018 1116.58C-172.018 1116.58 -191.584 1075.91 -131.25 1044.32C-70.9162 1012.73 -17.4048 1012.93 -9.77697 918.775C-4.50709 853.713 -22.1878 784.678 -12.7836 720.471C-8.9142 694.053 2.04004 668.698 21.8066 648.877C43.9361 626.687 75.5118 611.728 100.182 591.451C107.548 585.395 114.355 578.925 119.997 571.754" stroke="#FFB84A" stroke-width="0.197078" stroke-miterlimit="10"/>
</svg>
