<svg width="101" height="939" viewBox="0 0 101 939" fill="none" xmlns="http://www.w3.org/2000/svg">
<path d="M-43.1671 1049.08C-64.4196 1003.41 -82.3742 957.099 -91.4463 910.91C-94.3881 895.935 -96.392 880.892 -94.7066 866.523C-91.2702 837.225 -72.8355 812.567 -62.2771 785.34C-48.8656 750.761 -48.5584 711.534 -60.8588 672.758C-70.1155 643.581 -86.1131 608.867 -83.4202 580.311C-80.9737 554.37 -41.3669 538.962 -22.1306 521.76C-2.42913 504.139 8.43649 480.656 9.86938 455.499C10.6193 442.319 8.79749 428.637 4.28092 415.064C-0.0397332 402.083 -11.5402 388.159 4.03438 379.766C9.18248 376.992 15.9518 376.16 21.8887 374.287C42.5191 367.777 50.9648 347.053 40.3858 328.894M-43.6846 1047.21C-65.6446 1002.17 -84.041 956.127 -93.1037 910.179C-96.1339 894.876 -97.8525 879.624 -96.4179 864.909C-94.656 847.164 -87.625 831.009 -79.9807 815.002C-74.7634 804.074 -69.2587 793.216 -64.9438 781.969C-56.4226 759.749 -52.7064 735.816 -53.6878 711.47C-54.2625 697.234 -56.4481 682.858 -60.2532 668.574C-62.8991 658.549 -66.2927 647.908 -69.4475 637.105C-73.8595 621.918 -77.7893 606.409 -78.6896 591.696C-79.0202 586.411 -78.9609 581.23 -78.3791 576.221C-75.9565 555.517 -51.6489 540.934 -32.6336 526.854C-27.5197 523.085 -22.7861 519.352 -18.9542 515.543C-3.11887 499.917 6.19825 480.187 8.79084 458.919C9.23829 455.258 9.48655 451.549 9.53456 447.804C9.70798 434.452 7.37588 420.609 2.6077 406.844C-0.217741 398.692 -5.64759 390.181 -5.77536 382.794C-5.85468 378.246 -3.90337 374.152 1.84452 370.807C6.86659 367.884 13.4616 366.816 19.2796 364.759C39.4988 357.626 48.1182 336.771 37.8594 318.301M-44.1995 1045.34C-66.8694 1000.94 -85.7052 955.156 -94.758 909.448C-97.8784 893.813 -99.3122 878.355 -98.1239 863.296C-96.6416 845.22 -89.922 828.683 -82.4678 812.318C-77.3793 801.143 -71.947 790.047 -67.6046 778.596C-59.0213 755.978 -54.8361 731.784 -54.9524 707.331C-55.0195 693.035 -56.5702 678.651 -59.6416 664.389C-61.7539 654.365 -64.5648 643.763 -67.1298 633.016C-70.6999 617.899 -73.7707 602.485 -74.1091 587.704C-74.2446 582.402 -74.0292 577.188 -73.3332 572.124C-70.4171 551.164 -46.8145 535.9 -28.7162 521.137C-23.8456 517.198 -19.3826 513.285 -15.7782 509.321C-0.988625 493.056 7.34258 472.939 8.95417 451.369C9.23427 447.658 9.31286 443.9 9.20106 440.107C8.79857 426.58 5.95621 412.576 0.933535 398.621C-2.04428 390.352 -7.47699 381.727 -7.67937 374.178C-7.80376 369.525 -5.905 365.333 -0.346269 361.843C4.55088 358.769 10.968 357.468 16.6695 355.226C36.4769 347.472 45.2711 326.484 35.3338 307.706M-44.7154 1043.47C-68.0921 999.701 -87.372 954.185 -96.4137 908.719C-99.622 892.754 -100.771 877.09 -99.8336 861.684C-98.6332 843.278 -92.2228 826.36 -84.9587 809.638C-80.0013 798.214 -74.6421 786.882 -70.267 775.227C-61.6244 752.211 -56.9673 727.756 -56.2167 703.199C-55.7781 688.84 -56.7425 674.446 -59.0292 660.208C-60.6409 650.182 -62.8332 639.621 -64.8118 628.933C-67.5394 613.883 -69.7523 598.569 -69.5265 583.72C-69.4675 578.402 -69.0948 573.153 -68.2881 568.037C-64.8781 546.819 -42.0439 530.831 -24.7967 515.428C-20.184 511.309 -15.9665 507.234 -12.5978 503.108C1.1857 486.232 8.49189 465.698 9.11904 443.829C9.23003 440.066 9.1436 436.26 8.8691 432.419C7.89016 418.72 4.53747 404.554 -0.739703 390.409C-3.86989 382.024 -9.30606 373.286 -9.58249 365.573C-9.75427 360.815 -7.91036 356.525 -2.53326 352.89C2.23665 349.663 8.48053 348.132 14.0655 345.706C33.4618 337.328 42.432 316.21 32.8125 297.12M-45.2329 1041.59C-69.3171 998.465 -89.0388 953.213 -98.0734 907.987C-101.372 891.691 -102.276 875.815 -101.545 860.07C-100.673 841.325 -94.5258 824.036 -87.4536 806.954C-82.6255 795.285 -77.341 783.714 -72.9361 771.855C-64.2337 748.44 -59.1075 723.724 -57.4896 699.062C-56.5434 684.642 -56.8868 670.235 -58.4259 656.024C-59.5133 645.995 -61.1113 635.477 -62.5048 624.844C-64.3904 609.864 -65.7443 594.645 -64.9542 579.729C-64.7001 574.393 -64.1708 569.11 -63.2511 563.944C-59.3476 542.469 -37.2382 525.789 -20.8853 509.712C-16.5199 505.421 -12.5591 501.177 -9.42599 496.891C3.3503 479.406 9.63203 458.454 9.27818 436.283C9.22238 432.47 8.96862 428.614 8.53142 424.725C6.97601 410.854 3.11355 396.525 -2.41579 382.191C-5.69835 373.69 -11.1356 364.84 -11.4884 356.961C-11.7076 352.099 -9.91798 347.709 -4.72595 343.931C-0.0827183 340.55 5.98505 338.788 11.4534 336.178C30.4386 327.177 39.5831 305.927 30.285 286.531M-45.7484 1039.72C-70.5424 997.23 -90.7059 952.243 -99.7283 907.257C-103.115 890.631 -103.744 874.547 -103.251 858.458C-102.669 839.381 -96.8234 821.712 -89.9413 804.273C-85.2443 792.355 -80.0329 780.548 -75.5951 768.485C-66.8336 744.673 -61.236 719.696 -58.7529 694.927C-57.301 680.445 -57.0194 666.029 -57.8131 651.843C-58.3744 641.814 -59.4148 631.332 -60.186 620.759C-61.2767 605.842 -61.6768 590.737 -60.3708 575.744C-59.9047 570.394 -59.2362 565.074 -58.2022 559.854C-53.8048 538.122 -32.4189 520.753 -16.9644 504C-12.847 499.538 -9.1416 495.122 -6.2442 490.674C5.5313 472.587 10.7822 451.211 9.44502 428.738C9.21954 424.874 8.80074 420.97 8.20196 417.031C6.06777 402.986 1.69564 388.494 -4.08588 373.971C-7.52081 365.353 -12.961 356.389 -13.3884 348.348C-13.655 343.38 -11.9196 338.891 -6.91269 334.97C-2.39613 331.436 3.49556 329.443 8.84741 326.649C27.4208 317.027 36.7395 295.644 27.7616 275.937M-46.2659 1037.85C-71.7675 995.994 -92.3727 951.272 -101.386 906.526C-104.863 889.571 -105.212 873.279 -104.963 856.845C-104.67 837.436 -99.1235 819.387 -92.4338 801.589C-87.8656 789.424 -82.729 777.378 -78.262 765.114C-69.4407 740.902 -63.3741 715.666 -60.0212 690.792C-58.0618 676.249 -57.1563 661.819 -57.2052 647.661C-57.2399 637.63 -57.6929 627.188 -57.8725 616.674C-58.1277 601.823 -57.6555 586.82 -55.7922 571.757C-55.1293 566.392 -54.3082 561.035 -53.1588 555.764C-48.268 533.776 -27.6056 515.719 -13.0466 498.289C-9.17709 493.655 -5.72601 489.072 -3.06781 484.458C7.70634 465.768 11.927 443.969 9.6088 421.193C9.21654 417.279 8.63039 413.326 7.87124 409.34C5.16059 395.122 0.27811 380.469 -5.75734 365.754C-9.34465 357.02 -14.7882 347.944 -15.2897 339.739C-15.6042 334.667 -13.9238 330.072 -9.10021 326.011C-4.71209 322.32 1.00759 320.101 6.24233 317.124C24.4046 306.878 33.8998 285.365 25.2387 265.349M-46.7809 1035.98C-72.9893 994.757 -94.0368 950.301 -103.04 905.795C-106.605 888.509 -106.674 872.011 -106.669 855.231C-106.663 835.491 -101.421 817.061 -94.921 798.906C-90.4838 786.492 -85.4203 774.211 -80.9205 761.742C-72.04 737.133 -65.5015 711.635 -61.2841 686.656C-58.8195 672.052 -57.2877 657.609 -56.5914 643.476C-56.0988 633.442 -55.9645 623.041 -55.5549 612.585C-54.9722 597.8 -53.6304 582.9 -51.2099 567.767C-50.3501 562.387 -49.3741 556.993 -48.1111 551.67C-42.7264 529.424 -22.7863 510.684 -9.12508 492.575C-5.50119 487.771 -2.30615 483.018 0.114617 478.24C9.8915 458.952 13.0783 436.723 9.77622 413.646C9.21717 409.682 8.46131 405.678 7.54179 401.645C4.25467 387.255 -1.13752 372.439 -7.42514 357.535C-11.1648 348.684 -16.6112 339.494 -17.1873 331.126C-17.5469 325.951 -15.9267 321.249 -11.2823 317.053C-7.02204 313.203 -1.47727 310.758 3.64093 307.597C21.3937 296.73 31.0609 275.083 22.7223 254.757M-47.2964 1034.11C-74.2147 993.523 -95.7039 949.331 -104.698 905.065C-108.353 887.448 -108.14 870.745 -108.38 853.619C-108.659 833.549 -103.723 814.737 -97.4162 796.224C-93.1084 783.564 -88.1195 771.044 -83.5894 758.37C-74.6491 733.362 -67.6392 707.604 -62.5567 682.518C-59.584 667.852 -57.4237 653.398 -55.9878 639.292C-54.9657 629.255 -54.2469 618.896 -53.2458 608.499C-51.8276 593.779 -49.6163 578.982 -46.6356 563.779C-45.5785 558.382 -44.4487 552.955 -43.0721 547.579C-37.1939 525.077 -17.9739 505.653 -5.21169 486.862C-1.83341 481.888 1.10507 476.966 3.2884 472.025C12.0727 452.139 14.2204 429.482 9.93448 406.104C9.20575 402.089 8.2849 398.037 7.20381 393.953C3.34023 379.391 -2.56171 364.411 -9.10383 349.318C-12.9959 340.351 -18.4434 331.049 -19.0959 322.516C-19.5029 317.235 -17.9423 312.426 -13.4776 308.095C-9.34759 304.086 -3.97304 301.416 1.02628 298.07C18.3679 286.581 28.2093 264.802 20.1898 244.167M-47.814 1032.24C-75.4397 992.287 -97.3707 948.359 -106.355 904.333C-110.098 886.386 -109.606 869.476 -110.088 852.002C-110.652 831.602 -106.022 812.409 -99.9054 793.539C-95.7287 780.63 -90.8099 767.873 -86.2505 754.997C-77.251 729.592 -69.7715 703.571 -63.8198 678.383C-60.3419 663.655 -57.5531 649.189 -55.3771 635.109C-53.8254 625.069 -52.5217 614.75 -50.929 604.412C-48.6729 589.758 -45.5945 575.063 -42.0536 559.789C-40.7996 554.378 -39.5149 548.913 -38.0247 543.485C-31.6525 520.725 -13.1501 500.619 -1.2922 481.145C1.8399 476.003 4.52522 470.911 6.4688 465.805C14.2617 445.326 15.3691 422.235 10.1022 398.555C9.20669 394.49 8.11847 390.389 6.87468 386.257C2.43464 371.522 -3.9799 356.38 -10.7736 341.096C-14.8186 332.014 -20.2685 322.596 -20.9956 313.901C-21.4499 308.515 -19.9489 303.599 -15.6635 299.131C-11.6631 294.961 -6.46169 292.068 -1.57659 288.539C15.3533 276.427 25.3718 254.515 17.672 233.572M-48.3298 1030.37C-76.663 991.054 -99.0381 947.389 -108.01 903.604C-111.844 885.326 -111.07 868.212 -111.798 850.391C-112.646 829.659 -108.324 810.088 -102.396 790.856C-98.3477 777.7 -93.5043 764.706 -88.9144 751.625C-79.8552 725.821 -71.9044 699.54 -65.0875 674.245C-61.1016 659.456 -57.682 644.978 -54.7687 630.925C-52.6852 620.882 -50.7988 610.603 -48.6169 600.323C-45.52 585.734 -41.5772 571.142 -37.4791 555.799C-36.0283 550.372 -34.5886 544.871 -32.9854 539.392C-26.1198 516.376 -8.33333 495.59 2.62149 475.431C5.50799 470.118 7.93898 464.858 9.64335 459.586C16.4494 438.516 16.5121 414.99 10.2618 391.007C9.19719 386.89 7.94394 382.741 6.53745 378.562C1.52095 363.654 -5.40334 348.35 -12.4498 332.878C-16.6472 323.679 -22.1004 314.149 -22.9016 305.29C-23.4033 299.799 -21.9642 294.775 -17.8562 290.172C-13.9878 285.841 -8.96719 282.716 -4.1887 279.012C12.2868 266.244 22.5222 244.234 15.1426 222.98M-48.8447 1028.5C-77.8872 989.816 -100.702 946.417 -109.665 902.874C-113.586 884.266 -112.53 866.944 -113.505 848.779C-114.635 827.718 -110.621 807.764 -104.883 788.175C-100.966 774.77 -96.1962 761.54 -91.5736 748.255C-82.4551 722.053 -74.0324 695.511 -66.3509 670.111C-61.8597 655.261 -57.8059 640.769 -54.1559 626.744C-51.5406 616.699 -49.0692 606.46 -46.2986 596.24C-42.3615 581.718 -37.5562 567.226 -32.8957 551.813C-31.2498 546.369 -29.654 540.836 -27.9366 535.303C-20.577 512.028 -3.50415 490.563 6.54467 469.719C9.18732 464.239 11.3647 458.81 12.8252 453.37C18.6492 431.71 17.6628 407.746 10.431 383.463C9.19902 379.297 7.77607 375.097 6.20977 370.87C0.616809 355.789 -6.81719 340.322 -14.1181 324.66C-18.4679 315.345 -23.9217 305.702 -24.7998 296.679C-25.3495 291.085 -23.9735 285.948 -20.0389 281.215C-16.3042 276.72 -11.4526 273.374 -6.78834 269.487C9.27546 256.097 19.6857 233.954 12.6251 212.391M-49.3623 1026.62C-79.1122 988.58 -102.371 945.445 -111.324 902.141C-115.336 883.203 -113.995 865.675 -115.218 847.163C-116.631 825.772 -112.923 805.436 -107.378 785.489C-103.59 771.839 -98.8946 758.369 -94.2422 744.882C-85.0639 718.281 -76.1721 691.477 -67.6232 665.972C-62.624 651.059 -57.9393 636.557 -53.5515 622.556C-50.4043 612.51 -47.3479 602.31 -43.9881 592.148C-39.2103 577.692 -33.543 563.302 -28.3205 547.821C-26.4778 542.362 -24.7271 536.792 -22.899 531.207C-15.046 507.676 1.3156 485.534 10.4538 464.003C12.8526 458.355 14.7762 452.756 15.9946 447.151C20.8388 424.902 18.8006 400.501 10.5855 375.915C9.18441 371.698 7.59644 367.45 5.86799 363.173C-0.303751 347.919 -8.24573 332.291 -15.8006 316.438C-20.3027 307.007 -25.76 297.25 -26.7121 288.063C-27.3069 282.365 -25.9963 277.115 -22.2375 272.25C-18.6394 267.592 -13.9539 264.025 -9.40621 259.954C6.24353 245.942 16.8327 223.668 10.0923 201.794M-49.8777 1024.75C-80.3352 987.346 -103.925 944.479 -112.98 901.412C-117.031 882.146 -115.454 864.41 -116.925 845.552C-118.618 823.832 -115.221 803.114 -109.868 782.809C-106.212 768.91 -101.589 755.202 -96.9041 741.512C-87.6666 714.514 -78.3035 687.45 -68.8872 661.839C-63.3827 646.866 -58.0597 632.352 -52.9393 618.377C-49.258 608.329 -45.6165 598.17 -41.6727 588.066C-36.0541 573.675 -29.5254 559.389 -23.7399 543.837C-21.7026 538.362 -19.7948 532.756 -17.853 527.119C-9.50607 503.33 6.14608 480.511 14.3742 458.292C16.5291 452.477 18.199 446.709 19.1759 440.936C23.0427 418.099 19.9502 393.26 10.7535 368.374C9.18567 364.106 7.4304 359.809 5.53926 355.485C-1.20894 340.058 -9.6607 324.267 -17.4678 308.225C-22.1223 298.677 -27.5824 288.806 -28.6091 279.457C-29.2513 273.653 -28.0067 268.292 -24.4213 263.296C-20.9592 258.473 -16.4405 254.687 -12.0098 250.433C3.22582 235.799 13.9921 213.392 7.57082 191.21M-50.3931 1022.88C-81.5603 986.11 -105.59 943.509 -114.634 900.681C-118.773 881.084 -116.912 863.144 -118.631 843.938C-120.604 821.888 -117.519 800.788 -112.356 780.125C-108.828 765.979 -104.28 752.035 -99.5652 738.139C-90.2656 710.743 -80.4359 683.418 -70.1521 657.701C-64.1395 642.665 -58.1804 628.14 -52.328 614.192C-48.1096 604.142 -43.8884 594.023 -39.3553 583.977C-32.8937 569.652 -25.5077 555.466 -19.1574 539.846C-16.925 534.353 -14.8634 528.714 -12.8057 523.025C-3.96533 498.98 10.9779 475.483 18.2959 452.577C20.2076 446.592 21.6232 440.656 22.3586 434.717C25.2531 411.291 21.1013 386.014 10.9212 360.826C9.18602 356.508 7.26337 352.162 5.21009 347.789C-2.11458 332.189 -11.0784 316.235 -19.1376 300.003C-23.9421 290.339 -29.4057 280.357 -30.5088 270.842C-31.1984 264.933 -30.0215 259.459 -26.6077 254.334C-23.2834 249.344 -18.928 245.343 -14.6133 240.903C0.21062 225.647 11.1511 203.108 5.05237 180.616M-50.9108 1021.01C-82.7849 984.874 -107.259 942.538 -116.292 899.951C-120.519 880.024 -118.373 861.878 -120.343 842.326C-122.595 819.945 -119.821 798.464 -114.848 777.444C-111.452 763.049 -106.977 748.869 -102.23 734.771C-92.8713 706.977 -82.5695 679.39 -71.4206 653.567C-64.9029 638.47 -58.3054 623.935 -51.7204 610.011C-46.9678 599.96 -42.1616 589.881 -37.0416 579.892C-29.7351 565.636 -21.4936 551.548 -14.579 535.86C-12.1522 530.352 -9.93331 524.677 -7.76254 518.937C1.57177 494.634 15.8101 470.463 22.2134 446.867C23.8836 440.715 25.0455 434.61 25.5347 428.502C27.4587 404.491 22.2463 378.772 11.0824 353.282C9.17804 348.913 7.08806 344.518 4.87441 340.098C-3.02672 324.326 -12.5008 308.21 -20.814 291.786C-25.7709 282.006 -31.2379 271.911 -32.4151 262.232C-33.1521 256.219 -32.0453 250.629 -28.8001 245.375C-25.6143 240.22 -21.4232 236 -17.2251 231.376C-2.81289 215.498 8.3047 192.826 2.52274 170.026M-51.4261 1019.14C-84.0077 983.639 -109.034 941.563 -117.947 899.22C-122.315 878.959 -119.83 860.61 -122.049 840.712C-124.581 818.001 -122.119 796.14 -117.336 774.761C-114.069 760.12 -109.666 745.702 -104.891 731.398C-95.4726 703.205 -84.6995 675.358 -72.6837 649.431C-65.6579 634.272 -58.4226 619.728 -51.1068 605.827C-45.8153 595.776 -40.4288 585.735 -34.7248 575.805C-26.5753 561.614 -17.4764 547.628 -9.99703 531.871C-7.37568 526.346 -4.99954 520.635 -2.71515 514.843C7.11257 490.284 20.6467 465.437 26.1329 441.151C27.5592 434.831 28.4703 428.556 28.7145 422.284C29.6709 397.685 23.3944 371.526 11.2495 345.735C9.17784 341.317 6.92106 336.871 4.54527 332.401C-3.93232 316.457 -13.9161 300.178 -22.4814 283.566C-27.5907 273.669 -33.0606 263.46 -34.3129 253.62C-35.0955 247.504 -34.0607 241.797 -30.9825 236.416C-27.9373 231.094 -23.8931 226.665 -19.8267 221.848C-5.77616 205.377 5.46553 182.545 0.00610563 159.434M-51.9413 1017.27C-85.2328 982.403 -110.701 940.592 -119.604 898.488C-124.061 877.899 -121.292 859.344 -123.76 839.098C-126.569 816.058 -124.419 793.815 -119.831 772.077C-116.695 757.188 -112.365 742.531 -107.557 728.025C-98.0798 699.435 -86.8371 671.326 -73.9538 645.293C-66.4228 630.073 -58.5468 615.519 -50.5007 601.642C-44.6728 591.59 -38.7018 581.591 -32.4127 571.716C-23.4183 557.594 -13.4638 543.705 -5.42027 527.881C-2.6044 522.341 -0.0715718 516.596 2.32643 510.751C12.6481 485.934 25.4826 460.413 30.0482 435.438C31.2336 428.95 31.8928 422.508 31.8908 416.067C31.8825 390.881 24.5391 364.284 11.4109 338.19C9.17007 333.72 6.74771 329.227 4.21211 324.709C-4.84195 308.592 -15.3361 292.152 -24.1554 275.348C-29.417 265.335 -34.888 255.014 -36.2167 245.009C-37.0467 238.788 -36.0842 232.966 -33.173 227.458C-30.2708 221.969 -26.3841 217.324 -22.4343 212.322C-8.79543 195.23 2.62113 172.263 -2.51865 148.844M-52.4594 1015.4C-86.4583 981.169 -112.368 939.622 -121.262 897.759C-125.809 876.839 -122.75 858.079 -125.47 837.487C-128.556 814.117 -126.72 791.492 -122.322 769.396C-119.314 754.259 -115.06 739.366 -110.223 724.657C-100.685 695.667 -88.971 667.298 -75.2232 641.16C-67.1841 625.878 -58.6685 611.318 -49.894 597.462C-43.5272 587.411 -36.9759 577.451 -30.1004 567.635C-20.2582 553.58 -9.45345 539.79 -0.84509 523.897C2.16585 518.339 4.85537 512.559 7.36699 506.662C18.1826 481.587 30.3174 455.392 33.9632 429.728C34.9093 423.073 35.3153 416.46 35.0667 409.853C34.0983 384.08 25.6833 357.043 11.5735 330.649C9.16593 326.128 6.57622 321.586 3.87792 317.021C-5.75259 300.731 -16.7588 284.127 -25.8284 267.136C-31.2425 257.007 -36.7164 246.572 -38.1197 236.405C-38.9971 230.078 -38.1099 224.142 -35.3622 218.504C-32.6054 212.848 -28.8761 207.985 -25.0428 202.8C-11.8128 185.085 -0.222562 161.988 -5.04502 138.258M-52.9744 1013.52C-87.6808 979.933 -114.032 938.651 -122.917 897.027C-127.551 875.777 -124.205 856.81 -127.178 835.871C-130.541 812.172 -129.019 789.163 -124.811 766.711C-121.934 751.325 -117.753 736.196 -112.883 721.283C-103.286 691.895 -91.1025 663.264 -76.4849 637.021C-67.9406 621.678 -58.782 607.108 -49.2795 593.277C-42.3745 583.228 -35.2399 573.304 -27.7822 563.544C-17.0952 549.558 -5.43713 535.865 3.73779 519.906C6.94326 514.332 9.78999 508.516 12.4147 502.568C23.7237 477.237 35.1595 450.366 37.8829 424.012C38.5881 417.188 38.7422 410.409 38.2473 403.632C36.3195 377.272 26.8328 349.795 11.7392 323.1C9.16194 318.529 6.40544 313.936 3.54677 309.324C-6.66253 292.861 -18.1761 276.094 -27.5003 258.914C-33.0667 248.668 -38.544 238.12 -40.0237 227.788C-40.9485 221.357 -40.136 215.304 -37.553 209.541C-34.941 203.714 -31.3673 198.638 -27.6529 193.268C-14.8347 174.931 -3.06962 151.7 -7.57011 127.662M-53.4899 1011.65C-88.9056 978.698 -115.699 937.679 -124.572 896.299C-129.297 874.717 -125.661 855.546 -128.885 834.26C-132.525 810.23 -131.317 786.841 -127.299 764.031C-124.551 748.398 -120.445 733.032 -115.545 717.915C-105.889 688.129 -93.2339 659.237 -77.7517 632.889C-68.6994 617.484 -58.9012 602.908 -48.6702 589.098C-41.2263 579.049 -33.5096 569.167 -25.4668 559.462C-13.9326 545.545 -1.42366 531.948 8.31838 515.921C11.7166 510.329 14.7218 504.482 17.4606 498.479C29.2637 472.89 40.0027 445.344 41.8033 418.301C42.2693 411.311 42.1702 404.361 41.4257 397.419C38.5389 370.469 27.9796 342.555 11.905 315.558C9.16091 310.936 6.23646 306.296 3.21621 301.633C-7.56899 284.996 -19.5935 268.069 -29.1716 250.697C-34.8909 240.337 -40.3682 229.674 -41.9248 219.179C-42.897 212.642 -42.1616 206.472 -39.7385 200.584C-37.2742 194.589 -33.8556 189.297 -30.2554 183.744C-17.8483 164.784 -5.90965 141.422 -10.0905 117.074M-54.0074 1009.78C-90.1306 977.462 -117.366 936.708 -126.231 895.566C-131.044 873.654 -127.119 854.278 -130.598 832.644C-134.513 808.285 -133.621 784.513 -129.795 761.344C-127.18 745.465 -123.145 729.859 -118.213 714.54C-108.498 684.356 -95.3708 655.203 -79.0235 628.749C-69.4659 613.282 -59.023 598.7 -48.0652 584.909C-40.0831 574.862 -31.7838 565.019 -23.1563 555.371C-10.7756 541.525 2.58545 528.021 12.894 511.928C16.4868 506.32 19.6492 500.436 22.5011 494.383C34.7975 468.538 44.8427 440.315 45.7181 412.583C45.9432 405.425 45.5933 398.304 44.6015 391.197C40.7604 363.659 29.1237 335.307 12.0658 308.007C9.15259 303.333 6.06312 298.645 2.88017 293.934C-8.48149 277.125 -21.0157 260.035 -30.846 242.474C-36.7177 231.997 -42.1984 221.222 -43.8291 210.562C-44.8469 203.923 -44.1909 197.636 -41.929 191.619C-39.6129 185.457 -36.3466 179.948 -32.8658 174.211C-20.8699 154.628 -8.75692 131.135 -12.6158 106.478M-54.5224 1007.91C-91.353 976.227 -119.032 935.736 -127.886 894.836C-132.789 872.594 -128.575 853.012 -132.304 831.032C-136.494 806.343 -135.919 782.191 -132.283 758.663C-129.796 742.536 -125.835 726.694 -120.875 711.169C-111.099 680.586 -97.5039 651.174 -80.2869 624.614C-70.2212 609.086 -59.1364 594.498 -47.4525 580.728C-38.9297 570.684 -30.0495 560.878 -20.8398 551.285C-7.61184 537.508 6.59773 524.101 17.4752 507.941C21.2607 502.315 24.5798 496.398 27.5453 490.292C40.3357 464.188 49.6888 435.292 49.6362 406.872C49.6226 399.546 49.0213 392.257 47.7805 384.981C42.9856 356.854 30.271 328.065 12.2292 300.464C9.14867 295.741 5.89243 291.002 2.54678 286.244C-9.39134 269.262 -22.4353 252.009 -32.5201 234.258C-38.5442 223.665 -44.0277 212.775 -45.733 201.953C-46.7982 195.209 -46.2222 188.806 -44.1197 182.662C-41.9537 176.331 -38.84 170.607 -35.4735 164.687C-23.8893 144.483 -11.5992 120.856 -15.1413 95.8908M-55.0382 1006.04C-92.5786 974.992 -120.697 934.767 -129.541 894.105C-134.532 871.534 -129.972 851.749 -134.011 829.419C-138.415 804.404 -138.215 779.867 -134.771 755.981C-132.415 739.606 -128.527 723.527 -123.535 707.8C-113.7 676.82 -99.6327 647.146 -81.5506 620.48C-70.9797 604.891 -59.2506 590.298 -46.84 576.547C-37.7766 566.506 -28.3161 556.738 -18.5218 547.202C-4.44724 533.496 10.5655 520.158 22.0584 503.956C26.0233 498.305 29.5142 492.362 32.5933 486.204C45.8772 459.844 54.5369 430.27 53.5562 401.161C53.304 393.667 52.449 386.209 50.9615 378.767C45.2129 350.05 31.4209 320.822 12.3975 292.921C9.15023 288.148 5.72375 283.36 2.21885 278.552C-10.2957 261.397 -23.8523 243.983 -34.1886 226.041C-40.3651 215.331 -45.8498 204.33 -47.6315 193.343C-48.7441 186.493 -48.248 179.974 -46.3049 173.704C-44.2889 167.203 -41.3281 161.265 -38.0781 155.161C-26.9051 134.333 -14.4413 110.576 -17.6632 85.2993M-55.5557 1004.17C-93.8031 973.754 -122.364 933.795 -131.199 893.374C-136.28 870.472 -131.435 850.481 -135.722 827.806C-140.406 802.46 -140.517 777.542 -137.264 753.298C-135.036 736.675 -131.224 720.36 -126.201 704.428C-116.307 673.048 -101.77 643.113 -82.8212 616.344C-71.7422 600.692 -59.3718 586.095 -46.2344 572.364C-36.6305 562.325 -26.5621 552.614 -16.2101 543.115C-1.25107 529.506 14.5804 516.236 26.6347 499.968C30.7941 494.301 34.4422 488.322 37.635 482.112C51.4128 455.494 59.381 425.245 57.4723 395.447C56.9814 387.785 55.8756 380.157 54.1355 372.55C47.4361 343.242 32.5633 313.579 12.5566 285.375C9.1402 280.55 5.54871 275.714 1.88111 270.859C-11.2099 253.531 -25.2763 235.953 -35.8648 217.822C-42.1937 206.996 -47.6818 195.882 -49.5375 184.731C-50.6975 177.776 -50.2813 171.141 -48.4948 164.744C-46.6317 158.075 -43.8184 151.922 -40.6872 145.633C-29.926 124.183 -17.2851 100.293 -20.1874 74.707M-56.0713 1002.3C-95.0261 972.521 -124.031 932.826 -132.856 892.645C-138.026 869.412 -132.896 849.215 -137.432 826.195C-142.397 800.518 -142.818 775.218 -139.757 750.617C-137.661 733.747 -133.92 717.192 -128.865 701.057C-118.911 669.279 -103.903 639.084 -84.0892 612.208C-72.505 596.495 -59.4881 581.894 -45.6257 568.18C-35.4817 558.146 -24.8348 548.471 -13.8977 539.026C1.90622 525.485 18.5933 512.314 31.2124 495.977C35.5668 490.293 39.3716 484.279 42.6774 478.018C56.9487 451.144 64.2288 420.217 61.3892 389.732C60.6596 381.902 59.303 374.103 57.3133 366.33C49.6636 336.431 33.7095 306.333 12.7217 277.827C9.13797 272.953 5.37968 268.067 1.54938 263.163C-12.1181 245.663 -26.6942 227.923 -37.5378 209.603C-44.019 198.66 -49.51 187.433 -51.4404 176.119C-52.6478 169.059 -52.3138 162.307 -50.6844 155.785C-48.9765 148.946 -46.3108 142.578 -43.2938 136.105C-32.9438 114.033 -20.1292 90.0116 -22.7118 64.1165M-56.5862 1000.42C-96.2509 971.285 -125.695 931.855 -134.511 891.914C-139.77 868.349 -134.353 847.947 -139.14 824.58C-144.385 798.573 -145.117 772.892 -142.246 747.933C-140.281 730.815 -136.614 714.024 -131.529 697.685C-121.515 665.509 -106.036 635.053 -85.3549 608.073C-73.2627 592.298 -59.6044 577.693 -45.0153 563.998C-34.3307 553.967 -23.1081 544.329 -11.5817 534.942C5.06414 521.471 22.6102 508.395 35.7907 491.992C40.3396 486.291 44.3017 480.242 47.7211 473.928C62.4863 446.797 69.0754 415.192 65.3066 384.022C64.339 376.023 62.731 368.056 60.4917 360.117C51.8941 329.626 34.8562 299.093 12.8851 270.285C9.13227 265.359 5.20843 260.426 1.21599 255.473C-13.0303 237.8 -28.1143 219.898 -39.2118 201.387C-45.8454 190.328 -51.3376 178.989 -53.3443 167.51C-54.5973 160.348 -54.3503 153.477 -52.8751 146.829C-51.3201 139.821 -48.802 133.238 -45.9039 126.581C-35.965 103.885 -22.9762 79.7314 -25.2368 53.5276M-57.1038 998.552C-97.4759 970.049 -127.364 930.883 -136.168 891.183C-141.515 867.288 -135.814 846.68 -140.849 822.967C-146.374 796.63 -147.417 770.567 -144.736 745.249C-142.9 727.883 -139.307 710.855 -134.192 694.312C-124.117 661.737 -108.17 631.02 -86.622 603.934C-74.0246 588.098 -59.6865 573.513 -44.4085 559.811C-33.1589 549.802 -21.3828 540.182 -9.2689 530.851C8.21946 517.448 26.6258 504.472 40.3687 487.999C45.1127 482.281 49.2308 476.199 52.7639 469.833C68.0225 442.445 73.9972 410.167 69.2215 378.304C68.0356 370.138 66.1564 362 63.6675 353.894C54.1202 322.81 36.0009 291.843 13.0477 262.736C9.12808 257.76 5.03452 252.777 0.882282 247.775C-13.9405 229.929 -29.5342 211.865 -40.8839 193.165C-47.6676 181.99 -53.1649 170.536 -55.2462 158.894C-56.5467 151.627 -56.3825 144.641 -55.0633 137.864C-53.6663 130.688 -51.2929 123.889 -48.5114 117.047C-38.9842 93.7298 -25.8188 69.4452 -27.7621 42.9312M-57.6196 996.682C-98.6986 968.814 -129.029 929.912 -137.823 890.453C-143.261 866.229 -137.274 845.412 -142.558 821.354C-148.362 794.687 -149.715 768.243 -147.226 742.567C-145.521 724.952 -142.002 707.688 -136.854 690.941C-126.719 657.969 -110.301 626.989 -87.8875 599.797C-74.7826 583.901 -59.8095 569.308 -43.7978 555.628C-32.0123 545.62 -19.6535 536.039 -6.95505 526.765C11.3753 513.431 30.6406 500.55 44.9477 484.01C49.8886 478.277 54.1617 472.159 57.8078 465.742C73.5603 438.096 78.8319 405.139 73.1397 372.591C71.7105 364.256 69.6037 355.948 66.8461 347.679C56.4307 315.997 37.1478 284.602 13.2113 255.192C9.12199 250.165 4.864 245.132 0.551379 240.084C-14.8478 222.065 -30.9542 203.839 -42.5555 184.948C-49.4916 173.657 -54.9923 162.09 -57.1477 150.285C-58.4955 142.912 -58.4165 135.81 -57.2492 128.907C-56.008 121.564 -53.7792 114.549 -51.1148 107.525C-41.9988 83.584 -28.6592 59.1672 -30.2829 32.3438M-58.1348 994.81C-99.9237 967.577 -130.693 928.941 -139.478 889.722C-145.004 865.168 -138.732 844.145 -144.264 819.74C-150.351 792.742 -152.013 765.919 -149.713 739.883C-148.138 722.023 -144.691 704.519 -139.516 687.57C-129.321 654.199 -112.432 622.959 -89.1511 595.663C-75.5404 579.704 -59.9302 565.103 -43.1853 551.447C-30.8661 541.439 -17.9241 531.896 -4.63647 522.68C14.5364 509.414 34.6596 496.632 49.5309 480.025C54.6669 474.274 59.0966 468.122 62.8563 461.652C79.1023 433.75 83.6689 400.111 77.0627 366.879C75.3925 358.375 73.0326 349.896 70.0276 341.463C58.6394 309.186 38.3001 277.36 13.3803 247.647C9.12414 242.57 4.69819 237.489 0.223439 232.392C-15.7522 214.201 -32.3683 195.811 -44.2242 176.731C-51.3126 165.323 -56.8138 153.643 -59.0462 141.674C-60.4414 134.196 -60.4481 126.98 -59.4344 119.949C-58.3513 112.437 -56.2672 105.206 -53.7194 97.9982C-45.0128 73.4366 -31.5013 48.8868 -32.803 21.7548M-58.6526 992.939C-101.149 966.343 -132.363 927.97 -141.138 888.991C-146.754 864.105 -140.195 842.878 -145.976 818.126C-152.341 790.798 -154.315 763.593 -152.208 737.2C-150.764 719.091 -147.389 701.351 -142.182 684.197C-131.928 650.429 -114.569 618.928 -90.4208 591.525C-76.3026 575.505 -60.0569 560.895 -42.5784 547.26C-29.7232 537.254 -16.1985 527.75 -2.32339 518.59C17.6914 505.393 38.6759 492.707 54.1092 476.032C59.4397 470.266 64.0238 464.078 67.8994 457.556C84.6394 429.396 88.5005 395.078 80.9778 361.162C79.0644 352.488 76.4507 343.84 73.2037 335.241C60.8431 302.369 39.4445 270.111 13.5414 240.096C9.11847 234.968 4.5252 229.839 -0.112249 224.694C-16.6644 206.33 -33.7902 187.777 -45.8982 168.507C-53.139 156.983 -58.6437 145.19 -60.9501 133.057C-62.3927 125.475 -62.5043 118.14 -61.6245 110.984C-60.7187 103.299 -58.7578 95.8572 -56.3288 88.4643C-48.0334 63.2794 -34.3476 38.5974 -35.3297 11.156M-59.1679 991.067C-102.372 965.108 -134.027 927 -142.793 888.26C-148.497 863.045 -141.654 841.613 -147.685 816.513C-154.33 788.855 -156.615 761.268 -154.698 734.517C-150.795 680.028 -129.409 628.872 -91.6869 587.39C-66.3122 559.486 -34.1456 535.995 -0.00774197 514.506C20.8496 501.376 42.692 488.79 58.6895 472.047C88.0989 441.268 95.2844 398.057 84.8974 355.452C74.5103 312.848 47.6339 270.811 13.7062 232.556C-17.0802 197.84 -55.3727 163.062 -62.8527 124.451C-71.4063 80.2934 -36.813 44.0354 -37.8515 0.571971M-327.908 814.082C-269.087 834.419 -205.103 839.413 -150.537 827.925C-135.013 824.656 -119.747 819.828 -110.25 810.444C-82.8121 783.327 -106.871 736.334 -117.942 701.994C-131.301 660.554 -145.965 619.09 -155.028 577.581C-160.116 554.277 -162.302 528.188 -142.462 514.015C-122.371 499.664 -88.0825 503.209 -57.6966 504.739C-22.2896 506.523 13.0966 504.459 42.6141 493.849C72.1315 483.239 95.2659 463.228 99.8386 437.213C103.419 416.841 95.6603 394.553 85.8145 373.266C59.9422 317.336 18.9014 263.377 -33.5459 216.335M-325.717 816.002C-273.731 833.978 -218.295 838.09 -166.688 829.601C-161.895 828.813 -157.148 827.938 -152.478 826.931C-137.135 823.614 -122.051 818.81 -112.564 809.601C-85.1066 782.972 -107.471 737.146 -117.826 703.091C-127.006 672.899 -137.216 642.55 -145.395 611.932C-148.256 601.302 -150.878 590.669 -153.146 580.031C-158.063 556.958 -160.207 531.183 -141.045 516.937C-121.642 502.513 -88.5064 505.407 -59.1333 506.354C-24.9074 507.455 9.31857 504.837 37.9266 493.959C47.8869 490.171 57.1056 485.281 65.0876 479.428C80.029 468.477 90.6483 454.154 93.69 437.384C97.3435 417.239 90.0976 395.267 80.9145 374.319C62.344 331.917 35.3737 290.878 1.13387 252.987C-9.0822 241.68 -19.9432 230.655 -31.4267 219.963M-323.528 817.92C-273.275 835.297 -220.428 837.755 -168.442 828.658C-163.724 827.831 -159.033 826.953 -154.424 825.934C-139.263 822.566 -124.359 817.789 -114.879 808.753C-87.3999 782.612 -108.075 737.957 -117.713 704.185C-126.18 674.518 -135.976 644.544 -143.808 614.058C-146.553 603.538 -149.078 593.01 -151.268 582.479C-156.017 559.635 -158.117 534.174 -139.633 519.857C-120.915 505.36 -88.9325 507.603 -60.575 507.967C-27.531 508.386 5.53597 505.212 33.2317 494.066C42.8741 490.184 51.809 485.237 59.5549 479.361C74.0574 468.375 84.4313 454.135 87.5333 437.553C91.2581 417.635 84.5263 395.981 76.0088 375.372C58.7961 333.644 33.776 293.474 1.5009 256.171C-8.12941 245.039 -18.4014 234.166 -29.313 223.59M-321.338 819.841C-272.817 836.617 -222.562 837.43 -170.194 827.716C-165.548 826.855 -160.914 825.972 -156.368 824.94C-141.388 821.525 -126.667 816.769 -117.195 807.911C-89.698 782.259 -108.684 738.777 -117.6 705.283C-125.357 676.145 -134.645 646.546 -142.223 616.19C-144.823 605.778 -147.281 595.356 -149.392 584.93C-153.97 562.316 -156.027 537.168 -138.222 522.781C-120.19 508.212 -89.3628 509.803 -62.0181 509.583C-30.1552 509.319 1.75154 505.591 28.5373 494.179C37.8624 490.2 46.5128 485.198 54.0251 479.301C68.0892 468.278 78.2165 454.123 81.3778 437.727C85.1737 418.034 78.9561 396.699 71.1042 376.428C55.2476 335.372 32.1793 296.073 1.86663 259.358C-7.17792 248.402 -16.8615 237.681 -27.2035 227.222M-319.149 821.759C-272.361 837.936 -224.696 837.114 -171.947 826.771C-167.374 825.874 -162.796 824.985 -158.313 823.942C-143.515 820.476 -128.974 815.746 -119.51 807.063C-91.9939 781.9 -109.296 739.594 -117.487 706.375C-124.54 677.768 -133.375 648.539 -140.635 618.315C-143.111 608.011 -145.481 597.698 -147.513 587.376C-151.922 564.991 -153.939 540.158 -136.809 525.698C-119.464 511.057 -89.7904 511.996 -63.4584 511.193C-32.7767 510.246 -2.02783 505.965 23.8462 494.283C32.8558 490.211 41.2194 485.153 48.4985 479.232C62.1214 468.174 72.0028 454.103 75.2278 437.893C79.0979 418.426 73.3921 397.409 66.2052 377.477C51.7063 337.095 30.5883 298.665 2.24089 262.536C-6.21733 251.754 -15.3125 241.186 -25.0828 230.844M-316.958 823.678C-271.904 839.256 -226.828 836.805 -173.699 825.828C-169.198 824.897 -164.679 824 -160.257 822.947C-145.64 819.433 -131.28 814.725 -121.826 806.217C-94.2911 781.543 -109.914 740.417 -117.375 707.468C-123.732 679.394 -132.11 650.536 -139.051 620.442C-141.404 610.247 -143.684 600.04 -145.639 589.824C-149.877 567.67 -151.852 543.149 -135.399 528.618C-118.74 513.905 -90.2226 514.193 -64.9029 512.805C-35.4006 511.177 -5.81371 506.34 19.1486 494.389C27.8403 490.223 35.92 485.107 42.9655 479.166C56.1493 468.072 65.7853 454.083 69.0684 438.062C73.0097 418.821 67.8158 398.122 61.2945 378.528C48.1511 338.82 28.9855 301.259 2.60051 265.717C-5.27196 255.111 -13.7781 244.694 -22.9765 234.469M-314.767 825.598C-271.446 840.578 -228.957 836.51 -175.449 824.888C-171.019 823.925 -166.557 823.02 -162.199 821.953C-147.764 818.39 -133.584 813.707 -124.137 805.375C-96.5829 781.188 -110.532 741.248 -117.256 708.566C-122.924 681.027 -130.837 652.536 -137.457 622.573C-139.686 612.487 -141.878 602.385 -143.752 592.276C-147.822 570.352 -149.753 546.146 -133.978 531.542C-118.004 516.757 -90.6421 516.393 -66.3351 514.421C-38.014 512.11 -9.58728 506.72 14.4657 494.5C22.8395 490.239 30.6348 485.069 37.4447 479.103C50.1902 467.972 59.5796 454.069 62.9243 438.233C66.9367 419.219 62.2576 398.837 56.4013 379.583C44.6157 340.549 27.4003 303.857 2.98003 268.903C-4.30611 258.471 -12.2238 248.206 -20.8509 238.101M-312.579 827.516C-270.99 841.895 -231.087 836.221 -177.202 823.943C-172.842 822.949 -168.439 822.033 -164.144 820.956C-149.89 817.343 -135.892 812.684 -126.454 804.527C-98.8792 780.829 -111.163 742.073 -117.147 709.659C-122.13 682.657 -129.577 654.534 -135.875 624.698C-137.982 614.72 -140.081 604.725 -141.879 594.722C-145.778 573.028 -147.667 549.135 -132.57 534.46C-117.285 519.601 -91.0729 518.587 -67.7815 516.032C-40.6422 513.04 -13.3752 507.095 9.76548 494.607C17.8238 490.253 25.3329 485.024 31.9091 479.037C44.2157 467.871 53.3568 454.051 56.763 438.401C60.8489 419.614 56.6816 399.549 51.4915 380.632C41.0614 342.271 25.7984 306.45 3.34112 272.081C-3.35925 261.825 -10.688 251.711 -18.7432 241.722M-310.388 829.437C-270.532 843.217 -233.212 835.946 -178.954 823.002C-174.665 821.979 -170.322 821.051 -166.088 819.961C-152.017 816.299 -138.2 811.665 -128.77 803.683C-101.176 780.474 -111.798 742.909 -117.032 710.755C-121.341 684.293 -128.312 656.533 -134.286 626.829C-136.27 616.961 -138.28 607.071 -139.999 597.172C-143.73 575.707 -145.575 552.13 -131.158 537.381C-116.558 522.45 -91.5016 520.783 -69.223 517.646C-43.2649 513.97 -17.1575 507.469 5.07321 494.715C12.8137 490.266 20.0383 484.982 26.3814 478.972C38.2467 467.77 47.1441 454.034 50.6095 438.57C54.7666 420.009 51.1135 400.263 46.5866 381.683C37.5144 343.997 24.2015 309.044 3.70898 275.263C-2.40507 265.181 -9.14308 255.22 -16.6311 245.347M-308.197 831.356C-270.074 844.537 -235.332 835.678 -180.706 822.059C-176.487 821.007 -172.202 820.067 -168.032 818.966C-154.141 815.255 -140.506 810.644 -131.084 802.839C-103.471 780.117 -112.438 743.744 -116.918 711.851C-120.56 685.93 -127.052 658.532 -132.699 628.957C-134.564 619.196 -136.481 609.414 -138.122 599.621C-141.682 578.387 -143.485 555.123 -129.746 540.302C-115.831 525.299 -91.9306 522.98 -70.6648 519.258C-45.8878 514.9 -20.9406 507.846 0.378394 494.822C7.80098 490.279 14.7417 484.938 20.8511 478.906C32.278 467.667 40.9271 454.015 44.4552 438.741C48.6859 420.407 45.5452 400.976 41.6834 382.737C33.9666 345.723 22.6062 311.64 4.07603 278.447C-1.45226 268.541 -7.60127 258.731 -14.518 248.977M-306.009 833.275C-269.619 845.858 -237.453 835.421 -182.458 821.116C-178.307 820.037 -174.083 819.084 -169.973 817.971C-156.265 814.21 -142.809 809.625 -133.397 801.993C-105.765 779.759 -113.084 744.582 -116.801 712.945C-119.784 687.566 -125.79 660.53 -131.107 631.083C-132.851 621.432 -134.676 611.755 -136.24 602.068C-139.63 581.064 -141.39 558.115 -128.329 543.221C-115.1 528.145 -92.3541 525.175 -72.101 520.87C-48.5058 515.83 -24.7183 508.22 -4.30871 494.928C2.79835 490.291 9.45523 484.893 15.3286 478.839C26.3166 467.565 34.7197 453.996 38.307 438.907C42.6094 420.798 39.9823 401.688 36.7861 383.787C30.4271 347.447 21.0192 314.234 4.452 281.626C-0.490526 271.896 -6.05053 262.236 -12.3954 252.6M-303.817 835.194C-269.161 847.178 -239.564 835.175 -184.209 820.174C-180.127 819.067 -175.965 818.099 -171.917 816.976C-158.389 813.166 -145.115 808.604 -135.71 801.149C-108.06 779.405 -113.741 745.423 -116.687 714.041C-119.019 689.206 -124.53 662.531 -129.521 633.213C-131.146 623.671 -132.878 614.1 -134.363 604.519C-137.583 583.745 -139.303 561.108 -126.917 546.145C-114.376 530.997 -92.7822 527.377 -73.5459 522.485C-51.1296 516.763 -28.5046 508.599 -9.00499 495.04C-2.2158 490.309 4.15662 484.856 9.79454 478.777C20.3436 467.468 28.5007 453.983 32.1495 439.08C36.5231 421.197 34.4108 402.404 31.8772 384.842C26.8738 349.176 19.4183 316.832 4.81587 284.812C0.459671 275.256 -4.51194 265.749 -10.2855 256.231M-301.629 837.112C-268.705 848.496 -241.671 834.94 -185.963 819.23C-181.951 818.098 -177.843 817.121 -173.863 815.979C-160.502 812.142 -147.425 807.582 -138.029 800.303C-110.357 779.048 -114.409 746.262 -116.578 715.135C-118.27 690.844 -123.281 664.529 -127.937 635.341C-129.443 625.907 -131.079 616.444 -132.485 606.967C-135.537 586.422 -137.213 564.1 -125.505 549.064C-113.65 533.844 -93.2109 529.572 -74.9879 524.098C-53.7528 517.693 -32.288 508.975 -13.7001 495.147C-7.22879 490.321 -1.14025 484.811 4.26396 478.711C14.3723 467.365 22.2835 453.964 25.9927 439.25C30.4398 421.594 28.8392 403.119 26.9713 385.894C23.3256 350.903 17.8203 319.427 5.18029 287.995C1.40985 278.614 -2.97271 269.259 -8.17674 259.857M-299.438 839.033C-268.247 849.817 -243.77 834.718 -187.715 818.287C-183.769 817.131 -179.725 816.138 -175.806 814.984C-162.626 811.099 -149.731 806.561 -140.342 799.458C-112.65 778.69 -115.084 747.104 -116.461 716.231C-117.521 692.485 -122.023 666.527 -126.348 637.47C-127.736 628.147 -129.278 618.788 -130.606 609.417C-133.486 589.102 -135.121 567.093 -124.091 551.986C-112.921 536.693 -93.6374 531.769 -76.4272 525.712C-56.3738 518.625 -36.0686 509.352 -18.3901 495.256C-12.2338 490.335 -6.43262 484.77 -1.26098 478.646C8.40839 467.264 16.0736 453.946 19.8443 439.418C24.3627 421.989 23.2763 403.832 22.074 386.946C19.7838 352.628 16.2309 322.022 5.55616 291.176C2.37205 281.97 -1.4221 272.766 -6.05428 263.482M-297.247 840.952C-267.789 851.137 -245.862 834.507 -189.466 817.345C-185.587 816.164 -181.605 815.154 -177.749 813.988C-164.75 810.055 -152.036 805.541 -142.657 798.612C-114.947 778.333 -115.77 747.947 -116.348 717.324C-116.787 694.123 -120.774 668.527 -124.761 639.596C-126.03 630.382 -127.478 621.129 -128.728 611.864C-131.44 591.779 -133.03 570.086 -122.678 554.905C-112.196 539.54 -94.0656 533.964 -77.8682 527.323C-58.996 519.553 -39.8504 509.725 -23.0842 495.361C-17.2457 490.345 -11.7284 484.724 -6.7905 478.578C2.43992 467.161 9.85912 453.927 13.689 439.585C18.2785 422.382 17.7069 404.541 17.1679 387.993C16.2355 354.349 14.6328 324.612 5.92045 294.353C3.3221 285.322 0.116941 276.27 -3.94395 267.105M-295.058 842.872C-267.334 852.458 -247.948 834.308 -191.218 816.404C-187.407 815.2 -183.486 814.173 -179.694 812.994C-166.875 809.013 -154.342 804.522 -144.971 797.769C-117.242 777.978 -116.468 748.792 -116.232 718.421C-116.056 695.765 -119.522 670.527 -123.172 641.725C-124.325 632.619 -125.677 623.473 -126.848 614.314C-129.389 594.459 -130.938 573.079 -121.264 557.827C-111.467 542.389 -94.4899 536.162 -79.3075 528.937C-61.6171 520.486 -43.6312 510.102 -27.775 495.472C-22.2543 490.361 -17.0215 484.684 -12.319 478.515C-3.52694 467.061 3.64394 453.91 7.53426 439.757C12.1973 422.781 12.1376 405.258 12.2641 389.048C12.6872 356.077 13.0369 327.21 6.2893 297.54C4.27961 288.683 1.66288 279.784 -1.82847 270.735M-292.867 844.79C-266.875 853.777 -250.022 834.121 -192.969 815.459C-189.223 814.234 -185.366 813.187 -181.637 811.996C-169 807.965 -156.67 803.481 -147.286 796.921C-119.601 777.567 -117.18 749.632 -116.119 719.513C-115.342 697.4 -118.277 672.523 -121.585 643.852C-122.622 634.855 -123.877 625.814 -124.97 616.761C-127.343 597.136 -128.848 576.071 -119.851 560.746C-110.74 545.234 -94.9183 538.357 -80.7493 530.55C-64.2401 521.415 -47.4144 510.478 -32.4699 495.579C-27.2648 490.375 -22.3181 484.64 -17.8494 478.449C-9.4986 466.959 -2.57135 453.893 1.38049 439.925C6.11527 423.174 6.56971 405.97 7.36124 390.099C9.14218 357.803 11.442 329.805 6.65741 300.72C5.23348 292.039 3.2057 283.29 0.283878 274.358M-290.679 846.71C-266.42 855.097 -252.09 833.945 -194.724 814.517C-191.043 813.27 -187.251 812.202 -183.583 811.002C-171.128 806.923 -158.979 802.463 -149.605 796.078C-121.899 777.213 -117.905 750.474 -116.011 720.611C-114.643 699.041 -117.039 674.524 -120.004 645.982C-120.928 637.094 -122.084 628.159 -123.099 619.211C-125.3 599.816 -126.764 579.064 -118.447 563.666C-110.023 548.082 -95.3556 540.555 -82.1988 532.162C-66.8707 522.344 -51.2052 510.854 -37.1701 495.686C-32.2829 490.387 -27.6201 484.596 -23.385 478.383C-15.4732 466.858 -8.7943 453.875 -4.78094 440.093C0.0273543 423.569 0.991316 406.682 2.44845 391.149C5.58487 359.526 9.83774 332.396 7.01727 303.901C6.17966 295.395 4.7398 286.8 2.38983 277.985M-288.488 848.629C-265.96 856.418 -254.147 833.782 -196.475 813.573C-192.859 812.305 -189.131 811.218 -185.526 810.004C-173.253 805.874 -161.284 801.439 -151.917 795.23C-124.192 776.852 -118.641 751.309 -115.893 721.703C-113.944 700.674 -115.793 676.519 -118.412 648.108C-119.222 639.329 -120.277 630.501 -121.216 621.658C-123.249 602.492 -124.671 582.055 -117.029 566.585C-109.291 550.928 -95.7789 542.749 -83.6349 533.774C-69.4862 523.275 -54.9804 511.229 -41.857 495.792C-37.2876 490.399 -32.9093 484.552 -28.9074 478.316C-21.4339 466.754 -15.001 453.855 -10.9267 440.261C-6.0472 423.963 -4.56904 407.395 -2.44631 392.2C2.04792 361.251 8.25326 334.991 7.39287 307.082C7.14102 298.751 6.29011 290.307 4.512 281.609M-286.297 850.549C-265.502 857.74 -256.19 833.633 -198.224 812.633C-194.672 811.345 -191.012 810.235 -187.468 809.012C-175.376 804.834 -163.588 800.422 -154.231 794.388C-126.485 776.5 -119.391 752.148 -115.78 722.801C-113.258 702.31 -114.557 678.519 -116.825 650.238C-117.522 641.568 -118.478 632.845 -119.337 624.109C-121.199 605.174 -122.579 585.05 -115.615 569.508C-108.563 553.78 -96.2036 544.949 -85.0746 535.389C-72.1072 524.207 -58.7615 511.608 -46.5504 495.903C-42.2966 490.416 -38.2045 484.511 -34.4386 478.253C-27.4041 466.656 -21.2171 453.841 -17.0842 440.434C-12.1335 424.362 -10.1406 408.111 -7.35288 393.256C-1.50316 362.981 6.65463 337.59 7.75954 310.267C8.09346 302.113 7.83154 293.819 6.62528 285.239M-284.109 852.467C-265.046 859.058 -258.225 833.497 -199.978 811.689C-196.49 810.382 -192.894 809.25 -189.414 808.015C-177.504 803.786 -165.895 799.399 -156.547 793.542C-128.778 776.142 -120.159 752.98 -115.665 723.895C-112.582 703.942 -113.32 680.516 -115.236 652.366C-115.819 643.804 -116.677 635.189 -117.457 626.558C-119.15 607.852 -120.486 588.041 -114.201 572.43C-107.836 556.628 -96.6302 547.146 -86.514 537.003C-74.7278 525.138 -62.5418 511.983 -51.2406 496.011C-47.3046 490.431 -43.497 484.47 -39.9642 478.189C-33.371 466.556 -27.43 453.825 -23.2332 440.604C-18.209 424.759 -15.7043 408.826 -12.2533 394.308C-5.04574 364.707 5.06218 340.185 8.13181 313.451C9.05206 305.47 9.3786 297.33 8.74363 288.868M-281.917 854.386C-264.588 860.378 -260.245 833.373 -201.729 810.745C-198.302 809.421 -194.774 808.266 -191.357 807.018C-179.629 802.739 -168.183 798.396 -158.861 792.695C-131.017 775.834 -120.942 753.804 -115.552 724.987C-111.918 705.567 -112.087 682.512 -113.651 654.492C-114.123 646.038 -114.879 637.53 -115.581 629.004C-117.104 610.529 -118.398 591.033 -112.791 575.348C-107.112 559.475 -97.0608 549.341 -87.9579 538.615C-77.3534 526.069 -66.3271 512.359 -55.9376 496.118C-52.3195 490.442 -48.7957 484.425 -45.4967 478.122C-39.3418 466.452 -33.6474 453.807 -29.3914 440.771C-24.2955 425.151 -21.2766 409.536 -17.16 395.357C-8.59694 366.429 3.46345 342.777 8.4955 316.63C10.0015 308.825 10.9193 300.836 10.8516 292.489M-279.729 856.306C-264.133 861.699 -262.255 833.263 -203.484 809.803C-200.12 808.459 -196.659 807.282 -193.303 806.023C-181.758 801.693 -170.491 797.375 -161.177 791.851C-133.312 775.48 -121.744 754.626 -115.441 726.084C-111.268 707.193 -110.861 684.511 -112.065 656.622C-112.426 648.276 -113.081 639.874 -113.704 631.454C-115.058 613.208 -116.308 594.025 -111.379 578.269C-106.385 562.323 -97.4899 551.537 -89.3998 540.228C-79.9765 526.999 -70.1103 512.735 -60.6303 496.226C-57.3271 490.455 -54.0884 484.384 -51.0248 478.057C-45.3089 466.352 -39.8599 453.789 -35.5458 440.942C-30.3787 425.548 -26.8456 410.251 -22.0634 396.41C-12.1425 368.157 1.86797 345.373 8.86531 319.813C10.9576 312.182 12.4639 304.345 12.9674 296.118M-277.538 858.225C-263.675 863.019 -264.245 833.165 -205.233 808.861C-201.931 807.5 -198.537 806.298 -195.245 805.029C-183.882 800.648 -172.795 796.357 -163.491 791.006C-135.606 775.124 -122.56 755.439 -115.324 727.18C-110.621 708.812 -109.629 686.508 -110.476 658.749C-110.725 650.512 -111.277 642.217 -111.824 633.902C-113.007 615.886 -114.216 597.018 -109.964 581.189C-105.658 565.17 -97.9142 553.735 -90.8387 541.84C-82.5965 527.927 -73.8906 513.11 -65.3228 496.333C-62.3375 490.468 -59.3827 484.34 -56.5551 477.991C-51.2776 466.249 -46.0775 453.77 -41.6996 441.11C-36.4589 425.944 -32.414 410.965 -26.9662 397.462C-15.6899 369.882 0.273134 347.968 9.23288 322.994C11.911 315.539 14.0062 307.854 15.0816 299.743M-275.348 860.145C-263.217 864.34 -266.224 833.084 -206.985 807.918C-203.742 806.541 -200.423 805.308 -197.188 804.032C-186.022 799.584 -175.1 795.334 -165.806 790.16C-137.902 774.765 -123.398 756.245 -115.212 728.273C-109.988 710.427 -108.409 688.501 -108.889 660.877C-109.03 652.749 -109.478 644.56 -109.947 636.351C-110.962 618.565 -112.126 600.011 -108.552 584.11C-104.932 568.019 -98.3433 555.932 -92.2805 543.453C-85.2177 528.86 -77.6738 513.486 -70.0155 496.441C-67.348 490.482 -64.677 484.297 -62.0831 477.926C-57.2469 466.148 -52.2904 453.754 -47.8533 441.279C-42.5415 426.339 -37.9818 411.676 -31.8713 398.513C-19.2372 371.607 -1.32404 350.562 9.60044 326.176C12.8649 318.895 15.5485 311.362 17.1958 303.369M-273.159 862.063C-262.761 865.658 -268.187 833.014 -208.738 806.975C-205.557 805.581 -202.308 804.324 -199.132 803.038C-188.149 798.54 -177.409 794.315 -168.12 789.317C-140.197 774.41 -124.252 757.042 -115.096 729.37C-109.361 712.038 -107.185 690.498 -107.3 663.006C-107.333 654.985 -107.676 646.904 -108.065 638.802C-108.909 621.246 -110.034 603.006 -107.135 587.032C-104.201 570.869 -98.7674 558.13 -93.7173 545.068C-87.8358 529.791 -81.452 513.864 -74.7031 496.551C-72.3512 490.497 -69.967 484.256 -67.6063 477.863C-63.209 466.049 -58.5003 453.737 -53.9999 441.45C-48.6168 426.736 -43.5429 412.392 -36.7669 399.567C-22.7772 373.334 -2.91169 353.159 9.97576 329.359C13.8259 322.254 17.0986 314.871 19.3148 306.997M-270.968 863.984C-262.303 866.98 -270.133 832.96 -210.49 806.034C-207.368 804.623 -204.189 803.342 -201.076 802.043C-190.273 797.495 -179.714 793.294 -170.435 788.471C-142.494 774.053 -125.126 757.826 -114.983 730.464C-108.747 713.639 -105.969 692.49 -105.713 665.134C-105.639 657.22 -105.877 649.247 -106.187 641.249C-106.862 623.923 -107.944 605.996 -105.725 589.951C-103.476 573.716 -99.198 560.324 -95.1613 546.68C-90.4615 530.722 -85.2373 514.24 -79.4001 496.657C-77.3661 490.509 -75.2658 484.211 -73.1388 477.796C-69.1798 465.946 -64.7176 453.719 -60.1586 441.619C-54.702 427.132 -49.1158 413.104 -41.6747 400.619C-26.3272 375.06 -4.50917 355.754 10.3407 332.542C14.7766 325.612 18.6383 318.381 21.4264 310.623M-268.779 865.902C-261.847 868.299 -272.063 832.92 -212.244 805.088C-209.182 803.663 -206.071 802.355 -203.021 801.046C-192.402 796.449 -182.022 792.273 -172.751 787.625C-144.788 773.697 -126.02 758.598 -114.872 731.559C-108.141 715.235 -104.757 694.484 -104.129 667.262C-103.949 659.456 -104.081 651.589 -104.312 643.697C-104.817 626.602 -105.857 608.989 -104.316 592.871C-102.754 576.563 -99.6272 562.52 -96.6055 548.292C-93.0869 531.651 -89.0224 514.614 -84.0952 496.764C-82.379 490.522 -80.5631 484.168 -78.6687 477.728C-75.1487 465.843 -70.9325 453.7 -66.312 441.786C-60.7837 427.523 -54.6838 413.816 -46.5794 401.668C-29.8765 376.783 -6.10597 358.347 10.7086 335.722C15.7309 328.967 20.181 321.888 23.5409 314.247M-266.589 867.822C-261.39 869.621 -273.971 832.894 -213.994 804.148C-210.988 802.707 -207.952 801.374 -204.963 800.052C-194.523 795.406 -184.326 791.253 -175.065 786.782C-147.083 773.341 -126.93 759.359 -114.755 732.656C-107.539 716.827 -103.545 696.478 -102.538 669.392C-102.251 661.692 -102.275 653.936 -102.431 646.148C-102.767 629.282 -103.762 611.983 -102.9 595.795C-102.024 579.415 -100.052 564.72 -98.0431 549.908C-95.7057 532.584 -92.8015 514.993 -88.7865 496.876C-87.3859 490.54 -85.8561 484.129 -84.1978 477.667C-81.119 465.745 -77.1483 453.684 -72.4668 441.958C-66.8649 427.923 -60.2532 414.533 -51.4827 402.721C-33.4243 378.51 -7.7013 360.943 11.0762 338.904C16.6843 332.324 21.7257 325.397 25.6546 317.875M-264.397 869.741C-260.931 870.939 -275.861 832.883 -215.745 803.205C-212.797 801.751 -209.832 800.39 -206.907 799.057C-196.65 794.362 -186.634 790.233 -177.378 785.937C-149.377 772.985 -127.858 760.105 -114.641 733.751C-106.946 718.408 -102.338 698.467 -100.951 671.52C-100.561 663.928 -100.476 656.279 -100.553 648.597C-100.718 631.961 -101.673 614.977 -101.487 598.716C-101.297 582.263 -100.481 566.917 -99.4848 551.521C-98.3291 533.516 -96.5845 515.369 -93.4789 496.984C-92.3961 490.553 -91.1509 484.087 -89.7256 477.602C-87.0853 465.643 -83.3611 453.668 -78.6209 442.128C-72.9479 428.319 -65.8214 415.247 -56.3859 403.775C-36.9696 380.237 -9.29655 363.54 11.4457 342.089C17.6401 335.683 23.27 328.908 27.7684 321.502M-262.209 871.659C-260.475 872.258 -277.733 832.886 -217.498 802.26C-214.607 800.79 -211.716 799.404 -208.852 798.058C-198.776 793.315 -188.941 789.209 -179.695 785.088C-151.676 772.625 -128.808 760.83 -114.528 734.843C-106.36 719.977 -101.18 700.444 -99.3632 673.645C-98.8813 666.156 -98.6757 658.618 -98.6749 651.043C-98.6715 634.637 -99.5814 617.966 -100.074 601.633C-100.572 585.108 -100.909 569.112 -100.925 553.131C-100.951 534.442 -100.366 515.742 -98.1725 497.087C-97.4076 490.563 -96.4463 484.039 -95.2547 477.532C-93.0533 465.539 -89.5751 453.647 -84.7734 442.293C-79.0292 428.711 -71.3909 415.956 -61.2897 404.822C-40.518 381.958 -10.8925 366.13 11.8122 345.267C18.5924 339.037 24.8112 332.413 29.8809 325.126M-260.018 873.58C-260.018 873.58 -279.585 832.906 -219.251 801.319C-158.916 769.732 -105.405 769.927 -97.7772 675.775C-92.5073 610.713 -110.188 541.678 -100.784 477.471C-96.9144 451.053 -85.9602 425.698 -66.1937 405.877C-44.0641 383.687 -12.4885 368.728 12.1815 348.451C19.548 342.395 26.3547 335.925 31.9968 328.754" stroke="#FFB84A" stroke-width="0.197078" stroke-miterlimit="10"/>
</svg>
