<svg width="32" height="32" viewBox="0 0 32 32" fill="none" xmlns="http://www.w3.org/2000/svg">
<ellipse cx="11.7274" cy="9.33333" rx="5.33333" ry="5.33333" stroke="#FFB84A" stroke-width="1.5" stroke-linecap="round"/>
<path d="M16.5975 18.6927C15.2003 17.6207 13.4885 17.0396 11.7274 17.0396C9.96633 17.0396 8.25447 17.6206 6.85732 18.6927C5.46016 19.7648 4.4558 21.2679 4 22.969" stroke="#FFB84A" stroke-width="1.5" stroke-linecap="round"/>
<path d="M22.8385 21.7778H19.1209C17.6838 21.7778 16.4653 22.8345 16.2621 24.2572V24.2572C15.9928 26.1422 17.5896 27.7672 19.479 27.531L19.9747 27.4691C21.6108 27.2646 22.8385 25.8738 22.8385 24.225V16.2774C22.8385 14.6591 22.8385 13.8499 23.3125 13.2904C23.7864 12.7309 24.5846 12.5979 26.1809 12.3318L27.871 12.0501C28.0068 12.0275 28.0747 12.0162 28.1113 12.0559C28.148 12.0956 28.1313 12.1624 28.0979 12.2959L27.3137 15.4328C27.2987 15.4924 27.2913 15.5223 27.2703 15.5423C27.2493 15.5623 27.2192 15.5683 27.1589 15.5804L22.8385 16.4444" stroke="#FFB84A" stroke-width="1.5"/>
</svg>
