<svg width="33" height="32" viewBox="0 0 33 32" fill="none" xmlns="http://www.w3.org/2000/svg">
<g opacity="0.5">
<path d="M14.5406 9.95957C14.1501 9.56905 13.5169 9.56905 13.1264 9.95957C12.7359 10.3501 12.7359 10.9833 13.1264 11.3738L14.5406 9.95957ZM19.1668 16L19.8739 16.7071C20.2645 16.3166 20.2645 15.6834 19.8739 15.2929L19.1668 16ZM13.1264 20.6262C12.7359 21.0168 12.7359 21.6499 13.1264 22.0405C13.5169 22.431 14.1501 22.431 14.5406 22.0405L13.1264 20.6262ZM13.1264 11.3738L18.4597 16.7071L19.8739 15.2929L14.5406 9.95957L13.1264 11.3738ZM18.4597 15.2929L13.1264 20.6262L14.5406 22.0405L19.8739 16.7071L18.4597 15.2929Z" fill="white"/>
</g>
</svg>
