<svg width="32" height="32" viewBox="0 0 32 32" fill="none" xmlns="http://www.w3.org/2000/svg">
<circle cx="16" cy="16" r="12" stroke="#FFB84A" stroke-width="1.5" stroke-linecap="round"/>
<path d="M21.149 20.6632C21.149 20.6632 19.848 22.1494 18.6667 22.7226C17.7249 23.1795 17.0643 23.4622 16.0223 23.4622C14.9803 23.4622 14.2987 23.1729 13.3334 22.7226C12.105 22.1495 10.7057 20.6632 10.7057 20.6632" stroke="#FFB84A" stroke-width="1.5" stroke-linecap="round"/>
<path d="M12.8333 13.3333C13.0765 13.3333 13.198 13.3333 13.2725 13.224C13.3469 13.1147 13.3115 13.0248 13.2407 12.8449C13.1742 12.6762 13.0735 12.5212 12.9428 12.3905C12.6927 12.1404 12.3536 12 12 12C11.6464 12 11.3072 12.1404 11.0572 12.3905C10.9265 12.5212 10.8257 12.6762 10.7593 12.8449C10.6885 13.0248 10.6531 13.1147 10.7275 13.224C10.8019 13.3333 10.9235 13.3333 11.1667 13.3333L12 13.3333H12.8333Z" fill="#FFB84A" stroke="#FFB84A" stroke-width="1.5" stroke-linecap="round"/>
<path d="M20.8333 13.3333C21.0765 13.3333 21.198 13.3333 21.2725 13.224C21.3469 13.1147 21.3115 13.0248 21.2407 12.8449C21.1743 12.6762 21.0735 12.5212 20.9428 12.3905C20.6928 12.1404 20.3536 12 20 12C19.6464 12 19.3072 12.1404 19.0572 12.3905C18.9265 12.5212 18.8257 12.6762 18.7593 12.8449C18.6885 13.0248 18.6531 13.1147 18.7275 13.224C18.8019 13.3333 18.9235 13.3333 19.1667 13.3333L20 13.3333H20.8333Z" fill="#FFB84A" stroke="#FFB84A" stroke-width="1.5" stroke-linecap="round"/>
</svg>
