<svg width="32" height="32" viewBox="0 0 32 32" fill="none" xmlns="http://www.w3.org/2000/svg">
<path d="M5.33325 5.33337L26.6666 26.6667" stroke="#FFB84A" stroke-width="2" stroke-linecap="round" stroke-linejoin="round"/>
<path d="M22.0001 22.3413C20.1966 23.3129 18.1582 24 16.0001 24C8.63628 24 2.66675 16 2.66675 16C2.66675 16 5.4513 12.2683 9.56281 9.90227M26.0001 19.5115C28.0746 17.687 29.3334 16 29.3334 16C29.3334 16 23.3639 8 16.0001 8C15.5501 8 15.1053 8.02988 14.6667 8.08597" stroke="#FFB84A" stroke-width="2" stroke-linecap="round" stroke-linejoin="round"/>
<path d="M17.7638 18C17.2937 18.4149 16.6762 18.6667 15.9999 18.6667C14.5272 18.6667 13.3333 17.4728 13.3333 16C13.3333 15.2807 13.6181 14.6279 14.0811 14.1482" stroke="#FFB84A" stroke-width="2" stroke-linecap="round" stroke-linejoin="round"/>
</svg>
