<svg width="80" height="80" viewBox="0 0 80 80" fill="none" xmlns="http://www.w3.org/2000/svg">
<path d="M0 40C0 17.9086 17.9086 0 40 0C62.0914 0 80 17.9086 80 40C80 62.0914 62.0914 80 40 80C17.9086 80 0 62.0914 0 40Z" fill="#272625"/>
<path d="M35.1139 31.1711C37.1826 31.1711 39.134 31.0266 41.0576 31.2107C43.344 31.4288 44.7678 33.1936 44.7734 35.556C44.792 42.0615 44.792 48.568 44.7734 55.0755C44.7734 57.8203 42.8555 59.8399 40.2172 59.9929C37.6628 60.1402 35.5606 58.3868 35.1585 55.7581C35.0893 55.3396 35.0519 54.9163 35.0469 54.492C35.0469 47.046 35.0469 39.599 35.0469 32.1512C35.0469 31.8679 35.086 31.5846 35.1139 31.1711Z" fill="#FFB84A"/>
<path d="M44.779 24.3869C44.7808 25.0343 44.656 25.6757 44.4118 26.2738C44.1675 26.8719 43.8087 27.4149 43.356 27.8713C42.9034 28.3276 42.366 28.6883 41.7749 28.9323C41.1839 29.1764 40.551 29.2989 39.9129 29.2929C38.6237 29.2693 37.3949 28.7347 36.4891 27.8036C35.5834 26.8724 35.0728 25.6186 35.0664 24.3104C35.0898 23.0019 35.6182 21.755 36.538 20.8376C37.4579 19.9202 38.6957 19.4056 39.9855 19.4043C40.6243 19.4064 41.2563 19.5376 41.8446 19.7902C42.4329 20.0429 42.9658 20.4119 43.412 20.8757C43.8582 21.3395 44.2089 21.8889 44.4436 22.4917C44.6783 23.0946 44.7923 23.7388 44.779 24.3869Z" fill="#FFB84A"/>
<path d="M40 79C18.4609 79 1 61.5391 1 40H-1C-1 62.6437 17.3563 81 40 81V79ZM79 40C79 61.5391 61.5391 79 40 79V81C62.6437 81 81 62.6437 81 40H79ZM40 1C61.5391 1 79 18.4609 79 40H81C81 17.3563 62.6437 -1 40 -1V1ZM40 -1C17.3563 -1 -1 17.3563 -1 40H1C1 18.4609 18.4609 1 40 1V-1Z" fill="#7B7673"/>
</svg>
