<svg width="33" height="41" viewBox="0 0 33 41" fill="none" xmlns="http://www.w3.org/2000/svg">
<g clip-path="url(#clip0_781_822)">
<path d="M0.47545 12.1703C2.54415 12.1703 4.4956 12.0259 6.41912 12.21C8.70558 12.4281 10.1294 14.1928 10.135 16.5552C10.1536 23.0608 10.1536 29.5673 10.135 36.0747C10.135 38.8195 8.21702 40.8392 5.5788 40.9921C3.02433 41.1394 0.922133 39.3861 0.520118 36.7574C0.450826 36.3389 0.413491 35.9156 0.408447 35.4912C0.408447 28.0452 0.408447 20.5983 0.408447 13.1504C0.408447 12.8672 0.447532 12.5839 0.47545 12.1703Z" fill="#FFB84A"/>
<path d="M10.1408 5.3849C10.1426 6.03234 10.0178 6.67372 9.77356 7.27185C9.5293 7.86998 9.17045 8.41296 8.71782 8.86932C8.26518 9.32568 7.72776 9.68633 7.13673 9.93037C6.54569 10.1744 5.91278 10.297 5.2747 10.291C3.98552 10.2673 2.75664 9.73274 1.85092 8.8016C0.945194 7.87045 0.434545 6.61667 0.428192 5.30842C0.451589 3.99996 0.979985 2.75304 1.89981 1.83564C2.81964 0.918248 4.05748 0.403612 5.34729 0.402344C5.98611 0.404459 6.61812 0.535662 7.20642 0.788294C7.79473 1.04093 8.32754 1.40993 8.77377 1.87376C9.22 2.33759 9.5707 2.88696 9.8054 3.4898C10.0401 4.09264 10.1541 4.73687 10.1408 5.3849V5.3849Z" fill="#FFB84A"/>
</g>
<g clip-path="url(#clip1_781_822)">
<path d="M21.4799 19.7861C21.4799 22.928 21.5884 25.8671 21.4464 28.7948C21.3128 31.5939 19.1025 33.5076 16.4356 33.4191C13.7688 33.3305 11.8563 31.274 11.8006 28.4234C11.77 26.9953 11.7644 25.5672 11.8006 24.1533C11.8619 21.8255 13.3902 20.0689 15.6255 19.8689C17.0481 19.7404 18.4901 19.809 19.9209 19.7918C20.3803 19.7832 20.834 19.7861 21.4799 19.7861Z" fill="#FFB84A"/>
<path d="M16.6807 17.9453C15.4107 17.9301 14.1971 17.4051 13.2997 16.4829C12.4024 15.5606 11.8928 14.3145 11.8801 13.0115C11.8673 11.7084 12.3525 10.452 13.2316 9.51154C14.1107 8.57103 15.3138 8.02119 16.5832 7.9798C19.1805 7.92267 21.4744 10.2277 21.4966 12.924C21.5033 14.244 21.0006 15.5131 20.0982 16.454C19.1958 17.3948 17.9671 17.931 16.6807 17.9453V17.9453Z" fill="#FFB84A"/>
</g>
<g clip-path="url(#clip2_781_822)">
<path d="M28.0602 25.3037C27.4136 25.3243 26.7693 25.2152 26.1652 24.9828C25.5612 24.7504 25.0095 24.3993 24.5425 23.9502C24.0755 23.5011 23.7027 22.963 23.4459 22.3674C23.189 21.7719 23.0534 21.1309 23.0469 20.4821C23.0404 19.8332 23.1632 19.1896 23.408 18.589C23.6528 17.9884 24.0148 17.4429 24.4727 16.9845C24.9306 16.5261 25.4751 16.1639 26.0744 15.9194C26.6737 15.6749 27.3157 15.5528 27.9626 15.5604C29.2509 15.5616 30.4874 16.0689 31.4072 16.9735C32.327 17.8781 32.8568 19.1081 32.8831 20.3999C32.8893 21.0399 32.7693 21.6749 32.53 22.2683C32.2907 22.8618 31.9367 23.4019 31.4885 23.8576C31.0403 24.3133 30.5067 24.6757 29.9183 24.9239C29.33 25.172 28.6985 25.3011 28.0602 25.3037Z" fill="#FFB84A"/>
</g>
<defs>
<clipPath id="clip0_781_822">
<rect width="9.74327" height="40.5971" fill="white" transform="translate(0.408447 0.40332)"/>
</clipPath>
<clipPath id="clip1_781_822">
<rect width="10.2846" height="25.9821" fill="white" transform="translate(11.7756 7.4397)"/>
</clipPath>
<clipPath id="clip2_781_822">
<rect width="10.2846" height="10.2849" fill="white" transform="translate(22.6014 15.5593)"/>
</clipPath>
</defs>
</svg>
