<svg width="22" height="42" viewBox="0 0 22 42" fill="none" xmlns="http://www.w3.org/2000/svg">
<g clip-path="url(#clip0_781_814)">
<path d="M0.113698 12.1703C2.1824 12.1703 4.13384 12.0259 6.05737 12.21C8.34383 12.4281 9.76763 14.1928 9.77322 16.5552C9.79183 23.0608 9.79183 29.5673 9.77322 36.0747C9.77322 38.8195 7.85527 40.8392 5.21705 40.9921C2.66258 41.1394 0.560381 39.3861 0.158366 36.7574C0.0890744 36.3389 0.0517398 35.9156 0.0466957 35.4912C0.0466957 28.0452 0.0466957 20.5983 0.0466957 13.1504C0.0466957 12.8672 0.0857805 12.5839 0.113698 12.1703Z" fill="#FFB84A"/>
<path d="M9.77877 5.3849C9.78065 6.03234 9.65584 6.67372 9.41158 7.27185C9.16732 7.86998 8.80847 8.41296 8.35583 8.86932C7.9032 9.32568 7.36578 9.68633 6.77474 9.93037C6.1837 10.1744 5.5508 10.297 4.91272 10.291C3.62353 10.2673 2.39466 9.73274 1.48893 8.8016C0.583212 7.87045 0.0725625 6.61667 0.0662098 5.30842C0.0896071 3.99996 0.618002 2.75304 1.53783 1.83564C2.45766 0.918248 3.6955 0.403612 4.98531 0.402344C5.62413 0.404459 6.25614 0.535662 6.84444 0.788294C7.43275 1.04093 7.96556 1.40993 8.41179 1.87376C8.85802 2.33759 9.20872 2.88696 9.44342 3.4898C9.67812 4.09264 9.79212 4.73687 9.77877 5.3849V5.3849Z" fill="#FFB84A"/>
</g>
<g clip-path="url(#clip1_781_814)">
<path d="M21.1184 19.7861C21.1184 22.928 21.227 25.8671 21.085 28.7948C20.9514 31.5939 18.741 33.5076 16.0742 33.4191C13.4073 33.3305 11.4948 31.274 11.4392 28.4234C11.4085 26.9953 11.403 25.5672 11.4392 24.1533C11.5004 21.8255 13.0287 20.0689 15.2641 19.8689C16.6866 19.7404 18.1286 19.809 19.5595 19.7918C20.0188 19.7832 20.4726 19.7861 21.1184 19.7861Z" fill="#FFB84A"/>
<path d="M16.319 17.9453C15.049 17.9301 13.8354 17.4051 12.938 16.4829C12.0407 15.5606 11.5311 14.3145 11.5184 13.0115C11.5056 11.7084 11.9908 10.452 12.8699 9.51154C13.749 8.57103 14.9521 8.02119 16.2216 7.9798C18.8188 7.92267 21.1127 10.2277 21.1349 12.924C21.1416 14.244 20.6389 15.5131 19.7365 16.454C18.8341 17.3948 17.6054 17.931 16.319 17.9453V17.9453Z" fill="#FFB84A"/>
</g>
<defs>
<clipPath id="clip0_781_814">
<rect width="9.74327" height="40.5971" fill="white" transform="translate(0.0467854 0.40332)"/>
</clipPath>
<clipPath id="clip1_781_814">
<rect width="10.2846" height="25.9821" fill="white" transform="translate(11.4139 7.4397)"/>
</clipPath>
</defs>
</svg>
