<svg width="10" height="42" viewBox="0 0 10 42" fill="none" xmlns="http://www.w3.org/2000/svg">
<path d="M0.113877 12.1711C2.18258 12.1711 4.13402 12.0266 6.05755 12.2107C8.34401 12.4288 9.76781 14.1936 9.77339 16.556C9.79201 23.0615 9.79201 29.568 9.77339 36.0755C9.77339 38.8203 7.85545 40.8399 5.21723 40.9929C2.66276 41.1402 0.56056 39.3868 0.158546 36.7581C0.0892537 36.3396 0.0519191 35.9163 0.046875 35.492C0.046875 28.046 0.046875 20.599 0.046875 13.1512C0.046875 12.8679 0.0859598 12.5846 0.113877 12.1711Z" fill="#FFB84A"/>
<path d="M9.77897 5.38686C9.78084 6.0343 9.65603 6.67567 9.41177 7.2738C9.16751 7.87193 8.80866 8.41491 8.35603 8.87127C7.90339 9.32763 7.36598 9.68828 6.77494 9.93232C6.1839 10.1764 5.55099 10.2989 4.91292 10.2929C3.62373 10.2693 2.39485 9.7347 1.48913 8.80355C0.583409 7.8724 0.072759 6.61862 0.0664062 5.31038C0.0898035 4.00192 0.618199 2.75499 1.53803 1.8376C2.45786 0.920201 3.69569 0.405565 4.9855 0.404297C5.62432 0.406412 6.25633 0.537615 6.84464 0.790247C7.43294 1.04288 7.96576 1.41188 8.41199 1.87571C8.85821 2.33954 9.20891 2.88891 9.44361 3.49175C9.67832 4.09459 9.79232 4.73883 9.77897 5.38686V5.38686Z" fill="#FFB84A"/>
</svg>
