<svg width="80" height="80" viewBox="0 0 80 80" fill="none" xmlns="http://www.w3.org/2000/svg">
<path d="M0 40C0 17.9086 17.9086 0 40 0C62.0914 0 80 17.9086 80 40C80 62.0914 62.0914 80 40 80C17.9086 80 0 62.0914 0 40Z" fill="#272625"/>
<g clip-path="url(#clip0_332_2440)">
<path d="M29.1137 31.1703C31.1824 31.1703 33.1338 31.0259 35.0574 31.21C37.3438 31.4281 38.7676 33.1928 38.7732 35.5552C38.7918 42.0608 38.7918 48.5673 38.7732 55.0747C38.7732 57.8195 36.8553 59.8392 34.2171 59.9921C31.6626 60.1394 29.5604 58.3861 29.1584 55.7574C29.0891 55.3389 29.0517 54.9156 29.0467 54.4912C29.0467 47.0452 29.0467 39.5983 29.0467 32.1504C29.0467 31.8672 29.0858 31.5839 29.1137 31.1703Z" fill="#FFB84A"/>
<path d="M38.7788 24.3849C38.7806 25.0323 38.6558 25.6737 38.4116 26.2718C38.1673 26.87 37.8085 27.413 37.3558 27.8693C36.9032 28.3257 36.3658 28.6863 35.7747 28.9304C35.1837 29.1744 34.5508 29.297 33.9127 29.291C32.6235 29.2673 31.3947 28.7327 30.4889 27.8016C29.5832 26.8705 29.0726 25.6167 29.0662 24.3084C29.0896 23 29.618 21.753 30.5378 20.8356C31.4577 19.9182 32.6955 19.4036 33.9853 19.4023C34.6241 19.4045 35.2561 19.5357 35.8444 19.7883C36.4327 20.0409 36.9656 20.4099 37.4118 20.8738C37.858 21.3376 38.2087 21.887 38.4434 22.4898C38.6781 23.0926 38.7921 23.7369 38.7788 24.3849Z" fill="#FFB84A"/>
</g>
<g clip-path="url(#clip1_332_2440)">
<path d="M50.1184 38.7861C50.1184 41.928 50.227 44.8671 50.085 47.7948C49.9514 50.5939 47.741 52.5076 45.0742 52.4191C42.4073 52.3305 40.4948 50.274 40.4392 47.4234C40.4085 45.9953 40.403 44.5672 40.4392 43.1533C40.5004 40.8255 42.0287 39.0689 44.2641 38.8689C45.6866 38.7404 47.1286 38.809 48.5595 38.7918C49.0188 38.7832 49.4726 38.7861 50.1184 38.7861Z" fill="#FFB84A"/>
<path d="M45.319 36.9453C44.049 36.9301 42.8354 36.4051 41.938 35.4829C41.0407 34.5606 40.5311 33.3145 40.5184 32.0115C40.5056 30.7084 40.9908 29.452 41.8699 28.5115C42.749 27.571 43.9521 27.0212 45.2216 26.9798C47.8188 26.9227 50.1127 29.2277 50.1349 31.924C50.1416 33.244 49.6389 34.5131 48.7365 35.454C47.8341 36.3948 46.6054 36.931 45.319 36.9453Z" fill="#FFB84A"/>
</g>
<path d="M40 79C18.4609 79 1 61.5391 1 40H-1C-1 62.6437 17.3563 81 40 81V79ZM79 40C79 61.5391 61.5391 79 40 79V81C62.6437 81 81 62.6437 81 40H79ZM40 1C61.5391 1 79 18.4609 79 40H81C81 17.3563 62.6437 -1 40 -1V1ZM40 -1C17.3563 -1 -1 17.3563 -1 40H1C1 18.4609 18.4609 1 40 1V-1Z" fill="#7B7673"/>
<defs>
<clipPath id="clip0_332_2440">
<rect width="9.74327" height="40.5971" fill="white" transform="translate(29.0468 19.4033)"/>
</clipPath>
<clipPath id="clip1_332_2440">
<rect width="10.2846" height="25.9821" fill="white" transform="translate(40.4139 26.4397)"/>
</clipPath>
</defs>
</svg>
