<svg width="80" height="80" viewBox="0 0 80 80" fill="none" xmlns="http://www.w3.org/2000/svg">
<path d="M0 40C0 17.9086 17.9086 0 40 0C62.0914 0 80 17.9086 80 40C80 62.0914 62.0914 80 40 80C17.9086 80 0 62.0914 0 40Z" fill="#272625"/>
<g clip-path="url(#clip0_332_2447)">
<path d="M26.4754 31.1703C28.5441 31.1703 30.4956 31.0259 32.4191 31.21C34.7056 31.4281 36.1294 33.1928 36.135 35.5552C36.1536 42.0608 36.1536 48.5673 36.135 55.0747C36.135 57.8195 34.217 59.8392 31.5788 59.9921C29.0243 60.1394 26.9221 58.3861 26.5201 55.7574C26.4508 55.3389 26.4135 54.9156 26.4084 54.4912C26.4084 47.0452 26.4084 39.5983 26.4084 32.1504C26.4084 31.8672 26.4475 31.5839 26.4754 31.1703Z" fill="#FFB84A"/>
<path d="M36.1408 24.3849C36.1426 25.0323 36.0178 25.6737 35.7736 26.2718C35.5293 26.87 35.1705 27.413 34.7178 27.8693C34.2652 28.3257 33.7278 28.6863 33.1367 28.9304C32.5457 29.1744 31.9128 29.297 31.2747 29.291C29.9855 29.2673 28.7566 28.7327 27.8509 27.8016C26.9452 26.8705 26.4345 25.6167 26.4282 24.3084C26.4516 23 26.98 21.753 27.8998 20.8356C28.8196 19.9182 30.0575 19.4036 31.3473 19.4023C31.9861 19.4045 32.6181 19.5357 33.2064 19.7883C33.7947 20.0409 34.3275 20.4099 34.7738 20.8738C35.22 21.3376 35.5707 21.887 35.8054 22.4898C36.0401 23.0926 36.1541 23.7369 36.1408 24.3849Z" fill="#FFB84A"/>
</g>
<g clip-path="url(#clip1_332_2447)">
<path d="M47.4799 38.7861C47.4799 41.928 47.5884 44.8671 47.4464 47.7948C47.3128 50.5939 45.1025 52.5076 42.4356 52.4191C39.7688 52.3305 37.8563 50.274 37.8006 47.4234C37.77 45.9953 37.7644 44.5672 37.8006 43.1533C37.8619 40.8255 39.3902 39.0689 41.6255 38.8689C43.0481 38.7404 44.4901 38.809 45.9209 38.7918C46.3803 38.7832 46.834 38.7861 47.4799 38.7861Z" fill="#FFB84A"/>
<path d="M42.6807 36.9453C41.4107 36.9301 40.1971 36.4051 39.2997 35.4829C38.4024 34.5606 37.8928 33.3145 37.8801 32.0115C37.8673 30.7084 38.3525 29.452 39.2316 28.5115C40.1107 27.571 41.3138 27.0212 42.5832 26.9798C45.1805 26.9227 47.4744 29.2277 47.4966 31.924C47.5033 33.244 47.0006 34.5131 46.0982 35.454C45.1958 36.3948 43.9671 36.931 42.6807 36.9453Z" fill="#FFB84A"/>
</g>
<g clip-path="url(#clip2_332_2447)">
<path d="M54.0602 44.3037C53.4136 44.3243 52.7693 44.2152 52.1652 43.9828C51.5612 43.7504 51.0095 43.3993 50.5425 42.9502C50.0755 42.5011 49.7027 41.963 49.4459 41.3674C49.189 40.7719 49.0534 40.1309 49.0469 39.4821C49.0404 38.8332 49.1632 38.1896 49.408 37.589C49.6528 36.9884 50.0148 36.4429 50.4727 35.9845C50.9306 35.5261 51.4751 35.1639 52.0744 34.9194C52.6737 34.6749 53.3157 34.5528 53.9626 34.5604C55.2509 34.5616 56.4874 35.0689 57.4072 35.9735C58.327 36.8781 58.8568 38.1081 58.8831 39.3999C58.8893 40.0399 58.7693 40.6749 58.53 41.2683C58.2907 41.8618 57.9367 42.4019 57.4885 42.8576C57.0403 43.3133 56.5067 43.6757 55.9183 43.9239C55.33 44.172 54.6985 44.3011 54.0602 44.3037Z" fill="#FFB84A"/>
</g>
<path d="M40 79C18.4609 79 1 61.5391 1 40H-1C-1 62.6437 17.3563 81 40 81V79ZM79 40C79 61.5391 61.5391 79 40 79V81C62.6437 81 81 62.6437 81 40H79ZM40 1C61.5391 1 79 18.4609 79 40H81C81 17.3563 62.6437 -1 40 -1V1ZM40 -1C17.3563 -1 -1 17.3563 -1 40H1C1 18.4609 18.4609 1 40 1V-1Z" fill="#7B7673"/>
<defs>
<clipPath id="clip0_332_2447">
<rect width="9.74327" height="40.5971" fill="white" transform="translate(26.4084 19.4033)"/>
</clipPath>
<clipPath id="clip1_332_2447">
<rect width="10.2846" height="25.9821" fill="white" transform="translate(37.7756 26.4397)"/>
</clipPath>
<clipPath id="clip2_332_2447">
<rect width="10.2846" height="10.2849" fill="white" transform="translate(48.6014 34.5593)"/>
</clipPath>
</defs>
</svg>
