<svg width="25" height="25" viewBox="0 0 25 25" fill="none" xmlns="http://www.w3.org/2000/svg">
<path d="M11.2074 10.8158C11.2074 11.23 11.5432 11.5658 11.9574 11.5658C12.3717 11.5658 12.7074 11.23 12.7074 10.8158H11.2074ZM11.9574 4.5H12.7074C12.7074 4.14971 12.465 3.84607 12.1234 3.76858C11.7817 3.69109 11.432 3.8604 11.2808 4.17641L11.9574 4.5ZM7.32587 14.1842L6.64927 13.8606C6.53813 14.093 6.55402 14.3662 6.69136 14.5841C6.8287 14.802 7.06827 14.9342 7.32587 14.9342V14.1842ZM11.9574 14.1842H12.7074C12.7074 13.77 12.3717 13.4342 11.9574 13.4342V14.1842ZM11.9574 20.5H11.2074C11.2074 20.8503 11.4499 21.1539 11.7915 21.2314C12.1332 21.3089 12.4829 21.1396 12.6341 20.8236L11.9574 20.5ZM16.5888 10.8158L17.2654 11.1394C17.3766 10.907 17.3607 10.6338 17.2233 10.4159C17.086 10.198 16.8464 10.0658 16.5888 10.0658V10.8158ZM13.6415 10.0658C13.2272 10.0658 12.8915 10.4016 12.8915 10.8158C12.8915 11.23 13.2272 11.5658 13.6415 11.5658V10.0658ZM12.7074 10.8158V4.5H11.2074V10.8158H12.7074ZM11.2808 4.17641L6.64927 13.8606L8.00247 14.5078L12.634 4.82359L11.2808 4.17641ZM7.32587 14.9342H11.9574V13.4342H7.32587V14.9342ZM11.2074 14.1842V20.5H12.7074V14.1842H11.2074ZM12.6341 20.8236L17.2654 11.1394L15.9122 10.4922L11.2808 20.1764L12.6341 20.8236ZM16.5888 10.0658H13.6415V11.5658H16.5888V10.0658Z" fill="white"/>
</svg>
