<svg width="96" height="24" viewBox="0 0 96 24" fill="none" xmlns="http://www.w3.org/2000/svg">
<path d="M17.7257 7.64448L7.03615 0.625246C4.7697 -0.660204 1.89435 0.134745 0.608897 2.4012C0.202966 3.11158 0 3.90653 0 4.7353V18.7738C0 21.3785 2.09731 23.4927 4.70204 23.4927C5.5139 23.4927 6.32577 23.2898 7.03615 22.8838L17.7426 15.8646C20.009 14.5791 20.804 11.6869 19.5185 9.42043C19.0957 8.67622 18.4699 8.06732 17.7257 7.64448ZM6.93466 18.8583C6.93466 20.1269 5.91984 21.1417 4.6513 21.1417C3.38276 21.1417 2.36793 20.1269 2.36793 18.8583V7.77979H4.90501C6.02132 7.77979 6.93466 8.69314 6.93466 9.80945V18.8583ZM4.6513 6.9341C3.38276 6.9341 2.36793 5.91927 2.36793 4.65073C2.36793 3.3822 3.38276 2.36737 4.6513 2.36737C5.91984 2.36737 6.93466 3.3822 6.93466 4.65073C6.93466 5.91927 5.91984 6.9341 4.6513 6.9341ZM12.3471 15.3064C12.3471 16.575 11.3323 17.5898 10.0637 17.5898C8.79518 17.5898 7.78036 16.575 7.78036 15.3064V13.3613C7.78036 12.245 8.6937 11.3317 9.81001 11.3317H12.3471V15.3064ZM10.0637 10.486C8.79518 10.486 7.78036 9.47117 7.78036 8.20263C7.78036 6.9341 8.79518 5.91927 10.0637 5.91927C11.3323 5.91927 12.3471 6.9341 12.3471 8.20263C12.3471 9.47117 11.3323 10.486 10.0637 10.486ZM15.4761 14.0379C14.2076 14.0379 13.1928 13.0231 13.1928 11.7545C13.1928 10.486 14.2076 9.47117 15.4761 9.47117C16.7447 9.47117 17.7595 10.486 17.7595 11.7545C17.7595 13.0231 16.7447 14.0379 15.4761 14.0379Z" fill="#FFB84A"/>
<path d="M34.8594 2.19916C35.6881 2.18225 36.5 2.31756 37.278 2.60509C37.9546 2.84189 38.5804 3.21399 39.1216 3.68758C39.629 4.14425 40.0181 4.71932 40.2887 5.36205C40.5762 6.0386 40.7115 6.76589 40.6946 7.49319C40.6946 8.119 40.61 8.74481 40.4071 9.33679C40.221 9.91186 39.9673 10.4531 39.646 10.9605C39.3077 11.4848 38.9356 11.9753 38.5127 12.4489C38.0899 12.9225 37.6332 13.413 37.1596 13.9035L33.6077 17.5569C34.0475 17.4216 34.5042 17.3201 34.9608 17.2525C35.3837 17.1679 35.7896 17.1341 36.2294 17.1341H39.629C39.9842 17.1171 40.3394 17.2355 40.61 17.4893C40.8468 17.726 40.9822 18.0474 40.9652 18.3857V20.6352H28.1953V19.3836C28.1953 19.113 28.2461 18.8593 28.3475 18.6056C28.4659 18.318 28.6351 18.0643 28.8719 17.8614L34.1151 12.5842C34.5211 12.1783 34.927 11.7386 35.2822 11.2988C35.5866 10.9267 35.8742 10.5208 36.111 10.0979C36.3139 9.72581 36.4831 9.31988 36.6015 8.91395C36.703 8.50802 36.7706 8.08517 36.7706 7.64541C36.7706 6.91812 36.6015 6.35996 36.2463 5.98786C35.908 5.59884 35.3837 5.39587 34.6733 5.39587C34.4027 5.39587 34.1321 5.4297 33.8784 5.51427C33.6416 5.59884 33.4217 5.70032 33.2356 5.85255C33.0496 5.98786 32.8804 6.157 32.7282 6.35996C32.5929 6.54601 32.4914 6.76589 32.4069 6.98577C32.3223 7.29022 32.1362 7.57776 31.8994 7.79764C31.6626 7.98369 31.3751 8.06826 31.0707 8.05134C30.9861 8.05134 30.9015 8.05134 30.8 8.03443C30.7155 8.03443 30.614 8.01752 30.5125 8.0006L28.4659 7.64541C28.5674 6.81664 28.838 6.00477 29.2271 5.27748C29.5822 4.63475 30.0727 4.05968 30.6309 3.5861C31.206 3.12942 31.8656 2.79115 32.5591 2.58818C33.2864 2.30065 34.0813 2.19916 34.8594 2.19916Z" fill="#FFB84A"/>
<path d="M54.0057 13.5313H55.8831V15.7132C55.8831 15.8993 55.8154 16.0853 55.6801 16.2206C55.5448 16.3728 55.3419 16.4405 55.1389 16.4405H54.0226V20.6182H50.6567V16.4236H43.35C43.1132 16.4236 42.8764 16.339 42.6903 16.2037C42.5043 16.0684 42.3859 15.8654 42.3351 15.6456L41.9292 13.7343L50.3354 2.41895H54.0226V13.5313H54.0057ZM50.6398 8.77854C50.6398 8.49101 50.6398 8.16964 50.6567 7.84828C50.6736 7.51 50.7075 7.15481 50.7582 6.79962L45.9547 13.5313H50.6398V8.77854Z" fill="#FFB84A"/>
<path d="M70.0912 6.10567C69.9897 6.2748 69.8544 6.42703 69.6852 6.56234C69.533 6.66382 69.3469 6.71456 69.1609 6.71456C68.941 6.71456 68.7211 6.64691 68.5351 6.54542C68.3152 6.42703 68.0615 6.2748 67.7909 6.13949C67.4864 5.97036 67.1651 5.83504 66.8437 5.73356C66.4547 5.59825 66.0318 5.54751 65.6259 5.54751C64.831 5.54751 64.239 5.71665 63.8499 6.05492C63.4609 6.3932 63.258 6.90062 63.2749 7.42494C63.258 7.76322 63.3933 8.08458 63.6301 8.33829C63.9007 8.60891 64.2051 8.81188 64.5434 8.9641C64.9663 9.15015 65.406 9.31929 65.8458 9.4546C66.3363 9.58991 66.8437 9.75905 67.3511 9.9451C67.8585 10.1142 68.349 10.3341 68.8395 10.5709C69.3131 10.8077 69.7529 11.1122 70.1419 11.5012C70.5309 11.8902 70.8523 12.3638 71.0722 12.8712C71.3259 13.4801 71.4443 14.1397 71.4273 14.7994C71.4273 15.6112 71.292 16.4062 70.9876 17.1673C70.7001 17.8946 70.2772 18.5542 69.7191 19.0955C69.1271 19.6536 68.4336 20.0934 67.6725 20.3809C66.793 20.7023 65.8627 20.8545 64.9155 20.8376C64.3404 20.8376 63.7485 20.7699 63.1734 20.6685C62.5983 20.5501 62.0233 20.3978 61.482 20.178C60.9408 19.975 60.4334 19.7044 59.9429 19.4168C59.4862 19.1462 59.0633 18.8249 58.6743 18.4358L59.9259 16.4569C60.0274 16.3047 60.1627 16.1863 60.315 16.1017C60.4841 16.0172 60.6701 15.9664 60.8562 15.9664C61.1268 15.9664 61.3805 16.051 61.6004 16.2032C61.8541 16.3554 62.1417 16.5415 62.463 16.7275C62.8182 16.9305 63.1903 17.1166 63.5793 17.2519C64.0529 17.421 64.5434 17.5056 65.0508 17.4887C65.812 17.4887 66.4039 17.3195 66.8268 16.9812C67.2496 16.643 67.4695 16.1017 67.4695 15.3744C67.4864 15.0023 67.368 14.6302 67.1143 14.3427C66.8606 14.0552 66.5392 13.8353 66.1841 13.6831C65.7612 13.497 65.3384 13.3448 64.8986 13.2264C64.4081 13.0911 63.9176 12.9558 63.4102 12.7866C62.9028 12.6175 62.4123 12.4145 61.9218 12.1946C61.4482 11.9578 61.0084 11.6365 60.6194 11.2644C60.2304 10.8415 59.909 10.351 59.7061 9.80979C59.4524 9.11632 59.334 8.38903 59.3509 7.66174C59.3509 6.96827 59.4862 6.29172 59.7568 5.66591C60.0443 5.00627 60.4503 4.41428 60.9746 3.92378C61.5328 3.39945 62.2093 2.97661 62.9366 2.70599C63.7823 2.38463 64.6787 2.2324 65.5921 2.24932C66.1333 2.24932 66.6746 2.30006 67.2158 2.38463C67.7232 2.4692 68.2306 2.58759 68.7211 2.77364C69.1778 2.92587 69.6176 3.14575 70.0404 3.38254C70.4463 3.60242 70.8184 3.87304 71.1567 4.17749L70.0912 6.10567Z" fill="#FFB84A"/>
<path d="M86.0407 13.9029L81.8799 7.64478H85.6009C85.8039 7.62786 86.0069 7.66169 86.1929 7.76318C86.3451 7.84774 86.4635 7.96614 86.5481 8.11836L88.8484 11.9578C88.8991 11.8056 88.9668 11.6534 89.0344 11.518C89.1021 11.3827 89.1867 11.2305 89.2882 11.0614L90.9288 8.16911C91.0134 7.99997 91.1318 7.86466 91.284 7.76318C91.4362 7.67861 91.6053 7.62786 91.7745 7.64478H95.3264L91.1656 13.7338L95.5124 20.6008H91.7914C91.5546 20.6177 91.3178 20.55 91.1318 20.3978C90.9626 20.2625 90.8273 20.1103 90.7258 19.9242L88.4255 15.9495C88.3917 16.0848 88.341 16.2201 88.2733 16.3554C88.2226 16.4738 88.1549 16.5922 88.0873 16.7106L86.1929 19.9411C86.0914 20.1272 85.9561 20.2794 85.787 20.4147C85.6009 20.55 85.3811 20.6177 85.1612 20.6177H81.6938L86.0407 13.9029Z" fill="#FFB84A"/>
<path d="M77.2118 7.47559C78.0406 7.47559 78.7002 8.13522 78.7002 8.964V20.6684H76.2477C75.4189 20.6684 74.7593 20.0087 74.7593 19.1799V7.47559H77.2118Z" fill="#FFB84A"/>
<path d="M78.311 4.92185C78.4125 4.68506 78.4632 4.43135 78.4632 4.16073C78.4632 3.89011 78.4125 3.6364 78.311 3.39961C78.2095 3.16282 78.0573 2.95985 77.8882 2.7738C77.7021 2.58775 77.4822 2.45244 77.2455 2.35095C77.0087 2.24947 76.738 2.19873 76.4843 2.19873C76.2306 2.19873 75.9769 2.24947 75.7401 2.35095C75.5033 2.45244 75.3004 2.58775 75.1312 2.7738C74.9621 2.95985 74.8099 3.16282 74.7084 3.39961C74.6069 3.6364 74.5562 3.90703 74.5562 4.16073C74.5562 4.41444 74.6069 4.68506 74.7084 4.92185C74.8099 5.14173 74.9452 5.36161 75.1312 5.53075C75.3173 5.69989 75.5202 5.85211 75.7401 5.9536C75.9769 6.05508 76.2306 6.10582 76.4843 6.10582C76.755 6.10582 77.0087 6.05508 77.2455 5.9536C77.4822 5.85211 77.7021 5.7168 77.8882 5.53075C78.0573 5.36161 78.2095 5.15865 78.311 4.92185Z" fill="#FFB84A"/>
</svg>
