<svg width="26" height="26" viewBox="0 0 26 26" fill="none" xmlns="http://www.w3.org/2000/svg">
<path d="M9.80039 12.9999L11.9337 15.1332L16.2004 10.8666M22.6004 12.9999C22.6004 14.2606 22.3521 15.5089 21.8696 16.6737C21.3872 17.8384 20.6801 18.8967 19.7886 19.7881C18.8972 20.6796 17.8389 21.3867 16.6742 21.8691C15.5094 22.3516 14.2611 22.5999 13.0004 22.5999C11.7397 22.5999 10.4914 22.3516 9.32663 21.8691C8.1619 21.3867 7.10361 20.6796 6.21217 19.7881C5.32072 18.8967 4.61359 17.8384 4.13115 16.6737C3.6487 15.5089 3.40039 14.2606 3.40039 12.9999C3.40039 10.4538 4.41182 8.01203 6.21217 6.21168C8.01251 4.41133 10.4543 3.3999 13.0004 3.3999C15.5465 3.3999 17.9883 4.41133 19.7886 6.21168C21.589 8.01203 22.6004 10.4538 22.6004 12.9999Z" stroke="#FFB84A" stroke-width="1.5" stroke-linecap="round" stroke-linejoin="round"/>
</svg>
