<svg width="30" height="30" viewBox="0 0 30 30" fill="none" xmlns="http://www.w3.org/2000/svg">
<g clip-path="url(#clip0_729_2241)">
<path d="M15.3435 25.5444L15.6985 26.4793L15.6985 26.4793L15.3435 25.5444ZM14.6556 25.5444L14.3006 26.4793L14.3006 26.4793L14.6556 25.5444ZM6.70325 5.33337H23.2958V3.33337H6.70325V5.33337ZM23.481 5.51856V12.8251H25.481V5.51856H23.481ZM6.51807 12.8251V5.51856H4.51807V12.8251H6.51807ZM23.481 12.8251C23.481 20.8858 16.6419 23.9816 14.9884 24.6096L15.6985 26.4793C17.4481 25.8148 25.481 22.2613 25.481 12.8251H23.481ZM4.51807 12.8251C4.51807 22.2613 12.551 25.8148 14.3006 26.4793L15.0107 24.6096C13.3572 23.9816 6.51807 20.8858 6.51807 12.8251H4.51807ZM14.9884 24.6096C14.9866 24.6103 14.9869 24.61 14.9894 24.6095C14.9919 24.6091 14.9954 24.6087 14.9995 24.6087C15.0037 24.6087 15.0072 24.6091 15.0097 24.6095C15.0122 24.61 15.0125 24.6103 15.0107 24.6096L14.3006 26.4793C14.7547 26.6518 15.2444 26.6518 15.6985 26.4793L14.9884 24.6096ZM23.2958 5.33337C23.3981 5.33337 23.481 5.41628 23.481 5.51856H25.481C25.481 4.31171 24.5027 3.33337 23.2958 3.33337V5.33337ZM6.70325 3.33337C5.49641 3.33337 4.51807 4.31171 4.51807 5.51856H6.51807C6.51807 5.41628 6.60098 5.33337 6.70325 5.33337V3.33337Z" fill="#FFB84A"/>
<path d="M14.9404 18.5557H15.0589V18.6742H14.9404V18.5557Z" stroke="#FFB84A" stroke-width="2" stroke-linecap="round" stroke-linejoin="round"/>
<path d="M14.9995 10.2593V15" stroke="#FFB84A" stroke-width="2" stroke-linecap="round" stroke-linejoin="round"/>
</g>
<defs>
<clipPath id="clip0_729_2241">
<rect width="28.4444" height="28.4444" fill="white" transform="translate(0.777344 0.777832)"/>
</clipPath>
</defs>
</svg>
