<svg width="320" height="260" viewBox="0 0 320 260" fill="none" xmlns="http://www.w3.org/2000/svg">
<path d="M112.407 10.5406C117.403 0.486493 131.745 0.486477 136.74 10.5405L162.684 62.7555C164.662 66.7369 168.463 69.4986 172.861 70.1496L230.537 78.6877C241.643 80.3318 246.075 93.9721 238.056 101.83L196.414 142.639C193.239 145.75 191.787 150.219 192.527 154.603L202.229 212.094C204.098 223.165 192.494 231.595 182.543 226.397L130.864 199.403C126.923 197.345 122.225 197.345 118.284 199.403L66.6044 226.397C56.6534 231.595 45.0502 223.165 46.9185 212.094L56.6212 154.603C57.3611 150.219 55.9092 145.75 52.7339 142.639L11.0914 101.83C3.07311 93.9721 7.50511 80.3318 18.6108 78.6878L76.287 70.1496C80.6849 69.4986 84.486 66.7369 86.4641 62.7555L112.407 10.5406Z" fill="url(#paint0_linear_332_2457)"/>
<g filter="url(#filter0_b_332_2457)">
<path d="M303.472 125.037C313.591 129.9 313.78 144.241 303.793 149.368L252.056 175.93C248.101 177.96 245.39 181.797 244.797 186.203L237.04 243.84C235.543 254.966 221.962 259.578 213.999 251.664L172.75 210.668C169.597 207.534 165.11 206.141 160.736 206.939L103.524 217.372C92.4791 219.386 83.8966 207.895 88.9627 197.876L115.206 145.978C117.212 142.01 117.15 137.312 115.04 133.399L87.4374 82.2109C82.1089 72.3293 90.3854 60.616 101.479 62.3381L158.947 71.2591C163.34 71.9411 167.789 70.4304 170.859 67.2144L211.012 25.145C218.763 17.0237 232.461 21.2755 234.251 32.3585L243.526 89.7704C244.235 94.1593 247.046 97.9236 251.053 99.8491L303.472 125.037Z" fill="url(#paint1_linear_332_2457)"/>
</g>
<g filter="url(#filter1_b_332_2457)">
<path fill-rule="evenodd" clip-rule="evenodd" d="M249.823 171.579L301.559 145.017C307.951 141.736 307.83 132.557 301.353 129.445L248.935 104.257C243.485 101.639 239.662 96.5192 238.697 90.5503L229.423 33.1385C228.277 26.0453 219.511 23.3242 214.55 28.5218L174.397 70.5912C170.222 74.965 164.172 77.0195 158.197 76.092L100.729 67.171C93.6289 66.0689 88.332 73.5654 91.7422 79.8896L119.344 131.078C122.214 136.4 122.298 142.789 119.57 148.185L93.3272 200.083C90.0849 206.495 95.5777 213.849 102.646 212.56L159.859 202.127C165.807 201.042 171.91 202.937 176.198 207.199L217.447 248.195C222.543 253.26 231.235 250.308 232.193 243.188L239.95 185.551C240.757 179.559 244.444 174.34 249.823 171.579ZM303.793 149.368C313.78 144.241 313.591 129.9 303.472 125.037L251.053 99.8491C247.046 97.9236 244.235 94.1593 243.526 89.7704L234.251 32.3585C232.461 21.2755 218.763 17.0237 211.012 25.145L170.859 67.2144C167.789 70.4304 163.34 71.9411 158.947 71.2591L101.479 62.3381C90.3854 60.616 82.1089 72.3293 87.4374 82.2109L115.04 133.399C117.15 137.312 117.212 142.01 115.206 145.978L88.9627 197.876C83.8966 207.895 92.4791 219.386 103.524 217.372L160.736 206.939C165.11 206.141 169.597 207.534 172.75 210.668L213.999 251.664C221.962 259.578 235.543 254.966 237.04 243.84L244.797 186.203C245.39 181.797 248.101 177.96 252.056 175.93L303.793 149.368Z" fill="url(#paint2_linear_332_2457)"/>
</g>
<g filter="url(#filter2_b_332_2457)">
<path d="M212.174 136.931C213.44 137.499 213.464 139.287 212.213 139.888L199.897 145.806C199.388 146.051 199.042 146.54 198.982 147.101L197.517 160.687C197.368 162.066 195.675 162.641 194.717 161.638L185.282 151.753C184.892 151.345 184.32 151.167 183.768 151.283L170.394 154.088C169.037 154.373 167.966 152.94 168.625 151.719L175.11 139.691C175.378 139.195 175.37 138.595 175.089 138.106L168.289 126.254C167.598 125.05 168.631 123.59 169.995 123.838L183.438 126.29C183.993 126.391 184.561 126.198 184.939 125.78L194.11 115.65C195.041 114.621 196.75 115.152 196.935 116.527L198.757 130.069C198.833 130.628 199.191 131.108 199.706 131.339L212.174 136.931Z" fill="url(#paint3_linear_332_2457)"/>
</g>
<defs>
<filter id="filter0_b_332_2457" x="58.6299" y="-6.22422" width="279.693" height="289.003" filterUnits="userSpaceOnUse" color-interpolation-filters="sRGB">
<feFlood flood-opacity="0" result="BackgroundImageFix"/>
<feGaussianBlur in="BackgroundImage" stdDeviation="13.575"/>
<feComposite in2="SourceAlpha" operator="in" result="effect1_backgroundBlur_332_2457"/>
<feBlend mode="normal" in="SourceGraphic" in2="effect1_backgroundBlur_332_2457" result="shape"/>
</filter>
<filter id="filter1_b_332_2457" x="81.6299" y="16.7758" width="233.693" height="243.003" filterUnits="userSpaceOnUse" color-interpolation-filters="sRGB">
<feFlood flood-opacity="0" result="BackgroundImageFix"/>
<feGaussianBlur in="BackgroundImage" stdDeviation="2.075"/>
<feComposite in2="SourceAlpha" operator="in" result="effect1_backgroundBlur_332_2457"/>
<feBlend mode="normal" in="SourceGraphic" in2="effect1_backgroundBlur_332_2457" result="shape"/>
</filter>
<filter id="filter2_b_332_2457" x="137.287" y="84.3305" width="106.632" height="108.595" filterUnits="userSpaceOnUse" color-interpolation-filters="sRGB">
<feFlood flood-opacity="0" result="BackgroundImageFix"/>
<feGaussianBlur in="BackgroundImage" stdDeviation="15.3907"/>
<feComposite in2="SourceAlpha" operator="in" result="effect1_backgroundBlur_332_2457"/>
<feBlend mode="normal" in="SourceGraphic" in2="effect1_backgroundBlur_332_2457" result="shape"/>
</filter>
<linearGradient id="paint0_linear_332_2457" x1="85.0077" y1="29.9917" x2="172.093" y2="201.397" gradientUnits="userSpaceOnUse">
<stop offset="0.105049" stop-color="#FFC872"/>
<stop offset="1" stop-color="#FF9B00"/>
</linearGradient>
<linearGradient id="paint1_linear_332_2457" x1="128.623" y1="182.529" x2="214.741" y2="89.5312" gradientUnits="userSpaceOnUse">
<stop stop-color="white" stop-opacity="0.08"/>
<stop offset="1" stop-color="#FFC1C1" stop-opacity="0.4"/>
</linearGradient>
<linearGradient id="paint2_linear_332_2457" x1="328.117" y1="136.88" x2="48.8768" y2="140.562" gradientUnits="userSpaceOnUse">
<stop stop-color="white" stop-opacity="0.43"/>
<stop offset="1" stop-color="white" stop-opacity="0"/>
</linearGradient>
<linearGradient id="paint3_linear_332_2457" x1="182.61" y1="126.96" x2="192.627" y2="165.306" gradientUnits="userSpaceOnUse">
<stop stop-color="white" stop-opacity="0.63"/>
<stop offset="1" stop-color="white" stop-opacity="0"/>
</linearGradient>
</defs>
</svg>
