<svg width="33" height="32" viewBox="0 0 33 32" fill="none" xmlns="http://www.w3.org/2000/svg">
<path d="M9.45825 26.6666C9.45825 24.4575 12.443 22.6666 16.1249 22.6666C19.8068 22.6666 22.7916 24.4575 22.7916 26.6666" stroke="#FFB84A" stroke-width="2" stroke-linecap="round" stroke-linejoin="round"/>
<path d="M24.125 18.9994C26.4795 19.6166 28.125 21.0263 28.125 22.6666" stroke="#FFB84A" stroke-width="2" stroke-linecap="round" stroke-linejoin="round"/>
<path d="M8.125 18.9994C5.77046 19.6166 4.125 21.0263 4.125 22.6666" stroke="#FFB84A" stroke-width="2" stroke-linecap="round" stroke-linejoin="round"/>
<path d="M16.125 18.6666C18.3341 18.6666 20.125 16.8758 20.125 14.6666C20.125 12.4575 18.3341 10.6666 16.125 10.6666C13.9159 10.6666 12.125 12.4575 12.125 14.6666C12.125 16.8758 13.9159 18.6666 16.125 18.6666Z" stroke="#FFB84A" stroke-width="2" stroke-linecap="round" stroke-linejoin="round"/>
<path d="M24.1251 13.6481C24.9434 12.9157 25.4584 11.8513 25.4584 10.6666C25.4584 8.45749 23.6676 6.66663 21.4584 6.66663C20.4339 6.66663 19.4994 7.05176 18.7917 7.68515" stroke="#FFB84A" stroke-width="2" stroke-linecap="round" stroke-linejoin="round"/>
<path d="M8.12508 13.6481C7.30675 12.9157 6.79175 11.8513 6.79175 10.6666C6.79175 8.45749 8.58261 6.66663 10.7917 6.66663C11.8162 6.66663 12.7507 7.05176 13.4584 7.68515" stroke="#FFB84A" stroke-width="2" stroke-linecap="round" stroke-linejoin="round"/>
</svg>
