<svg xmlns="http://www.w3.org/2000/svg" version="1.1" xmlns:xlink="http://www.w3.org/1999/xlink" xmlns:svgjs="http://svgjs.com/svgjs" width="1000" height="1000"><rect width="1000" height="1000" rx="200" ry="200" fill="#121316"></rect><g transform="matrix(8.333333333333334,0,0,8.333333333333334,101.78823852539062,401.82050792376197)"><svg xmlns="http://www.w3.org/2000/svg" version="1.1" xmlns:xlink="http://www.w3.org/1999/xlink" xmlns:svgjs="http://svgjs.com/svgjs" width="96" height="24"><svg width="96" height="24" viewBox="0 0 96 24" fill="none" xmlns="http://www.w3.org/2000/svg">
<path d="M17.7257 7.64472L7.03615 0.62549C4.7697 -0.65996 1.89435 0.134989 0.608897 2.40144C0.202966 3.11182 0 3.90677 0 4.73555V18.774C0 21.3787 2.09731 23.493 4.70204 23.493C5.5139 23.493 6.32577 23.29 7.03615 22.8841L17.7426 15.8648C20.009 14.5794 20.804 11.6871 19.5185 9.42067C19.0957 8.67647 18.4699 8.06757 17.7257 7.64472ZM6.93466 18.8586C6.93466 20.1271 5.91984 21.1419 4.6513 21.1419C3.38276 21.1419 2.36793 20.1271 2.36793 18.8586V7.78003H4.90501C6.02132 7.78003 6.93466 8.69338 6.93466 9.80969V18.8586ZM4.6513 6.93434C3.38276 6.93434 2.36793 5.91951 2.36793 4.65098C2.36793 3.38244 3.38276 2.36761 4.6513 2.36761C5.91984 2.36761 6.93466 3.38244 6.93466 4.65098C6.93466 5.91951 5.91984 6.93434 4.6513 6.93434ZM12.3471 15.3067C12.3471 16.5752 11.3323 17.59 10.0637 17.59C8.79518 17.59 7.78036 16.5752 7.78036 15.3067V13.3616C7.78036 12.2453 8.6937 11.3319 9.81001 11.3319H12.3471V15.3067ZM10.0637 10.4862C8.79518 10.4862 7.78036 9.47142 7.78036 8.20288C7.78036 6.93434 8.79518 5.91951 10.0637 5.91951C11.3323 5.91951 12.3471 6.93434 12.3471 8.20288C12.3471 9.47142 11.3323 10.4862 10.0637 10.4862ZM15.4761 14.0381C14.2076 14.0381 13.1928 13.0233 13.1928 11.7548C13.1928 10.4862 14.2076 9.47142 15.4761 9.47142C16.7447 9.47142 17.7595 10.4862 17.7595 11.7548C17.7595 13.0233 16.7447 14.0381 15.4761 14.0381Z" fill="#FFB84A"></path>
<path d="M34.8594 2.19916C35.6882 2.18225 36.5001 2.31756 37.2781 2.60509C37.9546 2.84189 38.5805 3.21399 39.1217 3.68758C39.6291 4.14425 40.0181 4.71932 40.2887 5.36205C40.5763 6.0386 40.7116 6.76589 40.6947 7.49319C40.6947 8.119 40.6101 8.74481 40.4071 9.33679C40.2211 9.91186 39.9674 10.4531 39.646 10.9605C39.3077 11.4848 38.9356 11.9753 38.5128 12.4489C38.09 12.9225 37.6333 13.413 37.1597 13.9035L33.6078 17.5569C34.0476 17.4216 34.5042 17.3201 34.9609 17.2525C35.3837 17.1679 35.7897 17.1341 36.2294 17.1341H39.6291C39.9843 17.1171 40.3395 17.2355 40.6101 17.4893C40.8469 17.726 40.9822 18.0474 40.9653 18.3857V20.6352H28.1954V19.3836C28.1954 19.113 28.2461 18.8593 28.3476 18.6056C28.466 18.318 28.6351 18.0643 28.8719 17.8614L34.1152 12.5842C34.5211 12.1783 34.9271 11.7386 35.2823 11.2988C35.5867 10.9267 35.8742 10.5208 36.111 10.0979C36.314 9.72581 36.4831 9.31988 36.6015 8.91395C36.703 8.50802 36.7707 8.08517 36.7707 7.64541C36.7707 6.91812 36.6015 6.35996 36.2463 5.98786C35.9081 5.59884 35.3837 5.39587 34.6734 5.39587C34.4027 5.39587 34.1321 5.4297 33.8784 5.51427C33.6416 5.59884 33.4217 5.70032 33.2357 5.85255C33.0496 5.98786 32.8805 6.157 32.7283 6.35996C32.593 6.54601 32.4915 6.76589 32.4069 6.98577C32.3223 7.29022 32.1363 7.57776 31.8995 7.79764C31.6627 7.98369 31.3752 8.06826 31.0707 8.05134C30.9862 8.05134 30.9016 8.05134 30.8001 8.03443C30.7155 8.03443 30.614 8.01752 30.5126 8.0006L28.466 7.64541C28.5675 6.81664 28.8381 6.00477 29.2271 5.27748C29.5823 4.63475 30.0728 4.05968 30.631 3.5861C31.206 3.12942 31.8657 2.79115 32.5591 2.58818C33.2864 2.30065 34.0814 2.19916 34.8594 2.19916Z" fill="#FFB84A"></path>
<path d="M54.0059 13.5313H55.8833V15.7132C55.8833 15.8993 55.8157 16.0853 55.6804 16.2206C55.5451 16.3728 55.3421 16.4405 55.1391 16.4405H54.0228V20.6182H50.657V16.4236H43.3502C43.1134 16.4236 42.8766 16.339 42.6906 16.2037C42.5045 16.0684 42.3861 15.8654 42.3354 15.6456L41.9294 13.7343L50.3356 2.41895H54.0228V13.5313H54.0059ZM50.6401 8.77854C50.6401 8.49101 50.6401 8.16964 50.657 7.84828C50.6739 7.51 50.7077 7.15481 50.7585 6.79962L45.9549 13.5313H50.6401V8.77854Z" fill="#FFB84A"></path>
<path d="M70.0909 6.10542C69.9894 6.27456 69.8541 6.42678 69.685 6.56209C69.5328 6.66358 69.3467 6.71432 69.1606 6.71432C68.9408 6.71432 68.7209 6.64666 68.5348 6.54518C68.315 6.42678 68.0612 6.27456 67.7906 6.13925C67.4862 5.97011 67.1648 5.8348 66.8435 5.73332C66.4544 5.59801 66.0316 5.54727 65.6257 5.54727C64.8307 5.54727 64.2387 5.7164 63.8497 6.05468C63.4607 6.39296 63.2577 6.90037 63.2746 7.4247C63.2577 7.76298 63.393 8.08434 63.6298 8.33805C63.9004 8.60867 64.2049 8.81163 64.5432 8.96386C64.966 9.14991 65.4058 9.31905 65.8455 9.45436C66.336 9.58967 66.8435 9.75881 67.3509 9.94486C67.8583 10.114 68.3488 10.3339 68.8393 10.5707C69.3129 10.8075 69.7526 11.1119 70.1417 11.5009C70.5307 11.8899 70.852 12.3635 71.0719 12.8709C71.3256 13.4798 71.444 14.1395 71.4271 14.7991C71.4271 15.611 71.2918 16.4059 70.9873 17.1671C70.6998 17.8944 70.277 18.554 69.7188 19.0952C69.1268 19.6534 68.4334 20.0931 67.6722 20.3807C66.7927 20.702 65.8624 20.8543 64.9153 20.8374C64.3402 20.8374 63.7482 20.7697 63.1732 20.6682C62.5981 20.5498 62.023 20.3976 61.4818 20.1777C60.9405 19.9748 60.4331 19.7041 59.9426 19.4166C59.4859 19.146 59.0631 18.8246 58.6741 18.4356L59.9257 16.4567C60.0272 16.3045 60.1625 16.1861 60.3147 16.1015C60.4839 16.0169 60.6699 15.9662 60.856 15.9662C61.1266 15.9662 61.3803 16.0507 61.6002 16.203C61.8539 16.3552 62.1414 16.5412 62.4628 16.7273C62.818 16.9303 63.1901 17.1163 63.5791 17.2516C64.0527 17.4208 64.5432 17.5053 65.0506 17.4884C65.8117 17.4884 66.4037 17.3193 66.8265 16.981C67.2494 16.6427 67.4693 16.1015 67.4693 15.3742C67.4862 15.0021 67.3678 14.63 67.1141 14.3425C66.8604 14.0549 66.539 13.835 66.1838 13.6828C65.761 13.4968 65.3381 13.3445 64.8984 13.2261C64.4079 13.0908 63.9174 12.9555 63.4099 12.7864C62.9025 12.6172 62.412 12.4143 61.9215 12.1944C61.4479 11.9576 61.0082 11.6362 60.6192 11.2641C60.2301 10.8413 59.9088 10.3508 59.7058 9.80955C59.4521 9.11608 59.3337 8.38879 59.3506 7.66149C59.3506 6.96803 59.4859 6.29147 59.7566 5.66566C60.0441 5.00602 60.45 4.41404 60.9744 3.92354C61.5325 3.39921 62.2091 2.97637 62.9364 2.70574C63.7821 2.38438 64.6785 2.23216 65.5918 2.24907C66.1331 2.24907 66.6743 2.29981 67.2156 2.38438C67.723 2.46895 68.2304 2.58735 68.7209 2.7734C69.1776 2.92562 69.6173 3.1455 70.0402 3.3823C70.4461 3.60218 70.8182 3.8728 71.1565 4.17725L70.0909 6.10542Z" fill="#FFB84A"></path>
<path d="M86.0406 13.9029L81.8798 7.64478H85.6008C85.8038 7.62786 86.0067 7.66169 86.1928 7.76318C86.345 7.84774 86.4634 7.96614 86.548 8.11836L88.8483 11.9578C88.899 11.8056 88.9667 11.6534 89.0343 11.518C89.102 11.3827 89.1865 11.2305 89.288 11.0614L90.9287 8.16911C91.0132 7.99997 91.1316 7.86466 91.2839 7.76318C91.4361 7.67861 91.6052 7.62786 91.7744 7.64478H95.3263L91.1655 13.7338L95.5123 20.6008H91.7913C91.5545 20.6177 91.3177 20.55 91.1316 20.3978C90.9625 20.2625 90.8272 20.1103 90.7257 19.9242L88.4254 15.9495C88.3916 16.0848 88.3409 16.2201 88.2732 16.3554C88.2225 16.4738 88.1548 16.5922 88.0871 16.7106L86.1928 19.9411C86.0913 20.1272 85.956 20.2794 85.7869 20.4147C85.6008 20.55 85.3809 20.6177 85.1611 20.6177H81.6937L86.0406 13.9029Z" fill="#FFB84A"></path>
<path d="M77.2115 7.47583C78.0403 7.47583 78.7 8.13547 78.7 8.96425V20.6686H76.2474C75.4187 20.6686 74.759 20.009 74.759 19.1802V7.47583H77.2115Z" fill="#FFB84A"></path>
<path d="M78.3109 4.92185C78.4124 4.68506 78.4631 4.43135 78.4631 4.16073C78.4631 3.89011 78.4124 3.6364 78.3109 3.39961C78.2094 3.16282 78.0572 2.95985 77.8881 2.7738C77.702 2.58775 77.4821 2.45244 77.2453 2.35095C77.0085 2.24947 76.7379 2.19873 76.4842 2.19873C76.2305 2.19873 75.9768 2.24947 75.74 2.35095C75.5032 2.45244 75.3002 2.58775 75.1311 2.7738C74.962 2.95985 74.8097 3.16282 74.7083 3.39961C74.6068 3.6364 74.556 3.90703 74.556 4.16073C74.556 4.41444 74.6068 4.68506 74.7083 4.92185C74.8097 5.14173 74.9451 5.36161 75.1311 5.53075C75.3172 5.69989 75.5201 5.85211 75.74 5.9536C75.9768 6.05508 76.2305 6.10582 76.4842 6.10582C76.7548 6.10582 77.0085 6.05508 77.2453 5.9536C77.4821 5.85211 77.702 5.7168 77.8881 5.53075C78.0572 5.36161 78.2094 5.15865 78.3109 4.92185Z" fill="#FFB84A"></path>
</svg></svg></g></svg>