<svg xmlns="http://www.w3.org/2000/svg" version="1.1" xmlns:xlink="http://www.w3.org/1999/xlink" xmlns:svgjs="http://svgjs.com/svgjs" width="21" height="24"><svg width="21" height="24" viewBox="0 0 21 24" fill="none" xmlns="http://www.w3.org/2000/svg">
<path d="M17.7257 7.64472L7.03615 0.62549C4.7697 -0.65996 1.89435 0.134989 0.608897 2.40144C0.202966 3.11182 0 3.90677 0 4.73555V18.774C0 21.3787 2.09731 23.493 4.70204 23.493C5.5139 23.493 6.32577 23.29 7.03615 22.8841L17.7426 15.8648C20.009 14.5794 20.804 11.6871 19.5185 9.42067C19.0957 8.67647 18.4699 8.06757 17.7257 7.64472ZM6.93466 18.8586C6.93466 20.1271 5.91984 21.1419 4.6513 21.1419C3.38276 21.1419 2.36793 20.1271 2.36793 18.8586V7.78003H4.90501C6.02132 7.78003 6.93466 8.69338 6.93466 9.80969V18.8586ZM4.6513 6.93434C3.38276 6.93434 2.36793 5.91951 2.36793 4.65098C2.36793 3.38244 3.38276 2.36761 4.6513 2.36761C5.91984 2.36761 6.93466 3.38244 6.93466 4.65098C6.93466 5.91951 5.91984 6.93434 4.6513 6.93434ZM12.3471 15.3067C12.3471 16.5752 11.3323 17.59 10.0637 17.59C8.79518 17.59 7.78036 16.5752 7.78036 15.3067V13.3616C7.78036 12.2453 8.6937 11.3319 9.81001 11.3319H12.3471V15.3067ZM10.0637 10.4862C8.79518 10.4862 7.78036 9.47142 7.78036 8.20288C7.78036 6.93434 8.79518 5.91951 10.0637 5.91951C11.3323 5.91951 12.3471 6.93434 12.3471 8.20288C12.3471 9.47142 11.3323 10.4862 10.0637 10.4862ZM15.4761 14.0381C14.2076 14.0381 13.1928 13.0233 13.1928 11.7548C13.1928 10.4862 14.2076 9.47142 15.4761 9.47142C16.7447 9.47142 17.7595 10.4862 17.7595 11.7548C17.7595 13.0233 16.7447 14.0381 15.4761 14.0381Z" fill="#FFB84A"></path>
</svg><style>@media (prefers-color-scheme: light) { :root { filter: none; } }
</style></svg>