<svg width="749" height="516" viewBox="0 0 749 516" fill="none" xmlns="http://www.w3.org/2000/svg">
<path d="M-570 1.00023C-521.699 52.8874 -471.203 100.414 -417.091 135.322C-399.547 146.641 -381.519 156.666 -362.774 161.15C-324.55 170.296 -285.789 156.013 -247.143 154.097C-198.063 151.66 -148.707 169.977 -105.266 205.907C-72.5785 232.945 -35.8029 272.161 1.17294 282.003C34.7634 290.944 70.8987 242.299 100.645 223.319C131.113 203.881 165.19 199.741 197.368 209.74C214.224 214.98 230.62 224.096 245.738 236.971C260.195 249.286 272.788 272.205 289.927 254.193C295.592 248.238 299.508 239.064 304.376 231.563C321.296 205.5 350.884 203.463 369.185 227.104M-567.869 2.62723C-520.668 55.2106 -470.691 103.236 -416.877 138.015C-398.958 149.616 -380.548 159.337 -361.474 164.342C-338.459 170.333 -315.204 168.112 -291.874 164.954C-275.949 162.799 -259.988 160.205 -244.044 159.48C-212.547 158.051 -180.938 164.236 -150.803 177.262C-133.182 184.879 -116.069 194.842 -99.7591 207.051C-88.3015 215.584 -76.3876 225.47 -64.1687 235.096C-46.9834 248.594 -29.1881 261.565 -11.1065 269.871C-4.61519 272.865 1.91108 275.258 8.4443 276.83C35.4526 283.3 64.0627 255.897 89.7975 235.737C96.6963 230.307 103.388 225.397 109.793 221.799C136.119 206.875 164.829 203.13 192.618 209.63C197.402 210.748 202.162 212.169 206.881 213.891C223.71 220.029 240.092 229.944 255.342 243.266C264.374 251.159 272.751 262.906 281.967 266.618C287.641 268.904 293.606 268.102 300.241 261.572C306.039 255.867 310.176 247.051 315.226 239.807C332.754 214.624 362.579 212.404 381.406 235.74M-565.739 4.25018C-519.636 57.5334 -470.178 106.053 -416.66 140.705C-398.364 152.591 -379.575 162.008 -360.173 167.526C-336.862 174.07 -313.26 172.472 -289.562 169.754C-273.381 167.9 -257.152 165.522 -240.94 164.855C-208.917 163.528 -176.782 169.175 -146.146 181.028C-128.234 187.957 -110.842 197.025 -94.2479 208.186C-82.5645 215.965 -70.4527 225.008 -58.0545 233.773C-40.5992 246.047 -22.5595 257.758 -4.15426 265.302C2.44183 268.028 9.07524 270.216 15.7249 271.652C43.2641 277.547 72.4308 251.466 98.6335 232.93C105.642 227.925 112.445 223.484 118.948 220.281C145.633 207.142 174.41 204.976 202.162 213.008C206.937 214.386 211.687 216.071 216.399 218.043C233.202 225.078 249.57 235.791 264.951 249.565C274.064 257.728 282.584 269.534 291.971 273.429C297.757 275.829 303.822 275.147 310.56 268.955C316.495 263.499 320.849 255.046 326.081 248.055C344.214 223.751 374.281 221.348 393.63 244.376M-563.611 5.87364C-518.605 59.8531 -469.666 108.875 -416.448 143.394C-397.775 155.563 -378.606 164.675 -358.876 170.714C-335.269 177.815 -311.321 176.837 -287.255 174.557C-270.817 173.008 -254.324 170.846 -237.842 170.23C-205.294 169.01 -172.631 174.114 -141.496 184.791C-123.291 191.035 -105.638 199.279 -88.7417 209.319C-76.8441 216.39 -64.5203 224.539 -51.9474 232.446C-34.2197 243.497 -15.9402 253.947 2.7887 260.726C9.48723 263.185 16.2324 265.167 22.9938 266.471C51.0662 271.791 80.8149 247.143 107.46 230.116C114.585 225.562 121.488 221.546 128.093 218.754C155.118 207.329 183.984 206.812 211.694 216.379C216.462 218.021 221.202 219.963 225.906 222.187C242.681 230.12 259.035 241.632 274.546 255.856C283.741 264.291 292.4 276.155 301.962 280.234C307.86 282.751 314.025 282.194 320.868 276.328C326.94 271.125 331.51 263.027 336.924 256.289C355.664 232.864 385.97 230.274 405.844 253.002M-561.481 7.50064C-517.574 62.1762 -469.154 111.696 -416.234 146.091C-397.184 158.546 -377.645 167.413 -357.577 173.905C-333.684 181.633 -309.381 181.204 -284.946 179.369C-268.254 178.119 -251.492 176.177 -234.743 175.616C-201.669 174.503 -168.479 179.068 -136.844 188.569C-118.348 194.124 -100.416 201.496 -83.2351 210.466C-71.1116 216.797 -58.59 224.085 -45.8379 231.138C-27.8401 240.966 -9.3161 250.155 9.73642 256.168C16.5397 258.359 23.3943 260.136 30.2674 261.305C58.8707 266.05 89.1805 242.757 116.291 227.317C123.528 223.195 130.534 219.622 137.241 217.24C164.601 207.531 193.558 208.663 221.23 219.761C225.992 221.663 230.723 223.865 235.417 226.342C252.164 235.173 268.507 247.484 284.148 262.155C293.424 270.861 302.223 282.78 311.96 287.045C317.969 289.68 324.237 289.247 331.18 283.711C337.392 278.761 342.176 271.022 347.771 264.537C367.12 241.991 397.665 239.218 418.061 261.638M-559.353 9.12359C-516.544 64.499 -468.644 114.518 -416.02 148.78C-396.592 161.517 -376.676 170.095 -356.278 177.089C-332.091 185.385 -307.439 185.564 -282.636 184.168C-265.688 183.223 -248.661 181.497 -231.641 180.988C-198.044 179.98 -164.328 184.003 -132.192 192.332C-113.403 197.201 -95.1934 203.694 -77.7287 211.598C-65.3817 217.185 -52.6692 223.667 -39.7285 229.812C-21.4722 238.485 -2.68745 246.271 16.6817 251.591C23.5921 253.489 30.5515 255.087 37.5411 256.12C66.6775 260.29 97.5437 238.349 125.123 224.503C132.468 220.813 139.581 217.684 146.392 215.712C174.084 207.706 203.135 210.498 230.769 223.132C235.521 225.298 240.243 227.756 244.932 230.486C261.652 240.218 277.983 253.328 293.755 268.446C303.112 277.423 312.053 289.401 321.962 293.849C328.083 296.601 334.453 296.293 341.497 291.086C347.848 286.389 352.847 279.01 358.624 272.777C378.577 251.111 409.362 248.154 430.284 270.271M-557.222 10.7506C-515.513 66.8222 -468.132 117.339 -415.806 151.474C-396.004 164.496 -375.708 172.777 -354.979 180.281C-330.499 189.144 -305.497 189.928 -280.326 188.976C-263.122 188.331 -245.828 186.825 -228.542 186.371C-194.419 185.469 -160.176 188.954 -127.541 196.102C-108.46 200.283 -89.9686 205.9 -72.2222 212.737C-59.6494 217.581 -46.739 223.213 -33.6213 228.493C-15.0927 235.953 3.93421 242.457 23.627 247.022C30.6399 248.649 37.7109 250.049 44.8123 250.943C74.4795 254.537 105.902 233.949 133.951 221.692C141.407 218.435 148.622 215.746 155.539 214.192C183.563 207.89 212.709 212.342 240.306 226.507C245.051 228.933 249.764 231.651 254.444 234.63C271.135 245.26 287.452 259.169 303.357 274.737C312.796 283.986 321.876 296.022 331.96 300.654C338.19 303.523 344.67 303.343 351.811 298.462C358.305 294.021 363.515 286.994 369.471 281.014C390.032 260.228 421.057 257.084 442.501 278.9M-555.092 12.3735C-514.479 69.1413 -467.62 120.156 -415.589 154.163C-395.41 167.467 -374.737 175.451 -353.677 183.465C-328.904 192.892 -303.553 194.288 -278.014 193.775C-260.554 193.435 -242.994 192.145 -225.439 191.742C-190.791 190.947 -156.02 193.889 -122.886 199.865C-103.515 203.361 -84.7416 208.098 -66.7112 213.869C-53.9102 217.969 -40.8018 222.751 -27.5072 227.17C-8.70615 233.414 10.5606 238.639 30.5771 242.449C37.6924 243.805 44.8751 245.003 52.0906 245.762C82.291 248.781 114.266 229.541 142.785 218.878C150.35 216.049 157.67 213.803 164.692 212.664C193.044 208.058 222.29 214.177 249.848 229.878C254.586 232.563 259.289 235.546 263.959 238.774C280.623 250.301 296.928 265.009 312.963 281.025C322.484 290.544 331.706 302.639 341.962 307.454C348.305 310.436 354.891 310.392 362.128 305.831C368.766 301.646 374.186 294.974 380.323 289.247C401.49 269.336 432.755 266.013 454.724 287.521M-552.964 13.9965C-513.45 71.4641 -467.11 122.978 -415.377 156.856C-394.821 170.446 -373.77 178.13 -352.38 186.656C-327.314 196.644 -301.614 198.656 -275.707 198.586C-257.993 198.546 -240.165 197.476 -222.34 197.128C-187.166 196.439 -151.869 198.839 -118.234 203.643C-98.5693 206.449 -79.5144 210.304 -61.2046 215.016C-48.1754 218.369 -34.8715 222.304 -21.3999 225.858C-2.32644 230.889 17.18 234.835 37.5224 237.887C44.7425 238.972 52.0324 239.968 59.3619 240.591C90.0932 243.035 122.62 225.14 151.614 216.075C159.288 213.675 166.711 211.872 173.838 211.147C202.518 208.23 231.861 216.023 259.38 233.259C264.108 236.209 268.802 239.448 273.468 242.929C290.104 255.354 306.397 270.86 322.563 287.327C332.165 297.117 341.527 309.267 351.958 314.269C358.412 317.369 365.108 317.46 372.437 313.217C379.22 309.293 384.85 302.969 391.169 297.498C412.943 278.467 444.447 274.96 466.939 296.164M-550.833 15.6235C-512.419 73.7873 -466.598 125.799 -415.161 159.549C-394.227 173.421 -372.799 180.808 -351.076 189.844C-325.716 200.393 -299.668 203.02 -273.393 203.39C-255.423 203.654 -237.327 202.796 -219.236 202.503C-183.538 201.921 -147.713 203.782 -113.58 207.406C-93.6241 209.527 -74.2874 212.499 -55.6959 216.152C-42.4385 218.757 -28.9367 221.846 -15.2882 224.535C4.05772 228.35 23.804 231.021 44.4724 233.315C51.7949 234.128 59.1966 234.923 66.6402 235.41C97.9046 237.279 130.983 220.725 160.45 213.265C168.231 211.293 175.761 209.93 182.993 209.622C211.996 208.391 241.442 217.863 268.923 236.631C273.645 239.84 278.33 243.339 282.986 247.073C299.594 260.396 315.874 276.705 332.172 293.618C341.853 303.68 351.359 315.888 361.962 321.073C368.528 324.29 375.334 324.517 382.759 320.593C389.688 316.929 395.525 310.957 402.026 305.735C424.405 287.583 456.152 283.89 479.167 304.79M-548.705 17.2469C-511.39 76.1069 -466.088 128.621 -414.949 162.239C-393.638 176.397 -371.833 183.483 -349.779 193.032C-324.124 204.141 -297.73 207.384 -271.083 208.194C-252.857 208.758 -234.496 208.12 -216.135 207.882C-179.911 207.406 -143.559 208.725 -108.926 211.176C-88.6764 212.609 -69.0581 214.694 -50.1872 217.292C-36.7016 219.146 -23.0019 221.392 -9.17642 223.22C10.4442 225.814 30.4281 227.214 51.4201 228.753C58.8451 229.295 66.3585 229.889 73.9138 230.241C105.709 231.534 139.337 216.317 169.281 210.462C177.172 208.919 184.804 207.996 192.143 208.106C221.47 208.553 251.019 219.71 278.462 240.013C283.177 243.486 287.852 247.242 292.5 251.228C309.08 265.449 325.347 282.556 341.774 299.917C351.536 310.25 361.182 322.517 371.96 327.885C378.638 331.219 385.553 331.586 393.071 327.977C400.147 324.576 406.198 318.97 412.873 313.983C435.884 296.788 467.844 292.834 491.386 313.43M-546.575 18.8699C-510.356 78.4297 -465.573 131.438 -414.735 164.928C-393.046 179.368 -370.862 186.154 -348.48 196.216C-322.531 207.882 -295.788 211.744 -268.773 212.994C-250.291 213.862 -231.665 213.441 -213.034 213.254C-176.286 212.884 -139.406 213.66 -104.274 214.939C-83.7335 215.687 -63.8287 216.881 -44.6807 218.424C-30.967 219.527 -17.0694 220.926 -3.06928 221.894C16.8238 223.268 37.0474 223.4 58.3654 224.176C65.8951 224.451 73.5157 224.84 81.1874 225.056C113.516 225.774 147.693 211.891 178.112 207.644C186.11 206.526 193.847 206.043 201.293 206.578C230.944 208.695 260.597 221.545 288.001 243.38C292.707 247.113 297.373 251.133 302.013 255.369C318.565 270.487 334.821 288.393 351.378 306.204C361.222 316.808 371.01 329.131 381.96 334.685C388.747 338.137 395.776 338.646 403.385 335.345C410.61 332.212 416.866 326.95 423.723 322.213C447.339 305.897 479.542 301.76 503.605 322.052M-544.445 20.4969C-509.324 80.7529 -465.061 134.263 -414.518 167.625C-392.455 182.351 -369.892 188.833 -347.179 199.411C-320.937 211.634 -293.844 216.112 -266.461 217.805C-247.725 218.973 -228.831 218.772 -209.932 218.64C-172.658 218.376 -135.252 218.614 -99.6194 218.717C-78.7857 218.776 -58.5994 219.083 -39.1697 219.571C-25.2278 219.922 -11.1322 220.476 3.0449 220.582C23.2127 220.736 43.6738 219.6 65.3154 219.615C72.9476 219.618 80.6799 219.805 88.4634 219.889C121.323 220.032 156.049 207.479 186.944 204.848C195.049 204.156 202.89 204.112 210.441 205.068C240.416 208.853 270.171 223.4 297.538 246.769C302.237 250.767 306.893 255.043 311.527 259.531C328.051 275.551 344.293 294.252 360.982 312.514C370.908 323.389 380.836 335.77 391.96 341.508C398.859 345.073 406.002 345.729 413.702 342.739C421.073 339.877 427.537 334.957 434.575 330.472C458.797 315.039 491.239 310.711 515.828 330.699M-542.316 22.1198C-508.295 83.072 -464.509 136.923 -414.306 170.314C-391.847 185.253 -368.923 191.5 -345.882 202.595C-319.344 215.371 -291.905 220.472 -264.154 222.608C-245.162 224.081 -226 224.096 -206.833 224.015C-169.035 223.857 -131.103 223.553 -94.9697 222.48C-73.845 221.853 -53.3747 221.263 -33.6656 220.703C-19.4956 220.3 -5.20198 220.006 9.14969 219.259C29.5922 218.193 50.2886 215.789 72.2585 215.042C79.9932 214.778 87.8371 214.759 95.7347 214.708C129.127 214.276 164.401 203.049 195.773 202.034C203.985 201.767 211.931 202.162 219.589 203.54C249.887 208.988 279.745 225.235 307.073 250.136C311.764 254.394 316.411 258.93 321.035 263.671C337.531 280.588 353.762 300.089 370.582 318.798C380.589 329.944 390.659 342.383 401.956 348.305C408.966 351.987 416.221 352.789 424.012 350.107C431.532 347.517 438.2 342.937 445.418 338.705C470.245 324.155 502.93 319.64 528.04 339.324M-540.186 23.7433C-507.264 85.3953 -463.997 139.741 -414.09 173.004C-391.254 188.224 -367.952 194.168 -344.58 205.779C-317.747 219.109 -289.961 224.832 -261.842 227.408C-242.594 229.182 -223.166 229.416 -203.729 229.39C-165.406 229.336 -126.947 228.496 -90.3131 226.247C-68.8951 224.931 -48.1405 223.447 -28.1543 221.839C-13.7538 220.677 0.735244 219.545 15.2639 217.936C35.9811 215.646 56.9149 211.982 79.2108 210.469C87.0502 209.938 95.0013 209.718 103.013 209.527C136.936 208.52 172.76 198.619 204.609 199.22C212.93 199.378 220.979 200.213 228.744 202.012C259.368 209.117 289.326 227.071 316.616 253.507C321.299 258.025 325.937 262.822 330.554 267.816C347.022 285.631 363.241 305.933 380.191 325.089C390.279 336.503 400.489 349.001 411.96 355.109C419.083 358.909 426.452 359.861 434.331 357.483C442.003 355.168 448.871 350.921 456.273 346.942C481.705 333.271 514.629 328.574 540.266 347.949M-538.058 25.3698C-506.232 87.718 -463.487 142.566 -413.878 175.697C-390.665 191.199 -366.983 196.838 -343.284 208.97C-316.154 222.853 -288.021 229.2 -259.534 232.215C-240.03 234.293 -220.338 234.743 -200.633 234.769C-161.785 234.82 -122.798 233.439 -85.6635 230.017C-63.9544 228.016 -42.916 225.634 -22.6504 222.978C-8.02166 221.062 6.66535 219.083 21.3709 216.617C42.3606 213.1 63.5342 208.179 86.1537 205.9C94.0956 205.101 102.158 204.676 110.282 204.35C144.738 202.767 181.109 194.185 213.435 196.41C221.864 196.989 230.017 198.264 237.889 200.491C268.837 209.249 298.9 228.914 326.151 256.885C330.826 261.667 335.455 266.724 340.062 271.967C356.502 290.679 372.708 311.781 389.79 331.387C399.96 343.072 410.31 355.629 421.956 361.92C429.19 365.837 436.673 366.944 444.643 364.866C452.464 362.825 459.537 358.916 467.12 355.189C493.158 342.398 526.324 337.514 552.483 356.589M-535.927 26.9933C-505.201 90.0376 -463.017 145.541 -413.661 178.386C-390.09 194.248 -366.01 199.506 -341.982 212.154C-314.557 226.591 -286.079 233.56 -257.222 237.015C-237.464 239.393 -217.504 240.06 -197.529 240.144C-158.155 240.302 -118.642 238.378 -81.0093 233.78C-59.0069 231.091 -37.6865 227.811 -17.1392 224.11C-2.28228 221.432 12.6026 218.614 27.4828 215.295C48.7472 210.553 70.1582 204.372 93.1037 201.327C101.148 200.261 109.323 199.631 117.56 199.169C152.548 197.011 189.468 189.748 222.271 193.599C230.807 194.603 239.067 196.315 247.042 198.967C278.316 209.373 308.479 230.753 335.692 260.257C340.358 265.298 344.98 270.615 349.58 276.111C365.993 295.721 382.186 317.622 399.399 337.675C409.651 349.631 420.142 362.247 431.958 368.721C439.302 372.752 446.901 374.016 454.96 372.235C462.929 370.473 470.203 366.871 477.973 363.423C504.601 351.427 538.022 346.443 564.707 365.211M-533.797 28.6167C-504.169 92.3609 -462.504 148.363 -413.447 181.08C-389.5 197.224 -365.041 202.177 -340.683 215.346C-312.962 230.332 -284.138 237.924 -254.913 241.827C-234.899 244.509 -214.67 245.392 -194.428 245.527C-154.53 245.791 -114.488 243.329 -76.3549 237.554C-54.0614 234.18 -32.4571 229.999 -11.6304 225.254C3.45467 221.817 18.5352 218.153 33.5947 213.979C55.1315 208.011 76.7823 200.573 100.051 196.762C108.198 195.428 116.482 194.593 124.834 193.995C160.354 191.262 197.824 185.312 231.1 190.793C239.745 192.218 248.108 194.366 256.19 197.447C287.792 209.498 318.053 232.597 345.229 263.635C349.888 268.941 354.498 274.514 359.092 280.259C375.476 300.767 391.655 323.466 409.001 343.97C419.334 356.198 429.965 368.868 441.956 375.529C449.411 379.677 457.125 381.099 465.272 379.615C473.39 378.134 480.869 374.859 488.82 371.664C516.054 360.547 549.717 355.38 576.926 373.844M-531.669 30.2437C-503.14 94.6841 -461.995 151.184 -413.235 183.773C-388.911 200.203 -364.073 204.845 -339.386 218.534C-311.369 234.07 -282.198 242.288 -252.605 246.63C-232.335 249.613 -211.841 250.716 -191.331 250.906C-150.907 251.276 -110.339 248.272 -71.7077 241.325C-49.1208 237.261 -27.2371 232.179 -6.12867 226.394C9.18459 222.194 24.463 217.691 39.6971 212.66C61.5087 205.461 83.397 196.773 106.992 192.197C115.244 190.595 123.637 189.555 132.103 188.822C168.157 185.513 206.175 180.874 239.927 187.986C248.679 189.829 257.149 192.416 265.335 195.927C297.266 209.616 327.625 234.44 354.761 267.01C359.413 272.576 364.014 278.409 368.598 284.407C384.954 305.813 401.122 329.314 418.596 350.262C429.011 362.76 439.784 375.489 451.947 382.334C459.514 386.599 467.339 388.181 475.579 386.991C483.847 385.796 491.53 382.847 499.663 379.904C527.505 369.663 561.405 364.314 589.137 382.476M-529.539 31.8667C-502.109 97.0032 -461.482 154.002 -413.019 186.462C-388.318 203.174 -363.097 207.509 -338.082 221.722C-309.77 237.807 -280.252 246.652 -250.291 251.434C-229.765 254.72 -209.006 256.04 -188.225 256.281C-147.278 256.758 -106.181 253.214 -67.0488 245.087C-44.1709 240.339 -22.0031 234.352 -0.615278 227.526C14.9238 222.564 30.4024 217.218 45.8135 211.337C67.8974 202.91 90.0257 192.969 113.944 187.623C122.298 185.755 130.804 184.509 139.381 183.641C175.966 179.757 214.536 176.43 248.763 185.176C257.624 187.44 266.197 190.463 274.49 194.402C306.751 209.729 337.208 236.279 364.305 270.384C368.947 276.214 373.541 282.307 378.116 288.555C394.445 310.862 410.601 335.158 428.205 356.556C438.701 369.326 449.614 382.113 461.951 389.145C469.63 393.527 477.57 395.271 485.898 394.374C494.317 393.465 502.203 390.838 510.518 388.152C538.965 378.79 573.107 373.257 601.363 391.113M-527.411 33.4896C-501.078 99.326 -460.97 156.823 -412.807 189.151C-387.729 206.149 -362.129 210.172 -336.785 224.906C-308.175 241.54 -278.312 251.012 -247.984 256.233C-227.201 259.821 -206.177 261.36 -185.129 261.656C-143.655 262.239 -102.032 258.153 -62.4015 248.854C-39.2303 243.416 -16.783 236.528 4.88655 228.661C20.6538 222.938 36.328 216.749 51.9184 210.015C74.2747 200.356 96.6427 189.166 120.887 183.05C129.346 180.918 137.959 179.463 146.652 178.459C183.77 174 222.893 171.981 257.591 182.362C266.56 185.044 275.24 188.506 283.636 192.878C316.23 209.842 346.78 238.118 373.839 273.755C378.475 279.845 383.057 286.198 387.627 292.698C403.93 315.903 420.07 340.999 437.807 362.848C448.382 375.888 459.439 388.731 471.949 395.949C479.74 400.448 487.793 402.357 496.21 401.746C504.778 401.126 512.869 398.821 521.365 396.385C550.42 387.902 584.8 382.187 613.58 399.738M-525.28 35.1166C-500.046 101.649 -460.458 159.644 -412.59 191.848C-387.135 209.128 -361.156 212.84 -335.484 228.101C-306.578 245.282 -276.368 255.384 -245.672 261.048C-224.635 264.939 -203.341 266.695 -182.025 267.043C-140.027 267.732 -97.8756 263.104 -57.7449 252.632C-34.2826 246.509 -11.5536 238.712 10.3999 229.808C26.3931 223.323 42.2651 216.291 58.0324 208.703C80.6588 197.813 103.271 185.374 127.84 178.489C136.401 176.089 145.125 174.429 153.931 173.289C191.579 168.255 231.256 167.54 266.427 179.559C275.505 182.662 284.292 186.561 292.791 191.361C325.718 209.956 356.36 239.965 383.383 277.137C388.011 283.491 392.584 290.101 397.145 296.854C413.42 320.956 429.548 346.85 447.416 369.146C458.073 382.458 469.269 395.359 481.954 402.761C489.854 407.374 498.022 409.451 506.532 409.129C515.246 408.799 523.544 406.813 532.22 404.633C561.882 397.03 596.502 391.131 625.806 408.374M-523.15 36.7396C-499.015 103.968 -459.946 162.466 -412.376 194.537C-386.546 212.103 -360.185 215.503 -334.184 231.285C-304.98 249.011 -274.429 259.744 -243.362 265.848C-222.07 270.04 -200.51 272.011 -178.924 272.418C-136.4 273.213 -93.7241 268.046 -53.0929 256.395C-29.3372 249.583 -6.32894 240.881 15.9064 230.94C32.1253 223.689 48.1977 215.818 64.1419 207.38C87.0408 195.259 109.893 181.574 134.785 173.916C143.451 171.252 152.285 169.387 161.204 168.112C199.386 162.502 239.615 163.088 275.256 176.748C284.444 180.269 293.336 184.604 301.939 189.836C335.201 210.062 365.935 241.804 392.917 280.512C397.537 287.125 402.102 293.995 406.654 301.001C422.901 326.001 439.018 352.694 457.015 375.441C467.754 389.024 479.092 401.984 491.949 409.568C499.961 414.299 508.241 416.545 516.841 416.508C525.705 416.471 534.208 414.804 543.065 412.873C573.333 406.15 608.195 400.064 638.02 417.006M-521.022 38.363C-497.985 106.292 -459.436 165.284 -412.162 197.227C-385.954 215.075 -359.193 218.083 -332.885 234.469C-303.362 252.654 -272.487 264.1 -241.052 270.648C-219.504 275.144 -197.678 277.331 -175.825 277.789C-132.777 278.691 -89.5729 272.982 -48.441 260.158C-24.3943 252.661 -1.10655 243.05 21.4128 232.073C37.8576 224.055 54.1278 215.346 70.249 206.054C93.418 192.702 116.524 177.848 141.73 169.34C150.503 166.434 159.442 164.338 168.476 162.927C207.188 156.742 247.973 158.633 284.085 173.934C293.382 177.873 302.379 182.648 311.087 188.309C344.684 210.165 375.511 243.64 402.454 283.879C407.066 290.753 411.621 297.887 416.168 305.142C432.387 331.04 448.489 358.535 466.62 381.729C477.439 395.583 488.918 408.597 501.949 416.369C510.073 421.217 518.464 423.631 527.156 423.88C536.169 424.137 544.876 422.788 553.915 421.11C584.791 415.266 619.89 408.997 650.242 425.635M-518.891 39.99C-496.952 108.615 -458.923 168.105 -411.947 199.92C-385.363 218.054 -358.222 220.758 -331.586 237.66C-301.768 256.399 -270.545 268.468 -238.743 275.456C-216.938 280.252 -194.847 282.659 -172.724 283.172C-129.149 284.18 -85.4192 277.932 -43.7891 263.932C-19.449 255.746 4.11591 245.23 26.9193 233.216C43.59 224.433 60.0465 214.837 76.3586 204.739C99.7813 190.089 123.148 174.044 148.676 164.774C157.551 161.601 166.601 159.3 175.749 157.754C214.995 150.994 256.334 154.185 292.916 171.128C302.323 175.484 311.427 180.695 320.235 186.792C354.17 210.275 385.085 245.487 411.991 287.261C416.596 294.399 421.141 301.789 425.679 309.297C441.87 336.093 457.961 364.387 476.222 388.027C487.123 402.153 498.741 415.226 511.947 423.181C520.182 428.146 528.685 430.729 537.47 431.26C546.63 431.813 555.545 430.776 564.765 429.355C596.246 424.39 631.587 417.934 662.463 434.268M-516.763 41.613C-495.923 110.934 -458.414 170.926 -411.736 202.613C-384.774 221.029 -357.254 223.429 -330.289 240.848C-300.175 260.143 -268.606 272.832 -236.435 280.263C-214.377 285.363 -192.016 287.987 -169.624 288.551C-125.524 289.665 -81.2677 282.875 -39.137 267.702C-14.5059 258.831 9.33823 247.403 32.428 234.355C49.3222 224.807 65.9789 214.375 82.4703 203.423C106.165 187.546 129.772 170.244 155.626 160.209C164.606 156.768 173.765 154.262 183.025 152.58C222.802 145.244 264.7 149.733 301.75 168.321C311.266 173.095 320.477 178.742 329.387 185.271C363.662 210.381 394.663 247.33 421.532 290.636C426.128 298.033 430.666 305.684 435.195 313.445C451.358 341.138 467.437 370.231 485.826 394.322C496.809 408.718 508.569 421.85 521.947 429.988C530.294 435.071 538.909 437.826 547.784 438.639C557.091 439.493 566.213 438.768 575.615 437.595C607.703 433.51 643.282 426.87 674.682 442.901M-514.633 43.2359C-494.891 113.257 -457.901 173.744 -411.519 205.302C-384.18 224.004 -356.28 226.096 -328.988 244.036C-298.578 263.884 -266.661 277.196 -234.123 285.066C-211.809 290.471 -189.182 293.31 -166.523 293.929C-121.899 295.15 -77.114 287.818 -34.4851 271.469C-9.56058 261.909 14.5606 249.576 37.9345 235.491C55.0545 225.176 71.9092 213.913 88.5775 202.1C112.543 185 136.394 166.437 162.569 155.639C171.651 151.931 180.923 149.22 190.296 147.402C230.606 139.492 273.061 145.281 310.577 165.51C320.204 170.702 329.52 176.785 338.533 183.746C373.148 210.48 404.235 249.169 431.066 294.01C435.656 301.672 440.182 309.579 444.703 317.592C460.839 346.187 476.904 376.075 495.426 400.617C506.49 415.284 518.39 428.471 531.943 436.796C540.399 441.992 549.126 444.927 558.094 446.019C567.547 447.169 576.877 446.755 586.46 445.839C619.156 442.633 654.975 435.81 686.898 451.533M-512.503 44.8629C-493.86 115.58 -457.389 176.569 -411.305 207.996C-383.589 226.979 -355.309 228.767 -327.689 247.223C-296.983 267.625 -264.72 281.56 -231.811 289.87C-209.241 295.575 -186.349 298.634 -163.42 299.308C-118.269 300.631 -72.958 292.764 -29.8285 275.239C-4.61291 264.994 19.7715 251.69 43.4457 236.634C60.7776 225.51 77.844 213.455 94.6916 200.785C118.929 182.46 143.02 162.634 169.521 151.074C178.709 147.098 188.087 144.182 197.575 142.229C238.416 133.743 281.454 140.723 319.413 162.707C329.157 168.288 338.572 174.835 347.688 182.23C382.645 210.59 413.818 251.016 440.608 297.388C445.19 305.31 449.707 313.481 454.222 321.744C470.329 351.236 486.382 381.923 505.034 406.912C516.18 421.847 528.222 435.096 541.947 443.604C550.516 448.917 559.352 452.024 568.416 453.398C578.013 454.853 587.552 454.747 597.317 454.083C630.619 451.757 666.677 444.747 699.124 460.169M-510.374 46.4864C-492.828 117.9 -456.877 179.387 -411.091 210.685C-383 229.955 -354.338 231.439 -326.389 250.411C-295.388 271.366 -262.778 285.92 -229.502 294.674C-206.675 300.683 -183.518 303.959 -160.318 304.684C-114.644 306.113 -68.8043 297.704 -25.1742 279.006C0.33234 268.072 24.9961 253.874 48.9544 237.77C66.5121 225.888 83.7765 212.99 100.801 199.466C125.309 179.918 149.644 158.831 176.469 146.505C185.759 142.258 195.249 139.14 204.848 137.052C246.222 127.99 289.815 136.29 328.244 159.897C338.097 165.903 347.629 172.853 356.835 180.706C392.174 210.579 423.392 252.855 450.145 300.763C454.717 308.949 459.227 317.376 463.733 325.888C479.812 356.278 495.852 387.767 514.636 413.203C525.863 428.409 538.045 441.717 551.945 450.409C560.625 455.839 569.57 459.122 578.728 460.771C588.469 462.526 598.218 462.727 608.162 462.317C642.071 460.87 678.37 453.677 711.341 468.795M-508.244 48.1098C-491.797 120.223 -456.365 182.205 -410.877 213.375C-382.408 232.927 -353.367 234.107 -325.088 253.596C-293.791 275.108 -260.836 290.281 -227.189 299.474C-204.109 305.784 -180.682 309.275 -157.217 310.059C-111.016 311.595 -64.6505 302.643 -20.5221 282.769C5.27781 271.15 30.2209 256.054 54.4609 238.903C72.2445 226.265 89.7091 212.525 106.911 198.14C131.691 177.368 156.266 155.021 183.414 141.929C192.809 137.415 202.408 134.091 212.122 131.867C254.027 122.231 298.176 131.853 337.075 157.08C347.038 163.507 356.677 170.897 365.986 179.178C401.658 210.711 432.969 254.688 459.684 304.131C464.25 312.577 468.748 321.264 473.246 330.029C489.297 361.316 505.325 393.604 524.241 419.491C535.549 434.968 547.873 448.331 561.945 457.209C570.737 462.757 579.789 466.216 589.042 468.143C598.928 470.202 608.886 470.712 619.012 470.554C653.527 469.982 690.065 462.61 723.56 477.42M-506.116 49.7363C-490.768 122.546 -455.855 185.029 -410.662 216.072C-381.817 235.909 -352.396 236.781 -323.789 256.787C-292.196 278.852 -258.894 294.648 -224.88 304.285C-201.543 310.898 -177.85 314.606 -154.116 315.442C-107.391 317.083 -60.4992 307.593 -15.8679 286.543C10.2231 274.235 35.4479 258.245 59.9719 240.046C77.9814 226.65 95.6439 212.067 113.025 196.824C138.075 174.828 162.895 151.217 190.366 137.363C199.863 132.581 209.573 129.056 219.4 126.693C261.838 116.481 306.542 127.426 345.911 154.276C355.983 161.128 365.727 168.958 375.141 177.661C411.148 210.854 442.55 256.534 469.227 307.512C473.786 316.218 478.275 325.166 482.764 334.183C498.788 366.369 514.804 399.456 533.85 425.789C545.24 441.538 557.703 454.959 571.95 464.021C580.853 469.685 590.011 473.349 599.363 475.526C609.391 477.918 619.561 478.703 629.869 478.802C664.991 479.109 701.769 471.554 735.788 486.06M-503.986 51.3598C-489.736 124.865 -455.343 187.847 -410.448 218.761C-381.226 238.881 -351.428 239.449 -322.489 259.975C-290.601 282.593 -256.952 299.012 -222.57 309.088C-152.537 329.615 -79.2724 323.825 -11.2161 290.31C34.5631 267.765 77.6856 233.505 119.132 195.501C144.454 172.282 169.514 147.41 197.309 132.79C248.409 105.914 305.68 116.408 354.738 151.463C403.795 186.517 445.146 244.619 478.76 310.884C509.265 371.015 536.664 441.791 581.943 470.825C633.727 504.029 693.9 472.441 748 494.686M-395.885 516C-396.455 423.097 -375.582 330.227 -338.019 258.553C-327.332 238.163 -314.799 218.882 -298.995 209.938C-253.327 184.099 -204.563 240.585 -166.167 272.656C-119.831 311.357 -74.0197 351.914 -25.7749 384.572C1.31025 402.908 33.1219 418.469 59.3223 397.188C85.8534 375.636 95.9489 325.452 106.918 281.751C119.698 230.827 137.297 181.772 163.132 145.102C188.967 108.432 223.891 85.2819 258.476 91.2507C285.559 95.9261 310.237 117.552 332.772 141.65C391.984 204.973 442.287 288.804 479.072 385.459M-397.365 511.983C-397.871 429.875 -379.517 349.514 -346.974 280.592C-343.952 274.191 -340.841 267.896 -337.595 261.774C-326.925 241.661 -314.499 222.626 -298.918 213.613C-253.856 187.513 -205.837 241.046 -167.494 271.967C-133.501 299.382 -99.7475 328.328 -64.795 354.53C-52.6692 363.657 -40.4385 372.447 -28.0519 380.739C-1.18331 398.723 30.2512 414.075 56.256 393.787C82.5868 373.243 93.0106 325.001 104.282 283.01C117.418 234.084 135.22 186.934 161.006 151.678C169.984 139.404 180.031 128.705 190.762 120.215C210.841 104.32 233.319 96.149 255.654 99.8644C282.483 104.327 306.982 125.077 329.373 148.077C374.705 194.607 414.764 252.364 447.788 318.897C457.644 338.749 466.871 359.377 475.418 380.728M-398.844 507.971C-399.333 428.6 -380.001 352.691 -346.534 283.524C-343.496 277.247 -340.403 271.033 -337.169 265.002C-326.513 245.172 -314.196 226.378 -298.836 217.291C-254.377 190.928 -207.11 241.511 -168.819 271.286C-135.182 297.44 -101.724 325.62 -66.7903 351.269C-54.753 360.18 -42.6132 368.783 -30.3267 376.914C-3.67459 394.549 27.3849 409.689 53.1918 390.394C79.3224 370.854 90.0746 324.554 101.646 284.278C115.136 237.349 133.146 192.104 158.881 158.267C167.842 146.486 177.84 136.216 188.499 128.071C208.436 112.813 230.706 104.95 252.83 108.49C279.405 112.744 303.722 132.614 325.971 154.511C371.033 198.799 410.829 253.383 443.949 316.856C453.833 335.795 463.12 355.519 471.763 376.005M-400.325 503.956C-400.795 427.321 -380.499 355.864 -346.096 286.452C-343.044 280.292 -339.97 274.162 -336.748 268.226C-326.108 248.675 -313.896 230.131 -298.762 220.971C-254.908 194.347 -208.398 241.98 -170.148 270.601C-136.875 295.498 -103.671 322.781 -68.7927 348.008C-56.8299 356.663 -44.7948 365.12 -32.6061 373.089C-6.17057 390.373 24.5141 405.304 50.1208 387.002C76.0511 368.465 87.1315 324.111 99.0059 285.546C112.852 240.614 131.064 197.275 156.748 164.851C165.696 153.566 175.642 143.724 186.229 135.919C206.026 121.3 228.085 113.744 250.001 117.112C276.323 121.157 300.458 140.148 322.565 160.942C367.359 202.991 406.889 254.398 440.105 314.815C450.017 332.842 459.362 351.661 468.101 371.286M-401.803 499.943C-402.257 426.046 -381.007 359.033 -345.654 289.382C-342.587 283.344 -339.53 277.294 -336.32 271.454C-325.693 252.184 -313.591 233.882 -298.68 224.649C-255.432 197.765 -209.683 242.456 -171.471 269.919C-138.565 293.567 -105.633 320.032 -70.7857 344.747C-58.9067 353.174 -46.9695 361.455 -34.8786 369.263C-8.65952 386.199 21.6481 400.921 47.0592 383.608C72.7893 366.079 84.198 323.667 96.375 286.814C110.578 243.878 128.992 202.441 154.627 171.435C163.558 160.641 173.453 151.231 183.97 143.767C203.626 129.789 225.475 122.541 247.184 125.729C273.254 129.562 297.208 147.677 319.17 167.368C363.695 207.175 402.962 255.409 436.275 312.766C446.217 329.881 455.621 347.795 464.454 366.555M-403.282 495.928C-403.719 424.768 -381.524 362.196 -345.214 292.311C-342.136 286.389 -339.093 280.428 -335.896 274.679C-325.286 255.688 -313.288 237.631 -298.601 228.328C-255.958 201.185 -210.978 242.937 -172.796 269.238C-140.262 291.647 -107.603 317.289 -72.7835 341.49C-60.9883 349.69 -49.1464 357.795 -37.1557 365.442C-11.1532 382.026 18.7796 396.539 43.9928 380.22C69.5227 363.694 81.2573 323.228 93.7393 288.086C108.296 247.143 126.915 207.615 152.501 178.027C161.416 167.728 171.263 158.747 181.707 151.624C201.221 138.283 222.862 131.343 244.36 134.359C270.176 137.983 293.948 155.222 315.769 173.81C360.023 211.378 399.027 256.435 432.436 310.737C442.405 326.94 451.87 343.949 460.799 361.844M-404.762 491.912C-405.184 423.488 -382.057 365.347 -344.776 295.234C-341.689 289.43 -338.66 283.553 -335.472 277.899C-324.878 259.19 -312.988 241.376 -298.524 231.999C-256.484 204.596 -212.282 243.413 -174.123 268.545C-141.969 289.723 -109.573 314.533 -74.7811 338.218C-63.0698 346.191 -51.3234 354.12 -39.4328 361.602C-13.6468 377.837 15.9087 392.138 40.9264 376.811C66.256 361.29 78.3189 322.77 91.1037 289.339C106.016 250.393 124.838 212.77 150.375 184.597C159.274 174.792 169.069 166.24 179.444 159.461C198.818 146.758 220.248 140.126 241.538 142.965C267.1 146.38 290.693 162.74 312.369 180.225C356.353 215.551 395.094 257.435 428.598 308.678C438.599 323.968 448.121 340.072 457.144 357.102M-406.241 487.9C-406.644 422.213 -382.597 368.498 -344.334 298.166C-341.237 292.475 -338.219 286.686 -335.046 281.128C-324.466 262.697 -312.683 245.128 -298.443 235.682C-257.008 208.014 -213.585 243.911 -175.448 267.867C-143.678 287.822 -111.545 311.796 -76.7764 334.964C-65.1489 342.714 -53.498 350.46 -41.7074 357.784C-16.138 373.668 13.0426 387.76 37.8623 373.426C62.9917 358.913 75.383 322.33 88.4681 290.614C103.735 253.665 122.762 217.948 148.247 191.192C157.13 181.878 166.876 173.759 177.179 167.321C196.411 155.255 217.631 148.934 238.714 151.598C264.022 154.801 287.433 170.285 308.97 186.667C352.684 219.754 391.162 258.461 424.764 306.648C434.792 321.026 444.375 336.224 453.493 352.39M-407.722 483.883C-408.108 420.934 -383.153 371.634 -343.896 301.093C-340.792 295.516 -337.786 289.818 -334.622 284.352C-324.059 266.203 -312.382 248.88 -298.366 239.36C-257.537 211.433 -214.903 244.409 -176.775 267.182C-145.396 285.924 -113.517 309.051 -78.7764 331.699C-67.235 339.221 -55.6773 346.791 -43.9845 353.955C-18.6316 369.491 10.1718 383.37 34.7959 370.033C59.7251 356.523 72.4446 321.887 85.8324 291.881C101.455 256.929 120.687 223.117 146.121 197.776C154.988 188.957 164.683 181.266 174.916 175.169C194.005 163.744 215.016 157.728 235.892 160.219C260.947 163.213 284.176 177.818 305.571 193.101C349.015 223.945 387.229 259.48 420.927 304.607C430.985 318.072 440.627 332.362 449.84 347.671M-409.2 479.868C-409.57 419.656 -383.717 374.759 -343.456 304.02C-340.345 298.557 -337.349 292.948 -334.199 287.576C-323.649 269.706 -312.08 252.628 -298.289 243.035C-258.063 214.847 -216.223 244.915 -178.102 266.496C-147.119 284.036 -115.491 306.314 -80.7741 328.438C-69.3165 335.74 -57.8544 343.127 -46.2617 350.129C-21.1253 365.313 7.30335 378.984 31.7296 366.64C56.4585 354.134 69.5063 321.443 83.1967 293.149C99.1759 260.194 118.61 228.287 143.996 204.364C152.846 196.04 162.492 188.777 172.653 183.021C191.603 172.234 212.404 166.529 233.067 168.841C257.868 171.622 280.919 185.351 302.169 199.531C345.343 228.137 383.294 260.495 417.087 302.566C427.174 315.119 436.876 328.504 446.182 342.948M-410.681 475.856C-411.035 418.381 -384.294 377.882 -343.016 306.949C-339.9 301.595 -336.913 296.077 -333.772 290.797C-323.239 273.21 -311.777 256.373 -298.208 246.711C-258.587 218.263 -217.548 245.428 -179.424 265.808C-148.842 282.157 -117.464 303.574 -82.7671 325.17C-71.3957 332.249 -60.0266 339.456 -48.5341 346.297C-23.6142 361.133 4.43727 374.591 28.6679 363.24C53.1966 351.738 66.5727 320.993 80.5658 294.41C96.8988 263.452 116.538 233.451 141.875 210.942C150.708 203.108 160.306 196.275 170.394 190.863C189.202 180.713 209.794 175.316 230.25 177.456C254.8 180.028 277.666 192.878 298.775 205.955C341.678 232.318 379.366 261.499 413.257 300.514C423.371 312.155 433.134 324.635 442.536 338.214M-412.16 471.84C-412.497 417.102 -384.881 380.985 -342.576 309.876C-339.456 304.633 -336.476 299.21 -333.349 294.021C-322.829 276.712 -311.474 260.121 -298.131 250.386C-259.115 221.677 -218.882 245.956 -180.752 265.123C-150.577 280.292 -119.44 300.836 -84.7672 321.909C-73.4819 328.768 -62.2059 335.792 -50.8135 342.472C-26.1102 356.956 1.56639 370.209 25.5968 359.847C49.9253 349.353 63.6273 320.546 77.9255 295.681C94.6147 266.716 114.457 238.624 139.742 217.53C148.559 210.19 158.105 203.786 168.124 198.718C186.79 189.206 207.172 184.117 227.421 186.081C251.717 188.444 274.404 200.415 295.368 212.393C338.002 236.517 375.427 262.521 409.413 298.477C419.558 309.205 429.378 320.78 438.873 333.494M-413.638 467.828C-413.957 415.827 -385.479 384.078 -342.136 312.808C-339.013 307.674 -336.045 302.332 -332.923 297.25C-322.441 280.19 -311.172 263.877 -298.052 254.068C-259.642 225.096 -220.219 246.498 -182.079 264.445C-152.314 278.449 -121.417 298.114 -86.7648 318.652C-75.5657 325.291 -64.3852 332.128 -53.0883 338.647C-28.6015 352.783 -1.30211 365.823 22.5327 356.454C46.661 346.964 60.6914 320.103 75.2898 296.949C92.3354 269.982 112.38 243.794 137.616 224.118C146.417 217.274 155.914 211.297 165.861 206.571C184.387 197.7 204.56 192.918 224.597 194.706C248.639 196.857 271.144 207.952 291.966 218.827C334.33 240.709 371.492 263.54 405.574 296.44C415.746 306.256 425.628 316.926 435.218 328.779M-415.119 463.812C-415.421 414.548 -386.092 387.152 -341.696 315.735C-338.571 310.708 -335.609 305.464 -332.499 300.474C-322.033 283.692 -310.869 267.625 -297.972 257.743C-260.165 228.511 -221.562 247.051 -183.403 263.756C-154.055 276.606 -123.392 295.381 -88.7626 315.387C-77.6519 321.806 -66.5622 328.46 -55.3654 334.818C-31.0951 348.602 -4.17055 361.433 19.4664 353.057C43.3944 344.571 57.753 319.655 72.6542 298.213C90.0536 273.242 110.303 248.96 135.49 230.699C144.277 224.345 153.721 218.801 163.6 214.415C181.984 206.182 201.947 201.708 221.777 203.32C245.566 205.262 267.89 215.478 288.57 225.25C330.663 244.893 367.562 264.547 401.741 294.388C411.944 303.292 421.884 313.056 431.569 324.045M-416.597 459.796C-416.884 413.269 -386.713 390.211 -341.256 318.662C-338.129 313.741 -335.172 308.593 -332.073 303.698C-321.623 287.195 -310.566 271.373 -297.893 261.422C-260.692 231.929 -222.91 247.619 -184.728 263.074C-155.799 274.785 -125.371 292.658 -90.758 312.125C-79.7334 318.325 -68.7368 324.796 -57.6401 330.992C-33.5864 344.428 -7.03905 357.047 16.4023 349.664C40.1301 342.186 54.817 319.212 70.0209 299.481C87.7765 276.507 108.231 254.13 133.367 237.286C142.138 231.427 151.532 226.312 161.339 222.267C179.582 214.671 199.335 210.505 218.958 211.945C242.492 213.679 264.637 223.015 285.175 231.688C326.998 249.088 363.634 265.569 397.909 292.354C408.14 300.345 418.14 309.205 427.919 319.329M-418.078 455.784C-418.348 411.994 -387.349 393.256 -340.818 321.59C-337.691 316.775 -334.739 311.722 -331.651 306.922C-321.218 290.698 -310.266 275.122 -297.816 265.097C-261.22 235.344 -224.268 248.202 -186.055 262.385C-157.55 272.967 -127.35 289.932 -92.7556 308.861C-81.8172 314.844 -70.9139 321.128 -59.9173 327.163C-36.0801 340.247 -9.9075 352.658 13.336 346.267C36.8635 339.793 51.8787 318.761 67.3852 300.745C85.4947 279.768 106.154 259.296 131.239 243.867C139.993 238.503 149.337 233.816 159.074 230.116C177.176 223.157 196.72 219.303 216.131 220.567C239.412 222.088 261.375 230.548 281.771 238.118C323.324 253.28 359.697 266.584 394.067 290.309C404.328 297.385 414.387 305.339 424.261 314.602M-419.556 451.768C-419.808 410.715 -387.994 396.279 -340.375 324.518C-337.249 319.806 -334.299 314.852 -331.223 310.147C-320.804 294.204 -309.947 278.911 -297.735 268.776C-261.704 238.877 -225.623 248.806 -187.378 261.704C-159.298 271.176 -129.326 287.217 -94.7508 305.6C-83.9009 311.367 -73.0884 317.464 -62.1919 323.338C-38.5712 336.074 -12.7759 348.272 10.272 342.875C33.6016 337.404 48.9428 318.318 64.7497 302.013C83.2155 283.033 104.077 264.467 129.113 250.455C137.851 245.582 147.146 241.328 156.811 237.968C174.771 231.651 194.106 228.1 213.309 229.189C236.339 230.5 258.12 238.081 278.372 244.549C319.655 257.468 355.764 267.599 390.233 288.269C400.521 294.432 410.64 301.481 420.61 309.883M-421.037 447.756C-421.272 409.441 -388.651 399.287 -339.938 327.449C-336.811 322.84 -333.863 317.988 -330.801 313.375C-320.399 297.711 -309.649 282.663 -297.66 272.458C-262.235 242.296 -226.987 249.43 -188.71 261.026C-161.061 269.403 -131.312 284.51 -96.7533 302.346C-85.9919 307.901 -75.27 313.808 -64.4713 319.52C-41.0672 331.905 -15.6469 343.893 7.20312 339.493C30.3325 335.03 45.9997 317.886 62.1116 303.292C80.9336 286.309 101.998 269.648 126.985 257.051C135.707 252.672 144.953 248.847 154.545 245.828C172.364 240.148 191.489 236.909 210.485 237.822C233.261 238.921 254.86 245.63 274.97 250.994C315.983 261.675 351.832 268.629 386.393 286.239C396.712 291.49 406.887 297.634 416.952 305.171M-422.516 443.74C-422.735 408.158 -389.319 402.274 -339.495 330.377C-336.371 325.87 -333.425 321.118 -330.373 316.6C-319.984 301.218 -309.342 286.411 -297.577 276.134C-262.754 245.711 -228.347 250.071 -190.03 260.338C-162.814 267.633 -133.287 281.795 -98.7463 299.078C-88.0733 304.42 -77.4423 310.133 -66.7437 315.688C-43.5562 327.724 -18.5129 339.504 4.14147 336.093C27.0706 332.634 43.0661 317.435 59.4806 304.552C78.6565 289.563 99.9256 274.807 124.864 263.628C133.57 259.744 142.764 256.348 152.287 253.669C169.966 248.627 188.881 245.696 207.668 246.432C230.19 247.323 251.608 253.152 271.575 257.414C312.318 265.852 347.904 269.63 382.561 284.187C392.908 288.526 403.143 293.765 413.304 300.438M-423.996 439.724C-424.199 406.879 -389.999 405.234 -339.058 333.301C-335.935 328.893 -332.99 324.247 -329.952 319.82C-319.579 304.717 -309.043 290.156 -297.502 279.808C-263.285 249.122 -229.718 250.73 -191.359 259.652C-164.577 265.881 -135.273 279.09 -100.746 295.817C-90.1618 300.947 -79.6216 306.468 -69.0232 311.858C-46.0521 323.543 -21.3836 335.114 1.07286 332.696C23.8018 330.241 40.1255 316.984 56.8427 305.816C76.3748 292.823 97.8465 279.973 122.734 270.212C131.423 266.819 140.569 263.855 150.019 261.521C167.556 257.117 186.261 254.493 204.839 255.057C227.107 255.739 248.346 260.689 268.169 263.848C308.642 270.047 343.965 270.648 378.719 282.146C389.094 285.572 399.39 289.907 409.646 295.714M-425.475 435.712C-425.659 405.604 -390.69 408.176 -338.617 336.232C-335.498 331.923 -332.552 327.379 -329.526 323.048C-319.167 308.227 -308.738 293.908 -297.423 283.487C-263.809 252.537 -231.087 251.419 -192.684 258.967C-166.337 264.144 -137.254 276.386 -102.742 292.552C-92.2457 297.469 -81.7986 302.801 -71.298 308.029C-48.5434 319.366 -24.2498 330.725 -1.99357 329.299C20.5351 327.852 37.1872 316.537 54.2071 307.08C74.0955 296.084 95.7719 285.14 120.608 276.793C129.281 273.895 138.375 271.359 147.756 269.366C165.151 265.603 183.647 263.287 202.017 263.672C224.031 264.141 245.088 268.215 264.77 270.274C304.972 274.232 340.032 271.659 374.882 280.098C385.287 282.611 395.641 286.041 405.991 290.984M-426.954 431.696C-427.121 404.325 -391.391 411.093 -338.175 339.159C-335.06 334.946 -332.115 330.508 -329.1 326.273C-318.755 311.733 -308.45 297.623 -297.341 287.166C-264.373 255.849 -232.454 252.133 -194.007 258.285C-168.095 262.429 -139.236 273.689 -104.737 289.295C-94.3295 294.003 -83.9732 299.14 -73.5727 304.207C-51.0347 315.192 -27.1184 326.342 -5.05773 325.91C17.2707 325.466 34.2511 316.097 51.5714 308.351C71.8137 299.352 93.6951 290.313 118.482 283.384C127.139 280.981 136.184 278.874 145.493 277.221C162.748 274.096 181.032 272.088 199.195 272.3C220.958 272.561 241.833 275.756 261.373 276.712C301.305 278.43 336.102 272.681 371.047 278.064C381.481 279.665 391.895 282.186 402.34 286.272M-428.434 427.684C-428.586 403.05 -392.106 413.988 -337.737 342.091C-334.624 337.976 -331.679 333.645 -328.676 329.501C-318.345 315.244 -308.147 301.375 -297.265 290.845C-264.901 259.264 -233.825 252.874 -195.336 257.604C-169.86 260.733 -141.224 271 -106.737 286.034C-96.4181 290.533 -86.1526 295.476 -75.8498 300.382C-53.5283 311.019 -29.9868 321.957 -8.12399 322.517C14.0042 323.078 31.3128 315.654 48.9357 309.619C69.5342 302.617 91.6182 295.483 116.356 289.969C124.999 288.056 133.991 286.378 143.23 285.07C160.343 282.582 178.42 280.882 196.371 280.922C217.88 280.974 238.574 283.289 257.971 283.143C297.634 282.619 332.167 273.697 367.21 276.02C377.674 276.709 388.146 278.324 398.684 281.545M-429.913 423.668C-430.048 401.772 -392.828 416.849 -337.298 345.015C-334.189 340.995 -331.242 336.77 -328.252 332.722C-317.935 318.747 -307.847 305.12 -297.186 294.52C-265.427 262.679 -235.192 253.64 -196.661 256.915C-171.618 259.044 -143.208 268.303 -108.732 282.769C-98.5019 287.06 -88.3272 291.805 -78.1246 296.553C-56.0196 306.838 -32.8553 317.567 -11.1881 319.121C10.7399 320.689 28.3745 315.204 46.3025 310.884C67.2572 305.878 89.5437 300.65 114.231 296.553C122.857 295.135 131.8 293.886 140.967 292.922C157.94 291.072 175.805 289.683 193.549 289.544C214.804 289.383 235.317 290.823 254.572 289.573C293.964 286.811 328.235 274.712 363.373 273.979C373.865 273.755 384.398 274.466 395.031 276.822M-431.393 419.652C-431.512 400.493 -393.566 419.685 -336.857 347.942C-333.754 344.015 -330.799 339.911 -327.826 335.946C-317.507 322.283 -307.542 308.869 -297.106 298.199C-265.951 266.098 -236.559 254.438 -197.986 256.234C-173.376 257.377 -145.191 265.625 -110.73 279.508C-100.59 283.594 -90.5041 288.141 -80.4016 292.728C-58.5132 302.665 -35.7237 313.181 -14.2544 315.728C7.47332 318.3 25.4362 314.76 43.6668 312.152C64.9754 309.14 87.4668 305.82 112.105 303.138C120.715 302.214 129.609 301.394 138.704 300.771C155.535 299.562 173.19 298.477 190.727 298.166C211.728 297.796 232.062 298.356 251.172 296.007C290.295 291.002 324.302 275.73 359.536 271.938C370.058 270.802 380.649 270.608 391.378 272.099M-432.872 415.64C-432.972 399.217 -394.311 422.495 -336.417 350.873C-333.318 347.041 -330.364 343.047 -327.402 339.17C-317.1 325.789 -307.241 312.62 -297.029 301.873C-266.48 269.512 -237.921 255.266 -199.313 255.545C-175.131 255.721 -147.177 262.939 -112.728 276.243C-102.677 280.123 -92.6811 284.473 -82.6787 288.895C-61.0068 298.481 -38.5946 308.791 -17.3208 312.327C4.20666 315.903 22.4978 314.309 41.0311 313.412C62.696 312.397 85.39 310.982 109.979 309.715C118.573 309.282 127.416 308.894 136.44 308.612C153.13 308.04 170.578 307.267 187.905 306.776C208.653 306.197 228.804 305.878 247.773 302.427C286.625 295.183 320.37 276.734 355.702 269.886C366.251 267.838 376.903 266.738 387.725 267.369M-434.353 411.624C-434.437 397.939 -395.067 425.273 -335.98 353.801C-332.885 350.06 -329.928 346.176 -326.978 342.395C-316.69 329.292 -306.939 316.368 -296.95 305.552C-267.006 272.931 -239.276 256.127 -200.638 254.863C-176.88 254.086 -149.161 260.267 -114.725 272.982C-104.763 276.661 -94.8581 280.808 -84.9534 285.07C-63.4981 294.307 -41.4607 304.405 -20.3849 308.938C0.942348 313.518 19.5618 313.869 38.3955 314.683C60.4143 315.665 83.3132 316.156 107.854 316.306C116.431 316.368 125.225 316.409 134.177 316.467C150.727 316.533 167.963 316.068 185.081 315.405C205.575 314.613 225.547 313.419 244.371 308.864C282.954 299.378 316.435 277.752 351.862 267.848C362.44 264.888 373.152 262.884 384.07 262.649M-435.831 407.612C-435.899 396.664 -395.836 428.021 -335.537 356.732C-332.45 353.083 -329.488 349.309 -326.552 345.623C-316.28 332.802 -306.636 320.121 -296.871 309.231C-267.532 276.346 -240.624 257.021 -201.965 254.182C-178.626 252.467 -151.15 257.6 -116.723 269.725C-106.851 273.202 -97.0351 277.148 -87.2306 281.248C-65.9918 290.134 -44.3315 300.023 -23.4513 305.549C-2.32423 311.136 16.6236 313.426 35.7599 315.955C58.1349 318.934 81.2386 321.33 105.728 322.894C114.289 323.451 123.032 323.92 131.917 324.32C148.324 325.023 165.351 324.866 182.261 324.027C202.504 323.026 222.292 320.952 240.974 315.299C279.287 303.574 312.504 278.771 348.027 265.808C358.635 261.935 369.406 259.026 380.419 257.926M-437.312 403.596C-437.363 395.385 -396.613 430.732 -335.099 359.656C-332.017 356.095 -329.055 352.438 -326.128 348.844C-315.87 336.301 -306.333 323.865 -296.794 312.906C-268.058 279.761 -241.965 257.945 -203.292 253.493C-180.367 250.855 -153.138 254.933 -118.721 266.456C-108.937 269.732 -99.2143 273.473 -89.5076 277.416C-68.4853 285.953 -47.2 295.63 -26.52 302.148C-5.59315 308.74 13.6829 312.976 33.1219 317.215C55.8531 322.191 79.1595 326.493 103.597 329.475C112.142 330.523 120.836 331.424 129.649 332.168C145.914 333.513 162.734 333.663 179.435 332.648C199.423 331.435 219.03 328.486 237.573 321.729C275.615 307.765 308.57 279.786 344.19 263.767C354.826 258.982 365.657 255.164 376.763 253.203M-438.791 399.58C-438.823 394.106 -397.4 433.411 -334.66 362.584C-331.584 359.11 -328.618 355.567 -325.705 352.068C-315.463 339.808 -306.033 327.617 -296.715 316.581C-268.585 283.176 -243.295 258.901 -204.617 252.808C-182.1 249.261 -155.122 252.276 -120.719 263.195C-111.026 266.273 -101.391 269.809 -91.7847 273.59C-70.979 281.776 -50.0708 291.244 -29.5864 298.755C-8.85981 306.351 10.7445 312.532 30.4862 318.483C53.5714 325.455 77.0826 331.662 101.472 336.059C110 337.602 118.643 338.932 127.386 340.017C143.512 341.999 160.119 342.457 176.611 341.27C196.345 339.848 215.773 336.019 234.171 328.159C271.943 311.953 304.635 280.801 340.351 261.722C351.017 256.025 361.906 251.301 373.108 248.48M-440.269 395.568C-440.285 392.831 -398.199 436.056 -334.217 365.515C-331.146 362.129 -328.18 358.703 -325.276 355.296C-315.05 343.314 -305.726 331.369 -296.633 320.263C-269.108 286.598 -244.608 259.897 -205.939 252.126C-183.82 247.681 -157.112 249.693 -122.712 259.934C-113.11 262.832 -103.564 266.145 -94.0571 269.765C-73.4679 277.602 -52.9346 286.858 -32.648 295.362C-12.1217 303.965 7.80862 312.089 27.8553 319.75C51.2967 328.72 75.0104 336.832 99.3505 342.647C107.863 344.684 116.457 346.443 125.127 347.869C141.111 350.488 157.509 351.254 173.793 349.891C193.274 348.261 212.52 343.556 230.776 334.594C268.278 316.149 300.707 281.82 336.519 259.685C347.213 253.075 358.163 247.447 369.457 243.761M-441.75 391.552C-441.75 391.552 -399.009 438.665 -333.779 368.443C-268.549 298.22 -246.095 222.454 -124.712 256.673C-40.832 280.321 38.2977 338.324 122.859 355.717C157.651 362.873 194.115 359.502 227.372 341.024C264.604 320.337 296.77 282.835 332.679 257.64C343.403 250.118 354.409 243.585 365.802 239.034" stroke="#FFB84A" stroke-width="0.197078" stroke-miterlimit="10"/>
</svg>
