<svg width="162" height="48" viewBox="0 0 162 48" fill="none" xmlns="http://www.w3.org/2000/svg">
<g clip-path="url(#clip0_419_7464)">
<path fill-rule="evenodd" clip-rule="evenodd" d="M5.6748 48H156.237C159.363 48 162 45.4464 162 42.3204V5.6712C162 2.544 159.363 0 156.237 0H5.6748C2.5464 0 0 2.544 0 5.6712V42.3204C0 45.4464 2.5464 48 5.6748 48ZM156.24 46.9173C158.784 46.9173 160.841 44.8605 160.841 42.3213L160.839 5.66963C160.839 3.13163 158.784 1.06763 156.239 1.06763H5.67711C3.13431 1.06763 1.07031 3.13163 1.07031 5.66963V42.3213C1.07031 44.8605 3.13431 46.9173 5.67711 46.9173H156.24Z" fill="#C0C0C0"/>
<path fill-rule="evenodd" clip-rule="evenodd" d="M36.1549 23.7405C36.1201 19.8729 39.3216 17.9913 39.468 17.9037C37.6549 15.2601 34.8445 14.8989 33.8568 14.8701C31.4965 14.6217 29.2069 16.2825 28.0045 16.2825C26.7781 16.2825 24.9265 14.894 22.9309 14.9348C20.3629 14.9744 17.9605 16.4613 16.6429 18.7701C13.9236 23.4777 15.9517 30.3957 18.5569 34.2009C19.8601 36.0645 21.3829 38.1453 23.3761 38.0721C25.3261 37.9917 26.0545 36.8289 28.4077 36.8289C30.7393 36.8289 31.4233 38.0721 33.4561 38.0253C35.5489 37.9917 36.8665 36.1533 38.124 34.2729C39.63 32.1369 40.2348 30.0333 40.2589 29.9253C40.2096 29.9085 36.1945 28.3761 36.1549 23.7405Z" fill="white"/>
<path fill-rule="evenodd" clip-rule="evenodd" d="M32.3203 12.367C33.3691 11.0554 34.0867 9.27101 33.8875 7.46021C32.3695 7.52741 30.4711 8.51021 29.3779 9.79301C28.4107 10.9234 27.5467 12.7762 27.7699 14.5186C29.4751 14.6458 31.2259 13.6582 32.3203 12.367Z" fill="white"/>
<path fill-rule="evenodd" clip-rule="evenodd" d="M61.6469 37.8043H64.3721L59.2061 21.8347H56.0309L50.8901 37.8043H53.5433L54.9653 33.1135H60.1541L61.6469 37.8043ZM58.3511 26.976L59.7011 31.146H55.4135L56.7395 26.976C57.0875 25.65 57.3407 24.6468 57.4979 23.9676H57.5459C57.9407 25.5468 58.2083 26.55 58.3511 26.976Z" fill="white"/>
<path fill-rule="evenodd" clip-rule="evenodd" d="M76.0011 36.5477C77.0595 35.4113 77.5887 33.8633 77.5887 31.9049C77.5887 30.1517 77.1351 28.7381 76.2255 27.6629C75.3183 26.5889 74.1843 26.0525 72.8259 26.0525C71.0883 26.0525 69.7935 26.7389 68.9403 28.1141H68.8923L68.7495 26.2889H66.4995C66.5619 27.5849 66.5943 28.8485 66.5943 30.0797V42.4961H69.1527V36.4301H69.2007C69.8643 37.5197 70.9539 38.0645 72.4707 38.0645C73.8759 38.0645 75.0531 37.5593 76.0011 36.5477ZM74.226 29.2262C74.7324 29.9534 74.9844 30.8774 74.9844 31.9982C74.9844 33.215 74.7156 34.1942 74.178 34.937C73.6416 35.6786 72.8916 36.0506 71.928 36.0506C71.1072 36.0506 70.44 35.7626 69.9264 35.1854C69.4128 34.6082 69.156 33.9014 69.156 33.0638V31.1438C69.156 30.9398 69.1956 30.6806 69.2748 30.3638C69.432 29.6846 69.768 29.1362 70.2816 28.7162C70.794 28.2998 71.3676 28.0886 71.9988 28.0886C72.93 28.0886 73.6728 28.4678 74.226 29.2262Z" fill="white"/>
<path fill-rule="evenodd" clip-rule="evenodd" d="M89.2487 36.5477C90.3083 35.4113 90.8375 33.8633 90.8375 31.9049C90.8375 30.1517 90.3827 28.7381 89.4767 27.6629C88.5671 26.5889 87.4331 26.0525 86.0759 26.0525C84.3371 26.0525 83.0423 26.7389 82.1903 28.1141H82.1423L81.9995 26.2889H79.7495C79.8119 27.5849 79.8443 28.8485 79.8443 30.0797V42.4961H82.4027V36.4301H82.4507C83.1131 37.5197 84.2027 38.0645 85.7195 38.0645C87.1247 38.0645 88.3019 37.5593 89.2487 36.5477ZM87.4748 29.2274C87.9812 29.9546 88.2344 30.8786 88.2344 31.9994C88.2344 33.2162 87.9656 34.1954 87.428 34.9382C86.8916 35.6798 86.1416 36.0518 85.178 36.0518C84.3548 36.0518 83.6876 35.7626 83.174 35.1866C82.6628 34.6094 82.406 33.9026 82.406 33.065V31.145C82.406 30.941 82.4468 30.6818 82.5248 30.365C82.682 29.6858 83.0168 29.1374 83.5304 28.7174C84.044 28.301 84.6164 28.0898 85.2488 28.0898C86.1812 28.0898 86.9216 28.469 87.4748 29.2274Z" fill="white"/>
<path fill-rule="evenodd" clip-rule="evenodd" d="M105.642 33.3265C105.642 34.6849 105.17 35.7901 104.223 36.6433C103.183 37.5757 101.734 38.0413 99.8732 38.0413C98.1548 38.0413 96.7772 37.7101 95.7344 37.0465L96.3272 34.9141C97.4504 35.5933 98.6828 35.9341 100.026 35.9341C100.989 35.9341 101.739 35.7157 102.278 35.2813C102.814 34.8469 103.082 34.2637 103.082 33.5365C103.082 32.8885 102.861 32.3425 102.418 31.8997C101.978 31.4569 101.242 31.0453 100.215 30.6649C97.4192 29.6221 96.0224 28.0945 96.0224 26.0857C96.0224 24.7729 96.512 23.6965 97.4924 22.8589C98.4692 22.0201 99.7724 21.6013 101.402 21.6013C102.855 21.6013 104.062 21.8545 105.026 22.3597L104.386 24.4453C103.486 23.9557 102.469 23.7109 101.33 23.7109C100.43 23.7109 99.7268 23.9329 99.2228 24.3745C98.7968 24.7693 98.5832 25.2505 98.5832 25.8205C98.5832 26.4517 98.8268 26.9737 99.3164 27.3841C99.7424 27.7633 100.516 28.1737 101.64 28.6165C103.014 29.1697 104.023 29.8165 104.672 30.5581C105.319 31.2973 105.642 32.2225 105.642 33.3265Z" fill="white"/>
<path fill-rule="evenodd" clip-rule="evenodd" d="M114.106 28.2099H111.286V33.8007C111.286 35.2227 111.782 35.9331 112.778 35.9331C113.236 35.9331 113.615 35.8935 113.915 35.8143L113.986 37.7571C113.482 37.9455 112.818 38.0403 111.996 38.0403C110.986 38.0403 110.196 37.7319 109.626 37.1163C109.058 36.4995 108.773 35.4651 108.773 34.0119V28.2075H107.093V26.2875H108.773V24.1791L111.286 23.4207V26.2875H114.106V28.2099Z" fill="white"/>
<path fill-rule="evenodd" clip-rule="evenodd" d="M125.309 36.312C126.319 35.1756 126.826 33.7224 126.826 31.9524C126.826 30.2304 126.336 28.8252 125.354 27.7368C124.328 26.6148 122.969 26.0544 121.279 26.0544C119.526 26.0544 118.132 26.6232 117.098 27.7608C116.063 28.8972 115.547 30.3588 115.547 32.1432C115.547 33.8484 116.048 35.2632 117.052 36.384C118.055 37.5048 119.4 38.0652 121.09 38.0652C122.843 38.0652 124.249 37.482 125.309 36.312ZM123.486 29.303C123.945 30.0626 124.172 30.9734 124.172 32.0354C124.172 33.0962 123.935 34.0166 123.463 34.7906C122.91 35.7242 122.143 36.1922 121.166 36.1922C120.169 36.1922 119.396 35.7338 118.843 34.8146C118.383 34.0562 118.157 33.1454 118.157 32.0834C118.157 30.989 118.383 30.0638 118.843 29.303C119.379 28.385 120.161 27.9254 121.189 27.9254C122.183 27.9254 122.949 28.3838 123.486 29.303Z" fill="white"/>
<path fill-rule="evenodd" clip-rule="evenodd" d="M135.145 28.5389C134.892 28.4921 134.622 28.4681 134.339 28.4681C133.439 28.4681 132.743 28.8077 132.253 29.4881C131.827 30.0881 131.614 30.8465 131.614 31.7621V37.8041H129.056L129.08 29.9153C129.08 28.5881 129.048 27.3797 128.984 26.2901H131.213L131.306 28.4933H131.377C131.647 27.7361 132.073 27.1265 132.656 26.6693C133.226 26.2577 133.842 26.0525 134.506 26.0525C134.742 26.0525 134.956 26.0693 135.145 26.0993V28.5389Z" fill="white"/>
<path fill-rule="evenodd" clip-rule="evenodd" d="M146.492 32.6632C146.555 32.3476 146.585 31.9612 146.585 31.5028C146.585 30.0664 146.246 28.8568 145.57 27.8788C144.717 26.6476 143.46 26.032 141.801 26.032C140.111 26.032 138.768 26.6476 137.775 27.8788C136.826 29.032 136.352 30.478 136.352 32.2144C136.352 33.9832 136.862 35.3932 137.879 36.4432C138.899 37.4932 140.301 38.0188 142.086 38.0188C143.571 38.0188 144.857 37.7824 145.947 37.3072L145.546 35.5312C144.614 35.8948 143.577 36.076 142.44 36.076C141.413 36.076 140.577 35.8072 139.93 35.2708C139.217 34.6708 138.846 33.8008 138.816 32.6632H146.492ZM143.645 28.8722C143.992 29.4254 144.158 30.0806 144.142 30.839V30.8378H138.812C138.89 30.065 139.144 29.4014 139.57 28.8482C140.089 28.1522 140.77 27.8054 141.606 27.8054C142.522 27.8054 143.202 28.1606 143.645 28.8722Z" fill="white"/>
<path fill-rule="evenodd" clip-rule="evenodd" d="M57.5855 15.2018C58.4315 14.4878 58.855 13.4246 58.855 12.0122C58.855 10.7546 58.4626 9.78855 57.6802 9.11295C56.9818 8.51535 55.9463 8.21655 54.5723 8.21655C53.7947 8.21655 53.0746 8.27175 52.4062 8.37975V16.097C52.9187 16.1594 53.5306 16.1906 54.2458 16.1906C55.6882 16.1906 56.8019 15.8606 57.5855 15.2018ZM56.8019 9.93926C57.2867 10.4289 57.529 11.1309 57.529 12.0465C57.529 13.0713 57.265 13.8513 56.7418 14.3865C56.2186 14.9217 55.4759 15.1893 54.5135 15.1893C54.1019 15.1893 53.8187 15.1785 53.6639 15.1545V9.28766C53.9435 9.23246 54.2806 9.20606 54.6766 9.20606C55.609 9.20606 56.3171 9.45086 56.8019 9.93926Z" fill="white"/>
<path fill-rule="evenodd" clip-rule="evenodd" d="M65.1394 15.3864C65.6362 14.8273 65.8846 14.1145 65.8846 13.2445C65.8846 12.3997 65.6434 11.7085 65.1634 11.1733C64.6582 10.6225 63.991 10.3477 63.1606 10.3477C62.299 10.3477 61.615 10.6273 61.1062 11.1853C60.5974 11.7433 60.3442 12.4621 60.3442 13.3381C60.3442 14.1757 60.5902 14.8705 61.0822 15.4212C61.5754 15.9732 62.2366 16.248 63.067 16.248C63.9286 16.248 64.6186 15.9612 65.1394 15.3864ZM64.2436 11.9425C64.468 12.3157 64.5808 12.7633 64.5808 13.2853C64.5808 13.8073 64.4644 14.2585 64.2316 14.6389C63.9604 15.0985 63.5836 15.3277 63.1036 15.3277C62.614 15.3277 62.2348 15.1021 61.9624 14.6509C61.738 14.2777 61.6252 13.8301 61.6252 13.3081C61.6252 12.7705 61.7368 12.3157 61.9624 11.9425C62.2264 11.4913 62.6104 11.2657 63.1156 11.2657C63.604 11.2657 63.9796 11.4913 64.2436 11.9425Z" fill="white"/>
<path fill-rule="evenodd" clip-rule="evenodd" d="M75.3127 10.4639L73.5427 16.1206H72.3907L71.6575 13.6643C71.4715 13.0511 71.3203 12.4415 71.2027 11.8367H71.1799C71.0707 12.4583 70.9195 13.0667 70.7251 13.6643L69.9463 16.1206H68.7811L67.1167 10.4639H68.4091L69.0487 13.1531C69.2035 13.7891 69.3307 14.3951 69.4327 14.9687H69.4555C69.5491 14.4959 69.7039 13.8935 69.9223 13.1651L70.7251 10.4651H71.7499L72.5191 13.1075C72.7051 13.7519 72.8563 14.3723 72.9727 14.9699H73.0075C73.0927 14.3879 73.2211 13.7675 73.3915 13.1075L74.0779 10.4651H75.3127V10.4639Z" fill="white"/>
<path fill-rule="evenodd" clip-rule="evenodd" d="M81.8334 16.1204H80.5758V12.8803C80.5758 11.8819 80.1966 11.3827 79.4358 11.3827C79.0626 11.3827 78.7614 11.5195 78.5274 11.7943C78.2958 12.0691 78.1782 12.3931 78.1782 12.7639V16.1192H76.9206V12.0799C76.9206 11.5831 76.905 11.0443 76.875 10.4611H77.9802L78.039 11.3455H78.0738C78.2202 11.0707 78.4386 10.8439 78.7254 10.6627C79.0662 10.4515 79.4478 10.3447 79.8654 10.3447C80.3934 10.3447 80.8326 10.5151 81.1818 10.8571C81.6162 11.2759 81.8334 11.9011 81.8334 12.7315V16.1204Z" fill="white"/>
<path fill-rule="evenodd" clip-rule="evenodd" d="M85.3033 16.1204H84.0469V7.86792H85.3033V16.1204Z" fill="white"/>
<path fill-rule="evenodd" clip-rule="evenodd" d="M91.9666 15.3864C92.4634 14.8273 92.7118 14.1145 92.7118 13.2445C92.7118 12.3997 92.4706 11.7085 91.9906 11.1733C91.4842 10.6225 90.8182 10.3477 89.9866 10.3477C89.1262 10.3477 88.4422 10.6273 87.9334 11.1853C87.4246 11.7433 87.1714 12.4621 87.1714 13.3381C87.1714 14.1757 87.4174 14.8705 87.9094 15.4212C88.4014 15.9732 89.0626 16.248 89.8942 16.248C90.7546 16.248 91.4458 15.9612 91.9666 15.3864ZM91.0696 11.9425C91.294 12.3157 91.4068 12.7633 91.4068 13.2853C91.4068 13.8073 91.2916 14.2585 91.0576 14.6389C90.7864 15.0985 90.4108 15.3277 89.9308 15.3277C89.4412 15.3277 89.062 15.1021 88.7896 14.6509C88.5652 14.2777 88.4524 13.8301 88.4524 13.3081C88.4524 12.7705 88.564 12.3157 88.7896 11.9425C89.0524 11.4913 89.4364 11.2657 89.9428 11.2657C90.43 11.2657 90.8068 11.4913 91.0696 11.9425Z" fill="white"/>
<path fill-rule="evenodd" clip-rule="evenodd" d="M97.6632 16.1196H98.7924C98.7384 15.786 98.7108 15.336 98.7108 14.7709V12.6877C98.7108 11.1277 97.9692 10.3477 96.4908 10.3477C95.7252 10.3477 95.076 10.5109 94.5504 10.8361L94.806 11.6617C95.2308 11.3833 95.7228 11.2429 96.2808 11.2429C97.0644 11.2429 97.4556 11.6149 97.4556 12.3601V12.4657C96.408 12.4573 95.5944 12.6361 95.016 13.0009C94.4364 13.3657 94.1484 13.8925 94.1484 14.5837C94.1484 15.0408 94.296 15.426 94.5912 15.7356C94.9164 16.0764 95.3484 16.248 95.8824 16.248C96.5976 16.248 97.1484 15.9876 97.5348 15.468H97.5696L97.6632 16.1196ZM97.4868 13.3029V14.1753C97.4868 14.2605 97.4796 14.3349 97.4664 14.3961C97.4124 14.6685 97.2672 14.8905 97.0308 15.0657C96.7956 15.2397 96.5376 15.3273 96.2616 15.3273C96.0156 15.3273 95.8092 15.2541 95.6472 15.1065C95.4852 14.9589 95.406 14.7381 95.406 14.4429C95.406 13.6593 96.0996 13.2789 97.4868 13.3029Z" fill="white"/>
<path fill-rule="evenodd" clip-rule="evenodd" d="M104.824 16.1208H105.94C105.91 15.6552 105.896 15.1476 105.896 14.5968V7.86841H104.637V11.1156H104.613C104.31 10.6032 103.779 10.3476 103.019 10.3476C102.328 10.3476 101.747 10.6116 101.273 11.1396C100.784 11.706 100.54 12.4476 100.54 13.3632C100.54 14.2164 100.764 14.9112 101.214 15.4464C101.664 15.9816 102.232 16.2492 102.914 16.2492C103.767 16.2492 104.374 15.9036 104.73 15.2124H104.765L104.824 16.1208ZM104.638 12.7918V13.735C104.638 14.1382 104.519 14.4838 104.277 14.7706C104.026 15.0814 103.696 15.2362 103.283 15.2362C102.823 15.2362 102.456 15.0502 102.184 14.6782C101.926 14.329 101.797 13.8754 101.797 13.3162C101.797 12.7342 101.933 12.2578 102.201 11.8846C102.471 11.5114 102.838 11.3254 103.307 11.3254C103.632 11.3254 103.914 11.4286 104.148 11.6338C104.38 11.839 104.532 12.0934 104.603 12.3958C104.626 12.4966 104.638 12.6286 104.638 12.7918Z" fill="white"/>
<path fill-rule="evenodd" clip-rule="evenodd" d="M115.952 15.3864C116.449 14.8273 116.698 14.1145 116.698 13.2445C116.698 12.3997 116.456 11.7085 115.976 11.1733C115.472 10.6225 114.804 10.3477 113.975 10.3477C113.112 10.3477 112.428 10.6273 111.919 11.1853C111.41 11.7433 111.157 12.4621 111.157 13.3381C111.157 14.1757 111.403 14.8705 111.895 15.4212C112.39 15.9732 113.051 16.248 113.88 16.248C114.743 16.248 115.432 15.9612 115.952 15.3864ZM115.058 11.9425C115.282 12.3157 115.395 12.7633 115.395 13.2853C115.395 13.8073 115.277 14.2585 115.046 14.6389C114.775 15.0985 114.397 15.3277 113.917 15.3277C113.427 15.3277 113.048 15.1021 112.775 14.6509C112.551 14.2777 112.438 13.8301 112.438 13.3081C112.438 12.7705 112.55 12.3157 112.775 11.9425C113.041 11.4913 113.425 11.2657 113.929 11.2657C114.418 11.2657 114.793 11.4913 115.058 11.9425Z" fill="white"/>
<path fill-rule="evenodd" clip-rule="evenodd" d="M123.457 16.1204H122.201V12.8803C122.201 11.8819 121.822 11.3827 121.06 11.3827C120.686 11.3827 120.385 11.5195 120.152 11.7943C119.92 12.0691 119.803 12.3931 119.803 12.7639V16.1192H118.544V12.0799C118.544 11.5831 118.53 11.0443 118.5 10.4611H119.604L119.663 11.3455H119.698C119.845 11.0707 120.064 10.8439 120.349 10.6627C120.691 10.4515 121.072 10.3447 121.49 10.3447C122.017 10.3447 122.456 10.5151 122.806 10.8571C123.241 11.2759 123.457 11.9011 123.457 12.7315V16.1204Z" fill="white"/>
<path fill-rule="evenodd" clip-rule="evenodd" d="M131.922 11.4055H130.537V14.1535C130.537 14.8519 130.783 15.2011 131.27 15.2011C131.496 15.2011 131.683 15.1819 131.831 15.1423L131.863 16.0963C131.615 16.1899 131.288 16.2367 130.886 16.2367C130.389 16.2367 130.003 16.0855 129.723 15.7831C129.443 15.4807 129.303 14.9719 129.303 14.2579V11.4055H128.477V10.4635H129.303V9.42669L130.536 9.05469V10.4623H131.921V11.4055H131.922Z" fill="white"/>
<path fill-rule="evenodd" clip-rule="evenodd" d="M138.585 16.1204H137.326V12.9043C137.326 11.8903 136.947 11.3827 136.187 11.3827C135.604 11.3827 135.205 11.6767 134.987 12.2647C134.95 12.3883 134.928 12.5395 134.928 12.7171V16.1192H133.672V7.86792H134.928V11.2771H134.952C135.348 10.6567 135.916 10.3471 136.651 10.3471C137.172 10.3471 137.603 10.5175 137.945 10.8595C138.371 11.2855 138.585 11.9191 138.585 12.7567V16.1204Z" fill="white"/>
<path fill-rule="evenodd" clip-rule="evenodd" d="M145.396 13.5957C145.426 13.4409 145.443 13.2513 145.443 13.0257C145.443 12.3201 145.276 11.7261 144.939 11.2461C144.522 10.6413 143.904 10.3389 143.09 10.3389C142.258 10.3389 141.6 10.6413 141.112 11.2461C140.646 11.8125 140.414 12.5229 140.414 13.3761C140.414 14.2449 140.662 14.9373 141.164 15.4533C141.663 15.9693 142.353 16.2273 143.229 16.2273C143.96 16.2273 144.591 16.1109 145.128 15.8781L144.931 15.0045C144.472 15.1833 143.964 15.2721 143.406 15.2721C142.902 15.2721 142.49 15.1401 142.171 14.8761C141.822 14.5809 141.642 14.1549 141.625 13.5957H145.396ZM144 11.7345C144.17 12.0057 144.253 12.3273 144.243 12.7005H141.625C141.666 12.3201 141.789 11.9949 141.998 11.7225C142.254 11.3805 142.588 11.2101 142.999 11.2101C143.449 11.2101 143.781 11.3853 144 11.7345Z" fill="white"/>
</g>
<defs>
<clipPath id="clip0_419_7464">
<rect width="162" height="48" fill="white"/>
</clipPath>
</defs>
</svg>
