<svg width="162" height="48" viewBox="0 0 162 48" fill="none" xmlns="http://www.w3.org/2000/svg">
<g clip-path="url(#clip0_419_7491)">
<path fill-rule="evenodd" clip-rule="evenodd" d="M0.344727 42C0.344727 45.2948 3.02938 48 6.32582 48H155.793C159.087 48 161.774 45.2948 161.774 42V6C161.774 2.70524 159.087 0 155.793 0H6.32582C3.02938 0 0.344727 2.70524 0.344727 6V42ZM160.82 5.99924C160.82 3.22518 158.556 0.959839 155.792 0.959839H6.3239C3.5442 0.959839 1.2961 3.22518 1.2961 5.99924V41.9993C1.2961 44.7733 3.55906 47.0387 6.3239 47.0387H155.792C158.571 47.0387 160.82 44.7733 160.82 41.9993V5.99924Z" fill="#C0C0C0"/>
<path fill-rule="evenodd" clip-rule="evenodd" d="M82.6846 14.7506C83.4033 15.4986 84.3121 15.8787 85.3902 15.8787C86.4682 15.8787 87.3769 15.5016 88.0926 14.7476C88.8053 14.0174 89.1736 13.0927 89.1854 11.9975C89.1854 10.9291 88.8172 10.0044 88.0926 9.24732C87.362 8.4992 86.4533 8.11914 85.3871 8.11914C84.3092 8.11914 83.4004 8.4992 82.6846 9.24732C81.96 9.98049 81.5918 10.9052 81.5918 11.9975C81.574 13.0209 81.972 14.0234 82.6846 14.7506ZM50.5943 14.7663C51.3426 15.5055 52.2573 15.8796 53.3117 15.8796C54.4105 15.8796 55.3191 15.5085 56.0141 14.7783C56.6259 14.1618 56.9347 13.3269 56.9347 12.2945C56.9347 12.115 56.9079 11.9205 56.8813 11.7319L56.8664 11.6302H53.1779V12.7494H55.7587C55.6934 13.2791 55.5093 13.698 55.2122 13.9973C54.7103 14.506 54.066 14.7633 53.2997 14.7633C52.581 14.7633 51.9544 14.506 51.4376 13.9973C50.918 13.4855 50.6537 12.8152 50.6537 12.0042C50.6537 11.1933 50.918 10.523 51.4376 10.0112C51.9544 9.5025 52.581 9.24515 53.2997 9.24515C54.1046 9.24515 54.7134 9.51149 55.1677 10.0561L55.2508 10.1549L56.0556 9.35886L55.9844 9.27207C55.6963 8.92794 55.3073 8.64665 54.8292 8.44016C54.3421 8.2277 53.8343 8.12295 53.3117 8.12295C52.2425 8.12295 51.3277 8.49702 50.5943 9.23616C49.8518 9.97233 49.4746 10.903 49.4746 12.0013C49.4746 13.0995 49.8518 14.0302 50.5943 14.7663ZM95.9564 15.7205H94.8189L91.3354 10.1034L91.365 11.1149V15.7175H90.2276V8.28101H91.5254L91.561 8.33787L94.8367 13.6286L94.8071 12.6202V8.28101H95.9564V15.7205ZM75.689 15.7205H76.8383V9.40035H78.837V8.28116H73.6904V9.40035H75.689V15.7205ZM72.7536 15.7205H71.6042V8.28101H72.7536V15.7205ZM65.1419 15.7205H66.2912V9.40022H68.2899V8.28101H63.1433V9.40022H65.1419V15.7205ZM62.4188 15.7085H58.0117V8.28101H62.4188V9.40022H59.164V11.4411H62.101V12.5483H59.164V14.5892H62.4188V15.7085ZM85.3884 14.7594C84.6637 14.7594 84.0401 14.4991 83.5263 13.9814C83.0244 13.4756 82.7719 12.8053 82.7719 12.0003C82.7719 11.1953 83.0273 10.528 83.5322 10.0193C84.0372 9.49557 84.6458 9.24122 85.3913 9.24122C86.113 9.24122 86.7396 9.50156 87.2533 10.0193C87.7552 10.525 88.0106 11.1953 88.0106 12.0003C88.0106 12.8053 87.7552 13.4726 87.2504 13.9814C86.7426 14.5051 86.1337 14.7594 85.3884 14.7594Z" fill="white"/>
<path fill-rule="evenodd" clip-rule="evenodd" d="M81.4867 26.1076C78.6803 26.1076 76.4054 28.2532 76.4054 31.2128C76.4054 34.1455 78.695 36.3181 81.4867 36.3181C84.293 36.3181 86.5679 34.1575 86.5679 31.2128C86.5679 28.2532 84.293 26.1076 81.4867 26.1076ZM81.4864 34.2952C79.9511 34.2952 78.6295 33.0143 78.6295 31.2008C78.6295 29.3605 79.954 28.1066 81.4864 28.1066C83.0217 28.1066 84.3434 29.3605 84.3434 31.2008C84.3463 33.0263 83.0217 34.2952 81.4864 34.2952ZM70.3952 26.1076C67.5887 26.1076 65.314 28.2532 65.314 31.2128C65.314 34.1455 67.6036 36.3181 70.3952 36.3181C73.2016 36.3181 75.4764 34.1575 75.4764 31.2128C75.4764 28.2532 73.1986 26.1076 70.3952 26.1076ZM70.3949 34.2952C68.8595 34.2952 67.5381 33.0143 67.5381 31.2008C67.5381 29.3605 68.8625 28.1066 70.3949 28.1066C71.9303 28.1066 73.2518 29.3605 73.2518 31.2008C73.2518 33.0263 71.9303 34.2952 70.3949 34.2952ZM57.2079 27.6665V29.8271H62.3545C62.1971 31.0391 61.7991 31.9339 61.1903 32.5474C60.436 33.3074 59.2718 34.1333 57.2197 34.1333C54.057 34.1333 51.5831 31.5598 51.5831 28.3727C51.5831 25.1858 54.057 22.6121 57.2197 22.6121C58.9273 22.6121 60.1716 23.2915 61.0953 24.1594L62.6158 22.6271C61.3329 21.3883 59.6253 20.4397 57.2316 20.4397C52.8928 20.4397 49.252 24.0007 49.252 28.3609C49.252 32.7329 52.8899 36.2821 57.2316 36.2821C59.5747 36.2821 61.3329 35.5099 62.7227 34.0556C64.1393 32.6281 64.5878 30.6142 64.5878 28.9892C64.5878 28.4836 64.5492 28.0286 64.4689 27.6427H57.205C57.2079 27.6397 57.2079 27.6665 57.2079 27.6665ZM111.17 29.3486C110.745 28.2025 109.462 26.0957 106.831 26.0957C104.224 26.0957 102.056 28.1636 102.056 31.201C102.056 34.0678 104.2 36.3062 107.084 36.3062C109.4 36.3062 110.748 34.8788 111.304 34.0409L109.584 32.8798C109.014 33.7327 108.221 34.2923 107.096 34.2923C105.958 34.2923 105.162 33.7715 104.634 32.7451L111.408 29.9171C111.408 29.9201 111.17 29.3486 111.17 29.3486ZM104.258 31.0538C104.205 29.0818 105.779 28.0793 106.904 28.0793C107.792 28.0793 108.532 28.5191 108.784 29.1596L104.258 31.0538ZM98.7571 36.0007H100.981V21.0022H98.7571V36.0007ZM95.1055 27.242H95.0252C94.5233 26.6405 93.57 26.0959 92.3525 26.0959C89.8251 26.0959 87.4969 28.3373 87.4969 31.2161C87.4969 34.0829 89.8134 36.2974 92.3525 36.2974C93.5553 36.2974 94.5233 35.7497 95.0252 35.1362H95.1055V35.8694C95.1055 37.8176 94.0719 38.8679 92.406 38.8679C91.0428 38.8679 90.1964 37.8805 89.8519 37.0544L87.9186 37.8685C88.4739 39.215 89.9559 40.882 92.403 40.882C95.0103 40.882 97.2199 39.3347 97.2199 35.5612V26.4011H95.1172V27.242C95.1203 27.242 95.1055 27.242 95.1055 27.242ZM92.5473 34.2952C91.012 34.2952 89.729 33.0023 89.729 31.2158C89.729 29.4143 91.012 28.1096 92.5473 28.1096C94.0678 28.1096 95.2468 29.4293 95.2468 31.2158C95.2617 33.0023 94.0707 34.2952 92.5473 34.2952ZM121.58 21.0022H116.261V36.0007H118.485V30.3208H121.583C124.045 30.3208 126.465 28.5223 126.465 25.6675C126.465 22.8125 124.054 21.0022 121.58 21.0022ZM121.649 28.2253H118.486V23.0782H121.649C123.315 23.0782 124.256 24.4637 124.256 25.6517C124.256 26.8277 123.303 28.2253 121.649 28.2253ZM135.377 26.0804C133.761 26.0804 132.096 26.8016 131.406 28.3726L133.378 29.1986C133.803 28.3726 134.581 28.0913 135.404 28.0913C136.556 28.0913 137.72 28.7857 137.747 30.0245V30.1831C137.349 29.9557 136.476 29.6086 135.431 29.6086C133.301 29.6086 131.142 30.7816 131.142 32.9812C131.142 34.9951 132.888 36.2878 134.834 36.2878C136.327 36.2878 137.15 35.6086 137.664 34.8215H137.744V35.9827H139.888V30.2369C139.888 27.5617 137.916 26.0804 135.377 26.0804ZM135.098 34.2949C134.37 34.2949 133.351 33.9358 133.351 33.0142C133.351 31.853 134.622 31.4131 135.706 31.4131C136.686 31.4131 137.15 31.6256 137.732 31.9189C137.571 33.2656 136.443 34.283 135.098 34.2949ZM147.714 26.4005L145.159 32.9063H145.079L142.433 26.4005H140.04L144.01 35.4949L141.747 40.5493H144.064L150.172 26.4005H147.714ZM127.69 36.0007H129.915V21.0022H127.69V36.0007Z" fill="white"/>
<path fill-rule="evenodd" clip-rule="evenodd" d="M12.77 9.04099C12.4255 9.41506 12.2266 9.98664 12.2266 10.7348V37.2694C12.2266 38.0176 12.4255 38.5891 12.7819 38.9482L12.874 39.0291L27.6277 24.1623V23.83L12.8621 8.96021L12.77 9.04099Z" fill="#00A0FF"/>
<path fill-rule="evenodd" clip-rule="evenodd" d="M32.5429 29.1328L27.6221 24.1741V23.827L32.5429 18.8684L32.6498 18.9341L38.4706 22.2679C40.1366 23.2135 40.1366 24.7756 38.4706 25.7332L32.6498 29.0669L32.5429 29.1328Z" fill="#FFE000"/>
<path fill-rule="evenodd" clip-rule="evenodd" d="M32.645 29.0664L27.6173 24L12.7715 38.9597C13.315 39.5462 14.2267 39.612 15.2454 39.0403L32.645 29.0664Z" fill="#FF3A44"/>
<path fill-rule="evenodd" clip-rule="evenodd" d="M32.645 18.9339L15.2454 8.97483C14.2267 8.38829 13.312 8.46909 12.7715 9.05562L27.6173 24.0003L32.645 18.9339Z" fill="#32A071"/>
<path opacity="0.2" fill-rule="evenodd" clip-rule="evenodd" d="M32.541 28.9592L15.26 38.8525C14.2948 39.412 13.4335 39.3731 12.8782 38.8643L12.7861 38.9572L12.8782 39.038C13.4335 39.5437 14.2948 39.5855 15.26 39.026L32.6598 29.0669L32.541 28.9592Z" fill="#434C50"/>
<path opacity="0.12" fill-rule="evenodd" clip-rule="evenodd" d="M38.4659 25.5591L32.5234 28.9586L32.6304 29.0664L38.451 25.7326C39.2856 25.2538 39.6953 24.6255 39.6953 24C39.645 24.5745 39.2202 25.1192 38.4659 25.5591Z" fill="#434C50"/>
<path opacity="0.25" fill-rule="evenodd" clip-rule="evenodd" d="M15.2438 9.14873L38.4643 22.4415C39.2186 22.8694 39.6434 23.4291 39.7086 24.0006C39.7086 23.3752 39.2989 22.7467 38.4643 22.2679L15.2438 8.97516C13.5778 8.01458 12.2266 8.81657 12.2266 10.7348V10.9083C12.2266 8.98713 13.5778 8.20011 15.2438 9.14873Z" fill="white"/>
</g>
<defs>
<clipPath id="clip0_419_7491">
<rect width="162" height="48" fill="white"/>
</clipPath>
</defs>
</svg>
