<svg width="162" height="48" viewBox="0 0 162 48" fill="none" xmlns="http://www.w3.org/2000/svg">
<g clip-path="url(#clip0_419_7504)">
<path fill-rule="evenodd" clip-rule="evenodd" d="M162 44.0324V3.97121C161.686 1.41465 159.946 0.418213 157.679 0H3.96467C1.68198 0.363664 0.360424 1.6874 0 3.97121V44.0324C0.360424 46.1126 1.58587 47.4218 3.60424 48H157.675C160.01 47.6691 161.64 46.5344 162 44.0324ZM155.343 1.09087H80.9979C76.0183 1.09087 71.0386 1.09233 66.059 1.09378C46.1406 1.0996 26.2227 1.10542 6.30714 1.01814C2.94799 1.00359 0.980069 3.13466 1.01611 6.24399C1.11796 15.0083 1.10421 23.7747 1.09047 32.54C1.08573 35.5624 1.08099 38.5846 1.08099 41.6067C1.08099 45.1706 2.81103 46.9125 6.36481 46.9125C56.3317 46.898 106.305 46.9077 156.283 46.9416C156.934 46.9763 157.583 46.8592 158.182 46.5993C158.78 46.3395 159.311 45.9439 159.733 45.4433C160.789 44.2614 160.918 42.8759 160.918 41.4212V6.77858C160.915 2.71645 159.307 1.09087 155.343 1.09087Z" fill="#C0C0C0"/>
<path d="M152.038 25.9184C152.009 26.4586 152.009 27.0001 152.038 27.5403C152.142 28.4931 151.908 28.9332 150.805 28.915C149.785 28.8932 149.425 28.6095 149.497 27.584C149.576 26.4457 149.529 25.3002 149.497 24.1583C149.475 23.2818 149.108 22.6381 148.138 22.569C147.168 22.4999 146.419 22.8963 146.303 23.8855C146.156 25.1964 146.112 26.5169 146.17 27.8349C146.213 28.795 145.81 28.9259 145.009 28.8895C144.271 28.8495 143.568 28.9913 143.651 27.8276C143.734 26.6639 143.651 25.5438 143.672 24.4019C143.694 23.3618 143.373 22.6381 142.198 22.5836C141.023 22.529 140.429 23.2127 140.367 24.3219C140.293 25.4626 140.293 26.6069 140.367 27.7476C140.447 28.8022 139.924 28.8786 139.084 28.8968C138.244 28.915 137.805 28.7368 137.844 27.7294C137.924 25.6893 137.844 23.6419 137.873 21.5981C137.873 21.1398 137.787 20.4307 138.504 20.6016C140.205 21.0089 142.007 20.0016 143.492 20.5543C145.11 21.158 146.376 20.9435 147.911 20.5034C150.023 19.8998 151.739 21.2308 151.969 23.3946C152.013 24.2353 152.013 25.0777 151.969 25.9184H152.038Z" fill="#FCFCFA"/>
<path d="M58.0283 29.0931C56.9639 29.0627 55.9113 28.8601 54.9106 28.4931C54.2618 28.2312 53.5302 28.0567 53.9915 26.973C54.4024 25.9983 54.8782 26.1438 55.6243 26.4784C56.6118 26.9184 57.6715 27.2421 58.7635 26.9911C59.3078 26.8675 60.0575 26.813 60.0935 26.0165C60.1296 25.2201 59.5349 25.0092 58.9438 24.8346C58.0211 24.5655 57.0732 24.3873 56.1721 24.0709C54.9142 23.6345 53.9411 22.8999 53.923 21.3871C53.905 19.8052 54.6908 18.7578 56.1216 18.245C57.7862 17.6845 59.5897 17.7075 61.2397 18.3105C61.8055 18.496 62.3894 18.6742 61.9894 19.5797C61.6542 20.3288 61.4811 20.7834 60.4756 20.3288C59.5853 19.9288 58.5581 19.5724 57.5201 20.0197C57.0876 20.2088 56.5722 20.3216 56.5145 20.9216C56.4532 21.5871 56.8749 21.9144 57.4264 22.089C58.1076 22.3035 58.814 22.4526 59.506 22.6417C61.9065 23.2818 62.8003 24.1837 62.7102 25.8638C62.6129 27.6457 61.3298 28.7295 58.9654 29.0204C58.6734 29.0531 58.3887 29.064 58.0283 29.0931Z" fill="#FBFBF9"/>
<path d="M84.2956 25.511C83.8154 25.4854 83.3342 25.4854 82.8539 25.511C82.3674 25.5656 81.5997 25.1801 81.4663 25.8492C81.3329 26.5184 82.1007 26.7839 82.6557 26.9402C83.0221 27.0746 83.4147 27.12 83.8017 27.0726C84.1888 27.0252 84.5592 26.8864 84.8831 26.6675C85.831 26.0202 86.2491 26.9257 86.5411 27.4494C86.9015 28.1112 86.1807 28.3476 85.7013 28.5404C83.737 29.3404 81.8159 29.2677 80.0967 27.9585C78.691 26.8857 78.2441 24.7655 78.9145 23.0381C79.289 22.181 79.919 21.463 80.7168 20.9839C81.5146 20.5049 82.4405 20.2886 83.3657 20.3652C85.3445 20.547 86.8294 21.7507 87.2908 23.5327C87.6512 24.8855 87.4566 25.7874 85.7301 25.5292C85.2503 25.4924 84.7683 25.4924 84.2884 25.5292L84.2956 25.511Z" fill="#F9F9F8"/>
<path d="M97.2285 25.5038C98.3494 27.2494 99.6289 27.4385 100.854 26.8021C101.878 26.2711 102.375 26.7003 102.7 27.413C103.136 28.3767 102.119 28.4677 101.618 28.6677C99.7767 29.395 97.9674 29.2495 96.3743 28.0131C95.0191 26.9585 94.6262 25.5074 94.9578 23.8419C95.1743 22.8248 95.7381 21.9169 96.5507 21.2767C97.3633 20.6365 98.373 20.3047 99.4034 20.3394C100.434 20.374 101.419 20.7729 102.188 21.4663C102.956 22.1597 103.459 23.1035 103.608 24.1328C103.752 25.1074 103.547 25.6165 102.433 25.5147C101.6 25.4383 100.757 25.5147 99.91 25.5147L97.2285 25.5038Z" fill="#F9F9F7"/>
<path d="M111.371 25.5001C112.405 27.3802 113.793 27.4275 114.957 26.7983C116.064 26.1947 116.475 26.8602 116.759 27.4529C117.141 28.213 116.28 28.4312 115.79 28.6276C113.955 29.3549 112.146 29.2567 110.499 28.1221C109.129 27.1765 108.762 25.7583 108.931 24.1654C109.172 21.9652 110.903 20.4088 113.173 20.3651C115.556 20.3069 117.351 21.8452 117.642 24.1363C117.765 25.1073 117.538 25.591 116.439 25.5328C114.853 25.4564 113.26 25.5001 111.371 25.5001Z" fill="#F9F9F8"/>
<path d="M71.5159 25.8201C71.5159 26.242 71.5159 26.6602 71.5159 27.082C71.5159 28.9003 71.1555 29.3076 69.4939 28.7767C69.2687 28.6902 69.0286 28.6501 68.7878 28.6588C68.547 28.6676 68.3103 28.725 68.0919 28.8276C67.128 29.2016 66.0586 29.1885 65.104 28.7912C64.6165 28.6291 64.1965 28.3075 63.9106 27.8773C63.6246 27.4472 63.489 26.9331 63.5253 26.4165C63.5213 25.929 63.6777 25.454 63.9699 25.0658C64.262 24.6775 64.6736 24.398 65.14 24.2709C65.9976 24.0014 66.8958 23.8882 67.7927 23.9363C68.1531 23.9363 68.737 24.1618 68.8235 23.5727C68.8433 23.3287 68.7751 23.0858 68.6313 22.8887C68.4876 22.6915 68.2781 22.5534 68.0414 22.4998C67.644 22.3571 67.2219 22.2979 66.801 22.3261C66.3801 22.3542 65.9694 22.4691 65.5941 22.6635C64.7688 23.1072 64.4912 22.7471 64.1524 22.0598C63.6695 21.1143 64.4588 21.027 64.9309 20.8234C68.9208 19.0778 71.5159 21.0597 71.5159 25.8201Z" fill="#FAFAF9"/>
<path d="M136.37 24.6528C136.395 27.2748 134.539 29.0932 131.796 29.0932C129.223 29.1222 127.269 27.2748 127.237 24.7874C127.204 22.2417 129.169 20.3179 131.821 20.3252C134.409 20.3652 136.348 22.1835 136.37 24.6528Z" fill="#FAFAF8"/>
<path d="M91.2126 18.0449C92.4092 18.0449 93.6058 18.0994 94.7952 18.0449C95.6638 17.994 95.9269 18.2667 95.9197 19.1359C95.9125 20.005 95.4944 20.3323 94.7195 20.1723C92.557 19.7287 92.2975 20.8997 92.4488 22.6489C92.5786 24.1945 92.4488 25.7655 92.4885 27.3183C92.5209 28.3293 92.4885 28.9512 91.1225 28.9403C89.825 28.9403 89.8538 28.3111 89.8682 27.402C89.9042 25.4855 89.8069 23.5653 89.9079 21.6524C89.9691 20.4451 89.5474 20.0123 88.3977 20.176C88.1021 20.216 87.7958 20.1505 87.5002 20.176C86.5883 20.2923 86.4189 19.8123 86.4189 19.0159C86.4189 18.2195 86.7289 18.0085 87.4642 18.034C88.7004 18.0776 89.9583 18.0449 91.2126 18.0449Z" fill="#FCFCFA"/>
<path d="M123.33 29.0932C121.106 29.0932 119.365 27.9294 118.814 26.1039C118.531 25.2142 118.529 24.2574 118.81 23.367C119.091 22.4766 119.641 21.6967 120.382 21.1362C121.906 20.0634 124.588 20.0743 125.947 21.2235C126.343 21.5617 127.216 21.9508 126.635 22.5763C126.188 23.0454 125.583 23.8855 124.545 22.9909C123.37 21.9763 122.022 22.3072 121.377 23.4891C121.07 24.0451 120.989 24.6998 121.152 25.3147C121.315 25.9295 121.708 26.4564 122.249 26.7839C123.085 27.2385 123.903 27.173 124.552 26.4893C125.482 25.5111 126.196 26.373 126.639 26.8785C127.172 27.4858 126.311 27.9258 125.918 28.2567C125.168 28.8895 124.199 29.0386 123.33 29.0932Z" fill="#F9F9F7"/>
<path d="M76.8715 17.2812C77.2319 17.5467 78.3132 16.8666 78.3132 18.0631C78.3132 18.8522 77.9852 19.4086 76.9688 19.2013C76.8338 19.1714 76.6938 19.1741 76.56 19.2093C76.4263 19.2444 76.3027 19.311 76.1994 19.4036C76.096 19.4962 76.0159 19.6121 75.9654 19.7419C75.915 19.8717 75.8957 20.0117 75.9092 20.1505C75.9092 20.9069 76.5759 20.6742 76.9904 20.6742C77.632 20.6742 78.0032 20.8378 77.9924 21.5797C77.9816 22.3216 77.8482 22.798 77.0048 22.6707C75.9236 22.518 75.8731 23.158 75.8983 23.9726C75.9416 25.1727 75.8515 26.3801 75.9272 27.5729C75.9957 28.5839 75.6713 28.893 74.6405 28.9112C73.5592 28.9112 73.3501 28.5002 73.4078 27.5511C73.4763 26.4164 73.4366 25.2709 73.4078 24.129C73.4078 23.4562 73.6313 22.7543 72.4959 22.5725C71.7751 22.4525 72.031 21.1179 72.1896 21.0924C73.588 20.7287 73.3069 19.3504 73.8836 18.5213C74.572 17.5794 75.5271 17.1394 76.8715 17.2812Z" fill="#F9F9F8"/>
<path d="M107.598 23.2746C107.598 24.6528 107.554 26.0348 107.598 27.413C107.641 28.3877 107.54 28.9041 106.3 28.9259C104.93 28.9513 105.096 28.1986 105.1 27.3585C105.1 24.4201 105.136 21.4781 105.1 18.5397C105.1 17.6232 105.323 17.3177 106.286 17.3105C107.248 17.3032 107.673 17.5359 107.619 18.5942C107.536 20.1543 107.598 21.7181 107.598 23.2746Z" fill="#FBFAF9"/>
<path d="M67.5296 39.7667C65.8536 39.7667 64.7075 38.712 64.6895 37.181C64.6883 36.8034 64.7639 36.4295 64.9116 36.0826C65.0593 35.7356 65.276 35.4229 65.5483 35.1638C65.8206 34.9048 66.1427 34.7048 66.4947 34.5764C66.8466 34.448 67.2209 34.3938 67.5945 34.4172C69.1804 34.4463 70.4022 35.5882 70.4346 37.0792C70.4671 38.6757 69.2741 39.7812 67.5296 39.7667Z" fill="#EFEEED"/>
<path d="M93.9665 10.3718C93.9665 11.51 93.9665 12.1537 93.9665 12.801C93.9665 13.1465 93.8656 13.3647 93.4799 13.3829C93.0943 13.4011 92.7807 13.2774 92.7771 12.8083C92.7032 11.4978 92.7032 10.184 92.7771 8.87347C92.896 7.74248 93.6457 8.14614 94.1287 8.62618C94.7739 9.28078 95.3181 10.0336 95.9524 10.8082C96.4318 10.0554 96.1363 9.3826 96.2552 8.76074C96.263 8.67147 96.2899 8.58498 96.334 8.50717C96.378 8.42936 96.4382 8.36207 96.5104 8.30992C96.5827 8.25777 96.6652 8.22198 96.7524 8.20501C96.8396 8.18804 96.9294 8.19029 97.0157 8.2116C97.3761 8.2407 97.5095 8.48435 97.5095 8.81892C97.5095 10.1317 97.632 11.4628 97.459 12.7538C97.3221 13.772 96.6084 13.4811 96.111 12.9392C95.4767 12.241 94.9 11.4919 93.9665 10.3718Z" fill="#F3F2F1"/>
<path d="M91.1872 10.7425C91.1692 12.3972 90.0302 13.4518 88.2786 13.4337C86.6278 13.4337 85.4997 12.3427 85.4961 10.8044C85.4925 9.26607 86.6747 8.10962 88.4119 8.10962C90.0302 8.10962 91.1872 9.21516 91.1872 10.7425Z" fill="#F1F0EF"/>
<path d="M76.2482 39.5813C75.3363 39.9849 75.0192 39.3849 74.6047 38.8539C74.1037 38.2175 73.4874 37.6247 73.2603 39.0285C73.1702 39.5776 72.9431 39.7558 72.4457 39.6904C71.9483 39.6249 72.006 39.2285 71.9988 38.9012C71.9375 38.1861 71.9375 37.467 71.9988 36.752C72.1069 36.0246 71.469 34.8354 72.4926 34.6172C73.5739 34.3845 74.893 34.1445 75.8626 35.1482C76.6663 35.9774 76.5293 36.8611 75.8626 37.7157C75.3039 38.4575 76.2554 38.8758 76.2482 39.5813Z" fill="#F3F3F1"/>
<path d="M112.294 10.8262C112.335 11.0669 112.335 11.3129 112.294 11.5536C112.081 12.1463 112.874 13.15 111.782 13.3319C110.69 13.5137 111.133 12.4918 111.003 11.9499C110.82 11.2044 110.225 11.3572 109.709 11.3354C109.072 11.3099 108.708 11.5245 108.729 12.2591C108.729 12.7173 109.003 13.4737 108.062 13.3501C107.212 13.2519 107.54 12.5536 107.529 12.0809C107.496 10.9899 107.529 9.92798 107.529 8.85153C107.529 8.41877 107.72 8.18603 108.163 8.17512C108.607 8.16421 108.754 8.44059 108.754 8.85517C108.754 9.54613 108.56 10.2844 109.749 10.2698C110.812 10.2698 111.101 9.81524 111.05 8.87335C111.035 8.7839 111.04 8.69212 111.066 8.60507C111.091 8.51802 111.136 8.43803 111.197 8.37127C111.258 8.30451 111.333 8.25276 111.417 8.22001C111.501 8.18727 111.591 8.17439 111.681 8.18239C112.294 8.18239 112.305 8.59333 112.305 9.02973V10.8262H112.294Z" fill="#EEEDEC"/>
<path d="M114.153 10.7281C114.153 8.14975 114.874 7.58971 117.455 8.18248C117.761 8.25158 118.046 8.28067 118.06 8.66979C118.074 8.74318 118.071 8.81867 118.052 8.89075C118.032 8.96283 117.998 9.0297 117.95 9.08649C117.902 9.14327 117.842 9.18854 117.774 9.219C117.707 9.24946 117.633 9.26434 117.559 9.26256C117.439 9.25783 117.318 9.26637 117.199 9.28802C116.644 9.47349 115.595 8.87344 115.584 9.74624C115.573 10.619 116.604 10.1717 117.184 10.2335C117.545 10.2735 117.79 10.4227 117.83 10.7245C117.905 11.2918 117.43 11.1827 117.109 11.2045C116.788 11.2263 116.388 11.2045 116.028 11.2045C115.725 11.2045 115.458 11.2591 115.415 11.6773C115.357 12.2046 115.671 12.2701 116.053 12.2992C116.172 12.2803 116.294 12.2803 116.413 12.2992C116.99 12.5319 118.14 11.7428 118.093 12.9137C118.057 13.7647 117.011 13.3101 116.442 13.3283C114.168 13.4047 114.164 13.372 114.153 10.7281Z" fill="#F3F2F0"/>
<path d="M60.8252 10.648C60.8252 8.16416 61.6434 7.55684 64.1267 8.17507C64.4222 8.2478 64.7178 8.29871 64.7358 8.68056C64.761 9.17878 64.4258 9.25515 64.0366 9.26606C63.9779 9.25875 63.9186 9.25875 63.86 9.26606C63.2977 9.45153 62.2345 8.88421 62.2309 9.73882C62.2272 10.5934 63.2761 10.1025 63.8528 10.2116C64.1771 10.2807 64.4258 10.3789 64.4511 10.7316C64.4763 11.0844 64.1916 11.1935 63.8672 11.1898C63.4491 11.1898 63.0346 11.1898 62.6165 11.208C62.5425 11.2026 62.4682 11.2148 62.3998 11.2437C62.3313 11.2726 62.2705 11.3174 62.2224 11.3744C62.1743 11.4314 62.1402 11.4991 62.1229 11.5719C62.1056 11.6448 62.1055 11.7207 62.1227 11.7935C62.1207 11.9132 62.1653 12.0289 62.2468 12.1159C62.3283 12.2029 62.4403 12.2543 62.5588 12.259C62.7362 12.2525 62.9138 12.2647 63.0887 12.2954C63.6653 12.499 64.8079 11.7353 64.7394 12.9318C64.6926 13.7755 63.6581 13.2955 63.1031 13.3318C60.8252 13.4118 60.8252 13.3755 60.8252 10.648Z" fill="#EBEAE8"/>
<path d="M78.111 37.0683C78.138 36.6505 78.138 36.2314 78.111 35.8137C77.974 34.7954 78.3741 34.3808 79.3941 34.519C79.7545 34.5699 80.1149 34.479 80.4754 34.519C81.0088 34.6026 81.9171 34.1553 81.9783 34.959C82.0432 36.0209 81.016 35.4427 80.4754 35.5918C80.1149 35.6936 79.4806 35.4536 79.4301 35.9882C79.3617 36.7446 80.0717 36.4537 80.4826 36.5483C80.8935 36.6428 81.7477 36.25 81.69 37.1337C81.6431 37.8393 80.9295 37.4029 80.5258 37.5192C80.1222 37.6356 79.4446 37.2501 79.4157 38.0211C79.3833 38.9302 80.1366 38.5629 80.6051 38.6211C80.9028 38.6393 81.2013 38.6393 81.499 38.6211C81.5718 38.6107 81.6461 38.6162 81.7167 38.6372C81.7873 38.6582 81.8526 38.6942 81.9083 38.7428C81.9639 38.7913 82.0086 38.8514 82.0394 38.9188C82.0701 38.9863 82.0862 39.0596 82.0865 39.1339C82.1189 39.4976 81.9279 39.6721 81.5747 39.6758C80.6195 39.6758 79.6644 39.6758 78.7093 39.6758C78.248 39.6758 78.1038 39.4539 78.1218 39.0103C78.1362 38.3884 78.1146 37.7265 78.111 37.0683Z" fill="#F4F3F2"/>
<path d="M59.0518 11.8119C59.1635 13.5466 57.8624 13.3648 56.8496 13.4193C56.2434 13.486 55.6341 13.3264 55.1367 12.9706C54.6393 12.6148 54.2883 12.0874 54.15 11.4883C53.9668 10.97 53.9656 10.4039 54.1467 9.88485C54.3278 9.3658 54.6802 8.9253 55.1448 8.63713C56.226 7.9098 57.3938 7.94253 58.5508 8.52439C58.8319 8.66622 59.0914 8.83351 58.9112 9.20444C58.7598 9.48447 58.5039 9.69175 58.1903 9.53174C57.9099 9.35755 57.5943 9.24914 57.2668 9.21452C56.9393 9.1799 56.6082 9.21995 56.2981 9.33173C55.4655 9.66266 55.3106 10.35 55.4043 11.1028C55.5124 11.9392 56.1251 12.2847 56.9108 12.361C57.6966 12.4374 58.057 12.1647 57.9705 11.3646C57.92 10.9028 58.1651 10.6773 58.594 10.7209C59.3798 10.8046 58.904 11.4592 59.0518 11.8119Z" fill="#EFEEED"/>
<path d="M57.0231 35.5773C56.3563 35.5482 55.7075 35.3591 55.5814 35.941C55.4372 36.6683 56.2229 36.4428 56.6014 36.6356C57.2609 36.9665 58.1908 36.941 58.3026 37.9811C58.3594 38.2816 58.3155 38.5927 58.1778 38.8653C58.0401 39.1379 57.8165 39.3565 57.5421 39.4867C57.082 39.7095 56.5776 39.8233 56.0672 39.8195C55.5569 39.8157 55.0542 39.6944 54.5974 39.4649C54.5061 39.402 54.4303 39.3188 54.3759 39.2217C54.3216 39.1246 54.2901 39.0162 54.2838 38.9048C54.2838 38.5193 54.5974 38.4502 54.9254 38.5084C55.1493 38.5881 55.3815 38.6417 55.6174 38.6684C56.0535 38.6394 56.7239 38.9776 56.8645 38.3702C57.005 37.7629 56.2626 37.7447 55.8625 37.6429C54.8677 37.3665 53.8874 37.0138 54.2298 35.7519C54.5722 34.4899 55.6715 34.2536 56.832 34.4863C57.279 34.5736 58.0827 34.4027 57.9566 35.2718C57.8304 36.141 57.2213 35.5228 57.0231 35.5773Z" fill="#EDECEB"/>
<path d="M61.7295 34.5481C62.2629 34.5481 62.8108 34.5481 63.337 34.5481C63.5929 34.5481 63.8163 34.719 63.7803 34.9845C63.7551 35.1881 63.5785 35.5373 63.4703 35.5373C61.7583 35.5373 62.317 36.7774 62.2521 37.6756C62.2269 38.0393 62.2521 38.4029 62.2521 38.7666C62.2521 39.2394 62.3314 39.7776 61.5817 39.7449C60.832 39.7121 60.9654 39.1521 60.9474 38.7011C60.9257 38.1047 60.9221 37.5083 60.9474 36.9119C60.9798 36.1846 60.9726 35.5773 59.9922 35.6064C59.9031 35.6226 59.8113 35.6146 59.7263 35.5833C59.6412 35.5521 59.5658 35.4986 59.5079 35.4283C59.45 35.3581 59.4116 35.2736 59.3967 35.1835C59.3817 35.0934 59.3907 35.0009 59.4228 34.9154C59.5021 34.5517 59.8373 34.5517 60.122 34.5517C60.659 34.5517 61.2033 34.5517 61.7331 34.5517L61.7295 34.5481Z" fill="#E9E7E6"/>
<path d="M103.312 11.1754C103.247 10.3281 103.745 9.05525 102.007 9.15707C101.921 9.15707 101.759 8.79341 101.733 8.58976C101.752 8.50896 101.792 8.43457 101.848 8.37397C101.905 8.31337 101.975 8.26866 102.054 8.24428C103.305 8.24428 104.577 8.21155 105.81 8.28792C106.149 8.3061 106.17 8.94615 105.983 8.97888C103.579 9.38254 104.819 11.2554 104.541 12.4991C104.455 12.9028 104.566 13.3683 103.932 13.3647C103.59 13.3647 103.359 13.2374 103.326 12.8701C103.311 12.6911 103.305 12.5115 103.308 12.3319C103.312 11.9718 103.312 11.6118 103.312 11.1754Z" fill="#F6F5F4"/>
<path d="M68.308 8.2043C68.845 8.2043 69.3893 8.2043 69.9191 8.2043C70.0382 8.18954 70.1583 8.2218 70.2543 8.29431C70.3504 8.36683 70.415 8.474 70.4345 8.59342C70.4778 8.86981 70.3336 9.14983 70.1209 9.14983C68.4017 9.14983 68.964 10.4299 68.8847 11.3318C68.8486 11.7464 68.8847 12.1682 68.8847 12.5865C68.8847 13.0047 68.8486 13.292 68.3549 13.3356C67.7638 13.3865 67.6665 13.0447 67.6737 12.5646C67.6737 11.7864 67.6737 11.0082 67.6737 10.2299C67.6737 9.75351 67.7241 9.23711 67.0069 9.21892C66.5996 9.21892 66.0445 9.26256 66.095 8.66252C66.1527 7.93519 66.8159 8.22612 67.2303 8.17885C67.5905 8.15857 67.9515 8.15857 68.3116 8.17885L68.308 8.2043Z" fill="#FCFBFA"/>
<path d="M81.6755 8.69879C81.4737 9.42611 80.8898 9.42611 80.3131 9.42611C79.7256 10.6771 80.4753 12.0736 79.8806 13.321C79.3363 13.4155 78.7993 13.5355 78.8354 12.6627C78.8642 12.0154 78.8354 11.3644 78.8354 10.7171C78.8354 10.0698 79.0588 9.28429 77.855 9.35338C77.2963 9.38611 76.7161 8.95699 77.3576 8.22239C78.8065 8.28785 80.3419 7.56052 81.6755 8.69879Z" fill="#FCFBFA"/>
<path d="M75.9376 10.8081C75.9376 11.339 75.9376 11.8736 75.9376 12.4082C75.9376 12.8809 75.9988 13.4119 75.26 13.3755C74.5211 13.3392 74.6076 12.8155 74.6076 12.3645C74.6076 11.299 74.6076 10.2298 74.6076 9.16066C74.6076 8.66608 74.6292 8.16786 75.3285 8.19332C76.0277 8.21878 75.952 8.757 75.9592 9.22249C75.9592 9.75707 75.9592 10.2917 75.9592 10.8262L75.9376 10.8081Z" fill="#DAD9D7"/>
<path d="M81.6757 8.69875C80.3097 7.86959 78.7707 8.58965 77.3506 8.21871C78.5796 7.68049 79.8736 8.02961 81.117 8.01142C81.2047 7.99887 81.294 8.00931 81.3765 8.04173C81.459 8.07416 81.5318 8.12747 81.588 8.19653C81.6441 8.26559 81.6817 8.34808 81.697 8.43605C81.7124 8.52401 81.705 8.61448 81.6757 8.69875Z" fill="#878583"/>
<path d="M79.8811 13.3174C80.1407 12.0337 79.4198 10.6372 80.3137 9.42261C80.0145 10.7027 80.7065 12.0955 79.8811 13.3174Z" fill="#878583"/>
<path fill-rule="evenodd" clip-rule="evenodd" d="M12.5985 15.6186C12.5943 16.4475 12.5899 17.316 12.5899 18.2451C12.6522 19.1102 12.625 20.0358 12.5966 20.9985C12.5397 22.9335 12.4783 25.018 13.1306 27.0603C14.8606 32.4389 18.7208 35.8137 23.6333 38.2575C26.1996 39.534 28.5387 39.5594 31.1626 38.3484C37.4088 35.4718 43.0314 29.8023 42.5088 21.2126C42.3898 19.2348 42.4208 17.2483 42.4518 15.2628C42.4659 14.3605 42.4799 13.4584 42.4799 12.5574C42.4763 9.44078 42.4115 9.28805 39.3803 9.44078C35.913 9.61171 32.5683 9.22259 29.3497 7.88067C28.3189 7.44791 27.1799 7.27698 26.1888 7.70611C22.3971 9.34987 18.4432 9.67353 14.3921 9.40805C13.127 9.32441 12.5611 9.94264 12.5899 11.2482C12.6134 12.6579 12.6063 14.0691 12.5985 15.6186ZM15.5258 17.1968C15.521 17.7172 15.5162 18.2377 15.5162 18.7577C14.7305 25.2564 16.7921 30.5004 22.422 34.0498C22.6998 34.225 22.9812 34.415 23.2664 34.6076C24.7096 35.5818 26.2536 36.6242 27.9509 36.1808C33.2816 34.788 39.3475 29.9658 39.5097 22.8707C39.5401 21.5232 39.5294 20.1733 39.5186 18.8232C39.5064 17.2912 39.4942 15.7591 39.5421 14.2301C39.5782 12.8264 39.0195 12.4663 37.74 12.5463C34.6368 12.7427 31.6885 11.9899 28.8051 10.9244C28.0295 10.5963 27.1604 10.5729 26.3686 10.8589C23.3194 12.0008 20.1837 12.7282 16.9219 12.5536C15.7866 12.4954 15.4802 13.0373 15.5162 14.0774C15.5451 15.115 15.5355 16.1559 15.5258 17.1968Z" fill="#F96406"/>
<path d="M83.1575 24.0744C82.5123 23.678 81.3914 24.5072 81.377 23.3471C81.377 22.6198 82.2672 22.2816 83.0313 22.2561C83.8855 22.2234 84.8334 22.598 84.801 23.4126C84.7685 24.5654 83.59 23.5144 83.1575 24.0744Z" fill="#2C2C2B"/>
<path d="M99.2104 24.0199C98.6193 23.7362 97.5885 24.4054 97.5524 23.4562C97.5236 22.6343 98.4427 22.2707 99.268 22.2452C100.093 22.2198 101.07 22.6453 101.023 23.4053C100.944 24.6054 99.7654 23.6381 99.2104 24.0199Z" fill="#30302D"/>
<path d="M113.267 24.0018C112.733 23.66 111.609 24.5255 111.612 23.3909C111.612 22.6126 112.546 22.2417 113.389 22.2781C114.233 22.3144 115.155 22.7108 115.062 23.5036C114.95 24.4164 113.894 23.7255 113.267 24.0018Z" fill="#2B2B2A"/>
<path d="M67.6587 25.5C68.0949 25.6673 69.0248 25.1363 68.9599 26.1182C68.9058 26.9765 68.1705 27.3983 67.2911 27.402C66.5703 27.402 65.8494 27.1765 65.9323 26.3473C66.0116 25.3327 66.9271 25.5545 67.6587 25.5Z" fill="#313131"/>
<path d="M129.713 24.58C129.875 23.0817 130.664 22.3034 131.987 22.4271C133.429 22.5616 133.988 23.6235 133.869 24.9727C133.75 26.3219 132.989 27.1293 131.63 27.002C130.16 26.8783 129.716 25.7801 129.713 24.58Z" fill="#2B2A28"/>
<path d="M67.486 35.5518C68.4087 35.6027 69.0863 35.9991 69.1331 37.0064C69.18 38.0974 68.5925 38.6502 67.5184 38.6865C66.4444 38.7229 65.9722 38.0356 65.9289 37.1519C65.8857 36.2682 66.4876 35.639 67.486 35.5518Z" fill="#2A2827"/>
<path d="M87.99 9.2334C89.3776 9.2334 89.9255 9.80799 89.9543 10.7717C89.9868 11.8845 89.2839 12.3936 88.2387 12.35C87.2583 12.31 86.7033 11.7281 86.7357 10.7317C86.7682 9.73525 87.3773 9.25158 87.99 9.2334Z" fill="#2C2A29"/>
<path d="M74.1503 35.6392C74.6802 35.6392 75.1631 35.7774 75.1739 36.3665C75.192 37.0684 74.6621 37.192 74.0638 37.2175C73.4655 37.2429 73.2132 36.9956 73.2168 36.381C73.2204 35.6974 73.6025 35.5846 74.1503 35.6392Z" fill="#282926"/>
</g>
<defs>
<clipPath id="clip0_419_7504">
<rect width="162" height="48" fill="white"/>
</clipPath>
</defs>
</svg>
