<svg width="204" height="50" viewBox="0 0 204 50" fill="none" xmlns="http://www.w3.org/2000/svg">
<path d="M37.6671 16.2584L14.9518 1.33039C10.1356 -1.40343 4.02549 0.287221 1.29391 5.10736C0.431302 6.61816 0 8.3088 0 10.0714V39.9275C0 45.4671 4.45679 49.9635 9.99184 49.9635C11.717 49.9635 13.4423 49.5318 14.9518 48.6685L37.703 33.7405C42.5192 31.0066 44.2085 24.8556 41.4769 20.0354C40.5784 18.4527 39.2485 17.1577 37.6671 16.2584ZM14.7362 40.1074C14.7362 42.8052 12.5797 44.9635 9.88401 44.9635C7.18837 44.9635 5.03186 42.8052 5.03186 40.1074V16.5462H10.4231C12.7953 16.5462 14.7362 18.4887 14.7362 20.8628V40.1074ZM9.88401 14.7477C7.18837 14.7477 5.03186 12.5894 5.03186 9.89154C5.03186 7.1937 7.18837 5.03542 9.88401 5.03542C12.5797 5.03542 14.7362 7.1937 14.7362 9.89154C14.7362 12.5894 12.5797 14.7477 9.88401 14.7477ZM26.2376 32.5534C26.2376 35.2512 24.081 37.4095 21.3854 37.4095C18.6898 37.4095 16.5333 35.2512 16.5333 32.5534V28.4167C16.5333 26.0426 18.4741 24.1002 20.8463 24.1002H26.2376V32.5534ZM21.3854 22.3016C18.6898 22.3016 16.5333 20.1433 16.5333 17.4455C16.5333 14.7477 18.6898 12.5894 21.3854 12.5894C24.081 12.5894 26.2376 14.7477 26.2376 17.4455C26.2376 20.1433 24.081 22.3016 21.3854 22.3016ZM32.8868 29.8556C30.1912 29.8556 28.0347 27.6973 28.0347 24.9995C28.0347 22.3016 30.1912 20.1433 32.8868 20.1433C35.5824 20.1433 37.739 22.3016 37.739 24.9995C37.739 27.6973 35.5824 29.8556 32.8868 29.8556Z" fill="#FCFCFC"/>
<path d="M74.0752 4.67731C75.8363 4.64134 77.5615 4.92911 79.2148 5.54062C80.6525 6.04422 81.9824 6.83559 83.1325 7.84278C84.2107 8.814 85.0374 10.037 85.6125 11.4039C86.2235 12.8428 86.511 14.3895 86.4751 15.9363C86.4751 17.2672 86.2954 18.5982 85.8641 19.8572C85.4687 21.0802 84.9296 22.2313 84.2467 23.3104C83.5278 24.4255 82.7371 25.4687 81.8386 26.4759C80.94 27.4831 79.9696 28.5262 78.9632 29.5694L71.4155 37.3392C72.3499 37.0514 73.3204 36.8356 74.2908 36.6917C75.1893 36.5118 76.0519 36.4399 76.9864 36.4399H84.2107C84.9655 36.4039 85.7203 36.6557 86.2954 37.1953C86.7986 37.6989 87.0861 38.3823 87.0502 39.1018V43.8859H59.9141V41.2241C59.9141 40.6485 60.0219 40.109 60.2375 39.5694C60.4891 38.9579 60.8486 38.4183 61.3517 37.9867L72.4937 26.7636C73.3563 25.9003 74.2189 24.9651 74.9737 24.0298C75.6206 23.2385 76.2317 22.3752 76.7348 21.4759C77.1661 20.6845 77.5256 19.8212 77.7772 18.9579C77.9928 18.0946 78.1366 17.1953 78.1366 16.26C78.1366 14.7133 77.7772 13.5262 77.0224 12.7349C76.3035 11.9075 75.1893 11.4759 73.6798 11.4759C73.1047 11.4759 72.5297 11.5478 71.9905 11.7277C71.4873 11.9075 71.0201 12.1234 70.6247 12.4471C70.2294 12.7349 69.87 13.0946 69.5465 13.5262C69.2589 13.9219 69.0433 14.3895 68.8636 14.8572C68.6839 15.5047 68.2885 16.1162 67.7853 16.5838C67.2821 16.9795 66.6711 17.1593 66.0242 17.1234C65.8445 17.1234 65.6648 17.1234 65.4491 17.0874C65.2694 17.0874 65.0537 17.0514 64.8381 17.0154L60.4891 16.26C60.7048 14.4975 61.2799 12.7708 62.1065 11.2241C62.8613 9.85717 63.9036 8.63415 65.0897 7.62695C66.3117 6.65573 67.7134 5.93631 69.1871 5.50465C70.7326 4.89314 72.4218 4.67731 74.0752 4.67731Z" fill="#FCFCFC"/>
<path d="M114.762 28.7774H118.752V33.4177C118.752 33.8134 118.608 34.209 118.32 34.4968C118.033 34.8205 117.602 34.9644 117.17 34.9644H114.798V43.8493H107.646V34.9285H92.1187C91.6155 34.9285 91.1124 34.7486 90.717 34.4608C90.3216 34.1731 90.07 33.7414 89.9622 33.2738L89.0996 29.209L106.963 5.14429H114.798V28.7774H114.762ZM107.61 18.6695C107.61 18.058 107.61 17.3745 107.646 16.6911C107.682 15.9716 107.753 15.2162 107.861 14.4608L97.6538 28.7774H107.61V18.6695Z" fill="#FCFCFC"/>
<path d="M148.943 12.9847C148.728 13.3444 148.44 13.6681 148.081 13.9559C147.757 14.1717 147.362 14.2796 146.967 14.2796C146.499 14.2796 146.032 14.1357 145.637 13.9199C145.17 13.6681 144.63 13.3444 144.055 13.0566C143.408 12.6969 142.725 12.4091 142.043 12.1933C141.216 11.9055 140.317 11.7976 139.455 11.7976C137.765 11.7976 136.508 12.1573 135.681 12.8767C134.854 13.5962 134.423 14.6753 134.459 15.7904C134.423 16.5098 134.71 17.1933 135.214 17.7329C135.789 18.3084 136.436 18.7401 137.154 19.0638C138.053 19.4595 138.987 19.8192 139.922 20.107C140.964 20.3947 142.043 20.7544 143.121 21.1501C144.199 21.5098 145.241 21.9775 146.284 22.4811C147.29 22.9847 148.225 23.6321 149.051 24.4595C149.878 25.2868 150.561 26.294 151.028 27.3731C151.567 28.6681 151.819 30.071 151.783 31.4739C151.783 33.2005 151.495 34.8911 150.848 36.5098C150.237 38.0566 149.339 39.4595 148.153 40.6106C146.895 41.7976 145.421 42.7329 143.804 43.3444C141.935 44.0278 139.958 44.3516 137.945 44.3156C136.723 44.3156 135.465 44.1717 134.243 43.9559C133.021 43.7041 131.799 43.3803 130.649 42.9127C129.499 42.4811 128.421 41.9055 127.378 41.294C126.408 40.7185 125.509 40.035 124.683 39.2077L127.342 34.999C127.558 34.6753 127.846 34.4235 128.169 34.2436C128.528 34.0638 128.924 33.9559 129.319 33.9559C129.894 33.9559 130.433 34.1357 130.901 34.4595C131.44 34.7832 132.051 35.1789 132.734 35.5746C133.488 36.0062 134.279 36.4019 135.106 36.6897C136.112 37.0494 137.154 37.2293 138.233 37.1933C139.85 37.1933 141.108 36.8336 142.007 36.1142C142.905 35.3947 143.372 34.2436 143.372 32.6969C143.408 31.9055 143.157 31.1142 142.618 30.5026C142.078 29.8911 141.396 29.4235 140.641 29.0998C139.742 28.7041 138.844 28.3803 137.909 28.1285C136.867 27.8408 135.825 27.553 134.746 27.1933C133.668 26.8336 132.626 26.4019 131.583 25.9343C130.577 25.4307 129.643 24.7472 128.816 23.9559C127.989 23.0566 127.306 22.0134 126.875 20.8624C126.336 19.3875 126.084 17.8408 126.12 16.294C126.12 14.8192 126.408 13.3803 126.983 12.0494C127.594 10.6465 128.457 9.38753 129.571 8.34437C130.757 7.22926 132.194 6.32998 133.74 5.75444C135.537 5.07099 137.442 4.74724 139.383 4.78322C140.533 4.78322 141.683 4.89113 142.833 5.07099C143.912 5.25084 144.99 5.50264 146.032 5.89832C147.003 6.22206 147.937 6.68969 148.836 7.19329C149.698 7.66091 150.489 8.23645 151.208 8.88393L148.943 12.9847Z" fill="#FCFCFC"/>
<path d="M182.836 29.5677L173.994 16.2583H181.901C182.333 16.2224 182.764 16.2943 183.159 16.5101C183.483 16.69 183.734 16.9418 183.914 17.2655L188.802 25.431C188.91 25.1073 189.054 24.7835 189.197 24.4958C189.341 24.208 189.521 23.8842 189.737 23.5245L193.223 17.3735C193.403 17.0137 193.654 16.726 193.978 16.5101C194.301 16.3303 194.661 16.2224 195.02 16.2583H202.568L193.726 29.208L202.963 43.8123H195.056C194.553 43.8483 194.05 43.7044 193.654 43.3806C193.295 43.0929 193.007 42.7691 192.792 42.3735L187.903 33.9202C187.832 34.208 187.724 34.4958 187.58 34.7835C187.472 35.0353 187.328 35.2871 187.185 35.5389L183.159 42.4094C182.944 42.8051 182.656 43.1288 182.297 43.4166C181.901 43.7044 181.434 43.8483 180.967 43.8483H173.599L182.836 29.5677Z" fill="#FCFCFC"/>
<path d="M164.074 15.8992C165.835 15.8992 167.237 17.302 167.237 19.0646V43.9567H162.025C160.264 43.9567 158.862 42.5538 158.862 40.7913V15.8992H164.074Z" fill="#FCFCFC"/>
<path d="M166.41 10.4676C166.625 9.96404 166.733 9.42447 166.733 8.84893C166.733 8.27339 166.625 7.73382 166.41 7.23023C166.194 6.72663 165.871 6.29497 165.511 5.89929C165.116 5.50361 164.649 5.21584 164.145 5.00001C163.642 4.78418 163.067 4.67627 162.528 4.67627C161.989 4.67627 161.45 4.78418 160.947 5.00001C160.443 5.21584 160.012 5.50361 159.653 5.89929C159.293 6.29497 158.97 6.72663 158.754 7.23023C158.538 7.73382 158.431 8.30936 158.431 8.84893C158.431 9.3885 158.538 9.96404 158.754 10.4676C158.97 10.9353 159.257 11.4029 159.653 11.7626C160.048 12.1223 160.479 12.4461 160.947 12.6619C161.45 12.8777 161.989 12.9856 162.528 12.9856C163.103 12.9856 163.642 12.8777 164.145 12.6619C164.649 12.4461 165.116 12.1583 165.511 11.7626C165.871 11.4029 166.194 10.9712 166.41 10.4676Z" fill="#FCFCFC"/>
</svg>
