<svg width="16" height="15" viewBox="0 0 16 15" fill="none" xmlns="http://www.w3.org/2000/svg">
<path d="M4.56525 0.0625H0.805632C0.360856 0.0625 0 0.419434 0 0.859375V4.57812C0 5.01973 0.360856 5.375 0.805632 5.375C1.25074 5.375 1.61126 5.01973 1.61126 4.57812V1.65625H4.56525C5.0117 1.65625 5.37088 1.29932 5.37088 0.859375C5.37088 0.419434 5.0117 0.0625 4.56525 0.0625ZM14.2328 0.0625H10.4732C10.0268 0.0625 9.66758 0.419434 9.66758 0.859375C9.66758 1.29965 10.0284 1.65625 10.4732 1.65625H13.4272V4.57812C13.4272 5.01973 13.7864 5.375 14.2328 5.375C14.6793 5.375 15.0385 5.01973 15.0385 4.57812V0.859375C15.0385 0.419434 14.6793 0.0625 14.2328 0.0625ZM4.56525 13.3438H1.61126V10.4219C1.61126 9.98027 1.25041 9.625 0.805632 9.625C0.360856 9.625 0 9.98027 0 10.4219V14.1406C0 14.5822 0.360856 14.9375 0.805632 14.9375H4.56525C5.0117 14.9375 5.37088 14.5822 5.37088 14.1406C5.37088 13.699 5.0117 13.3438 4.56525 13.3438ZM14.2328 9.625C13.7877 9.625 13.4272 9.98193 13.4272 10.4219V13.3438H10.4732C10.0281 13.3438 9.66758 13.7007 9.66758 14.1406C9.66758 14.5806 10.0268 14.9375 10.4732 14.9375H14.2328C14.6776 14.9375 15.0385 14.5806 15.0385 14.1406V10.4219C15.0385 9.98027 14.6793 9.625 14.2328 9.625Z" fill="black"/>
</svg>
